<?xml version="1.0" encoding="utf-8"?>
<!-- Generator: Adobe Illustrator 23.0.1, SVG Export Plug-In . SVG Version: 6.00 Build 0)  -->
<svg version="1.1" id="Layer_1" xmlns="http://www.w3.org/2000/svg" xmlns:xlink="http://www.w3.org/1999/xlink" x="0px" y="0px"
	 viewBox="0 0 275 179.8" style="enable-background:new 0 0 275 179.8;" xml:space="preserve">
<style type="text/css">
	.st0{clip-path:url(#SVGID_2_);}
	.st1{fill:#83A560;}
	.st2{fill:#638F38;}
	.st3{fill:#F28D1C;}
	.st4{fill:#BF6C15;}
	.st5{fill:#2D1E11;}
	.st6{fill:#594A34;}
</style>
<g>
	<g>
		<g>
			<g>
				<defs>
					<path id="SVGID_1_" d="M195.1,173.5C195.1,173.5,195.1,173.5,195.1,173.5c-16,6.1-32.5,4.5-41.6,2.7c-4.9,2.3-10,3.5-15.3,3.5
						c-5.3,0-10.4-1.2-15.3-3.5c-9,1.7-25.3,3.4-41.3-2.6h0c-17.5-0.2-39.2-4.1-55.6-19.1c-0.4-0.4-0.9-0.8-1.3-1.2
						c-0.2-0.2-0.4-0.4-0.7-0.6c-0.2-0.2-0.4-0.4-0.6-0.6c-0.4-0.4-0.9-0.9-1.3-1.4c-0.2-0.2-0.4-0.5-0.6-0.7
						c-0.4-0.5-0.8-0.9-1.2-1.4c-0.2-0.2-0.4-0.5-0.6-0.7c-0.2-0.2-0.4-0.5-0.6-0.7c-0.2-0.2-0.4-0.5-0.6-0.7c0,0-0.1-0.1-0.1-0.1
						c-0.2-0.2-0.4-0.5-0.5-0.7c-0.8-1-1.5-2.1-2.3-3.2c-0.2-0.3-0.4-0.6-0.6-0.8c-0.2-0.3-0.4-0.6-0.5-0.9
						c-0.4-0.6-0.7-1.2-1.1-1.8c-0.2-0.3-0.3-0.6-0.5-0.9s-0.3-0.6-0.5-0.9c-0.2-0.3-0.3-0.6-0.5-0.9s-0.3-0.6-0.5-1
						c-0.8-1.6-1.6-3.2-2.3-4.9c-0.1-0.3-0.3-0.7-0.4-1s-0.3-0.7-0.4-1c-0.1-0.3-0.3-0.7-0.4-1c0,0,0-0.1,0-0.1
						c-0.1-0.3-0.3-0.7-0.4-1c-0.1-0.4-0.3-0.7-0.4-1.1c-0.1-0.4-0.2-0.7-0.4-1.1c-0.1-0.4-0.2-0.8-0.4-1.1
						c-0.2-0.7-0.4-1.5-0.7-2.2c-0.2-0.8-0.5-1.6-0.7-2.5c-0.5-2-1-4.1-1.4-6.2c-0.1-0.4-0.2-0.9-0.2-1.3c-0.1-0.8-0.3-1.5-0.4-2.3
						c-0.2-1.1-0.3-2.2-0.5-3.4c-0.2-1.7-0.4-3.5-0.6-5.3c0-0.5-0.1-1-0.1-1.5c0-0.5-0.1-0.9-0.1-1.4c0-0.1,0-0.2,0-0.3
						c0-0.5-0.1-0.9-0.1-1.4c-0.1-2.5-0.2-5-0.3-7.6v-0.1c0-1.2,0-2.4,0-3.7c0.1-4.2,0.2-8.1,0.6-11.9c0.1-1.1,0.2-2.1,0.3-3.2
						c0.1-1.1,0.2-2.1,0.4-3.1s0.3-2,0.4-3c0.3-2,0.7-3.9,1.1-5.8c0.3-1.4,0.6-2.8,1-4.1c0.2-0.9,0.5-1.8,0.7-2.7
						c0.4-1.3,0.8-2.6,1.2-3.8c0.4-1.2,0.8-2.5,1.3-3.7c0.9-2.4,1.9-4.6,2.9-6.8c0.4-0.7,0.7-1.4,1.1-2.1c4.3-8.2,9.7-14.8,15.8-20
						c2.7,0.4,5.5,0.7,8.3,1c5.6,0.6,11.5,1.2,17.5,1.8c0,0,0,0,0,0c2.2,0.2,4.5,0.4,6.7,0.6C72,17.7,84,18.4,96.4,18.9c0,0,0,0,0,0
						c2.2,0.1,4.4,0.2,6.6,0.2c11.4,0.4,23.2,0.6,35.2,0.6c14.3,0,28.3-0.3,41.8-0.8c14.9-0.6,29.1-1.5,42.5-2.8
						c8.6-0.8,16.9-1.7,24.7-2.7c0.4,0,0.8-0.1,1.1-0.1c0,0,0,0,0,0c0.5,0.4,1,0.9,1.5,1.3c0.3,0.3,0.6,0.5,0.9,0.8
						c0.6,0.6,1.2,1.1,1.8,1.7c0.5,0.5,1.1,1.1,1.6,1.7c0,0,0.1,0.1,0.1,0.1c12.2,13.4,20.4,33.9,20.8,64.5
						C275.8,156.7,229.3,172.1,195.1,173.5z"/>
				</defs>
				<clipPath id="SVGID_2_">
					<use xlink:href="#SVGID_1_"  style="overflow:visible;"/>
				</clipPath>
				<g class="st0">
					<g>
						<path class="st1" d="M149.6-5.4h-27.2c0,0,1.2-27.3,18-41.4c0.8,0.5,1.5,1,2.3,1.4c10.4,6.6,10.4,6.6,10.4,6.6
							S144.4-23.1,149.6-5.4z"/>
						<path class="st2" d="M149.6-5.4h-23.3c0,0,1.2-25.5,16.4-40c10.4,6.6,10.4,6.6,10.4,6.6S144.4-23.1,149.6-5.4z"/>
					</g>
					<path class="st3" d="M195.1,173.5C195.1,173.5,195.1,173.5,195.1,173.5c-15.1,0.6-27.8-1.4-33.1-2.5c-1.6-0.3-2.6-0.5-2.6-0.5
						h-47.7c0,0-13,3.3-30.1,3.1h0c-17.5-0.2-39.2-4.1-55.6-19.1c0,0,0,0,0,0c-0.4-0.4-0.9-0.8-1.3-1.2c-0.2-0.2-0.4-0.4-0.7-0.6
						c-0.2-0.2-0.4-0.4-0.6-0.6c-0.4-0.4-0.9-0.9-1.3-1.4c-0.2-0.2-0.4-0.5-0.6-0.7c-0.4-0.5-0.8-0.9-1.2-1.4
						c-0.2-0.2-0.4-0.5-0.6-0.7c-0.2-0.2-0.4-0.5-0.6-0.7c-0.2-0.2-0.4-0.5-0.6-0.7c0,0-0.1-0.1-0.1-0.1c-0.2-0.2-0.4-0.5-0.5-0.7
						c-0.8-1-1.5-2.1-2.3-3.2c-0.2-0.3-0.4-0.6-0.6-0.8c-0.2-0.3-0.4-0.6-0.5-0.9c-0.4-0.6-0.7-1.2-1.1-1.8
						c-0.2-0.3-0.3-0.6-0.5-0.9s-0.3-0.6-0.5-0.9c-0.2-0.3-0.3-0.6-0.5-0.9s-0.3-0.6-0.5-1c-0.8-1.6-1.6-3.2-2.3-4.9
						c-0.1-0.3-0.3-0.7-0.4-1s-0.3-0.7-0.4-1c-0.1-0.3-0.3-0.7-0.4-1c0,0,0-0.1,0-0.1c-0.1-0.3-0.3-0.7-0.4-1
						c-0.1-0.4-0.3-0.7-0.4-1.1c-0.1-0.4-0.2-0.7-0.4-1.1c-0.1-0.4-0.2-0.8-0.4-1.1c-0.2-0.7-0.4-1.5-0.7-2.2
						c-0.2-0.8-0.5-1.6-0.7-2.5c-0.5-2-1-4.1-1.4-6.2c-0.1-0.4-0.2-0.9-0.2-1.3c-0.1-0.8-0.3-1.5-0.4-2.3c-0.2-1.1-0.3-2.2-0.5-3.4
						c-0.2-1.7-0.4-3.5-0.6-5.3c0-0.5-0.1-1-0.1-1.5c0-0.5-0.1-0.9-0.1-1.4c0-0.1,0-0.2,0-0.3c0-0.5-0.1-0.9-0.1-1.4
						c-0.1-2.5-0.2-5-0.3-7.6v-0.1c0-1.2,0-2.4,0-3.7c0.1-4.2,0.2-8.1,0.6-11.9c0.1-1.1,0.2-2.1,0.3-3.2c0.1-1.1,0.2-2.1,0.4-3.1
						s0.3-2,0.4-3c0.3-2,0.7-3.9,1.1-5.8c0.3-1.4,0.6-2.8,1-4.1c0.2-0.9,0.5-1.8,0.7-2.7c0.4-1.3,0.8-2.6,1.2-3.8
						c0.4-1.2,0.8-2.5,1.3-3.7c0.9-2.4,1.9-4.6,2.9-6.8c0.4-0.7,0.7-1.4,1.1-2.1c4.3-8.2,9.7-14.8,15.8-20C42.5,1,61-3.7,78.7-5
						c0,0,0,0,0,0c8-0.6,15.8-0.5,23-0.1c5.1,0.3,9.8,0.7,14.1,1.2h0c3.4,0.4,6.5,0.8,9.3,1.1c4.2,0.5,7.6,0.9,9.7,0.9h6.9
						c2.4,0,6.1-0.5,10.9-1c1.8-0.2,3.7-0.5,5.7-0.7c0.8-0.1,1.6-0.2,2.4-0.3h0c5.5-0.6,11.9-1.2,18.7-1.4h0
						c2.8-0.1,5.7-0.1,8.6-0.1c0.3,0,0.6,0,0.9,0c0.3,0,0.6,0,0.9,0c0.3,0,0.6,0,0.9,0c0.9,0,1.7,0,2.5,0.1c0.2,0,0.4,0,0.6,0
						c0.4,0,0.8,0,1.1,0.1c0.8,0,1.5,0.1,2.3,0.1c0.1,0,0.3,0,0.4,0c0.2,0,0.4,0,0.6,0c0.9,0.1,1.9,0.1,2.8,0.2
						c0.3,0,0.6,0.1,0.9,0.1c0.3,0,0.6,0.1,1,0.1c0.3,0,0.7,0.1,1,0.1c3.6,0.4,7.1,1,10.7,1.8c0.5,0.1,1.1,0.2,1.6,0.4
						c0.1,0,0.2,0,0.3,0.1c0.3,0.1,0.7,0.2,1,0.2c0.8,0.2,1.5,0.4,2.2,0.6c0.4,0.1,0.8,0.2,1.1,0.3c0.8,0.2,1.6,0.5,2.3,0.7
						c0.3,0.1,0.7,0.2,1,0.3c1.5,0.5,2.9,1,4.4,1.6c0.4,0.1,0.7,0.3,1.1,0.4c0.4,0.2,0.8,0.3,1.1,0.5c0.3,0.1,0.7,0.3,1,0.5
						c0.8,0.3,1.5,0.7,2.3,1.1c0.3,0.1,0.6,0.3,0.9,0.5c0.3,0.2,0.7,0.3,1,0.5c0.7,0.4,1.4,0.8,2.1,1.2c0.3,0.2,0.7,0.4,1,0.6
						c0.3,0.2,0.7,0.4,1,0.6s0.7,0.4,1,0.6s0.7,0.4,1,0.6s0.7,0.5,1,0.7c0.3,0.2,0.6,0.5,1,0.7c0.3,0.2,0.6,0.5,1,0.7s0.6,0.5,1,0.7
						c0.3,0.2,0.6,0.5,1,0.8c0.3,0.3,0.6,0.5,0.9,0.8c0.1,0.1,0.2,0.2,0.3,0.3c0.5,0.4,1,0.9,1.5,1.3c0.3,0.3,0.6,0.5,0.9,0.8
						c0.6,0.6,1.2,1.1,1.8,1.7c0.5,0.5,1,1.1,1.6,1.7c0,0,0.1,0.1,0.1,0.1c0,0,0,0,0,0c12.2,13.4,20.5,33.9,20.8,64.6
						C275.8,156.7,229.3,172.1,195.1,173.5z"/>
					<path class="st4" d="M254.2,19c-2.2-2-4.6-3.9-7-5.5C235,5.1,220.6,1.2,206.5-0.3h0c-1.5-0.2-3.1-0.3-4.6-0.4
						c-13.2-1-26,0-36.3,1c-0.3,0-0.6,0.1-0.8,0.1c-8.7,1-15.4,2-19,2H139c-3.6,0-10.3-1-19-2c-2.7-0.3-5.5-0.6-8.5-0.8c0,0,0,0,0,0
						C102.8-1.2,93-1.5,82.9-0.8c-5.1,0.4-10.3,1-15.5,2.1c0,0,0,0,0,0c-10.9,2.2-21.7,6.3-31,13C18.8,27,6,49.4,5.6,87.8
						C5.2,120,13.6,141,26,154.6c-0.4-0.4-0.9-0.8-1.3-1.2c-0.2-0.2-0.4-0.4-0.7-0.6c-0.2-0.2-0.4-0.4-0.6-0.6
						c-0.4-0.4-0.9-0.9-1.3-1.4c-0.2-0.2-0.4-0.5-0.6-0.7c-0.4-0.5-0.8-0.9-1.2-1.4c-0.2-0.2-0.4-0.5-0.6-0.7
						c-0.2-0.2-0.4-0.5-0.6-0.7c-0.2-0.2-0.4-0.5-0.6-0.7c0,0-0.1-0.1-0.1-0.1c-0.2-0.2-0.4-0.5-0.5-0.7c-0.8-1-1.5-2.1-2.3-3.2
						c-0.2-0.3-0.4-0.6-0.6-0.8c-0.2-0.3-0.4-0.6-0.5-0.9c-0.4-0.6-0.7-1.2-1.1-1.8c-0.2-0.3-0.3-0.6-0.5-0.9s-0.3-0.6-0.5-0.9
						c-0.2-0.3-0.3-0.6-0.5-0.9s-0.3-0.6-0.5-1c-0.8-1.6-1.6-3.2-2.3-4.9c-0.1-0.3-0.3-0.7-0.4-1s-0.3-0.7-0.4-1
						c-0.1-0.3-0.3-0.7-0.4-1c0,0,0-0.1,0-0.1c-0.1-0.3-0.3-0.7-0.4-1c-0.1-0.4-0.3-0.7-0.4-1.1c-0.1-0.4-0.2-0.7-0.4-1.1
						c-0.1-0.4-0.2-0.8-0.4-1.1c-0.2-0.7-0.4-1.5-0.7-2.2c-0.2-0.8-0.5-1.6-0.7-2.5c-0.5-2-1-4.1-1.4-6.2c-0.1-0.4-0.2-0.9-0.2-1.3
						c-0.1-0.8-0.3-1.5-0.4-2.3c-0.2-1.1-0.3-2.2-0.5-3.4c-0.2-1.7-0.4-3.5-0.6-5.3c0-0.5-0.1-1-0.1-1.5c0-0.5-0.1-0.9-0.1-1.4
						c0-0.1,0-0.2,0-0.3c0-0.5-0.1-0.9-0.1-1.4c-0.1-2.5-0.2-5-0.3-7.6v-0.1c0-1.2,0-2.4,0-3.7c0.1-4.2,0.2-8.1,0.6-11.9
						c0.1-1.1,0.2-2.1,0.3-3.2c0.1-1.1,0.2-2.1,0.4-3.1s0.3-2,0.4-3c0.3-2,0.7-3.9,1.1-5.8c0.3-1.4,0.6-2.8,1-4.1
						c0.2-0.9,0.5-1.8,0.7-2.7c0.4-1.3,0.8-2.6,1.2-3.8c0.4-1.2,0.8-2.5,1.3-3.7c0.9-2.4,1.9-4.6,2.9-6.8c0.4-0.7,0.7-1.4,1.1-2.1
						c4.3-8.2,9.7-14.8,15.8-20C42.5,1,61-3.7,78.7-5c0,0,0,0,0,0c8-0.6,15.8-0.5,23-0.1c5,0.3,9.8,0.7,14.1,1.2h0
						c3.4,0.4,6.5,0.8,9.3,1.1c4.2,0.5,7.6,0.9,9.7,0.9h6.9c2.4,0,6.1-0.5,10.9-1c1.8-0.2,3.7-0.5,5.7-0.7c0.8-0.1,1.6-0.2,2.4-0.3
						h0c5.5-0.6,11.9-1.2,18.7-1.4h0c2.8-0.1,5.7-0.1,8.6-0.1c0.3,0,0.6,0,0.9,0c0.3,0,0.6,0,0.9,0c0.3,0,0.6,0,0.9,0
						c0.9,0,1.7,0,2.5,0.1c0.2,0,0.4,0,0.6,0c0.4,0,0.8,0,1.1,0.1c0.8,0,1.5,0.1,2.3,0.1c0.1,0,0.3,0,0.4,0c0.2,0,0.4,0,0.6,0
						c0.9,0.1,1.9,0.1,2.8,0.2c0.3,0,0.6,0.1,0.9,0.1c0.3,0,0.6,0.1,1,0.1c0.3,0,0.7,0.1,1,0.1c3.6,0.4,7.1,1,10.7,1.8
						c0.5,0.1,1.1,0.2,1.6,0.4c0.1,0,0.2,0,0.3,0.1c0.3,0.1,0.7,0.2,1,0.2c0.8,0.2,1.5,0.4,2.2,0.6c0.4,0.1,0.8,0.2,1.1,0.3
						c0.8,0.2,1.6,0.5,2.3,0.7c0.3,0.1,0.7,0.2,1,0.3c1.5,0.5,2.9,1,4.4,1.6c0.4,0.1,0.7,0.3,1.1,0.4c0.4,0.2,0.8,0.3,1.1,0.5
						c0.3,0.1,0.7,0.3,1,0.5c0.8,0.3,1.5,0.7,2.3,1.1c0.3,0.1,0.6,0.3,0.9,0.5c0.3,0.2,0.7,0.3,1,0.5c0.7,0.4,1.4,0.8,2.1,1.2
						c0.3,0.2,0.7,0.4,1,0.6c0.3,0.2,0.7,0.4,1,0.6s0.7,0.4,1,0.6s0.7,0.4,1,0.6s0.7,0.5,1,0.7c0.3,0.2,0.6,0.5,1,0.7
						c0.3,0.2,0.6,0.5,1,0.7s0.6,0.5,1,0.7c0.3,0.2,0.6,0.5,1,0.8c0.3,0.3,0.6,0.5,0.9,0.8c0.1,0.1,0.2,0.2,0.3,0.3c0,0,0,0,0,0
						c0.5,0.4,1,0.9,1.5,1.3c0.3,0.3,0.6,0.5,0.9,0.8c0.6,0.6,1.2,1.1,1.8,1.7C253,17.8,253.6,18.4,254.2,19z"/>
					<g>
						<g>
							<path class="st3" d="M195.1,173.5C195.1,173.5,195.1,173.5,195.1,173.5c-16,6.1-32.5,4.5-41.6,2.7c-4.4-0.8-7-1.7-7-1.7
								h-16.7c0,0-2.6,0.9-7,1.7c-9,1.7-25.3,3.4-41.3-2.6h0c-6.1-2.3-12.2-5.8-17.7-10.7c0,0,0,0,0,0c-0.1,0-0.1-0.1-0.1-0.1
								c-0.1-0.1-0.2-0.2-0.3-0.2c-0.2-0.2-0.4-0.3-0.5-0.5c-0.2-0.2-0.4-0.4-0.6-0.6c-0.2-0.2-0.4-0.4-0.6-0.6
								c-0.7-0.7-1.3-1.4-2-2.1c-0.2-0.2-0.3-0.4-0.5-0.5c-0.2-0.2-0.3-0.4-0.5-0.6c-0.2-0.2-0.4-0.5-0.6-0.7
								c-1.2-1.5-2.4-3-3.5-4.7c-0.2-0.3-0.4-0.5-0.6-0.8c-2-3.1-3.9-6.5-5.6-10.2c-0.2-0.3-0.3-0.7-0.5-1c-0.2-0.4-0.4-0.9-0.6-1.3
								c-0.1-0.3-0.2-0.5-0.3-0.8c-0.4-1-0.8-2-1.2-3.1c-0.1-0.4-0.3-0.8-0.4-1.2c-0.6-1.8-1.2-3.6-1.7-5.5c-0.2-0.7-0.4-1.3-0.6-2
								c-0.4-1.7-0.9-3.5-1.2-5.3c-0.1-0.4-0.2-0.9-0.3-1.3c-0.1-0.6-0.2-1.2-0.4-1.8c-0.1-0.5-0.2-1-0.3-1.5
								c-0.2-0.9-0.3-1.8-0.4-2.7c-0.1-0.4-0.1-0.8-0.2-1.2c-0.2-1.5-0.4-3.1-0.6-4.7c-0.1-0.5-0.1-0.9-0.1-1.4c0-0.3-0.1-0.7-0.1-1
								c0-0.4-0.1-0.8-0.1-1.2c0-0.4-0.1-0.7-0.1-1.1c-0.1-0.5-0.1-1.1-0.1-1.6c-0.1-1-0.1-2-0.2-3c0-0.5-0.1-1.1-0.1-1.6
								c0-0.6-0.1-1.2-0.1-1.8s-0.1-1.2-0.1-1.8c-0.1-3.1-0.1-6.2-0.1-9.5c0.1-14.3,1.4-26.5,3.6-36.9c0.4-1.7,0.7-3.3,1.1-4.9
								c0.5-1.9,1-3.8,1.6-5.6c0.2-0.7,0.4-1.3,0.6-2c2.3-7.1,5.2-13.1,8.4-18.2c0,0,0,0,0,0c2.3-3.7,4.9-6.9,7.6-9.6
								C61.6,6.4,61.8,6.2,62,6c0.3-0.3,0.6-0.6,0.9-0.9c0.2-0.2,0.4-0.4,0.6-0.5c0.7-0.7,1.5-1.3,2.2-1.9c0.6-0.4,1.1-0.9,1.6-1.3
								c0.3-0.2,0.6-0.5,0.9-0.7c0.4-0.3,0.9-0.6,1.3-0.9c0,0,0,0,0,0c0.4-0.3,0.9-0.6,1.3-0.8c0,0,0,0,0,0c0.6-0.4,1.2-0.7,1.8-1
								c0.4-0.2,0.8-0.4,1.1-0.6c0.4-0.2,0.7-0.4,1.1-0.6c1.2-0.6,2.4-1.2,3.7-1.7c0,0,0,0,0,0c1.6-0.6,3.2-1.2,4.8-1.7
								c1.3-0.4,2.7-0.8,4-1.1c0,0,0,0,0,0c0.6-0.1,1.2-0.3,1.9-0.4c0.4-0.1,0.7-0.1,1.1-0.2c2.1-0.4,4.1-0.6,6.1-0.8
								c0.1,0,0.1,0,0.1,0c9.5-0.9,18.6,0.1,26,1.2c0,0,0.1,0,0.1,0c1.3,0.2,2.5,0.4,3.7,0.6c2.9,0.5,5.5,0.9,7.5,1.2
								c1.2,0.2,2.3,0.3,3.1,0.3h2.2c1.8,0,4.5-0.4,7.8-1h0c0.6-0.1,1.3-0.2,2-0.3c1.4-0.2,2.9-0.5,4.5-0.7c0,0,0,0,0,0
								c6.9-1,15.2-2,24.1-1.4c0.3,0,0.6,0,0.9,0.1c0.2,0,0.5,0,0.7,0.1s0.5,0,0.7,0.1c0.2,0,0.5,0,0.7,0.1c0.2,0,0.5,0,0.7,0.1
								s0.5,0.1,0.7,0.1c0.2,0,0.5,0.1,0.7,0.1c0.2,0,0.5,0.1,0.7,0.1c0.3,0,0.5,0.1,0.8,0.1c0.5,0.1,0.9,0.1,1.4,0.2
								c0.5,0.1,1,0.2,1.5,0.3c0.2,0,0.5,0.1,0.7,0.1c0.5,0.1,1,0.2,1.5,0.3c0.2,0,0.5,0.1,0.7,0.2c0.5,0.1,1,0.3,1.5,0.4
								c0.2,0.1,0.4,0.1,0.6,0.2c1.8,0.5,3.7,1.2,5.5,1.9c0,0,0,0,0,0c0.8,0.3,1.5,0.6,2.3,1c0.2,0.1,0.5,0.2,0.7,0.3
								c2,1,3.9,2,5.8,3.3h0c0.6,0.4,1.3,0.9,1.9,1.3c0.2,0.1,0.4,0.3,0.6,0.4c0.2,0.2,0.4,0.3,0.7,0.5c0.7,0.5,1.3,1,2,1.6
								c0.2,0.2,0.4,0.3,0.6,0.5c0.1,0.1,0.2,0.2,0.3,0.3c0.2,0.2,0.4,0.3,0.5,0.5c0.2,0.2,0.4,0.4,0.6,0.6c0.2,0.2,0.3,0.3,0.5,0.5
								c0.2,0.2,0.4,0.4,0.6,0.6c0.2,0.2,0.4,0.4,0.6,0.6c0.4,0.4,0.8,0.9,1.2,1.3c0,0,0,0,0,0c2,2.3,4,4.9,5.8,7.7
								c9,14.1,15,35.5,15.3,67.6C238.2,141.9,217.1,165.1,195.1,173.5z"/>
						</g>
					</g>
					<g>
						<g>
							<path class="st4" d="M216.6,8.4c-25.8-23-63.4-10.2-73.1-10.2h-2.2c-15.2,0-97.4-31.1-98.4,89.7c-0.3,38.1,8.6,61.2,21,75
								C49.3,149.8,38.2,126,38.6,83.7C39.6-37,121.9-6,137.1-6h2.2C149.6-6,190.9-20.3,216.6,8.4z"/>
						</g>
					</g>
					<path class="st3" d="M195.3,84.1c0,9.2-0.8,18.1-2.2,26.6c-2.2,12.8-6,24.5-10.9,34.4c-1,2.1-2.1,4.1-3.2,6
						c-4.8,8.2-10.6,15-16.9,19.9c-2.7,2.1-5.6,3.8-8.5,5.2c-4.9,2.3-10,3.5-15.3,3.5c-5.3,0-10.4-1.2-15.3-3.5
						c-3.2-1.5-6.3-3.4-9.2-5.8c-0.9-0.7-1.8-1.5-2.6-2.2c0,0-0.1,0-0.1-0.1c-0.4-0.4-0.8-0.7-1.2-1.1c-0.8-0.8-1.6-1.6-2.4-2.4
						c-0.2-0.2-0.4-0.4-0.6-0.6c-0.6-0.6-1.2-1.3-1.7-2c-0.2-0.2-0.3-0.4-0.5-0.6c-0.4-0.5-0.7-0.9-1.1-1.4
						c-0.2-0.2-0.4-0.5-0.5-0.7c-0.4-0.5-0.7-1-1.1-1.4c-0.2-0.2-0.3-0.5-0.5-0.7c-0.7-1-1.4-2-2.1-3.1c-0.2-0.3-0.3-0.5-0.5-0.8
						c-0.4-0.6-0.7-1.1-1-1.7c-0.1-0.2-0.2-0.3-0.3-0.5c-0.2-0.3-0.3-0.5-0.5-0.8c-0.1-0.1-0.2-0.3-0.3-0.5
						c-0.3-0.5-0.5-0.9-0.8-1.4c-0.2-0.4-0.4-0.8-0.6-1.2c-0.1-0.2-0.2-0.5-0.4-0.7c-0.1-0.1-0.1-0.2-0.2-0.4
						c-0.2-0.4-0.4-0.7-0.6-1.1c0,0,0,0,0,0c0-0.1-0.1-0.1-0.1-0.2c-0.2-0.5-0.5-1-0.7-1.5c-0.1-0.2-0.2-0.3-0.2-0.5
						c-0.2-0.5-0.5-1.1-0.7-1.6c-0.3-0.6-0.5-1.2-0.8-1.8c0,0,0-0.1-0.1-0.1c-0.2-0.5-0.4-1.1-0.7-1.6c-0.3-0.8-0.6-1.5-0.9-2.3
						c-0.2-0.5-0.4-0.9-0.5-1.4c-0.7-1.9-1.4-3.9-2-5.9c-0.1-0.4-0.2-0.7-0.3-1.1c-0.4-1.4-0.8-2.7-1.2-4.1
						c-0.1-0.5-0.2-0.9-0.4-1.4c-0.2-0.7-0.4-1.4-0.5-2.1c-0.1-0.5-0.2-0.9-0.3-1.4c-0.1-0.4-0.2-0.9-0.3-1.3
						c-0.1-0.4-0.2-0.8-0.2-1.2c0,0,0,0,0,0c-0.2-0.8-0.3-1.7-0.5-2.5c-0.1-0.4-0.1-0.7-0.2-1.1c-0.3-1.5-0.5-2.9-0.7-4.4
						c-0.1-0.5-0.2-1-0.2-1.5c0-0.2-0.1-0.4-0.1-0.6c-0.1-0.7-0.2-1.4-0.3-2c0-0.1,0-0.1,0-0.2c-0.1-0.7-0.2-1.5-0.2-2.2
						c-0.1-0.6-0.1-1.2-0.2-1.9c0-0.1,0-0.1,0-0.2c0-0.3-0.1-0.6-0.1-1c0-0.3-0.1-0.7-0.1-1c0-0.4-0.1-0.7-0.1-1.1v0
						c-0.1-0.7-0.1-1.3-0.1-2c-0.1-0.8-0.1-1.6-0.1-2.4c0-0.8-0.1-1.5-0.1-2.3c0-0.2,0-0.3,0-0.5c0-0.5,0-1.1,0-1.6
						c0-0.4,0-0.8,0-1.2c0-0.6,0-1.2,0-1.8c0-10.9,1.1-21.4,3.1-31.2c0.2-0.9,0.4-1.9,0.6-2.8c1.4-6,3.1-11.7,5.1-17.1
						c0.6-1.5,1.1-2.9,1.7-4.3c1.1-2.5,2.2-4.9,3.4-7.2c0.5-0.9,0.9-1.8,1.4-2.6c3.6-6.4,7.6-12,12.1-16.6c0.2-0.2,0.4-0.4,0.6-0.6
						c0.8-0.8,1.5-1.5,2.3-2.2c0,0,0,0,0,0c0,0,0,0,0.1-0.1c1.2-1.1,2.5-2.1,3.8-3c0.1-0.1,0.3-0.2,0.5-0.3c0.5-0.4,1-0.7,1.6-1.1
						c0,0,0,0,0,0c1.7-1.1,3.5-2.1,5.2-3c0,0,0.1,0,0.1,0v0c0,0,0.1,0,0.1-0.1c0,0,0,0,0,0c0,0,0,0,0,0c1.3-0.6,2.6-1.1,3.9-1.6
						c3.7-1.3,7.5-1.9,11.5-1.9c0.4,0,0.7,0,1.1,0c0.4,0,0.7,0,1.1,0c0.4,0,0.7,0,1.1,0.1c0.3,0,0.7,0.1,1,0.1c0,0,0.1,0,0.1,0
						c0.3,0,0.6,0.1,1,0.1c0.4,0,0.7,0.1,1,0.2c0.4,0.1,0.7,0.1,1,0.2c0.3,0.1,0.7,0.1,1,0.2c0.4,0.1,0.8,0.2,1.2,0.3
						c0.2,0.1,0.5,0.1,0.7,0.2c0.4,0.1,0.8,0.3,1.2,0.4c0.3,0.1,0.6,0.2,1,0.3c0.1,0,0.2,0.1,0.3,0.1c0.2,0.1,0.5,0.2,0.7,0.3
						c0.3,0.1,0.7,0.3,1,0.4c0.2,0.1,0.5,0.2,0.8,0.3c0,0,0,0,0,0c0.4,0.2,0.8,0.4,1.2,0.6c0.3,0.2,0.7,0.3,1,0.5
						c0.3,0.2,0.6,0.4,1,0.5c0.3,0.2,0.6,0.4,1,0.6c0,0,0,0,0.1,0c0.3,0.2,0.6,0.4,0.9,0.5c0.3,0.2,0.6,0.4,1,0.6
						c0.2,0.1,0.4,0.3,0.6,0.4h0c0.1,0.1,0.2,0.2,0.3,0.2c0,0,0,0,0,0h0c0.3,0.2,0.6,0.5,0.9,0.7c0.3,0.2,0.6,0.5,0.9,0.7
						c0.3,0.2,0.6,0.5,0.9,0.7c0.1,0.1,0.2,0.1,0.3,0.2c0.5,0.5,1.1,0.9,1.6,1.4c0.2,0.1,0.3,0.3,0.5,0.5c0.1,0.1,0.3,0.2,0.4,0.4
						c0.6,0.5,1.2,1.1,1.8,1.7c0.6,0.6,1.1,1.2,1.7,1.8c3.8,4.2,7.3,9.2,10.4,14.7c2.2,4,4.3,8.3,6.1,13c2.1,5.3,3.8,10.9,5.2,16.9
						c0.2,0.9,0.4,1.8,0.6,2.8C194.1,61.7,195.3,72.7,195.3,84.1z"/>
					<path class="st4" d="M169.5,4.2c-8.1-7.3-17.3-11.4-27.1-11.4c-31.5,0-57.1,42.8-57.1,95.6c0,33.5,10.2,62.9,25.8,80
						c-17.9-16.2-30-47.8-30-84.2c0-52.8,25.6-95.6,57.1-95.6C149.7-11.5,160.5-5.7,169.5,4.2z"/>
					<g>
						<path class="st4" d="M22.2,19c2.2-2,4.6-3.9,7-5.5C41.4,5.1,55.7,1.2,69.8-0.3h0c1.5-0.2,3.1-0.3,4.6-0.4c13.2-1,26,0,36.3,1
							c0.3,0,0.6,0.1,0.8,0.1c8.7,1,15.4,2,19,2h6.8c3.6,0,10.3-1,19-2c2.7-0.3,5.5-0.6,8.5-0.8c0,0,0,0,0,0
							c8.6-0.7,18.5-1.1,28.6-0.3c5.1,0.4,10.3,1,15.5,2.1c0,0,0,0,0,0c11,2.2,21.7,6.3,31,13c17.6,12.7,30.3,35,30.8,73.4
							c0.4,32.2-8,53.2-20.3,66.8c0.5-0.4,0.9-0.8,1.3-1.2c0.2-0.2,0.4-0.4,0.7-0.6c0.2-0.2,0.4-0.4,0.6-0.6
							c0.4-0.4,0.9-0.9,1.3-1.4c0.2-0.2,0.4-0.5,0.6-0.7c0.4-0.5,0.8-0.9,1.2-1.4c0.2-0.2,0.4-0.5,0.6-0.7c0.2-0.2,0.4-0.5,0.6-0.7
							c0.2-0.2,0.4-0.5,0.6-0.7c0,0,0.1-0.1,0.1-0.1c0.2-0.2,0.4-0.5,0.5-0.7c0.8-1,1.5-2.1,2.3-3.2c0.2-0.3,0.4-0.6,0.5-0.8
							s0.4-0.6,0.5-0.9c0.4-0.6,0.7-1.2,1-1.8c0.2-0.3,0.3-0.6,0.5-0.9s0.3-0.6,0.5-0.9c0.2-0.3,0.3-0.6,0.5-0.9s0.3-0.6,0.5-1
							c0.8-1.6,1.6-3.2,2.3-4.9c0.1-0.3,0.3-0.7,0.4-1s0.3-0.7,0.4-1c0.1-0.3,0.3-0.7,0.4-1c0,0,0-0.1,0-0.1c0.1-0.3,0.3-0.7,0.4-1
							c0.1-0.4,0.3-0.7,0.4-1.1c0.1-0.4,0.2-0.7,0.4-1.1c0.1-0.4,0.2-0.8,0.4-1.1c0.2-0.7,0.4-1.5,0.7-2.2c0.2-0.8,0.5-1.6,0.7-2.5
							c0.5-2,1-4.1,1.4-6.2c0.1-0.4,0.2-0.9,0.2-1.3c0.1-0.8,0.3-1.5,0.4-2.3c0.2-1.1,0.3-2.2,0.5-3.4c0.2-1.7,0.4-3.5,0.6-5.3
							c0-0.5,0.1-1,0.1-1.5c0-0.5,0.1-0.9,0.1-1.4c0-0.1,0-0.2,0-0.3c0-0.5,0.1-0.9,0.1-1.4c0.1-2.5,0.2-5,0.3-7.6v-0.1
							c0-1.2,0-2.4,0-3.7c0-4.2-0.2-8.1-0.6-11.9c-0.1-1.1-0.2-2.1-0.3-3.2c-0.1-1.1-0.2-2.1-0.4-3.1s-0.3-2-0.4-3
							c-0.3-2-0.7-3.9-1.1-5.8c-0.3-1.4-0.6-2.8-1-4.1c-0.2-0.9-0.5-1.8-0.7-2.7c-0.4-1.3-0.8-2.6-1.2-3.8c-0.4-1.2-0.8-2.5-1.3-3.7
							c-0.9-2.4-1.9-4.6-2.9-6.8c-0.4-0.7-0.7-1.4-1.1-2.1c-4.3-8.2-9.7-14.8-15.8-20C233.8,1,215.3-3.7,197.7-5c0,0,0,0,0,0
							c-8-0.6-15.8-0.5-23-0.1c-5,0.3-9.8,0.7-14.1,1.2h0c-3.4,0.4-6.5,0.8-9.3,1.1c-4.2,0.5-7.6,0.9-9.7,0.9h-6.9
							c-2.4,0-6.1-0.5-10.9-1c-1.8-0.2-3.7-0.5-5.7-0.7c-0.8-0.1-1.6-0.2-2.4-0.3h0c-5.5-0.6-11.9-1.2-18.7-1.4h0
							c-2.8-0.1-5.7-0.1-8.6-0.1c-0.3,0-0.6,0-0.9,0c-0.3,0-0.6,0-0.9,0c-0.3,0-0.6,0-0.9,0c-0.9,0-1.7,0-2.6,0.1
							c-0.2,0-0.4,0-0.6,0c-0.4,0-0.8,0-1.1,0.1c-0.8,0-1.6,0.1-2.3,0.1c-0.1,0-0.3,0-0.4,0c-0.2,0-0.4,0-0.6,0
							c-0.9,0.1-1.9,0.1-2.8,0.2c-0.3,0-0.6,0.1-0.9,0.1c-0.3,0-0.6,0.1-0.9,0.1c-0.3,0-0.7,0.1-1,0.1c-3.6,0.4-7.1,1-10.7,1.8
							c-0.6,0.1-1.1,0.2-1.6,0.4c-0.1,0-0.2,0-0.3,0.1c-0.3,0.1-0.7,0.2-1,0.2c-0.8,0.2-1.5,0.4-2.2,0.6c-0.4,0.1-0.8,0.2-1.1,0.3
							c-0.8,0.2-1.6,0.5-2.3,0.7c-0.3,0.1-0.7,0.2-1,0.3c-1.5,0.5-2.9,1-4.4,1.6c-0.4,0.1-0.7,0.3-1.1,0.4c-0.4,0.2-0.8,0.3-1.1,0.5
							c-0.3,0.1-0.7,0.3-1,0.5c-0.8,0.3-1.5,0.7-2.3,1.1c-0.3,0.1-0.6,0.3-0.9,0.5c-0.3,0.2-0.7,0.3-1,0.5c-0.7,0.4-1.4,0.8-2.1,1.2
							c-0.3,0.2-0.7,0.4-1,0.6c-0.3,0.2-0.7,0.4-1,0.6s-0.7,0.4-1,0.6s-0.7,0.4-1,0.6s-0.7,0.5-1,0.7c-0.3,0.2-0.6,0.5-1,0.7
							c-0.3,0.2-0.6,0.5-1,0.7s-0.6,0.5-0.9,0.7c-0.3,0.2-0.6,0.5-0.9,0.8c-0.3,0.3-0.6,0.5-0.9,0.8c-0.1,0.1-0.2,0.2-0.3,0.3
							c0,0,0,0,0,0c-0.5,0.4-1,0.9-1.5,1.3c-0.3,0.3-0.6,0.5-0.9,0.8c-0.6,0.6-1.2,1.1-1.8,1.7C23.3,17.8,22.7,18.4,22.2,19z"/>
						<g>
							<g>
								<path class="st4" d="M59.7,8.4c25.8-23,63.4-10.2,73.1-10.2h2.2c15.2,0,97.4-31.1,98.4,89.7c0.3,38.1-8.6,61.2-21,75
									c14.5-13.1,25.6-36.9,25.3-79.2C236.7-37,154.4-6,139.3-6h-2.2C126.7-6,85.4-20.3,59.7,8.4z"/>
							</g>
						</g>
						<path class="st4" d="M106.8,4.2c8.1-7.3,17.3-11.4,27.1-11.4c31.5,0,57.1,42.8,57.1,95.6c0,33.5-10.2,62.9-25.8,80
							c17.9-16.2,30-47.8,30-84.2c0-52.8-25.6-95.6-57.1-95.6C126.6-11.5,115.8-5.7,106.8,4.2z"/>
					</g>
					<g>
						<g>
							<path class="st5" d="M206.8,85.1c0,33.6-24.7,61.5-57.2,67.1v-8.7c0-3.3-1.3-6.3-3.5-8.5c-2.2-2.2-5.1-3.5-8.5-3.5
								c-6.6,0-12,5.4-12,12v8.7c-32.5-5.6-57.2-33.5-57.2-67.1c0,0,0.1,0,0.1,0c6.8,3.4,13.7,6.2,20.8,8.5v13
								c0,3.3,1.3,6.3,3.5,8.5s5.1,3.5,8.4,3.5c6.6,0,12-5.4,12-12v-7.1c8.1,1.3,16.3,2,24.4,2s16.3-0.7,24.4-2v4
								c0,3.3,1.3,6.3,3.5,8.5c2.2,2.2,5.2,3.5,8.5,3.5c6.6,0,12-5.4,12-12v-9.8C193,91.3,199.9,88.5,206.8,85.1
								C206.7,85.2,206.7,85.1,206.8,85.1z"/>
						</g>
						<g>
							<path class="st5" d="M169.4,47.8L155.7,72c-1.9,3.3,0.5,7.4,4.3,7.4h27.5c3.8,0,6.1-4.1,4.3-7.4l-13.7-24.1
								C176.1,44.5,171.3,44.5,169.4,47.8z"/>
							<path class="st5" d="M97.3,47.8L83.5,72c-1.9,3.3,0.5,7.4,4.3,7.4h27.5c3.8,0,6.1-4.1,4.3-7.4l-13.7-24.1
								C103.9,44.5,99.2,44.5,97.3,47.8z"/>
						</g>
					</g>
				</g>
			</g>
		</g>
		<g>
			<path class="st6" d="M264.8,13c-0.9,4.1-4,7.5-8.4,8.4c-27.4,5.7-56.9,9.2-87.8,10.5c-8.9,0.4-18,0.6-27.1,0.6
				c-16,0-32.3-0.6-48.7-1.7C49,27.6,20,21.6,18.8,21.4c-4.3-0.9-7.5-4.3-8.4-8.4c-0.3-1.4-0.3-2.9,0-4.4c1.2-5.9,7-9.6,12.8-8.4
				c0.4,0.1,29.1,6,71.4,8.9c39,2.7,97.9,3.3,157.3-8.9c5.8-1.2,11.6,2.5,12.8,8.4C265.1,10.1,265.1,11.6,264.8,13z"/>
		</g>
		<g>
			<path class="st5" d="M264.8,13c-0.9,4.1-4,7.5-8.4,8.4c-27.4,5.7-56.9,9.2-87.8,10.5c-8.9,0.4-18,0.6-27.1,0.6
				c-16,0-32.3-0.6-48.7-1.7C49,27.6,20,21.6,18.8,21.4c-4.3-0.9-7.5-4.3-8.4-8.4c0,0,0,0,0,0c1.2-5.8,7-9.6,12.8-8.4
				c0.4,0.1,29.1,6,71.4,8.9c39,2.7,97.9,3.3,157.3-8.9C257.8,3.4,263.5,7.2,264.8,13z"/>
		</g>
	</g>
	<path class="st4" d="M195.1,173.5C195.1,173.5,195.1,173.5,195.1,173.5c-16,6.1-32.5,4.5-41.6,2.7c-4.9,2.3-10,3.5-15.3,3.5
		c-5.3,0-10.4-1.2-15.3-3.5c-9,1.7-25.3,3.4-41.3-2.6h0c-17.5-0.2-39.2-4.1-55.6-19.1c0,0,0,0,0,0c-0.4-0.4-0.9-0.8-1.3-1.2
		c-0.2-0.2-0.4-0.4-0.7-0.6c-0.2-0.2-0.4-0.4-0.6-0.6c-0.4-0.4-0.9-0.9-1.3-1.4c-0.2-0.2-0.4-0.5-0.6-0.7c-0.4-0.5-0.8-0.9-1.2-1.4
		c-0.2-0.2-0.4-0.5-0.6-0.7s-0.4-0.5-0.6-0.7c-0.2-0.2-0.4-0.5-0.6-0.7c0,0-0.1-0.1-0.1-0.1c-0.2-0.2-0.4-0.5-0.5-0.7
		c-0.8-1-1.5-2.1-2.3-3.2c-0.2-0.3-0.4-0.6-0.5-0.8s-0.4-0.6-0.5-0.9c-0.4-0.6-0.7-1.2-1.1-1.8c-0.2-0.3-0.3-0.6-0.5-0.9
		s-0.3-0.6-0.5-0.9c-0.2-0.3-0.3-0.6-0.5-0.9c-0.2-0.3-0.3-0.6-0.5-0.9c-0.8-1.6-1.6-3.2-2.3-4.9c-0.1-0.3-0.3-0.7-0.4-1
		s-0.3-0.7-0.4-1c-0.1-0.3-0.3-0.7-0.4-1c0,0,0-0.1,0-0.1c-0.1-0.3-0.3-0.7-0.4-1c-0.1-0.4-0.3-0.7-0.4-1.1
		c-0.1-0.4-0.2-0.7-0.4-1.1c-0.1-0.4-0.2-0.8-0.4-1.1c-0.2-0.7-0.4-1.5-0.6-2.2c-0.2-0.8-0.5-1.6-0.7-2.5c-0.5-2-1-4.1-1.4-6.2
		c-0.1-0.4-0.2-0.9-0.2-1.3c-0.1-0.8-0.3-1.5-0.4-2.3c-0.2-1.1-0.3-2.2-0.5-3.4c-0.2-1.7-0.4-3.5-0.6-5.3c0-0.5-0.1-1-0.1-1.5
		c0-0.5-0.1-0.9-0.1-1.4c0-0.1,0-0.2,0-0.3c0-0.5-0.1-0.9-0.1-1.4c-0.1-2.5-0.2-5-0.3-7.6v-0.1c0-1.2,0-2.4,0-3.7
		c0-1.2,0-2.4,0.1-3.6c0,1.4,0.1,2.7,0.2,4c0,0.5,0.1,0.9,0.1,1.4c0,0.1,0,0.2,0,0.3c0,0.5,0.1,0.9,0.1,1.4c0,0.5,0.1,1,0.1,1.5
		c0.2,1.8,0.4,3.6,0.6,5.3c0.1,1.2,0.3,2.3,0.5,3.4c0.1,0.8,0.2,1.5,0.4,2.3c0.1,0.4,0.2,0.9,0.2,1.3c0.4,2.1,0.9,4.2,1.4,6.2
		c0.2,0.8,0.4,1.7,0.7,2.5c0.2,0.7,0.4,1.5,0.6,2.2c0.1,0.4,0.2,0.8,0.4,1.1c0.1,0.4,0.2,0.7,0.4,1.1s0.2,0.7,0.4,1.1
		c0.1,0.4,0.2,0.7,0.4,1c0,0,0,0.1,0,0.1c0.1,0.4,0.2,0.7,0.4,1c0.1,0.4,0.3,0.7,0.4,1c0.1,0.4,0.3,0.7,0.4,1
		c0.7,1.7,1.5,3.4,2.3,4.9c0.2,0.3,0.3,0.6,0.5,0.9c0.2,0.3,0.3,0.6,0.5,0.9c0.2,0.3,0.3,0.6,0.5,0.9c0.2,0.3,0.3,0.6,0.5,0.9
		c0.4,0.6,0.7,1.2,1.1,1.7c0.2,0.3,0.4,0.6,0.5,0.9c0.2,0.3,0.4,0.6,0.5,0.8c0.7,1.1,1.5,2.2,2.3,3.2c0.2,0.2,0.4,0.5,0.5,0.7
		c0,0,0.1,0.1,0.1,0.1c0.2,0.2,0.4,0.5,0.6,0.7c0.2,0.2,0.4,0.5,0.6,0.7c0.2,0.2,0.4,0.5,0.6,0.7c0.4,0.5,0.8,1,1.2,1.4
		c0.2,0.2,0.4,0.5,0.6,0.7c0.4,0.5,0.9,0.9,1.3,1.4c0.2,0.2,0.4,0.4,0.6,0.6c0.2,0.2,0.4,0.4,0.7,0.6c0.4,0.4,0.9,0.8,1.3,1.2
		c0,0,0,0,0,0c16.4,15,38.2,18.9,55.6,19.1h0c15.9,6,32.3,4.4,41.3,2.6c4.9,2.3,10,3.5,15.3,3.5s10.4-1.2,15.3-3.5
		c9,1.7,25.5,3.4,41.6-2.7c0,0,0,0,0,0c33.1-1.4,77.5-15.8,79.8-82.6c0,1.2,0.1,2.4,0.1,3.7C275.8,156.7,229.3,172.1,195.1,173.5z"
		/>
</g>
</svg>
