<?xml version="1.0" encoding="utf-8"?>
<!-- Generator: Adobe Illustrator 23.0.1, SVG Export Plug-In . SVG Version: 6.00 Build 0)  -->
<svg version="1.1" id="Layer_1" xmlns="http://www.w3.org/2000/svg" xmlns:xlink="http://www.w3.org/1999/xlink" x="0px" y="0px"
	 viewBox="0 0 595.28 841.89" style="enable-background:new 0 0 595.28 841.89;" xml:space="preserve">
<style type="text/css">
	.st0{clip-path:url(#SVGID_2_);}
	.st1{fill:#83A560;}
	.st2{fill:#638F38;}
	.st3{fill:#F28D1C;}
	.st4{fill:#BF6C15;}
	.st5{fill:#2D1E11;}
	.st6{fill:#594A34;}
</style>
<g>
	<g>
		<g>
			<defs>
				<path id="SVGID_1_" d="M348.87,471.73c-0.01-0.01-0.01,0-0.01,0c-16.02,6.13-32.53,4.47-41.56,2.74
					c-4.88,2.27-10.01,3.48-15.32,3.48c-5.3,0-10.44-1.21-15.31-3.48c-8.98,1.72-25.33,3.37-41.27-2.63h-0.01
					c-17.47-0.21-39.2-4.13-55.64-19.1c-0.44-0.4-0.88-0.81-1.31-1.22c-0.22-0.21-0.44-0.43-0.66-0.64
					c-0.21-0.21-0.43-0.43-0.64-0.65c-0.44-0.44-0.86-0.89-1.28-1.35c-0.21-0.23-0.42-0.46-0.63-0.69
					c-0.42-0.47-0.83-0.94-1.24-1.43c-0.2-0.24-0.41-0.48-0.61-0.73c-0.2-0.24-0.4-0.49-0.6-0.74c-0.19-0.24-0.38-0.48-0.57-0.71
					c-0.02-0.04-0.06-0.08-0.09-0.12c-0.17-0.23-0.35-0.46-0.53-0.7c-0.78-1.04-1.53-2.11-2.26-3.23c-0.18-0.27-0.37-0.56-0.55-0.84
					c-0.18-0.28-0.35-0.57-0.53-0.85c-0.35-0.57-0.7-1.16-1.05-1.75c-0.17-0.3-0.34-0.6-0.51-0.9c-0.17-0.3-0.34-0.6-0.5-0.91
					c-0.17-0.31-0.33-0.62-0.49-0.93c-0.16-0.31-0.33-0.63-0.48-0.95c-0.81-1.58-1.56-3.23-2.28-4.94
					c-0.14-0.34-0.28-0.68-0.42-1.03c-0.14-0.35-0.28-0.7-0.41-1.05c-0.13-0.34-0.26-0.68-0.39-1.02c-0.01-0.03-0.02-0.06-0.03-0.09
					c-0.13-0.34-0.26-0.69-0.38-1.04c-0.13-0.37-0.26-0.73-0.38-1.1c-0.13-0.37-0.25-0.74-0.37-1.11c-0.12-0.38-0.24-0.75-0.36-1.13
					c-0.23-0.72-0.45-1.45-0.66-2.19c-0.23-0.82-0.46-1.65-0.67-2.5c-0.52-2.01-0.98-4.09-1.39-6.23c-0.08-0.43-0.16-0.86-0.24-1.3
					c-0.14-0.75-0.27-1.51-0.39-2.29c-0.18-1.11-0.34-2.25-0.49-3.41c-0.23-1.73-0.42-3.51-0.59-5.33
					c-0.04-0.49-0.08-0.97-0.12-1.46c-0.04-0.45-0.07-0.9-0.1-1.35c-0.01-0.09-0.01-0.17-0.02-0.26c-0.03-0.45-0.06-0.91-0.08-1.36
					c-0.15-2.47-0.24-5.02-0.26-7.64v-0.12c-0.02-1.21-0.01-2.43,0-3.67c0.05-4.16,0.24-8.12,0.57-11.91
					c0.09-1.08,0.2-2.15,0.31-3.2c0.12-1.06,0.24-2.1,0.38-3.12c0.14-1.02,0.28-2.03,0.44-3.03c0.31-1.99,0.67-3.92,1.06-5.8
					c0.3-1.41,0.61-2.79,0.96-4.13c0.23-0.9,0.46-1.79,0.71-2.66c0.37-1.31,0.75-2.59,1.17-3.84c0.41-1.25,0.84-2.47,1.29-3.66
					c0.9-2.39,1.87-4.65,2.92-6.81c0.35-0.72,0.71-1.42,1.07-2.12c4.31-8.21,9.7-14.76,15.8-19.95c2.72,0.35,5.5,0.69,8.32,1.02
					c5.64,0.65,11.48,1.25,17.49,1.79c0,0,0,0,0.01,0c2.22,0.2,4.46,0.39,6.73,0.58c11.4,0.93,23.37,1.66,35.8,2.16c0,0,0,0,0.01,0
					c2.18,0.09,4.36,0.17,6.57,0.25c11.41,0.39,23.17,0.59,35.18,0.59c14.34,0,28.31-0.29,41.76-0.84
					c14.9-0.61,29.15-1.54,42.54-2.75c8.61-0.77,16.86-1.67,24.7-2.66c0.38-0.04,0.75-0.09,1.11-0.14c0.01,0,0.01,0,0.01,0
					c0.51,0.43,1,0.86,1.49,1.31c0.31,0.27,0.6,0.55,0.91,0.84c0.6,0.56,1.18,1.14,1.76,1.72c0.53,0.54,1.06,1.1,1.57,1.67
					c0.05,0.05,0.1,0.1,0.15,0.15c12.23,13.44,20.45,33.85,20.8,64.54C429.61,454.87,383.13,470.28,348.87,471.73z"/>
			</defs>
			<clipPath id="SVGID_2_">
				<use xlink:href="#SVGID_1_"  style="overflow:visible;"/>
			</clipPath>
			<g class="st0">
				<g>
					<path class="st1" d="M303.4,292.77h-27.18c0,0,1.23-27.3,18.03-41.43c0.8,0.51,1.55,0.99,2.26,1.44
						c10.39,6.63,10.39,6.63,10.39,6.63S298.2,275.07,303.4,292.77z"/>
					<path class="st2" d="M303.4,292.77h-23.31c0,0,1.16-25.53,16.42-40c10.39,6.63,10.39,6.63,10.39,6.63
						S298.2,275.07,303.4,292.77z"/>
				</g>
				<path class="st3" d="M348.87,471.73c-0.01-0.01-0.01,0-0.01,0c-15.1,0.64-27.82-1.43-33.07-2.46c-1.65-0.33-2.57-0.55-2.57-0.55
					h-47.73c0,0-13.01,3.33-30.09,3.12h-0.01c-17.47-0.21-39.2-4.13-55.64-19.1c0.01,0.01,0.01,0.01,0.02,0.02
					c-0.45-0.41-0.89-0.82-1.33-1.24c-0.22-0.21-0.44-0.43-0.66-0.64c-0.21-0.21-0.43-0.43-0.64-0.65
					c-0.44-0.44-0.86-0.89-1.28-1.35c-0.21-0.23-0.42-0.46-0.63-0.69c-0.42-0.47-0.83-0.94-1.24-1.43c-0.2-0.24-0.41-0.48-0.61-0.73
					c-0.2-0.24-0.4-0.49-0.6-0.74c-0.19-0.24-0.38-0.48-0.57-0.71c-0.02-0.04-0.06-0.08-0.09-0.12c-0.17-0.23-0.35-0.46-0.53-0.7
					c-0.78-1.04-1.53-2.11-2.26-3.23c-0.18-0.27-0.37-0.56-0.55-0.84c-0.18-0.28-0.35-0.57-0.53-0.85c-0.35-0.57-0.7-1.16-1.05-1.75
					c-0.17-0.3-0.34-0.6-0.51-0.9c-0.17-0.3-0.34-0.6-0.5-0.91c-0.17-0.31-0.33-0.62-0.49-0.93c-0.16-0.31-0.33-0.63-0.48-0.95
					c-0.81-1.58-1.56-3.23-2.28-4.94c-0.14-0.34-0.28-0.68-0.42-1.03c-0.14-0.35-0.28-0.7-0.41-1.05c-0.13-0.34-0.26-0.68-0.39-1.02
					c-0.01-0.03-0.02-0.06-0.03-0.09c-0.13-0.34-0.26-0.69-0.38-1.04c-0.13-0.37-0.26-0.73-0.38-1.1c-0.13-0.37-0.25-0.74-0.37-1.11
					c-0.12-0.38-0.24-0.75-0.36-1.13c-0.23-0.72-0.45-1.45-0.66-2.19c-0.23-0.82-0.46-1.65-0.67-2.5c-0.52-2.01-0.98-4.09-1.39-6.23
					c-0.08-0.43-0.16-0.86-0.24-1.3c-0.14-0.75-0.27-1.51-0.39-2.29c-0.18-1.11-0.34-2.25-0.49-3.41c-0.23-1.73-0.42-3.51-0.59-5.33
					c-0.04-0.49-0.08-0.97-0.12-1.46c-0.04-0.45-0.07-0.9-0.1-1.35c-0.01-0.09-0.01-0.17-0.02-0.26c-0.03-0.45-0.06-0.91-0.08-1.36
					c-0.15-2.47-0.24-5.02-0.26-7.64v-0.12c-0.02-1.21-0.01-2.43,0-3.67c0.05-4.16,0.24-8.12,0.57-11.91
					c0.09-1.08,0.2-2.15,0.31-3.2c0.12-1.06,0.24-2.1,0.38-3.12c0.14-1.02,0.28-2.03,0.44-3.03c0.31-1.99,0.67-3.92,1.06-5.8
					c0.3-1.41,0.61-2.79,0.96-4.13c0.23-0.9,0.46-1.79,0.71-2.66c0.37-1.31,0.75-2.59,1.17-3.84c0.41-1.25,0.84-2.47,1.29-3.66
					c0.9-2.39,1.87-4.65,2.92-6.81c0.35-0.72,0.71-1.42,1.07-2.12c4.31-8.21,9.7-14.76,15.8-19.95
					c14.47-12.32,32.97-17.04,50.62-18.35c0.01,0,0.01,0,0.01,0c7.99-0.59,15.8-0.49,23-0.07c5.05,0.3,9.8,0.74,14.07,1.21h0.01
					c3.41,0.38,6.53,0.76,9.27,1.09c4.22,0.5,7.56,0.88,9.72,0.88h6.85c2.36,0,6.1-0.45,10.86-1.02c1.77-0.21,3.69-0.45,5.72-0.68
					c0.79-0.09,1.6-0.18,2.41-0.27h0.01c5.55-0.6,11.89-1.18,18.66-1.42h0.01c2.82-0.1,5.71-0.15,8.65-0.12
					c0.31,0,0.62,0.01,0.92,0.01c0.31,0.01,0.61,0.01,0.92,0.02c0.31,0.01,0.62,0.01,0.93,0.02c0.85,0.02,1.69,0.05,2.55,0.09
					c0.19,0.01,0.38,0.02,0.57,0.03c0.37,0.02,0.75,0.03,1.12,0.06c0.77,0.04,1.55,0.09,2.33,0.15c0.14,0.01,0.28,0.02,0.42,0.03
					c0.21,0.02,0.42,0.03,0.63,0.05c0.93,0.07,1.86,0.15,2.79,0.25c0.3,0.03,0.61,0.06,0.91,0.09c0.32,0.03,0.63,0.06,0.95,0.1
					c0.34,0.04,0.68,0.08,1.02,0.12c3.56,0.44,7.13,1.03,10.67,1.81c0.55,0.12,1.1,0.24,1.64,0.38c0.11,0.02,0.22,0.05,0.33,0.08
					c0.33,0.08,0.66,0.16,0.98,0.24c0.75,0.19,1.5,0.39,2.24,0.6c0.38,0.1,0.75,0.21,1.12,0.32c0.78,0.23,1.56,0.46,2.33,0.71
					c0.33,0.11,0.67,0.21,1,0.33c1.47,0.49,2.93,1.02,4.38,1.6c0.36,0.15,0.72,0.29,1.08,0.44c0.38,0.16,0.77,0.32,1.15,0.48
					c0.33,0.15,0.67,0.3,1,0.45c0.76,0.34,1.52,0.7,2.27,1.07c0.3,0.15,0.6,0.3,0.9,0.45c0.33,0.17,0.66,0.34,0.99,0.52
					c0.71,0.37,1.42,0.76,2.11,1.16c0.34,0.19,0.68,0.39,1.02,0.59c0.34,0.2,0.67,0.41,1.01,0.62c0.34,0.21,0.67,0.42,1,0.63
					c0.33,0.21,0.66,0.43,0.99,0.65c0.33,0.22,0.67,0.45,0.99,0.67c0.33,0.23,0.64,0.45,0.96,0.68c0.32,0.23,0.65,0.47,0.97,0.71
					c0.32,0.24,0.64,0.48,0.95,0.73c0.32,0.24,0.63,0.49,0.95,0.75c0.31,0.26,0.63,0.51,0.93,0.77c0.12,0.09,0.23,0.19,0.34,0.29
					c0.51,0.43,1,0.86,1.49,1.31c0.31,0.27,0.6,0.55,0.91,0.84c0.6,0.56,1.18,1.14,1.76,1.72c0.53,0.54,1.05,1.1,1.57,1.66
					c0.05,0.05,0.1,0.1,0.15,0.15c-0.01-0.01-0.02-0.02-0.03-0.03c12.25,13.43,20.48,33.85,20.83,64.56
					C429.61,454.87,383.13,470.28,348.87,471.73z"/>
				<path class="st4" d="M407.97,317.23c-2.23-2.04-4.57-3.88-7-5.55c-12.19-8.38-26.55-12.3-40.65-13.84h-0.01
					c-1.53-0.17-3.06-0.31-4.59-0.42c-13.24-0.99-26.01-0.05-36.26,1.04c-0.28,0.03-0.56,0.06-0.84,0.09
					c-8.66,0.95-15.42,1.97-19,1.97h-6.84c-3.57,0-10.34-1.03-19-1.97c-2.66-0.29-5.51-0.57-8.5-0.81c-0.01,0-0.01,0-0.01,0
					c-8.65-0.71-18.48-1.07-28.58-0.32c-5.13,0.38-10.32,1.05-15.46,2.11c-0.01,0-0.01,0-0.01,0c-10.95,2.25-21.67,6.27-31.04,13.02
					c-17.56,12.68-30.33,35-30.77,73.44c-0.37,32.2,8.03,53.21,20.35,66.76c-0.45-0.41-0.89-0.82-1.33-1.24
					c-0.22-0.21-0.44-0.43-0.66-0.64c-0.21-0.21-0.43-0.43-0.64-0.65c-0.44-0.44-0.86-0.89-1.28-1.35
					c-0.21-0.23-0.42-0.46-0.63-0.69c-0.42-0.47-0.83-0.94-1.24-1.43c-0.2-0.24-0.41-0.48-0.61-0.73c-0.2-0.24-0.4-0.49-0.6-0.74
					c-0.19-0.24-0.38-0.48-0.57-0.71c-0.02-0.04-0.06-0.08-0.09-0.12c-0.17-0.23-0.35-0.46-0.53-0.7c-0.77-1.04-1.53-2.11-2.26-3.23
					c-0.18-0.27-0.37-0.56-0.55-0.84c-0.18-0.28-0.35-0.57-0.53-0.85c-0.35-0.57-0.7-1.16-1.05-1.75c-0.17-0.3-0.34-0.6-0.51-0.9
					c-0.17-0.3-0.34-0.6-0.5-0.91c-0.17-0.31-0.33-0.62-0.49-0.93c-0.16-0.31-0.33-0.63-0.48-0.95c-0.8-1.58-1.56-3.23-2.28-4.94
					c-0.14-0.34-0.28-0.68-0.42-1.03c-0.14-0.35-0.28-0.7-0.41-1.05c-0.13-0.34-0.26-0.68-0.39-1.02c-0.01-0.03-0.02-0.06-0.03-0.09
					c-0.13-0.34-0.26-0.69-0.38-1.04c-0.13-0.37-0.26-0.73-0.38-1.1c-0.13-0.37-0.25-0.74-0.37-1.11c-0.12-0.38-0.24-0.75-0.36-1.13
					c-0.23-0.72-0.44-1.45-0.66-2.19c-0.23-0.82-0.46-1.65-0.67-2.5c-0.52-2.01-0.98-4.09-1.39-6.23c-0.08-0.43-0.16-0.86-0.24-1.3
					c-0.13-0.75-0.27-1.51-0.39-2.29c-0.18-1.11-0.34-2.25-0.49-3.41c-0.23-1.74-0.42-3.51-0.59-5.33
					c-0.04-0.49-0.08-0.97-0.12-1.46c-0.04-0.45-0.07-0.9-0.1-1.35c-0.01-0.09-0.01-0.17-0.02-0.26c-0.03-0.45-0.06-0.91-0.08-1.36
					c-0.15-2.47-0.23-5.02-0.26-7.64v-0.12c-0.01-1.21-0.01-2.43,0.01-3.67c0.05-4.16,0.24-8.12,0.56-11.91
					c0.09-1.08,0.2-2.15,0.31-3.2c0.12-1.06,0.24-2.1,0.38-3.12c0.14-1.02,0.28-2.03,0.44-3.03c0.31-1.99,0.67-3.92,1.06-5.8
					c0.3-1.41,0.61-2.79,0.96-4.13c0.23-0.9,0.46-1.79,0.71-2.66c0.37-1.31,0.75-2.59,1.17-3.84c0.41-1.25,0.84-2.47,1.29-3.66
					c0.9-2.39,1.87-4.65,2.92-6.81c0.35-0.72,0.71-1.42,1.07-2.12c4.31-8.21,9.7-14.76,15.8-19.95
					c14.47-12.32,32.97-17.04,50.62-18.35c0.01,0,0.01,0,0.01,0c7.99-0.59,15.8-0.49,23-0.07c5.05,0.3,9.8,0.74,14.07,1.21h0.01
					c3.41,0.38,6.53,0.76,9.27,1.09c4.22,0.5,7.56,0.88,9.72,0.88h6.85c2.36,0,6.1-0.45,10.86-1.02c1.77-0.21,3.69-0.45,5.72-0.68
					c0.79-0.09,1.6-0.18,2.41-0.27h0.01c5.55-0.6,11.89-1.18,18.66-1.42h0.01c2.82-0.1,5.71-0.15,8.65-0.12
					c0.31,0,0.62,0.01,0.92,0.01c0.31,0.01,0.61,0.01,0.92,0.02c0.31,0.01,0.62,0.01,0.93,0.02c0.85,0.02,1.69,0.05,2.55,0.09
					c0.19,0.01,0.38,0.02,0.57,0.03c0.37,0.02,0.75,0.03,1.12,0.06c0.77,0.04,1.55,0.09,2.33,0.15c0.14,0.01,0.28,0.02,0.42,0.03
					c0.21,0.01,0.42,0.03,0.63,0.05c0.93,0.07,1.86,0.15,2.79,0.25c0.3,0.03,0.61,0.06,0.91,0.09c0.32,0.03,0.63,0.06,0.95,0.1
					c0.34,0.04,0.68,0.08,1.02,0.12c3.56,0.44,7.13,1.03,10.67,1.81c0.55,0.12,1.1,0.24,1.64,0.38c0.11,0.02,0.22,0.05,0.33,0.08
					c0.33,0.08,0.66,0.16,0.98,0.24c0.75,0.19,1.5,0.39,2.24,0.6c0.38,0.1,0.75,0.21,1.12,0.32c0.78,0.23,1.56,0.46,2.33,0.71
					c0.33,0.11,0.67,0.21,1,0.33c1.47,0.49,2.93,1.02,4.38,1.6c0.36,0.15,0.72,0.29,1.08,0.44c0.38,0.16,0.77,0.32,1.15,0.48
					c0.33,0.15,0.67,0.3,1,0.45c0.76,0.34,1.52,0.7,2.27,1.07c0.3,0.15,0.6,0.3,0.9,0.45c0.33,0.17,0.66,0.34,0.99,0.52
					c0.71,0.37,1.42,0.76,2.11,1.16c0.34,0.19,0.68,0.39,1.02,0.59c0.34,0.2,0.67,0.41,1.01,0.62c0.34,0.21,0.67,0.42,1,0.63
					c0.33,0.21,0.66,0.43,0.99,0.65c0.33,0.22,0.67,0.45,0.99,0.67c0.33,0.23,0.64,0.45,0.96,0.68c0.32,0.23,0.65,0.47,0.97,0.71
					c0.32,0.24,0.64,0.48,0.95,0.73c0.32,0.24,0.63,0.49,0.95,0.75c0.31,0.26,0.63,0.51,0.93,0.77c0.12,0.1,0.23,0.19,0.34,0.29
					c0.01,0,0.01,0,0.01,0c0.51,0.43,1,0.86,1.49,1.31c0.31,0.27,0.6,0.55,0.91,0.84c0.6,0.56,1.18,1.14,1.76,1.72
					C406.83,316,407.41,316.61,407.97,317.23z"/>
				<g>
					<g>
						<path class="st3" d="M348.87,471.73c-0.01-0.01-0.01,0-0.01,0c-16.02,6.13-32.53,4.47-41.56,2.74
							c-4.35-0.83-6.97-1.68-6.97-1.68h-16.69c0,0-2.62,0.85-6.97,1.68c-8.98,1.72-25.33,3.37-41.27-2.63h-0.01
							c-6.12-2.31-12.18-5.75-17.73-10.74c-0.01-0.01-0.01-0.01-0.01-0.02c-0.05-0.04-0.1-0.09-0.15-0.13
							c-0.09-0.08-0.17-0.16-0.26-0.23c-0.17-0.16-0.35-0.33-0.52-0.49c-0.21-0.2-0.43-0.4-0.64-0.61c-0.21-0.2-0.42-0.41-0.63-0.63
							c-0.67-0.67-1.33-1.37-1.98-2.1c-0.17-0.18-0.33-0.36-0.49-0.55c-0.17-0.19-0.34-0.39-0.51-0.59
							c-0.21-0.24-0.42-0.49-0.62-0.74c-1.22-1.47-2.4-3.04-3.53-4.71c-0.19-0.27-0.37-0.55-0.55-0.82
							c-2.02-3.06-3.89-6.45-5.58-10.22c-0.16-0.34-0.31-0.68-0.46-1.03c-0.19-0.44-0.38-0.87-0.56-1.32
							c-0.11-0.27-0.22-0.53-0.33-0.81c-0.4-0.99-0.79-2.01-1.17-3.06c-0.15-0.39-0.28-0.79-0.42-1.18
							c-0.62-1.78-1.19-3.62-1.73-5.53c-0.19-0.66-0.37-1.32-0.55-1.99c-0.44-1.7-0.86-3.45-1.25-5.26
							c-0.1-0.44-0.19-0.89-0.28-1.33c-0.12-0.59-0.23-1.19-0.35-1.8c-0.09-0.48-0.18-0.98-0.27-1.47c-0.16-0.88-0.3-1.78-0.45-2.68
							c-0.06-0.41-0.13-0.82-0.19-1.24c-0.22-1.52-0.42-3.08-0.61-4.67c-0.05-0.45-0.1-0.89-0.15-1.35
							c-0.03-0.34-0.07-0.67-0.1-1.01c-0.04-0.38-0.08-0.77-0.12-1.16c-0.03-0.37-0.07-0.74-0.1-1.12
							c-0.05-0.54-0.09-1.08-0.13-1.63c-0.08-0.98-0.15-1.98-0.21-2.98c-0.03-0.55-0.06-1.09-0.09-1.64
							c-0.03-0.59-0.06-1.18-0.09-1.78c-0.03-0.6-0.05-1.2-0.07-1.8c-0.1-3.06-0.15-6.23-0.12-9.51
							c0.12-14.32,1.39-26.51,3.55-36.87c0.35-1.69,0.73-3.33,1.13-4.92c0.48-1.94,1-3.8,1.55-5.6c0.2-0.67,0.41-1.33,0.63-1.98
							c2.33-7.12,5.18-13.13,8.4-18.19c0,0,0,0,0.01,0c2.34-3.67,4.88-6.85,7.57-9.59c0.2-0.2,0.4-0.4,0.6-0.6
							c0.31-0.3,0.62-0.6,0.92-0.89c0.2-0.19,0.39-0.37,0.59-0.55c0.73-0.66,1.46-1.29,2.21-1.9c0.55-0.44,1.09-0.87,1.64-1.28
							c0.31-0.23,0.62-0.45,0.92-0.67c0.43-0.31,0.86-0.6,1.3-0.89c0.01-0.01,0.01-0.01,0.01-0.01c0.44-0.29,0.87-0.57,1.31-0.84
							c0.01-0.01,0.01-0.01,0.01-0.01c0.58-0.36,1.17-0.71,1.76-1.04c0.38-0.22,0.76-0.43,1.15-0.63c0.37-0.2,0.74-0.39,1.11-0.58
							c1.22-0.61,2.45-1.17,3.69-1.68c0.01,0,0.01,0,0.01,0c1.6-0.65,3.2-1.22,4.82-1.71c1.33-0.41,2.66-0.76,4-1.07
							c0.01,0,0.01,0,0.01-0.01c0.62-0.15,1.24-0.28,1.87-0.4c0.35-0.07,0.71-0.13,1.07-0.2c2.05-0.37,4.09-0.64,6.12-0.83
							c0.05,0,0.09-0.01,0.13-0.01c9.48-0.86,18.6,0.12,25.96,1.21c0.05,0.01,0.09,0.02,0.13,0.02c1.28,0.19,2.5,0.39,3.66,0.58
							c2.92,0.48,5.46,0.92,7.49,1.18c1.23,0.16,2.29,0.26,3.13,0.26h2.22c1.77,0,4.46-0.42,7.82-0.98h0.01
							c0.64-0.1,1.3-0.21,1.99-0.33c1.4-0.23,2.89-0.47,4.46-0.71c0.01,0,0.01,0,0.01,0c6.85-1.03,15.25-1.96,24.06-1.39
							c0.3,0.02,0.6,0.04,0.89,0.06c0.24,0.02,0.48,0.04,0.72,0.06c0.24,0.02,0.48,0.04,0.71,0.06c0.24,0.02,0.48,0.05,0.72,0.07
							c0.24,0.03,0.48,0.05,0.72,0.08c0.24,0.03,0.48,0.06,0.73,0.09c0.24,0.03,0.48,0.06,0.72,0.09c0.23,0.03,0.46,0.06,0.69,0.09
							c0.27,0.04,0.54,0.08,0.81,0.13c0.46,0.07,0.93,0.15,1.39,0.23c0.49,0.09,0.97,0.18,1.45,0.28c0.24,0.05,0.49,0.1,0.73,0.15
							c0.49,0.1,0.97,0.21,1.45,0.33c0.23,0.05,0.46,0.11,0.68,0.16c0.5,0.13,0.99,0.26,1.49,0.4c0.21,0.06,0.44,0.12,0.65,0.19
							c1.84,0.53,3.67,1.17,5.48,1.91c0.01,0.01,0.01,0.01,0.01,0.01c0.77,0.31,1.54,0.65,2.31,1.01c0.23,0.1,0.46,0.21,0.68,0.33
							c1.98,0.96,3.93,2.05,5.84,3.31h0.01c0.64,0.42,1.28,0.87,1.92,1.33c0.2,0.15,0.4,0.29,0.6,0.44c0.22,0.16,0.44,0.33,0.66,0.5
							c0.66,0.51,1.31,1.04,1.96,1.6c0.2,0.17,0.39,0.34,0.59,0.51c0.1,0.09,0.2,0.17,0.3,0.27c0.18,0.16,0.36,0.33,0.54,0.49
							c0.21,0.19,0.41,0.38,0.61,0.57c0.17,0.16,0.34,0.32,0.51,0.49c0.21,0.2,0.41,0.41,0.62,0.62c0.2,0.21,0.41,0.42,0.61,0.63
							c0.41,0.42,0.81,0.86,1.21,1.31c0.01,0.01,0.01,0.01,0.01,0.01c2.05,2.29,4,4.86,5.83,7.73
							c8.97,14.07,14.99,35.45,15.26,67.56C392.04,440.05,370.91,463.27,348.87,471.73z"/>
					</g>
				</g>
				<g>
					<g>
						<path class="st4" d="M370.44,306.62c-25.8-23.04-63.36-10.17-73.13-10.17h-2.22c-15.17,0-97.41-31.07-98.45,89.69
							c-0.33,38.08,8.62,61.18,21.03,74.96c-14.55-13.1-25.62-36.91-25.26-79.19c1.04-120.75,83.28-89.69,98.45-89.69h2.22
							C303.4,292.22,344.72,277.85,370.44,306.62z"/>
					</g>
				</g>
				<path class="st3" d="M349.08,382.32c0,9.22-0.78,18.14-2.23,26.58c-2.21,12.79-5.96,24.47-10.9,34.44
					c-1.02,2.07-2.1,4.07-3.23,5.99c-4.83,8.25-10.57,15.04-16.92,19.94c-2.72,2.1-5.56,3.84-8.49,5.2
					c-4.88,2.27-10.01,3.48-15.32,3.48c-5.3,0-10.44-1.21-15.31-3.48c-3.19-1.47-6.26-3.41-9.19-5.75c-0.89-0.7-1.76-1.45-2.62-2.23
					c-0.03-0.02-0.06-0.05-0.09-0.09c-0.41-0.37-0.81-0.74-1.21-1.13c-0.8-0.77-1.58-1.57-2.35-2.4c-0.2-0.2-0.39-0.41-0.58-0.63
					c-0.59-0.65-1.17-1.32-1.74-2c-0.17-0.2-0.34-0.41-0.52-0.62c-0.37-0.45-0.74-0.91-1.1-1.38c-0.18-0.23-0.37-0.46-0.54-0.7
					c-0.37-0.47-0.72-0.95-1.07-1.44c-0.17-0.23-0.33-0.46-0.49-0.68c-0.71-1-1.41-2.04-2.09-3.1c-0.17-0.26-0.34-0.52-0.5-0.79
					c-0.36-0.56-0.71-1.14-1.04-1.72c-0.1-0.16-0.19-0.31-0.28-0.48c-0.16-0.27-0.32-0.53-0.48-0.81c-0.09-0.15-0.17-0.3-0.26-0.45
					c-0.26-0.45-0.51-0.92-0.77-1.38c-0.22-0.4-0.44-0.81-0.64-1.21c-0.13-0.23-0.25-0.46-0.37-0.7c-0.06-0.12-0.13-0.24-0.19-0.37
					c-0.19-0.36-0.37-0.72-0.55-1.09c0,0-0.01,0.01-0.01,0c-0.03-0.07-0.07-0.13-0.1-0.2c-0.25-0.5-0.49-1-0.73-1.51
					c-0.09-0.17-0.16-0.34-0.24-0.5c-0.25-0.53-0.49-1.06-0.73-1.6c-0.27-0.59-0.53-1.19-0.78-1.79c-0.02-0.03-0.03-0.07-0.05-0.1
					c-0.23-0.53-0.45-1.07-0.67-1.62c-0.3-0.75-0.6-1.51-0.89-2.28c-0.18-0.46-0.35-0.93-0.52-1.4c-0.71-1.92-1.38-3.88-2-5.89
					c-0.11-0.36-0.22-0.73-0.33-1.09c-0.41-1.35-0.8-2.72-1.17-4.11c-0.12-0.45-0.24-0.91-0.36-1.37c-0.18-0.71-0.36-1.43-0.53-2.15
					c-0.11-0.46-0.21-0.92-0.32-1.38c-0.1-0.42-0.2-0.85-0.29-1.29c-0.09-0.39-0.17-0.78-0.24-1.17c-0.01,0-0.01-0.01-0.01-0.01
					c-0.17-0.84-0.34-1.68-0.51-2.52c-0.07-0.35-0.13-0.71-0.2-1.07c-0.27-1.45-0.51-2.92-0.73-4.4c-0.08-0.52-0.16-1.03-0.23-1.55
					c-0.03-0.21-0.06-0.43-0.09-0.64c-0.09-0.68-0.18-1.36-0.26-2.04c-0.01-0.07-0.02-0.15-0.03-0.21c-0.09-0.73-0.17-1.46-0.25-2.2
					c-0.07-0.63-0.13-1.25-0.19-1.89c-0.01-0.06-0.01-0.11-0.02-0.17c-0.03-0.32-0.06-0.64-0.08-0.96
					c-0.03-0.34-0.06-0.69-0.09-1.03c-0.03-0.36-0.06-0.73-0.09-1.09v-0.03c-0.05-0.66-0.09-1.32-0.13-1.98
					c-0.05-0.81-0.09-1.61-0.13-2.42c-0.03-0.75-0.06-1.51-0.09-2.28c-0.01-0.16-0.01-0.33-0.01-0.5c-0.02-0.55-0.03-1.1-0.04-1.65
					c-0.01-0.39-0.02-0.78-0.02-1.17c-0.01-0.59-0.01-1.17-0.01-1.76c0-10.93,1.1-21.44,3.12-31.23c0.19-0.93,0.39-1.86,0.6-2.78
					c1.36-6.01,3.08-11.74,5.11-17.1c0.55-1.45,1.11-2.87,1.71-4.26c1.06-2.5,2.19-4.91,3.39-7.23c0.46-0.89,0.93-1.77,1.42-2.64
					c3.56-6.41,7.65-11.99,12.15-16.57c0.2-0.2,0.39-0.39,0.59-0.59c0.77-0.76,1.54-1.49,2.32-2.18c0,0,0,0,0.01,0
					c0.02-0.02,0.05-0.05,0.08-0.08c1.22-1.08,2.48-2.09,3.75-3.02c0.15-0.11,0.3-0.21,0.45-0.33c0.52-0.37,1.03-0.73,1.56-1.07
					c0-0.01,0.01,0,0.01,0c1.71-1.13,3.45-2.11,5.22-2.95c0.03-0.02,0.06-0.03,0.09-0.04v-0.01c0.05-0.02,0.09-0.04,0.13-0.06
					c0-0.01,0-0.01,0.01,0c0,0,0-0.01,0.01-0.01c1.29-0.6,2.59-1.13,3.91-1.58c3.71-1.27,7.55-1.93,11.48-1.93
					c0.36,0,0.72,0.01,1.09,0.02c0.36,0.01,0.71,0.03,1.07,0.05c0.36,0.02,0.71,0.05,1.07,0.08c0.34,0.03,0.68,0.07,1.03,0.11
					c0.04,0.01,0.09,0.01,0.13,0.02c0.32,0.04,0.64,0.09,0.97,0.14c0.35,0.05,0.7,0.12,1.05,0.18c0.35,0.06,0.7,0.13,1.05,0.21
					c0.33,0.07,0.66,0.15,0.99,0.23c0.4,0.09,0.8,0.2,1.19,0.31c0.24,0.07,0.49,0.14,0.73,0.21c0.41,0.13,0.82,0.26,1.23,0.41
					c0.32,0.11,0.64,0.22,0.96,0.34c0.11,0.04,0.23,0.09,0.34,0.13c0.25,0.1,0.49,0.2,0.74,0.3c0.34,0.14,0.67,0.28,1,0.43
					c0.25,0.1,0.5,0.22,0.75,0.34c0,0,0.01,0,0.01,0.01c0.41,0.19,0.82,0.39,1.22,0.6c0.33,0.17,0.66,0.34,0.98,0.52
					c0.33,0.17,0.65,0.36,0.98,0.55c0.33,0.19,0.64,0.38,0.97,0.57c0.02,0.02,0.05,0.03,0.08,0.05c0.29,0.18,0.59,0.37,0.88,0.55
					c0.32,0.21,0.63,0.42,0.95,0.63c0.2,0.13,0.39,0.27,0.59,0.41h0.01c0.12,0.08,0.23,0.16,0.34,0.24c0.01,0,0.01,0.01,0.01,0.01
					h0.01c0.31,0.22,0.62,0.45,0.92,0.68c0.31,0.23,0.62,0.47,0.92,0.71c0.28,0.23,0.57,0.45,0.85,0.68
					c0.09,0.07,0.18,0.15,0.27,0.22c0.54,0.45,1.07,0.91,1.6,1.39c0.17,0.15,0.34,0.31,0.51,0.46c0.13,0.12,0.26,0.23,0.38,0.35
					c0.59,0.55,1.17,1.12,1.75,1.71c0.57,0.59,1.14,1.18,1.71,1.8c3.82,4.21,7.33,9.17,10.44,14.75c2.23,4.01,4.27,8.34,6.06,12.95
					c2.07,5.28,3.82,10.93,5.24,16.88c0.22,0.92,0.43,1.84,0.63,2.77C347.88,359.87,349.08,370.86,349.08,382.32z"/>
				<path class="st4" d="M323.3,302.34c-8.06-7.29-17.29-11.43-27.09-11.43c-31.54,0-57.1,42.82-57.1,95.64
					c0,33.45,10.25,62.88,25.78,79.98c-17.87-16.16-30.01-47.81-30.01-84.21c0-52.82,25.56-95.64,57.1-95.64
					C303.54,286.68,314.31,292.44,323.3,302.34z"/>
				<g>
					<path class="st4" d="M175.97,317.23c2.23-2.04,4.57-3.88,7-5.55c12.19-8.38,26.55-12.3,40.65-13.84h0.01
						c1.53-0.17,3.06-0.31,4.59-0.42c13.24-0.99,26.01-0.05,36.26,1.04c0.28,0.03,0.56,0.06,0.84,0.09c8.66,0.95,15.42,1.97,19,1.97
						h6.84c3.57,0,10.34-1.03,19-1.97c2.66-0.29,5.51-0.57,8.5-0.81c0.01,0,0.01,0,0.01,0c8.65-0.71,18.48-1.07,28.58-0.32
						c5.13,0.38,10.32,1.05,15.46,2.11c0.01,0,0.01,0,0.01,0c10.95,2.25,21.67,6.27,31.04,13.02c17.56,12.68,30.33,35,30.77,73.44
						c0.37,32.2-8.03,53.21-20.35,66.76c0.45-0.41,0.89-0.82,1.33-1.24c0.22-0.21,0.44-0.43,0.66-0.64
						c0.21-0.21,0.43-0.43,0.64-0.65c0.44-0.44,0.86-0.89,1.28-1.35c0.21-0.23,0.42-0.46,0.63-0.69c0.42-0.47,0.83-0.94,1.24-1.43
						c0.2-0.24,0.41-0.48,0.61-0.73c0.2-0.24,0.4-0.49,0.6-0.74c0.19-0.24,0.38-0.48,0.57-0.71c0.02-0.04,0.06-0.08,0.09-0.12
						c0.17-0.23,0.35-0.46,0.53-0.7c0.77-1.04,1.53-2.11,2.26-3.23c0.18-0.27,0.37-0.56,0.55-0.84c0.18-0.28,0.35-0.57,0.53-0.85
						c0.35-0.57,0.7-1.16,1.05-1.75c0.17-0.3,0.34-0.6,0.51-0.9c0.17-0.3,0.34-0.6,0.5-0.91c0.17-0.31,0.33-0.62,0.49-0.93
						c0.16-0.31,0.33-0.63,0.48-0.95c0.8-1.58,1.56-3.23,2.28-4.94c0.14-0.34,0.28-0.68,0.42-1.03c0.14-0.35,0.28-0.7,0.41-1.05
						c0.13-0.34,0.26-0.68,0.39-1.02c0.01-0.03,0.02-0.06,0.03-0.09c0.13-0.34,0.26-0.69,0.38-1.04c0.13-0.37,0.26-0.73,0.38-1.1
						c0.13-0.37,0.25-0.74,0.37-1.11c0.12-0.38,0.24-0.75,0.36-1.13c0.23-0.72,0.44-1.45,0.66-2.19c0.23-0.82,0.46-1.65,0.67-2.5
						c0.52-2.01,0.98-4.09,1.39-6.23c0.08-0.43,0.16-0.86,0.24-1.3c0.13-0.75,0.27-1.51,0.39-2.29c0.18-1.11,0.34-2.25,0.49-3.41
						c0.23-1.74,0.42-3.51,0.59-5.33c0.04-0.49,0.08-0.97,0.12-1.46c0.04-0.45,0.07-0.9,0.1-1.35c0.01-0.09,0.01-0.17,0.02-0.26
						c0.03-0.45,0.06-0.91,0.08-1.36c0.15-2.47,0.23-5.02,0.26-7.64v-0.12c0.01-1.21,0.01-2.43-0.01-3.67
						c-0.05-4.16-0.24-8.12-0.56-11.91c-0.09-1.08-0.2-2.15-0.31-3.2c-0.12-1.06-0.24-2.1-0.38-3.12c-0.14-1.02-0.28-2.03-0.44-3.03
						c-0.31-1.99-0.67-3.92-1.06-5.8c-0.3-1.41-0.61-2.79-0.96-4.13c-0.23-0.9-0.46-1.79-0.71-2.66c-0.37-1.31-0.75-2.59-1.17-3.84
						c-0.41-1.25-0.84-2.47-1.29-3.66c-0.9-2.39-1.87-4.65-2.92-6.81c-0.35-0.72-0.71-1.42-1.07-2.12
						c-4.31-8.21-9.7-14.76-15.8-19.95c-14.47-12.32-32.97-17.04-50.62-18.35c-0.01,0-0.01,0-0.01,0c-7.99-0.59-15.8-0.49-23-0.07
						c-5.05,0.3-9.8,0.74-14.07,1.21h-0.01c-3.41,0.38-6.53,0.76-9.27,1.09c-4.22,0.5-7.56,0.88-9.72,0.88h-6.85
						c-2.36,0-6.1-0.45-10.86-1.02c-1.77-0.21-3.69-0.45-5.72-0.68c-0.79-0.09-1.6-0.18-2.41-0.27h-0.01
						c-5.55-0.6-11.89-1.18-18.66-1.42h-0.01c-2.82-0.1-5.71-0.15-8.65-0.12c-0.31,0-0.62,0.01-0.92,0.01
						c-0.31,0.01-0.62,0.01-0.92,0.02c-0.31,0.01-0.62,0.01-0.93,0.02c-0.85,0.02-1.69,0.05-2.55,0.09
						c-0.19,0.01-0.38,0.02-0.57,0.03c-0.37,0.02-0.75,0.03-1.12,0.06c-0.77,0.04-1.55,0.09-2.33,0.15
						c-0.14,0.01-0.28,0.02-0.42,0.03c-0.21,0.01-0.42,0.03-0.63,0.05c-0.93,0.07-1.86,0.15-2.79,0.25
						c-0.3,0.03-0.61,0.06-0.91,0.09c-0.32,0.03-0.63,0.06-0.95,0.1c-0.34,0.04-0.68,0.08-1.02,0.12
						c-3.56,0.44-7.13,1.03-10.67,1.81c-0.55,0.12-1.1,0.24-1.64,0.38c-0.11,0.02-0.22,0.05-0.33,0.08
						c-0.33,0.08-0.66,0.16-0.98,0.24c-0.75,0.19-1.5,0.39-2.24,0.6c-0.38,0.1-0.75,0.21-1.12,0.32c-0.78,0.23-1.56,0.46-2.33,0.71
						c-0.33,0.11-0.67,0.21-1,0.33c-1.47,0.49-2.93,1.02-4.38,1.6c-0.36,0.15-0.72,0.29-1.08,0.44c-0.38,0.16-0.77,0.32-1.15,0.48
						c-0.33,0.15-0.67,0.3-1,0.45c-0.76,0.34-1.52,0.7-2.27,1.07c-0.3,0.15-0.6,0.3-0.9,0.45c-0.33,0.17-0.66,0.34-0.99,0.52
						c-0.71,0.37-1.42,0.76-2.11,1.16c-0.34,0.19-0.68,0.39-1.02,0.59c-0.34,0.2-0.67,0.41-1.01,0.62c-0.34,0.21-0.67,0.42-1,0.63
						c-0.33,0.21-0.66,0.43-0.99,0.65c-0.33,0.22-0.67,0.45-0.99,0.67c-0.33,0.23-0.64,0.45-0.96,0.68
						c-0.32,0.23-0.65,0.47-0.97,0.71c-0.32,0.24-0.64,0.48-0.95,0.73c-0.32,0.24-0.63,0.49-0.95,0.75
						c-0.31,0.26-0.63,0.51-0.93,0.77c-0.12,0.1-0.23,0.19-0.34,0.29c-0.01,0-0.01,0-0.01,0c-0.51,0.43-1,0.86-1.49,1.31
						c-0.31,0.27-0.6,0.55-0.91,0.84c-0.6,0.56-1.18,1.14-1.76,1.72C177.11,316,176.53,316.61,175.97,317.23z"/>
					<g>
						<g>
							<path class="st4" d="M213.5,306.62c25.8-23.04,63.36-10.17,73.13-10.17h2.22c15.17,0,97.41-31.07,98.45,89.69
								c0.33,38.08-8.62,61.18-21.03,74.96c14.55-13.1,25.62-36.91,25.26-79.19c-1.04-120.75-83.28-89.69-98.45-89.69h-2.22
								C280.54,292.22,239.22,277.85,213.5,306.62z"/>
						</g>
					</g>
					<path class="st4" d="M260.64,302.34c8.06-7.29,17.29-11.43,27.09-11.43c31.54,0,57.1,42.82,57.1,95.64
						c0,33.45-10.25,62.88-25.78,79.98c17.87-16.16,30.01-47.81,30.01-84.21c0-52.82-25.56-95.64-57.1-95.64
						C280.4,286.68,269.63,292.44,260.64,302.34z"/>
				</g>
				<g>
					<g>
						<path class="st5" d="M360.58,383.32c0,33.62-24.71,61.54-57.21,67.12v-8.68c0-3.3-1.33-6.29-3.5-8.45
							c-2.16-2.16-5.15-3.51-8.45-3.51c-6.6,0-11.95,5.35-11.95,11.96v8.68c-32.51-5.56-57.22-33.51-57.22-67.12
							c0.03,0.01,0.06,0.03,0.09,0.04c6.8,3.36,13.73,6.17,20.76,8.49v12.98c0,3.29,1.34,6.29,3.5,8.45c2.16,2.16,5.15,3.5,8.45,3.5
							c6.6,0,11.95-5.35,11.95-11.95v-7.13c8.11,1.32,16.26,1.98,24.41,1.98c8.15,0,16.31-0.66,24.41-1.98v3.96
							c0,3.3,1.33,6.29,3.5,8.45c2.16,2.16,5.16,3.5,8.45,3.5c6.6,0,11.96-5.35,11.96-11.95v-9.8c7.03-2.33,13.96-5.14,20.76-8.49
							C360.51,383.34,360.55,383.33,360.58,383.32z"/>
					</g>
					<g>
						<path class="st5" d="M323.21,346l-13.75,24.14c-1.87,3.28,0.5,7.35,4.27,7.35h27.5c3.77,0,6.14-4.07,4.27-7.35L331.75,346
							C329.86,342.69,325.09,342.69,323.21,346z"/>
						<path class="st5" d="M251.09,346l-13.75,24.14c-1.87,3.28,0.5,7.35,4.27,7.35h27.5c3.77,0,6.14-4.07,4.27-7.35L259.63,346
							C257.74,342.69,252.97,342.69,251.09,346z"/>
					</g>
				</g>
			</g>
		</g>
		<g>
			<path class="st6" d="M418.56,311.2c-0.85,4.08-4.05,7.48-8.4,8.38c-27.39,5.66-56.92,9.18-87.76,10.46
				c-8.93,0.37-17.98,0.56-27.11,0.56c-16.03,0-32.33-0.57-48.71-1.71c-43.82-3.06-72.73-9.06-73.94-9.31
				c-4.33-0.91-7.51-4.3-8.36-8.37c-0.3-1.42-0.31-2.93,0-4.43c1.23-5.85,6.97-9.59,12.81-8.36c0.45,0.09,29.08,6.01,71.4,8.93
				c38.99,2.69,97.92,3.33,157.3-8.94c5.85-1.21,11.57,2.55,12.78,8.4C418.87,308.3,418.86,309.79,418.56,311.2z"/>
		</g>
		<g>
			<path class="st5" d="M418.56,311.2c-0.85,4.08-4.05,7.48-8.4,8.38c-27.39,5.66-56.92,9.18-87.76,10.46
				c-8.93,0.37-17.98,0.56-27.11,0.56c-16.03,0-32.33-0.57-48.71-1.71c-43.82-3.06-72.73-9.06-73.94-9.31
				c-4.33-0.91-7.51-4.3-8.36-8.37c0-0.01,0-0.02,0-0.03c1.23-5.84,6.97-9.59,12.81-8.36c0.45,0.09,29.08,6.01,71.4,8.93
				c38.99,2.69,97.92,3.33,157.3-8.94C411.63,301.6,417.35,305.35,418.56,311.2z"/>
		</g>
	</g>
	<path class="st4" d="M348.87,471.73c0-0.01-0.01,0-0.01,0c-16.02,6.13-32.53,4.47-41.56,2.74c-4.88,2.27-10.01,3.48-15.32,3.48
		c-5.3,0-10.44-1.22-15.31-3.48c-8.98,1.72-25.34,3.37-41.27-2.63h-0.01c-17.47-0.21-39.2-4.13-55.64-19.1
		c0,0.01,0.01,0.01,0.01,0.02c-0.45-0.41-0.88-0.83-1.33-1.24c-0.22-0.22-0.43-0.43-0.66-0.65c-0.21-0.21-0.43-0.43-0.64-0.65
		c-0.43-0.44-0.86-0.89-1.28-1.35c-0.21-0.23-0.42-0.46-0.63-0.69c-0.42-0.47-0.83-0.94-1.23-1.43c-0.2-0.24-0.41-0.48-0.61-0.73
		c-0.2-0.25-0.4-0.49-0.6-0.74c-0.19-0.24-0.38-0.48-0.57-0.71c-0.02-0.04-0.06-0.08-0.09-0.12c-0.17-0.23-0.35-0.46-0.53-0.7
		c-0.78-1.04-1.53-2.11-2.26-3.23c-0.18-0.28-0.36-0.56-0.54-0.84c-0.18-0.28-0.36-0.57-0.54-0.85c-0.35-0.58-0.7-1.16-1.05-1.75
		c-0.17-0.29-0.34-0.6-0.51-0.9c-0.17-0.3-0.34-0.6-0.5-0.91c-0.17-0.31-0.33-0.61-0.49-0.93c-0.16-0.31-0.33-0.62-0.48-0.94
		c-0.81-1.59-1.56-3.23-2.27-4.94c-0.14-0.34-0.28-0.68-0.42-1.03c-0.14-0.35-0.28-0.7-0.41-1.05c-0.13-0.33-0.26-0.68-0.39-1.02
		c-0.01-0.03-0.03-0.06-0.03-0.09c-0.13-0.34-0.26-0.69-0.38-1.04c-0.13-0.36-0.26-0.73-0.38-1.1c-0.13-0.37-0.25-0.74-0.37-1.11
		c-0.12-0.38-0.24-0.75-0.36-1.13c-0.22-0.72-0.45-1.45-0.65-2.19c-0.23-0.82-0.46-1.65-0.67-2.49c-0.52-2.01-0.98-4.09-1.39-6.23
		c-0.08-0.43-0.16-0.87-0.24-1.3c-0.14-0.75-0.27-1.52-0.39-2.29c-0.18-1.12-0.34-2.25-0.49-3.41c-0.23-1.73-0.42-3.51-0.58-5.33
		c-0.04-0.49-0.08-0.97-0.12-1.46c-0.04-0.45-0.07-0.9-0.1-1.35c0-0.09-0.01-0.17-0.02-0.26c-0.03-0.45-0.06-0.91-0.08-1.36
		c-0.15-2.48-0.24-5.02-0.26-7.65v-0.12c-0.02-1.21-0.01-2.43,0-3.67c0.01-1.21,0.04-2.4,0.07-3.57c0.04,1.35,0.1,2.68,0.19,3.98
		c0.02,0.45,0.05,0.9,0.08,1.36c0.01,0.09,0.02,0.17,0.02,0.26c0.03,0.45,0.06,0.91,0.1,1.35c0.04,0.49,0.08,0.97,0.12,1.46
		c0.16,1.81,0.35,3.6,0.58,5.33c0.15,1.16,0.31,2.29,0.49,3.41c0.12,0.77,0.25,1.53,0.39,2.29c0.08,0.43,0.16,0.87,0.24,1.3
		c0.41,2.14,0.88,4.23,1.39,6.23c0.22,0.84,0.44,1.68,0.67,2.49c0.21,0.74,0.43,1.47,0.65,2.19c0.12,0.38,0.24,0.75,0.36,1.13
		c0.12,0.37,0.25,0.74,0.37,1.11c0.12,0.37,0.25,0.73,0.38,1.1c0.12,0.35,0.25,0.7,0.38,1.04c0,0.03,0.01,0.06,0.03,0.09
		c0.13,0.35,0.25,0.69,0.39,1.02c0.13,0.35,0.28,0.7,0.41,1.05c0.14,0.35,0.29,0.69,0.42,1.03c0.71,1.71,1.47,3.35,2.27,4.94
		c0.16,0.32,0.32,0.63,0.48,0.94c0.16,0.32,0.32,0.62,0.49,0.93c0.16,0.31,0.33,0.61,0.5,0.91c0.17,0.3,0.34,0.61,0.51,0.9
		c0.35,0.59,0.7,1.18,1.05,1.75c0.18,0.28,0.35,0.57,0.54,0.85c0.18,0.29,0.36,0.57,0.54,0.84c0.73,1.12,1.49,2.19,2.26,3.23
		c0.18,0.23,0.36,0.46,0.53,0.7c0.03,0.04,0.06,0.08,0.09,0.12c0.19,0.24,0.38,0.48,0.57,0.71c0.2,0.25,0.39,0.5,0.6,0.74
		c0.2,0.25,0.41,0.49,0.61,0.73c0.41,0.49,0.82,0.96,1.23,1.43c0.21,0.23,0.42,0.46,0.63,0.69c0.42,0.46,0.85,0.91,1.28,1.35
		c0.22,0.22,0.43,0.43,0.64,0.65c0.22,0.22,0.43,0.43,0.66,0.65c0.44,0.42,0.88,0.84,1.33,1.24c0-0.01-0.01-0.01-0.01-0.02
		c16.44,14.98,38.17,18.89,55.64,19.1h0.01c15.93,6,32.29,4.36,41.27,2.63c4.87,2.27,10.01,3.48,15.31,3.48
		c5.3,0,10.44-1.22,15.32-3.48c9.03,1.73,25.54,3.39,41.56-2.74c0,0,0.01-0.01,0.01,0c33.08-1.4,77.55-15.82,79.82-82.6
		c0.04,1.21,0.07,2.43,0.08,3.67C429.61,454.86,383.13,470.27,348.87,471.73z"/>
</g>
</svg>
