<?xml version="1.0" encoding="utf-8"?>
<!-- Generator: Adobe Illustrator 23.0.1, SVG Export Plug-In . SVG Version: 6.00 Build 0)  -->
<svg version="1.1" id="Layer_1" xmlns="http://www.w3.org/2000/svg" xmlns:xlink="http://www.w3.org/1999/xlink" x="0px" y="0px"
	 viewBox="0 0 595.28 841.89" style="enable-background:new 0 0 595.28 841.89;" xml:space="preserve">
<style type="text/css">
	.st0{fill:#E5F3F5;}
	.st1{fill:#3FB8B7;}
	.st2{fill:#E6285E;}
	.st3{fill:#FFFFFF;}
	.st4{fill:#EA4B7B;}
	.st5{fill:#EB5B88;}
	.st6{fill:#6AC4D0;}
	.st7{fill:#ABDCED;}
	.st8{fill:#68C2C4;}
</style>
<g>
	
		<ellipse transform="matrix(0.9957 -0.0921 0.0921 0.9957 -9.3486 8.4583)" class="st0" cx="86.96" cy="105.5" rx="59.49" ry="61.16"/>
	<path class="st1" d="M103.03,46.71c-6.87-2.02-14.2-2.93-21.72-2.23c-32.72,3.03-56.71,32.88-53.6,66.51
		c0.26,2.85,0.72,5.64,1.34,8.35c2.53-7.22,6.05-11.36,6.05-11.36C42.64,80.08,93.62,51.74,103.03,46.71z"/>
	<path class="st2" d="M50.33,153.48c6.42-0.76,11.45-2.83,11.45-2.83c8.62-11.86-7.66-26.68-17.41-17.05
		c-2.67,2.64-4.57,5.01-5.93,7.07C41.8,145.52,45.81,149.84,50.33,153.48z"/>
	<path class="st1" d="M146.22,100.03c-0.49-5.34-1.64-10.46-3.36-15.28l-54.11,74.24c0,0-8.41,3.8-17.05,5.55
		c6.63,1.84,13.68,2.54,20.91,1.87C125.33,163.39,149.33,133.67,146.22,100.03z"/>
	
		<ellipse transform="matrix(0.9957 -0.0921 0.0921 0.9957 -8.9666 8.7709)" class="st3" cx="90.53" cy="101.52" rx="55.79" ry="57.53"/>
	<path class="st3" d="M140.99,108.66c0.62,6.68,0.29,13.22-0.86,19.49c4.75-9.44,7.01-20.36,5.95-31.76
		c-2.93-31.64-30.17-54.98-60.85-52.14c-2.84,0.26-5.61,0.74-8.3,1.42C109.97,47.25,137.77,73.76,140.99,108.66z"/>
	<path class="st4" d="M137.59,70.85c-3.37-5.57-7.48-10.17-12.28-14.11c-18.76,11.65-57.01,38.57-80.9,76.9
		c4.54,6.93,10.53,12.71,17.41,17.05C84.59,131.96,120.65,99.75,137.59,70.85z"/>
	<path class="st5" d="M125.31,56.75c-2.4,1.49-5.13,3.24-8.1,5.23c5.78,5.01,10.75,11.01,14.65,17.78c2.08-2.99,4.01-5.96,5.73-8.9
		c-0.24-0.39-0.47-0.78-0.72-1.16c0,0-0.01-0.01-0.01-0.01c-2.97-4.56-6.55-8.65-10.6-12.15c-0.14-0.12-0.28-0.24-0.43-0.36
		C125.67,57.03,125.49,56.89,125.31,56.75z"/>
	<path class="st2" d="M60.14,149.58c0.56,0.38,1.11,0.76,1.68,1.12c30.22-21.66,57.17-43.87,75.77-79.85
		c-0.31-0.52-0.64-1.02-0.96-1.52C119.11,98.45,83.14,130.63,60.14,149.58z"/>
	<path class="st2" d="M130.87,78.1c0.47,0.77,0.93,1.55,1.37,2.34c1.85-3.09,3.63-6.28,5.34-9.58c-0.24-0.43-0.7-1.18-0.96-1.53
		C134.89,72.22,132.95,75.16,130.87,78.1z"/>
	<path class="st6" d="M146.09,96.38c-0.4-4.36-1.28-8.63-2.54-12.56c-2.37,12.98-12.52,41.27-54.76,75.16
		c2.32,0.09,4.67,0.04,7.04-0.18C126.51,155.96,149.01,128.02,146.09,96.38z"/>
	<path class="st7" d="M145.74,93.35c-0.13-0.94-0.29-1.87-0.47-2.79c-0.01-0.03-0.01-0.05-0.02-0.08c-0.18-0.93-0.38-1.84-0.6-2.75
		c-0.01-0.04-0.02-0.08-0.03-0.12c-0.2-0.82-0.42-1.63-0.66-2.44c-0.14-0.46-0.28-0.92-0.43-1.37c0,0-0.01-0.02-0.01-0.03
		c-0.66,3.62-1.93,8.44-4.33,14.24c0.85,3.43,1.46,6.97,1.8,10.6c0.62,6.68,0.29,13.22-0.86,19.49c0.88-1.75,1.67-3.55,2.37-5.39
		c0.01-0.04,0.03-0.07,0.04-0.11c0.22-0.59,0.44-1.18,0.64-1.78c0.03-0.08,0.05-0.16,0.08-0.24c0.4-1.18,0.76-2.37,1.08-3.58
		c0.01-0.04,0.02-0.07,0.03-0.11c0.13-0.5,0.26-1.01,0.38-1.52c0.07-0.29,0.13-0.58,0.2-0.87c0.1-0.47,0.2-0.93,0.3-1.4
		c0.09-0.44,0.16-0.89,0.24-1.34c0.1-0.59,0.19-1.18,0.28-1.78c0.07-0.49,0.13-0.99,0.19-1.48c0.04-0.36,0.08-0.71,0.11-1.07
		c0.05-0.56,0.1-1.12,0.13-1.69c0.02-0.27,0.04-0.54,0.05-0.82c0.04-0.82,0.07-1.65,0.08-2.47c0-0.24,0-0.49,0-0.73
		c0-0.65-0.01-1.31-0.04-1.97c-0.01-0.26-0.02-0.52-0.03-0.78c-0.04-0.87-0.1-1.75-0.18-2.63c-0.09-0.95-0.2-1.88-0.33-2.82
		C145.76,93.48,145.75,93.41,145.74,93.35z"/>
	<path class="st2" d="M86.69,90.9c19.15-17.76,40.32-32.64,40.37-32.67c-0.63-0.57-1.09-0.95-1.74-1.49
		c-18.76,11.65-57.01,38.57-80.9,76.9c0.98,1.49,2.34,3.28,2.34,3.28C56.69,123.33,74.12,102.56,86.69,90.9z"/>
	<path class="st2" d="M125.32,56.74c-2.4,1.49-5.13,3.24-8.1,5.23c0.72,0.62,1.43,1.26,2.12,1.92c4.61-3.46,7.55-5.53,7.72-5.65
		C126.49,57.73,125.91,57.23,125.32,56.74z"/>
	<path class="st1" d="M88.73,158.99c2.37,0.16,3.18,0.05,3.18,0.05c9.97-7.02,25.22-19.01,34.96-33.45
		c11.36-16.86,16.05-30.52,17.59-38.6c0,0-0.25-1.23-0.92-3.19C141.16,96.77,130.97,125.09,88.73,158.99z"/>
	<path class="st8" d="M143.54,83.79c-0.66,3.62-1.94,8.43-4.34,14.22c0.28,1.15,0.54,2.3,0.77,3.47c2.39-5.86,3.78-10.79,4.5-14.52
		C144.23,85.9,143.88,84.74,143.54,83.79z"/>
	<path class="st1" d="M103.64,45.67c0,0,1.87,0.52,2.51,0.71c0,0-18.51,5.95-35.76,19.23c-20.03,15.43-35.28,42.36-35.28,42.36
		s-0.37-3.1-0.37-4.65c0,0,15.96-33.8,33.38-44.81C85.54,47.51,103.64,45.67,103.64,45.67z"/>
	<path class="st8" d="M91.84,48.12c1.81,0.52,3.59,1.12,5.34,1.79c5.24-2.31,8.71-3.45,8.97-3.53c-0.46-0.14-0.91-0.29-1.38-0.42
		c-0.05-0.01-0.09-0.03-0.14-0.04c-0.35-0.09-0.7-0.17-1.05-0.26C102.96,45.74,98.36,46.29,91.84,48.12z"/>
	<path class="st6" d="M104.54,45.92c-6.18-1.79-12.63-2.29-19.3-1.68c-30.54,2.82-53.46,30.98-50.29,61.97
		C62.44,52.02,104.38,45.94,104.54,45.92z"/>
	<path class="st7" d="M94.2,48.88c6.27-2.36,10.25-2.94,10.34-2.95c-5.24-1.43-10.76-2.09-16.42-1.87c-0.01,0-0.01,0-0.02,0
		c-0.95,0.04-1.9,0.1-2.86,0.19c-0.86,0.08-1.72,0.19-2.57,0.31c-0.23,0.03-0.45,0.07-0.68,0.1c-0.69,0.11-1.37,0.22-2.05,0.35
		c-0.17,0.03-0.34,0.06-0.51,0.1c-0.83,0.17-1.66,0.36-2.47,0.56C82.92,45.96,88.7,47.07,94.2,48.88z"/>
	<path class="st3" d="M42.3,71.93c0,0-0.86,1.97-1.98,5.52c-0.56,1.77-1.15,3.95-1.73,6.46c-0.56,2.51-1.07,5.37-1.43,8.5
		c-0.35,3.13-0.51,6.53-0.41,10.11c0.12,3.58,0.58,7.32,1.4,11.1c0.82,3.78,2.15,7.57,3.83,11.25c1.69,3.68,3.85,7.21,6.37,10.47
		c0.32,0.4,0.63,0.84,0.94,1.21l1.01,1.23l0.99,1.15l1.04,1.14c1.41,1.49,2.87,2.92,4.4,4.24c3.07,2.63,6.35,4.93,9.77,6.73
		c3.42,1.8,6.91,3.18,10.34,4.17c3.43,0.97,6.77,1.61,9.89,1.97c3.12,0.34,6.02,0.46,8.59,0.43c2.57-0.04,4.82-0.19,6.67-0.39
		c3.7-0.4,5.79-0.89,5.79-0.89s-0.49,0.21-1.45,0.53c-0.96,0.31-2.37,0.76-4.2,1.18c-1.83,0.43-4.09,0.87-6.71,1.16
		c-2.62,0.3-5.6,0.49-8.87,0.36c-3.26-0.11-6.81-0.49-10.49-1.34c-3.68-0.84-7.5-2.08-11.22-3.91c-3.72-1.82-7.39-4.11-10.72-6.92
		c-1.67-1.4-3.28-2.89-4.79-4.49l-1.12-1.21l-1.1-1.27l-1.02-1.24c-0.38-0.45-0.69-0.87-1.03-1.32c-2.65-3.53-4.93-7.35-6.71-11.33
		c-1.8-3.97-2.99-8.12-3.76-12.18c-0.78-4.06-1-8.06-0.92-11.82c0.07-3.76,0.53-7.29,1.15-10.48c0.61-3.2,1.42-6.07,2.26-8.57
		c0.82-2.5,1.71-4.61,2.48-6.33c0.77-1.72,1.48-3.02,1.96-3.9C42.01,72.38,42.3,71.93,42.3,71.93z"/>
</g>
</svg>
