<?xml version="1.0" encoding="utf-8"?>
<!-- Generator: Adobe Illustrator 23.0.1, SVG Export Plug-In . SVG Version: 6.00 Build 0)  -->
<svg version="1.1" id="Layer_1" xmlns="http://www.w3.org/2000/svg" xmlns:xlink="http://www.w3.org/1999/xlink" x="0px" y="0px"
	 viewBox="0 0 129.4 135.6" style="enable-background:new 0 0 129.4 135.6;" xml:space="preserve">
<style type="text/css">
	.st0{fill:#F08016;}
	.st1{fill:#FEC906;}
	.st2{fill:#EFE8DF;}
	.st3{fill:#ED6B18;}
	.st4{fill:#F9AE0E;}
	.st5{fill:#DCD2CB;}
	.st6{fill:#F59F43;}
	.st7{fill:#F4EEE7;}
</style>
<g>
	<path class="st0" d="M31.9,129.6c21.8,20.5,97.4-24.1,96.1-62.9c-0.5-15.4-86.7-87.2-118-61C-15.9,27.5,19.7,118.1,31.9,129.6
		L31.9,129.6z"/>
	<path class="st1" d="M16.4,100.8c5.7,14.3,11.7,25.3,15.5,28.9c21.8,20.5,97.4-24.1,96.1-62.9c-0.2-5-9.3-15.9-22.7-27.5
		C100.6,73.2,42.6,109.1,16.4,100.8z"/>
	<path class="st2" d="M66.1,12.1C44.6,0.7,22.7-5,10,5.8C-1.4,15.3-0.9,38,4.2,61.5C30.2,62.7,62.3,34,66.1,12.1L66.1,12.1z"/>
	<path class="st3" d="M32,0.3c0,0,73.5,41.7,62.8,88.6c-10.7,46.8-62.6,37.1-71.2,27.6l-0.1-0.1c3.2,6.4,6.2,11.1,8.4,13.2
		c21.8,20.5,97.4-24.1,96.1-62.9C127.6,54.2,70.1,4,32,0.3z"/>
	<path class="st4" d="M105.3,39.2c-1.2,8.4-5.6,17-12.1,25c2.6,7.9,3.2,16.6,0.6,24.9c-12.4,39.7-61.7,36.8-70.3,27.4
		c0,0,5.8,11.8,9.3,14.3c16.3,12,55.4-3.2,78.2-28c10.4-11.3,20.9-26.3,16.8-38.5C126.4,60.1,117.1,49.4,105.3,39.2z"/>
	<path class="st5" d="M31.6,0.2c0,0,15.6,9.1,30.9,22.3c1.8-3.5,3.1-7.1,3.7-10.4C54,5.5,42.2,1.2,31.6,0.2z"/>
	<path class="st6" d="M25.9,56.7c-5.7,2.6-11.6,4.3-17.3,4.7C13.2,75.4,21.8,85.2,27,85.2c0.3,0,0.6,0,0.9-0.1
		C32.9,83.9,29.6,71.5,25.9,56.7L25.9,56.7z"/>
	<path class="st7" d="M13.5,21.7c-0.3,0-0.5,0-0.8,0.1C7,23.2,3,39.1,7.2,56.6c0.4,1.7,0.8,3.2,1.4,4.8c5.7-0.4,11.6-2.1,17.3-4.7
		c-0.5-2-1-4-1.5-6.1C20.3,33.9,18.5,21.7,13.5,21.7L13.5,21.7z"/>
</g>
</svg>
