<?xml version="1.0" encoding="utf-8"?>
<!-- Generator: Adobe Illustrator 23.0.1, SVG Export Plug-In . SVG Version: 6.00 Build 0)  -->
<svg version="1.1" id="Layer_1" xmlns="http://www.w3.org/2000/svg" xmlns:xlink="http://www.w3.org/1999/xlink" x="0px" y="0px"
	 viewBox="0 0 166 198.9" style="enable-background:new 0 0 166 198.9;" xml:space="preserve">
<style type="text/css">
	.st0{fill:#E5F3F5;}
	.st1{fill:#3FB8B7;}
	.st2{fill:#E6285E;}
	.st3{fill:#FFFFFF;}
	.st4{fill:#EA4B7B;}
	.st5{fill:#EB5B88;}
	.st6{fill:#6AC4D0;}
	.st7{fill:#ABDCED;}
	.st8{fill:#68C2C4;}
</style>
<g>
	
		<ellipse transform="matrix(0.9957 -9.210428e-02 9.210428e-02 0.9957 -9.347 8.4573)" class="st0" cx="87" cy="105.5" rx="59.5" ry="61.2"/>
	<path class="st1" d="M103,46.7c-6.9-2-14.2-2.9-21.7-2.2c-32.7,3-56.7,32.9-53.6,66.5c0.3,2.8,0.7,5.6,1.3,8.3
		c2.5-7.2,6-11.4,6-11.4C42.6,80.1,93.6,51.7,103,46.7z"/>
	<path class="st2" d="M50.3,153.5c6.4-0.8,11.5-2.8,11.5-2.8c8.6-11.9-7.7-26.7-17.4-17.1c-2.7,2.6-4.6,5-5.9,7.1
		C41.8,145.5,45.8,149.8,50.3,153.5z"/>
	<path class="st1" d="M146.2,100c-0.5-5.3-1.6-10.5-3.4-15.3L88.8,159c0,0-8.4,3.8-17.1,5.6c6.6,1.8,13.7,2.5,20.9,1.9
		C125.3,163.4,149.3,133.7,146.2,100z"/>
	
		<ellipse transform="matrix(0.9957 -9.210512e-02 9.210512e-02 0.9957 -8.9654 8.7693)" class="st3" cx="90.5" cy="101.5" rx="55.8" ry="57.5"/>
	<path class="st3" d="M141,108.7c0.6,6.7,0.3,13.2-0.9,19.5c4.8-9.4,7-20.4,5.9-31.8c-2.9-31.6-30.2-55-60.8-52.1
		c-2.8,0.3-5.6,0.7-8.3,1.4C110,47.2,137.8,73.8,141,108.7z"/>
	<path class="st4" d="M137.6,70.8c-3.4-5.6-7.5-10.2-12.3-14.1c-18.8,11.7-57,38.6-80.9,76.9c4.5,6.9,10.5,12.7,17.4,17.1
		C84.6,132,120.7,99.7,137.6,70.8z"/>
	<path class="st5" d="M125.3,56.7c-2.4,1.5-5.1,3.2-8.1,5.2c5.8,5,10.8,11,14.7,17.8c2.1-3,4-6,5.7-8.9c-0.2-0.4-0.5-0.8-0.7-1.2
		l0,0c-3-4.6-6.6-8.7-10.6-12.2c-0.1-0.1-0.3-0.2-0.4-0.4C125.7,57,125.5,56.9,125.3,56.7z"/>
	<path class="st2" d="M60.1,149.6c0.6,0.4,1.1,0.8,1.7,1.1C92,129,119,106.8,137.6,70.8c-0.3-0.5-0.6-1-1-1.5
		C119.1,98.4,83.1,130.6,60.1,149.6z"/>
	<path class="st2" d="M130.9,78.1c0.5,0.8,0.9,1.6,1.4,2.3c1.9-3.1,3.6-6.3,5.3-9.6c-0.2-0.4-0.7-1.2-1-1.5
		C134.9,72.2,132.9,75.2,130.9,78.1z"/>
	<path class="st6" d="M146.1,96.4c-0.4-4.4-1.3-8.6-2.5-12.6c-2.4,13-12.5,41.3-54.8,75.2c2.3,0.1,4.7,0,7-0.2
		C126.5,156,149,128,146.1,96.4z"/>
	<path class="st7" d="M145.7,93.3c-0.1-0.9-0.3-1.9-0.5-2.8c0,0,0-0.1,0-0.1c-0.2-0.9-0.4-1.8-0.6-2.8c0,0,0-0.1,0-0.1
		c-0.2-0.8-0.4-1.6-0.7-2.4c-0.1-0.5-0.3-0.9-0.4-1.4c0,0,0,0,0,0c-0.7,3.6-1.9,8.4-4.3,14.2c0.9,3.4,1.5,7,1.8,10.6
		c0.6,6.7,0.3,13.2-0.9,19.5c0.9-1.8,1.7-3.6,2.4-5.4c0,0,0-0.1,0-0.1c0.2-0.6,0.4-1.2,0.6-1.8c0-0.1,0.1-0.2,0.1-0.2
		c0.4-1.2,0.8-2.4,1.1-3.6c0,0,0-0.1,0-0.1c0.1-0.5,0.3-1,0.4-1.5c0.1-0.3,0.1-0.6,0.2-0.9c0.1-0.5,0.2-0.9,0.3-1.4
		c0.1-0.4,0.2-0.9,0.2-1.3c0.1-0.6,0.2-1.2,0.3-1.8c0.1-0.5,0.1-1,0.2-1.5c0-0.4,0.1-0.7,0.1-1.1c0.1-0.6,0.1-1.1,0.1-1.7
		c0-0.3,0-0.5,0.1-0.8c0-0.8,0.1-1.7,0.1-2.5c0-0.2,0-0.5,0-0.7c0-0.7,0-1.3,0-2c0-0.3,0-0.5,0-0.8c0-0.9-0.1-1.8-0.2-2.6
		c-0.1-0.9-0.2-1.9-0.3-2.8C145.8,93.5,145.8,93.4,145.7,93.3z"/>
	<path class="st2" d="M86.7,90.9c19.2-17.8,40.3-32.6,40.4-32.7c-0.6-0.6-1.1-1-1.7-1.5c-18.8,11.6-57,38.6-80.9,76.9
		c1,1.5,2.3,3.3,2.3,3.3C56.7,123.3,74.1,102.6,86.7,90.9z"/>
	<path class="st2" d="M125.3,56.7c-2.4,1.5-5.1,3.2-8.1,5.2c0.7,0.6,1.4,1.3,2.1,1.9c4.6-3.5,7.6-5.5,7.7-5.7
		C126.5,57.7,125.9,57.2,125.3,56.7z"/>
	<path class="st1" d="M88.7,159c2.4,0.2,3.2,0.1,3.2,0.1c10-7,25.2-19,35-33.5c11.4-16.9,16-30.5,17.6-38.6c0,0-0.2-1.2-0.9-3.2
		C141.2,96.8,131,125.1,88.7,159z"/>
	<path class="st8" d="M143.5,83.8c-0.7,3.6-1.9,8.4-4.3,14.2c0.3,1.2,0.5,2.3,0.8,3.5c2.4-5.9,3.8-10.8,4.5-14.5
		C144.2,85.9,143.9,84.7,143.5,83.8z"/>
	<path class="st1" d="M103.6,45.7c0,0,1.9,0.5,2.5,0.7c0,0-18.5,6-35.8,19.2C50.4,81,35.1,108,35.1,108s-0.4-3.1-0.4-4.7
		c0,0,16-33.8,33.4-44.8C85.5,47.5,103.6,45.7,103.6,45.7z"/>
	<path class="st8" d="M91.8,48.1c1.8,0.5,3.6,1.1,5.3,1.8c5.2-2.3,8.7-3.5,9-3.5c-0.5-0.1-0.9-0.3-1.4-0.4c-0.1,0-0.1,0-0.1,0
		c-0.3-0.1-0.7-0.2-1.1-0.3C103,45.7,98.4,46.3,91.8,48.1z"/>
	<path class="st6" d="M104.5,45.9c-6.2-1.8-12.6-2.3-19.3-1.7c-30.5,2.8-53.5,31-50.3,62C62.4,52,104.4,45.9,104.5,45.9z"/>
	<path class="st7" d="M94.2,48.9c6.3-2.4,10.2-2.9,10.3-3c-5.2-1.4-10.8-2.1-16.4-1.9c0,0,0,0,0,0c-0.9,0-1.9,0.1-2.9,0.2
		c-0.9,0.1-1.7,0.2-2.6,0.3c-0.2,0-0.4,0.1-0.7,0.1c-0.7,0.1-1.4,0.2-2.1,0.3c-0.2,0-0.3,0.1-0.5,0.1c-0.8,0.2-1.7,0.4-2.5,0.6
		C82.9,46,88.7,47.1,94.2,48.9z"/>
	<path class="st3" d="M42.3,71.9c0,0-0.9,2-2,5.5c-0.6,1.8-1.2,3.9-1.7,6.5c-0.6,2.5-1.1,5.4-1.4,8.5c-0.3,3.1-0.5,6.5-0.4,10.1
		c0.1,3.6,0.6,7.3,1.4,11.1s2.2,7.6,3.8,11.2c1.7,3.7,3.8,7.2,6.4,10.5c0.3,0.4,0.6,0.8,0.9,1.2l1,1.2l1,1.1l1,1.1
		c1.4,1.5,2.9,2.9,4.4,4.2c3.1,2.6,6.3,4.9,9.8,6.7s6.9,3.2,10.3,4.2c3.4,1,6.8,1.6,9.9,2c3.1,0.3,6,0.5,8.6,0.4
		c2.6,0,4.8-0.2,6.7-0.4c3.7-0.4,5.8-0.9,5.8-0.9s-0.5,0.2-1.4,0.5c-1,0.3-2.4,0.8-4.2,1.2c-1.8,0.4-4.1,0.9-6.7,1.2
		c-2.6,0.3-5.6,0.5-8.9,0.4c-3.3-0.1-6.8-0.5-10.5-1.3c-3.7-0.8-7.5-2.1-11.2-3.9c-3.7-1.8-7.4-4.1-10.7-6.9
		c-1.7-1.4-3.3-2.9-4.8-4.5l-1.1-1.2l-1.1-1.3l-1-1.2c-0.4-0.4-0.7-0.9-1-1.3c-2.7-3.5-4.9-7.4-6.7-11.3c-1.8-4-3-8.1-3.8-12.2
		c-0.8-4.1-1-8.1-0.9-11.8c0.1-3.8,0.5-7.3,1.2-10.5c0.6-3.2,1.4-6.1,2.3-8.6c0.8-2.5,1.7-4.6,2.5-6.3s1.5-3,2-3.9
		C42,72.4,42.3,71.9,42.3,71.9z"/>
</g>
</svg>
