<?xml version="1.0" encoding="utf-8"?>
<!-- Generator: Adobe Illustrator 23.0.1, SVG Export Plug-In . SVG Version: 6.00 Build 0)  -->
<svg version="1.1" id="Layer_1" xmlns="http://www.w3.org/2000/svg" xmlns:xlink="http://www.w3.org/1999/xlink" x="0px" y="0px"
	 viewBox="0 0 198.3 218.9" style="enable-background:new 0 0 198.3 218.9;" xml:space="preserve">
<style type="text/css">
	.st0{fill:#6E62A9;}
	.st1{fill:#5D55A0;}
	.st2{fill:#8F80BB;}
	.st3{fill:#BFB4DA;}
	.st4{fill:#A494C7;}
	.st5{fill:#CAC0E0;}
	.st6{fill:#EBE8F5;}
	.st7{fill:#5F56A1;}
	.st8{fill:#897BB8;}
	.st9{fill:#B5A9D3;}
</style>
<g>
	<path class="st0" d="M108.8,65.7c0,0-2.4-19.5-0.4-27.2c2-7.7,18.2-29,21.6-29.2s8.2,22.2,10.4,24c1,0.9,6.5-2.3,12.4-5.6
		c6.5-3.6,13.7-7.1,16.2-5.2c4.8,3.8-7.7,28.2-5.3,29.8c1.1,0.8,7,0.5,13.1,0.2c6.8-0.3,13.9-0.7,15,0.5c2.2,2.2-15.4,29-23.4,31.5
		s-28.1,5.8-28.1,5.8L108.8,65.7L108.8,65.7z"/>
	<path class="st0" d="M62.9,123.8c0,0-19.8,2.2-26.8,5.9c-7.1,3.7-24.3,24.1-23.8,27.5c0.5,3.4,23.7,2.8,26.1,4.5s-8.8,26.2-4,29.9
		c2.5,2,9.5-1.9,15.9-5.8c5.9-3.5,11.2-7.1,12.2-6.2c2.1,1.9,4.5,25.3,7.1,26.9c2.7,1.7,25-21.4,25.7-29.8s-0.8-28.4-0.8-28.4
		L62.9,123.8L62.9,123.8z"/>
	<path class="st1" d="M191.9,53.1c-1.2-1.1-8.3-0.8-15.1-0.5c-6.1,0.3-12,0.6-13.1-0.2c0,0-5.4,14.4-19.4,33c0,0-1.8,3.3-3,4.8
		c4-0.7,20.2-3.4,27.2-5.7C176.5,82,194.1,55.2,191.9,53.1L191.9,53.1z"/>
	<path class="st1" d="M95.2,176.9c0.7-8.3-0.8-28.4-0.8-28.4l-1.4-1.1c-20.6,18.8-41.2,33.1-59.9,42c0.2,0.9,0.5,1.7,1.1,2.1
		c2.5,2,9.5-1.9,15.9-5.8c5.9-3.5,11.2-7.1,12.2-6.2c2.1,1.9,4.5,25.3,7.1,26.9C72.2,208.3,94.6,185.2,95.2,176.9L95.2,176.9z"/>
	<path class="st2" d="M141.1,137c-17.4,21.7-49.2,25.4-71.1,8.3S44.4,96.7,61.8,75c17.4-21.7,49.2-25.4,71.1-8.3
		C154.8,83.9,158.5,115.3,141.1,137L141.1,137z"/>
	<path class="st3" d="M124.5,78.8C85.6,48.3,68.8,97.4,76,113.2c0,0-8,9.6-5.8,14.1c1.9,3.8,6.3,2,6.3,2s-2.6,6.9,0.4,9.3
		c3.1,2.5,8.6-1.9,8.6-1.9s-0.2,4.5,4.4,4.8c5.8,0.3,12.7-7.9,12.7-7.9C119.8,135.9,162.6,108.6,124.5,78.8L124.5,78.8z M90.7,101.8
		c-3.5-1.9-4.9-6.2-3.2-9.7c1.7-3.4,5.9-4.6,9.4-2.7c3.5,1.9,4.9,6.2,3.2,9.7C98.3,102.5,94.1,103.7,90.7,101.8L90.7,101.8z
		 M121,120c-4.4,2.6-10.5,1.4-13.5-2.7s-1.9-9.6,2.5-12.2c4.4-2.6,10.5-1.4,13.5,2.7C126.6,111.8,125.4,117.3,121,120L121,120z"/>
	<path class="st4" d="M93.4,88.5c-2.4,0-4.7,1.3-5.9,3.6c-1.7,3.4-0.3,7.7,3.2,9.7c1.1,0.6,2.3,0.9,3.5,0.9c2.4,0,4.7-1.3,5.9-3.6
		c1.7-3.4,0.3-7.7-3.2-9.7C95.7,88.8,94.5,88.5,93.4,88.5L93.4,88.5z M99.1,61.9c-1,0-2,0.1-3,0.3C80.3,65.4,66.3,79.8,60.3,92
		c-5.8,12-2,16.5,10.8,16.5c0.2,0,0.4,0,0.5,0c0.9,0,1.9-0.1,3-0.2c-2-14.2,7-39.2,26.6-39.2c5.6,0,12.2,2.1,19.6,7.1
		C116.8,68.4,107.6,61.9,99.1,61.9L99.1,61.9z"/>
	<path class="st5" d="M94.1,102.7c-1.2,0-2.4-0.3-3.5-0.9c-3.5-1.9-4.9-6.2-3.2-9.7c1.1-2.3,3.4-3.6,5.9-3.6c1.2,0,2.4,0.3,3.5,0.9
		c3.5,1.9,4.9,6.2,3.2,9.7C98.9,101.4,96.6,102.7,94.1,102.7L94.1,102.7z M101.3,69c-19.6,0-28.7,25.1-26.6,39.2
		c14.7-1.5,44.1-12,47.3-19.9c1.6-3.9,1-8.2-1.1-12.2C113.5,71.1,107,69,101.3,69L101.3,69z"/>
	<path class="st6" d="M94.9,155.7L94.9,155.7c0.5,0.1,1,0.1,1.6,0.2C96,155.8,95.5,155.8,94.9,155.7L94.9,155.7z M141.1,137
		c-0.1,0.1-0.1,0.2-0.2,0.3C141,137.2,141,137.1,141.1,137L141.1,137z M141.2,136.9C141.2,136.9,141.2,136.9,141.2,136.9
		C141.2,136.9,141.2,136.9,141.2,136.9L141.2,136.9z M141.2,136.9L141.2,136.9C141.2,136.9,141.2,136.9,141.2,136.9L141.2,136.9z
		 M141.3,136.8C141.3,136.8,141.3,136.8,141.3,136.8C141.3,136.8,141.3,136.8,141.3,136.8L141.3,136.8z M141.4,136.7
		C141.4,136.7,141.4,136.7,141.4,136.7C141.4,136.7,141.4,136.7,141.4,136.7L141.4,136.7z M141.5,136.6L141.5,136.6L141.5,136.6
		L141.5,136.6z M149,88.9L149,88.9c3.4,9.3,4,19.5,1.5,29.2C153,108.5,152.5,98.3,149,88.9L149,88.9z"/>
	<polygon class="st0" points="149,88.9 149,88.9 149,88.9 149,88.9 	"/>
	<polygon class="st0" points="94.9,155.7 94.9,155.7 94.9,155.7 94.9,155.7 	"/>
	<path class="st7" d="M146.3,82.7L146.3,82.7c1,2,2,4.1,2.7,6.2l0,0C148.3,86.8,147.4,84.7,146.3,82.7L146.3,82.7z"/>
	<path class="st7" d="M86.1,153.8C86.1,153.8,86.1,153.8,86.1,153.8c2.9,0.9,5.9,1.6,8.9,1.9l0,0C92,155.3,89,154.7,86.1,153.8
		L86.1,153.8z"/>
	<path class="st8" d="M125.1,114.4c-1.6,2-3.3,4.1-5,6c0.3-0.1,0.6-0.3,0.9-0.5C123.2,118.6,124.6,116.6,125.1,114.4L125.1,114.4z
		 M146.3,82.7c-2.5,4.2-5.2,8.6-8,13c7.5,19.6-15,35.3-30,37.6c-7.3,7.5-14.8,14.3-22.3,20.4c2.9,0.9,5.9,1.5,8.9,1.9l0,0
		c0.5,0.1,1,0.1,1.6,0.2c1.6,0.1,3.2,0.2,4.7,0.2c14.9,0,29.6-6.4,39.6-18.8c0.1-0.1,0.1-0.2,0.2-0.3l0,0c0,0,0-0.1,0.1-0.1
		c0,0,0,0,0,0c0,0,0-0.1,0.1-0.1l0,0c0,0,0-0.1,0.1-0.1c0,0,0,0,0,0c0,0,0-0.1,0.1-0.1c0,0,0,0,0,0c0,0,0-0.1,0.1-0.1l0,0
		c4.4-5.6,7.4-11.9,9.1-18.4c2.5-9.7,1.9-19.9-1.5-29.2l0,0C148.3,86.8,147.4,84.7,146.3,82.7L146.3,82.7z"/>
	<path class="st9" d="M138.3,95.7c-4,6.2-8.3,12.5-13,18.4c-0.1,0.1-0.2,0.2-0.2,0.3c-0.5,2.2-1.9,4.2-4.1,5.5
		c-0.3,0.2-0.6,0.3-0.9,0.5c-3.8,4.5-7.8,8.8-11.7,12.9C123.3,131.1,145.8,115.3,138.3,95.7L138.3,95.7z"/>
</g>
</svg>
