<?xml version="1.0" encoding="utf-8"?>
<!-- Generator: Adobe Illustrator 23.0.1, SVG Export Plug-In . SVG Version: 6.00 Build 0)  -->
<svg version="1.1" id="Layer_1" xmlns="http://www.w3.org/2000/svg" xmlns:xlink="http://www.w3.org/1999/xlink" x="0px" y="0px"
	 viewBox="0 0 198 173.9" style="enable-background:new 0 0 198 173.9;" xml:space="preserve">
<style type="text/css">
	.st0{fill:#B2CC31;}
	.st1{fill:#7BB929;}
	.st2{fill:#F3EAF5;}
	.st3{fill:#DCE1ED;}
	.st4{fill:#CCDB72;}
	.st5{fill:#F7F0F8;}
	.st6{fill:#FFFFFF;}
</style>
<g>
	<path class="st0" d="M162.2,130.4c-21.9,23.4-61.2,21.7-87.8-3.6s-30.6-64.9-8.7-88.2c21.8-23.4,61.2-21.7,87.8,3.6
		C180.1,67.5,184,107.1,162.2,130.4L162.2,130.4z"/>
	<path class="st1" d="M176,98.5c-0.6,0.7-1.2,1.5-1.8,2.2c-21.9,23.4-61.2,21.7-87.8-3.6C69.8,81.3,62,60.1,63.7,40.7
		c-19.7,23.6-15.3,61.4,10.5,86c26.7,25.4,66,27,87.8,3.6C170.4,121.5,174.9,110.3,176,98.5z"/>
	<path class="st2" d="M162.8,53c-2.7-3.8-5.8-7.4-9.4-10.8c-4.9-4.7-10.2-8.5-15.8-11.6c-12.2-2.5-28.7-2.8-46.3,5.6
		c-18.8,9-31.8,25.2-39.8,38.3c-0.2,12.2,3.1,24.8,10,36.3C78.1,63.8,118.8,39.9,162.8,53L162.8,53z"/>
	<path class="st3" d="M75.3,83.9c-5.6-8.5-9.2-17.7-10.8-27c-5.2,5.9-9.6,12-13,17.6c0,0.1,0,0.2,0,0.3c-0.1,5.9,0.7,11.8,2.2,17.7
		c0,0.2,0.1,0.4,0.2,0.6c0.4,1.3,0.8,2.6,1.2,3.9c0.1,0.4,0.3,0.8,0.4,1.2c0.5,1.2,0.9,2.5,1.4,3.7c0.1,0.3,0.3,0.6,0.4,1
		c1.2,2.6,2.5,5.2,3.9,7.7c0.1,0.1,0.1,0.2,0.2,0.3C65,100.7,69.7,91.8,75.3,83.9z"/>
	<path class="st2" d="M172.7,71.9c-16-6.1-38.7-6.9-54.2,3.4c-29.2,19.4-41.4,53.3-41.4,54.1c10,9.5,25,14.3,25,14.3
		c12.1-41.5,50.5-60.4,74.2-50.2C176,83.7,175.9,81.3,172.7,71.9L172.7,71.9z"/>
	<path class="st3" d="M77.1,129.4c7.7,6.6,16.2,11.4,25,14.3c3.3-11.4,8.7-21,15.2-28.8c-8.9-2.4-17.6-6.7-25.5-12.9
		C81.9,115.7,77.4,128.1,77.1,129.4z"/>
	<path class="st4" d="M139.1,49.4c-12.6,0-24.6,3.1-35.4,8.9c2.3,5,5.9,10.1,10.6,14.5c1.1,1.1,2.3,2.1,3.4,3
		c0.3-0.2,0.5-0.4,0.8-0.5c8.4-5.6,18.8-7.9,29.2-7.9c3,0,6,0.2,8.9,0.6c-0.2-5.6-2.5-11.9-6.6-17.8
		C146.4,49.7,142.7,49.4,139.1,49.4L139.1,49.4z"/>
	<path class="st5" d="M116.9,29.9c-4.9,0-9.2,1.5-12.2,4.7c-5.1,5.5-5.2,14.5-1,23.7c10.8-5.8,22.8-8.9,35.4-8.9
		c3.6,0,7.2,0.2,10.9,0.8c-1.9-2.8-4.2-5.6-6.9-8.1C134.9,34.2,125.1,29.9,116.9,29.9L116.9,29.9z"/>
	<path class="st5" d="M147.7,67.4c-10.4,0-20.8,2.3-29.2,7.9c-0.3,0.2-0.5,0.4-0.8,0.5c7.4,5.9,15.7,9.1,22.7,9.1
		c4.9,0,9.2-1.5,12.2-4.7c2.9-3.1,4.2-7.4,4-12.2C153.7,67.6,150.7,67.4,147.7,67.4L147.7,67.4z"/>
	
		<ellipse transform="matrix(0.5368 -0.8437 0.8437 0.5368 24.8443 127.5071)" class="st6" cx="128.5" cy="41.1" rx="5.7" ry="10.2"/>
	<path class="st6" d="M146.1,62.5c-2.1,1.5-5.1,0.6-6.6-2s-1-6,1.1-7.5s5.1-0.6,6.6,2S148.3,61,146.1,62.5z"/>
</g>
</svg>
