<?xml version="1.0" encoding="utf-8"?>
<!-- Generator: Adobe Illustrator 23.0.1, SVG Export Plug-In . SVG Version: 6.00 Build 0)  -->
<svg version="1.1" id="Layer_1" xmlns="http://www.w3.org/2000/svg" xmlns:xlink="http://www.w3.org/1999/xlink" x="0px" y="0px"
	 viewBox="0 0 108.9 184.1" style="enable-background:new 0 0 108.9 184.1;" xml:space="preserve">
<style type="text/css">
	.st0{fill:#EFDFEF;}
	.st1{fill:#6AC4D0;}
	.st2{fill:#3FB8B7;}
	.st3{fill:#ABDCED;}
	.st4{fill:#FFFFFF;}
	.st5{fill:#D1EBF5;}
	.st6{fill:#81CBD5;}
</style>
<g>
	<path class="st0" d="M6.7,173.1L42.9,60.7c1-3.2,4.5-5,7.8-4l0,0c3.2,1,5,4.5,4,7.7L18.5,176.9C14.6,188.8,3,184.8,6.7,173.1z"/>
	<g>
		
			<ellipse transform="matrix(0.3066 -0.9518 0.9518 0.3066 -10.5624 85.7306)" class="st1" cx="53.6" cy="50.1" rx="49.2" ry="48.9"/>
		<path class="st2" d="M69.1,2.4C42.6-6.1,14.2,8.5,5.6,35c-8.5,26.5,6,54.9,32.5,63.4c26.5,8.5,54.9-6,63.4-32.5
			C110.2,39.4,95.6,11,69.1,2.4z M65.8,3.8C79.6,7.5,91.5,18,93.8,31.1c3.8,22.4-52.9,14.2-81.2-7.6C12.5,23.5,31.5-5.4,65.8,3.8z
			 M38.2,89.6C21.2,84.1,9.9,69.1,8,52.2C45.1,82,76.3,76.1,73,84.3C68.9,94.5,46.5,92.2,38.2,89.6z"/>
		<path class="st1" d="M37,96.5c-9.7-3.1-17.9-8.9-24-16.2C19,88.5,27.7,95,38.2,98.4c26.5,8.5,54.9-6,63.4-32.5
			c0.2-0.5,0.3-1,0.5-1.5C92.7,90.8,63.9,105.1,37,96.5z"/>
		<path class="st3" d="M11.3,22.7c-2.2-1.5-5.3-0.7-6.4,1.8c-1,2.1-4.5,14-4.9,17.8c-0.2,1.7,0.6,3.3,2,4.2
			c13.2,8.3,28.9,15.7,46.3,21.3c17.4,5.6,34.5,8.8,50,9.7c1.7,0.1,3.3-0.8,4.1-2.2c1.9-3.3,6-15,6.4-17.3c0.5-2.6-1.5-5.1-4.2-5.2
			c-16.1-0.5-33.4-2.5-49.1-7.6S24.8,31.7,11.3,22.7z"/>
		<path class="st4" d="M18,27c0,0,0.3,0.2,0.9,0.5c0.6,0.3,1.4,0.7,2.4,1.3c1.1,0.5,2.3,1.2,3.8,1.9c1.5,0.7,3.1,1.6,4.9,2.5
			c0.9,0.5,1.9,0.9,2.8,1.4c1,0.5,2,1,3,1.4c2.1,1,4.3,2,6.6,3c1.2,0.5,2.3,1,3.5,1.5c0.6,0.2,1.2,0.5,1.8,0.7
			c0.6,0.2,1.2,0.5,1.8,0.7c1.2,0.5,2.5,0.9,3.7,1.4c1.3,0.4,2.6,0.8,3.8,1.2l1.9,0.6c0.6,0.2,1.3,0.4,1.9,0.5
			c1.3,0.3,2.6,0.7,3.9,0.9c1.3,0.3,2.6,0.6,3.8,0.9c1.3,0.3,2.5,0.5,3.8,0.8c0.6,0.1,1.2,0.2,1.8,0.4c0.6,0.1,1.2,0.2,1.8,0.3
			c1.2,0.2,2.4,0.4,3.5,0.6c1.1,0.2,2.2,0.4,3.3,0.6s2.1,0.4,3.1,0.5c2,0.3,3.8,0.6,5.5,0.8c1.6,0.2,3.1,0.4,4.2,0.6
			c2.4,0.3,3.7,0.5,3.7,0.5s-0.3,0-1,0s-1.6,0-2.8-0.1s-2.6-0.1-4.3-0.2c-1.6-0.1-3.5-0.2-5.5-0.4c-2-0.2-4.2-0.4-6.5-0.7
			c-1.2-0.1-2.4-0.3-3.6-0.5c-1.2-0.2-2.4-0.4-3.7-0.6c-1.3-0.2-2.5-0.4-3.8-0.7c-0.6-0.1-1.3-0.2-1.9-0.4s-1.3-0.3-2-0.4
			c-1.3-0.3-2.6-0.6-4-0.9c-0.7-0.2-1.3-0.3-2-0.5l-1.9-0.6c-1.3-0.4-2.6-0.8-3.9-1.3c-1.3-0.5-2.6-0.9-3.8-1.4
			c-2.5-1-4.9-2.1-7.2-3.2s-4.5-2.2-6.6-3.3c-2.1-1.1-4-2.2-5.7-3.2c-3.5-2-6.4-3.9-8.3-5.2c-1-0.7-1.8-1.2-2.3-1.6
			C18.2,27.2,18,27,18,27z"/>
		<path class="st5" d="M13.4,27.3c-3.3-0.5-9.4,11.1-6.4,15.6c3,4.4,17.8,8.8,20.9,5.5C31.3,44.6,21.1,28.4,13.4,27.3z"/>
		<path class="st6" d="M107.1,58.6c0.4-2.4-1.5-4.6-4-4.8c-4.2-0.2-8.6-0.5-12.9-0.9c-9.5,9.8-36,11-64.3,1.8
			c-7.3-2.4-14.1-5.2-20.3-8.4c0.1,0.1,0.2,0.2,0.3,0.2c12.6,7.7,27.6,14.7,44.1,20s32.8,8.5,47.5,9.5c1.6,0.1,3.1-0.6,3.9-1.9
			C103.1,71.3,106.8,60.7,107.1,58.6z"/>
		<path class="st6" d="M47.6,3.5c-4.7,0.9-14,3.8-21.3,10.9c-7.3,7.2,2.4,14.1,14.3,16.8c16.4,3.7,43.2-2.9,37.4-16.1
			C73.9,6.1,58.3,1.5,47.6,3.5z"/>
		<path class="st3" d="M67.3,13.1c-1.7,2.8-7.9,4.1-17.1,5.7s-14.3,3.4-17.8,0.7c-4.3-3.3,5.8-12.2,14.9-13.8
			C56.5,4.1,70.1,8.5,67.3,13.1z"/>
		<ellipse transform="matrix(0.3066 -0.9518 0.9518 0.3066 -20.583 36.4846)" class="st4" cx="14.8" cy="32.4" rx="2.3" ry="4.3"/>
		<ellipse transform="matrix(0.1312 -0.9914 0.9914 0.1312 38.2379 62.7126)" class="st4" cx="54.9" cy="9.5" rx="2.3" ry="6.2"/>
		<path class="st4" d="M46,10.5c0.4,1.2-1.1,2.8-3.4,3.5c-2.3,0.7-4.4,0.3-4.8-0.9s1.1-2.8,3.4-3.5C43.5,8.9,45.7,9.3,46,10.5z"/>
	</g>
</g>
</svg>
