<?xml version="1.0" encoding="utf-8"?>
<!-- Generator: Adobe Illustrator 23.0.1, SVG Export Plug-In . SVG Version: 6.00 Build 0)  -->
<svg version="1.1" id="Layer_1" xmlns="http://www.w3.org/2000/svg" xmlns:xlink="http://www.w3.org/1999/xlink" x="0px" y="0px"
	 viewBox="0 0 207 254.9" style="enable-background:new 0 0 207 254.9;" xml:space="preserve">
<style type="text/css">
	.st0{fill:#EFDFEF;}
	.st1{fill:#6AC4D0;}
	.st2{fill:#3FB8B7;}
	.st3{fill:#ABDCED;}
	.st4{fill:#FFFFFF;}
	.st5{fill:#D1EBF5;}
	.st6{fill:#81CBD5;}
</style>
<g>
	<path class="st0" d="M85,209.8l36.2-112.4c1-3.2,4.5-5,7.8-4l0,0c3.2,1,5,4.5,4,7.8L96.8,213.6C92.9,225.5,81.3,221.5,85,209.8z"/>
	<g>
		
			<ellipse transform="matrix(0.3066 -0.9518 0.9518 0.3066 8.7695 185.7227)" class="st1" cx="131.9" cy="86.8" rx="49.2" ry="48.9"/>
		<path class="st2" d="M147.4,39.2c-26.5-8.5-54.9,6-63.4,32.5c-8.5,26.5,6,54.9,32.5,63.4c26.5,8.5,54.9-6,63.4-32.5
			C188.4,76.1,173.9,47.7,147.4,39.2z M144.1,40.5c13.7,3.7,25.7,14.2,27.9,27.4c3.8,22.4-52.9,14.2-81.2-7.6
			C90.8,60.2,109.8,31.3,144.1,40.5z M116.5,126.3c-17-5.5-28.3-20.5-30.2-37.4c37.1,29.8,68.3,23.9,65,32.2
			C147.2,131.2,124.8,129,116.5,126.3z"/>
		<path class="st1" d="M115.3,133.2c-9.8-3.1-17.9-8.9-24-16.2c6.1,8.3,14.7,14.8,25.2,18.2c26.5,8.5,54.9-6,63.4-32.5
			c0.2-0.5,0.3-1,0.5-1.5C171,127.5,142.2,141.8,115.3,133.2z"/>
		<path class="st3" d="M89.6,59.4c-2.2-1.5-5.3-0.7-6.4,1.8c-1,2.1-4.5,14-4.9,17.8c-0.2,1.7,0.6,3.3,2,4.2
			c13.2,8.3,28.9,15.7,46.3,21.3c17.4,5.6,34.5,8.8,50,9.7c1.7,0.1,3.3-0.8,4.1-2.2c1.9-3.3,6-15,6.4-17.3c0.5-2.6-1.5-5.1-4.2-5.2
			c-16.1-0.5-33.4-2.5-49.1-7.6S103.1,68.4,89.6,59.4z"/>
		<path class="st4" d="M96.2,63.7c0,0,0.3,0.2,0.9,0.5c0.6,0.3,1.4,0.7,2.4,1.3c1.1,0.5,2.3,1.2,3.8,1.9c1.5,0.7,3.1,1.6,4.9,2.5
			c0.9,0.5,1.9,0.9,2.8,1.4c1,0.5,2,1,3,1.4c2.1,1,4.3,2,6.6,3c1.2,0.5,2.3,1,3.5,1.5c0.6,0.2,1.2,0.5,1.8,0.7
			c0.6,0.2,1.2,0.5,1.8,0.7c1.2,0.5,2.5,0.9,3.7,1.4c1.3,0.4,2.6,0.8,3.8,1.2l1.9,0.6c0.6,0.2,1.3,0.4,1.9,0.5
			c1.3,0.3,2.6,0.7,3.9,0.9c1.3,0.3,2.6,0.6,3.8,0.9c1.3,0.3,2.5,0.5,3.8,0.8c0.6,0.1,1.2,0.2,1.8,0.4c0.6,0.1,1.2,0.2,1.8,0.3
			c1.2,0.2,2.4,0.4,3.5,0.6c1.1,0.2,2.2,0.4,3.3,0.6s2.1,0.4,3.1,0.5c2,0.3,3.8,0.6,5.5,0.8c1.6,0.2,3.1,0.4,4.2,0.6
			c2.4,0.3,3.7,0.5,3.7,0.5s-0.3,0-1,0s-1.6,0-2.8-0.1s-2.6-0.1-4.3-0.2c-1.6-0.1-3.5-0.2-5.5-0.4c-2-0.2-4.2-0.4-6.5-0.7
			c-1.2-0.1-2.4-0.3-3.6-0.5c-1.2-0.2-2.4-0.4-3.7-0.6c-1.3-0.2-2.5-0.4-3.8-0.7c-0.6-0.1-1.3-0.2-1.9-0.4s-1.3-0.3-2-0.4
			c-1.3-0.3-2.6-0.6-4-0.9c-0.7-0.2-1.3-0.3-2-0.5l-1.9-0.6c-1.3-0.4-2.6-0.8-3.9-1.3c-1.3-0.5-2.6-0.9-3.8-1.4
			c-2.5-1-4.9-2.1-7.2-3.2s-4.5-2.2-6.6-3.3c-2.1-1.1-4-2.2-5.7-3.2c-3.5-2-6.4-3.9-8.3-5.2c-1-0.7-1.8-1.2-2.3-1.6
			C96.5,63.9,96.2,63.7,96.2,63.7z"/>
		<path class="st5" d="M91.7,64c-3.3-0.5-9.4,11.1-6.4,15.6c3,4.4,17.8,8.8,20.9,5.5C109.6,81.3,99.4,65.1,91.7,64z"/>
		<path class="st6" d="M185.4,95.4c0.4-2.4-1.5-4.6-4-4.8c-4.2-0.2-8.6-0.5-12.9-0.9c-9.5,9.8-36,11-64.3,1.8
			c-7.3-2.4-14.1-5.2-20.3-8.4c0.1,0.1,0.2,0.2,0.3,0.2c12.6,7.7,27.6,14.7,44.1,20s32.8,8.5,47.5,9.5c1.6,0.1,3.1-0.6,3.9-1.9
			C181.4,108,185.1,97.4,185.4,95.4z"/>
		<path class="st6" d="M125.9,40.2c-4.7,0.9-14,3.8-21.3,10.9c-7.3,7.2,2.4,14.1,14.3,16.8c16.4,3.7,43.2-2.9,37.4-16.1
			C152.2,42.8,136.6,38.2,125.9,40.2z"/>
		<path class="st3" d="M145.6,49.8c-1.7,2.8-7.9,4.1-17.1,5.7s-14.3,3.4-17.8,0.7c-4.3-3.3,5.8-12.2,14.9-13.8
			C134.8,40.8,148.4,45.2,145.6,49.8z"/>
		<ellipse transform="matrix(0.3066 -0.9518 0.9518 0.3066 -1.2512 136.4768)" class="st4" cx="93" cy="69.1" rx="2.3" ry="4.3"/>
		
			<ellipse transform="matrix(0.1312 -0.9914 0.9914 0.1312 69.8528 172.2417)" class="st4" cx="133.2" cy="46.3" rx="2.3" ry="6.2"/>
		<path class="st4" d="M124.3,47.2c0.4,1.2-1.1,2.8-3.4,3.5c-2.3,0.7-4.4,0.3-4.8-0.9s1.1-2.8,3.4-3.5
			C121.8,45.6,123.9,46,124.3,47.2z"/>
	</g>
</g>
</svg>
