<?xml version="1.0" encoding="utf-8"?>
<!-- Generator: Adobe Illustrator 23.0.1, SVG Export Plug-In . SVG Version: 6.00 Build 0)  -->
<svg version="1.1" id="Layer_1" xmlns="http://www.w3.org/2000/svg" xmlns:xlink="http://www.w3.org/1999/xlink" x="0px" y="0px"
	 viewBox="0 0 595.28 841.89" style="enable-background:new 0 0 595.28 841.89;" xml:space="preserve">
<style type="text/css">
	.st0{fill:#F7A62D;}
	.st1{fill:#F49821;}
	.st2{fill:#FBBC39;}
	.st3{fill:#FFEFA5;}
	.st4{fill:#FDE2B3;}
	.st5{fill:#F69F22;}
	.st6{fill:#FAB733;}
	.st7{fill:#FDD879;}
	.st8{fill:#F7A829;}
	.st9{fill:#FDC655;}
	.st10{fill:#FFF1B3;}
</style>
<g>
	<path class="st0" d="M74.52,109.39c0,0-16.45,8.01-23.62,8.55c-7.17,0.54-29.7-7.48-30.75-10.47c-0.62-1.75,5.4-6.25,10.73-10.2
		c3.8-2.81,7.25-5.35,7.72-6.39c1.11-2.52-18.47-16.85-16.36-22.3c1.09-2.82,8.12-3.17,14.77-3.22c6.22-0.04,12.12,0.18,12.52-1.09
		c0.84-2.62-7.64-22.77-6.3-25.41c1.35-2.67,29.02,4.97,33.22,11.38c4.19,6.41,11.92,23.38,11.92,23.38L74.52,109.39L74.52,109.39z"
		/>
	<path class="st0" d="M162.55,143.46c0,0,6.77,16.99,11.71,22.22c4.94,5.23,26.99,14.46,29.79,12.96c2.79-1.5-3.34-22.08-2.47-24.69
		c0.42-1.26,6.24-1.31,12.4-1.64c6.62-0.35,13.63-1.02,14.72-3.84c2.11-5.45-18.43-19.05-17.29-21.56
		c0.55-1.21,5.45-3.97,10.46-6.82c5.38-3.07,10.9-6.25,11.31-7.73c0.8-2.88-24.81-15.87-32.22-13.94
		c-7.42,1.92-24.56,9.26-24.56,9.26L162.55,143.46L162.55,143.46z"/>
	<path class="st1" d="M43.24,38.9c-1.34,2.64,7.14,22.79,6.3,25.41c0,0,13.84,0.49,33.58,7.34c0,0,3.31,0.64,4.92,1.26
		c-1.54-3.34-7.91-17.02-11.58-22.64C72.27,43.86,44.59,36.23,43.24,38.9L43.24,38.9z"/>
	<path class="st1" d="M200.95,98.42c-7.42,1.92-24.56,9.26-24.56,9.26l-0.6,1.55c21.4,12.78,39,26.86,51.3,40.85
		c0.79-0.44,1.35-0.97,1.6-1.61c2.11-5.45-18.43-19.05-17.29-21.56c0.55-1.21,5.45-3.97,10.46-6.82c5.38-3.07,10.9-6.25,11.31-7.73
		C233.98,109.48,208.37,96.5,200.95,98.42L200.95,98.42z"/>
	<path class="st2" d="M141.76,63.72c29.21,11.3,45.11,40.56,35.52,65.34c-9.59,24.79-41.04,35.72-70.25,24.41
		c-29.21-11.3-45.11-40.56-35.52-65.34C81.1,63.35,112.55,52.42,141.76,63.72L141.76,63.72z"/>
	<path class="st3" d="M125.39,59.67c-1.84-0.23-4.57-0.4-6.42-0.4c-10.57,8.69-19.73,22.08-25.63,37.34
		c-5.9,15.26-7.89,33.81-6.18,44.8c1.34,1.22,2.59,2.3,4.11,3.36C93.56,111.97,107.52,81.62,125.39,59.67L125.39,59.67z"/>
	<path class="st3" d="M79.53,91.26c4.88-12.6,13.32-22.82,23.83-30.09c-14.77,3.95-26.57,13.28-31.87,26.97
		c-5.3,13.7-2.8,28.75,5.42,41.39C74.02,117.09,74.65,103.86,79.53,91.26L79.53,91.26z"/>
	<path class="st3" d="M156.61,71.76c1.52,1.06,3.66,2.79,5.03,4.04c1.97,13.55-0.28,29.59-6.19,44.84
		c-5.9,15.26-16.92,30.31-25.59,37.29c-1.81,0-3.46-0.05-5.3-0.28C144.95,131.85,155.05,100.02,156.61,71.76L156.61,71.76z"/>
	<path class="st3" d="M169.23,125.96c4.88-12.6,5.54-25.84,2.65-38.28c8.22,12.64,10.69,27.69,5.39,41.39
		c-5.3,13.7-17.38,23.3-31.87,26.97C155.91,148.78,164.36,138.56,169.23,125.96L169.23,125.96z"/>
	<path class="st3" d="M139.48,62.89c-3.53,6.2-15.62,27.88-21.51,43.1c-5.98,15.44-11.69,40.05-13.15,46.6
		c1.23,0.6,2.52,1.01,3.84,1.51c2.46-4.18,12.77-19.7,22.1-42.99c9.11-22.74,12.1-41.19,13.24-46.46
		C142.66,64.08,140.96,63.38,139.48,62.89L139.48,62.89z"/>
	<path class="st4" d="M86.28,69.14L86.28,69.14c8.47-6.16,19.26-9.63,30.8-9.86C105.61,59.5,94.81,62.92,86.28,69.14L86.28,69.14z"
		/>
	<path class="st5" d="M85.43,69.77c0.08-0.06,0.15-0.12,0.23-0.17c0.2-0.15,0.41-0.3,0.61-0.45l0,0
		C86,69.34,85.71,69.55,85.43,69.77L85.43,69.77z"/>
	<path class="st6" d="M125.39,59.67c-4.95,6.09-9.61,12.82-13.8,20.07c4.1,1.34,8.19,2.78,12.25,4.36c1.18,0.45,2.34,0.91,3.51,1.38
		c5-9.91,10.05-18.93,12.13-22.58C134.81,61.27,130.07,60.21,125.39,59.67L125.39,59.67z M85.67,69.59c5.1-3.82,11.1-6.65,17.7-8.42
		c-1.5,1.04-2.96,2.13-4.37,3.29c-3.28,2.68-6.3,5.68-9.02,8.97c4.37,1.16,8.83,2.39,13.31,3.72c4.61-7.04,9.94-13.15,15.68-17.88
		c-0.63-0.01-1.26,0-1.89,0.01c-11.54,0.23-22.34,3.7-30.8,9.86C86.07,69.29,85.87,69.44,85.67,69.59L85.67,69.59z"/>
	<path class="st7" d="M118.97,59.27c-5.74,4.72-11.07,10.83-15.68,17.88c2.76,0.82,5.54,1.68,8.31,2.59
		c4.19-7.25,8.84-13.98,13.8-20.07C123.23,59.43,121.09,59.29,118.97,59.27L118.97,59.27z"/>
	<path class="st7" d="M84.23,70.72c-0.37,0.31-0.74,0.61-1.1,0.93c2.26,0.58,4.54,1.17,6.85,1.78c2.72-3.29,5.75-6.29,9.02-8.97
		c1.41-1.15,2.87-2.25,4.37-3.29c-6.6,1.76-12.6,4.6-17.7,8.42c-0.08,0.06-0.15,0.12-0.23,0.17C85.03,70.08,84.63,70.39,84.23,70.72
		L84.23,70.72z"/>
	<path class="st4" d="M142.16,63.88C142.16,63.88,142.16,63.88,142.16,63.88C142.16,63.88,142.16,63.88,142.16,63.88L142.16,63.88z
		 M142.09,63.85C142.09,63.85,142.09,63.85,142.09,63.85C142.09,63.85,142.09,63.85,142.09,63.85L142.09,63.85z M142.02,63.83
		C142.02,63.83,142.03,63.83,142.02,63.83C142.03,63.83,142.03,63.83,142.02,63.83L142.02,63.83z M141.95,63.8c0,0,0.01,0,0.01,0
		C141.96,63.8,141.96,63.8,141.95,63.8L141.95,63.8z M141.89,63.78L141.89,63.78C141.9,63.78,141.89,63.78,141.89,63.78
		L141.89,63.78z M141.82,63.75c0.01,0,0.01,0,0.01,0.01C141.83,63.75,141.82,63.75,141.82,63.75L141.82,63.75z"/>
	<path class="st6" d="M161.64,75.8C161.64,75.8,161.64,75.81,161.64,75.8c1.13,7.77,0.87,16.35-0.66,25.14
		c4.26,2.25,8.4,4.55,12.42,6.89c0.55-6.79,0.02-13.58-1.5-20.14C169.11,83.41,165.66,79.39,161.64,75.8L161.64,75.8z M141.61,63.67
		c0.84,0.33,1.67,0.67,2.39,0.97c-0.76,3.5-2.33,12.79-5.96,25.29c5.15,2.25,10.16,4.58,15.04,6.99c1.92-8.53,3.08-16.99,3.53-25.15
		c0,0,0,0,0,0c-4.33-3.13-9.17-5.8-14.45-7.89c0,0,0,0,0,0c-0.02-0.01-0.04-0.02-0.06-0.02c0,0-0.01,0-0.01,0
		c-0.02-0.01-0.04-0.01-0.06-0.02c0,0-0.01,0-0.01,0c-0.02-0.01-0.04-0.02-0.06-0.02c0,0-0.01,0-0.01,0
		c-0.02-0.01-0.04-0.01-0.06-0.02l0,0c-0.02-0.01-0.04-0.02-0.06-0.02c-0.01,0-0.01,0-0.01-0.01c-0.02-0.01-0.04-0.02-0.06-0.02l0,0
		l0,0C141.71,63.7,141.66,63.68,141.61,63.67L141.61,63.67z"/>
	<path class="st4" d="M179.31,105.89c0.03,0.18,0.07,0.36,0.1,0.53c0,0,0,0,0,0C179.37,106.24,179.34,106.06,179.31,105.89
		L179.31,105.89z"/>
	<path class="st8" d="M180.02,111.81c0,0.01,0,0.01,0,0.02c0,0,0,0,0.01,0C180.02,111.82,180.02,111.82,180.02,111.81
		C180.02,111.81,180.02,111.81,180.02,111.81L180.02,111.81z M179.41,106.42C179.41,106.42,179.41,106.42,179.41,106.42
		L179.41,106.42L179.41,106.42C179.41,106.42,179.41,106.42,179.41,106.42L179.41,106.42z"/>
	<path class="st5" d="M179.41,106.42c0.31,1.79,0.52,3.59,0.61,5.39c0,0,0,0,0.01,0C179.93,110.01,179.72,108.21,179.41,106.42
		L179.41,106.42L179.41,106.42z"/>
	<path class="st7" d="M156.61,71.76c-0.45,8.16-1.61,16.62-3.53,25.15c2.67,1.32,5.31,2.66,7.89,4.03
		c1.54-8.79,1.8-17.37,0.67-25.14c0,0,0,0-0.01,0C160.05,74.39,158.38,73.04,156.61,71.76C156.61,71.77,156.61,71.76,156.61,71.76
		L156.61,71.76z"/>
	<path class="st7" d="M171.89,87.7c1.52,6.56,2.05,13.35,1.5,20.14c2.25,1.31,4.46,2.64,6.62,3.99c0-0.01,0-0.01,0-0.02
		c-0.09-1.8-0.3-3.6-0.61-5.39c0,0,0,0,0,0c-0.03-0.18-0.06-0.36-0.1-0.53C178.12,99.57,175.59,93.39,171.89,87.7L171.89,87.7z"/>
	<path class="st7" d="M139.48,62.89c-2.08,3.65-7.13,12.68-12.13,22.58c3.62,1.44,7.18,2.93,10.69,4.46
		c3.63-12.5,5.2-21.8,5.96-25.29c-0.72-0.3-1.55-0.64-2.39-0.97C140.9,63.39,140.19,63.14,139.48,62.89L139.48,62.89z"/>
	<path class="st9" d="M103.58,95.59c-5.49,12.55-9.52,26.2-11.42,40.41c4.44,3.41,9.43,6.33,14.5,8.7
		c2.39-9.93,6.44-25.62,10.7-37.09C112.52,102.52,107.64,98.13,103.58,95.59L103.58,95.59z M86.23,96.96
		c-7.6,6.22-11.07,18.74-5.58,27.07c1.66,2.52,3.67,4.9,5.93,7.14c0.21-10.44,2.43-23.38,6.76-34.56c0.44-1.13,0.89-2.24,1.36-3.34
		C91.55,93.61,88.67,94.96,86.23,96.96L86.23,96.96z"/>
	<path class="st10" d="M94.69,93.27c-0.47,1.1-0.92,2.22-1.36,3.34c-4.32,11.17-6.55,24.11-6.76,34.56c1.72,1.7,3.6,3.32,5.58,4.83
		c1.91-14.22,5.93-27.86,11.42-40.41c-2.04-1.28-3.87-2.09-5.38-2.28C97,93.15,95.83,93.14,94.69,93.27L94.69,93.27z"/>
	<path class="st9" d="M140.29,147.01c-1.02,1.3-2.05,2.54-3.07,3.71c0.51-0.23,0.96-0.5,1.35-0.82
		C139.45,149.18,140.02,148.21,140.29,147.01L140.29,147.01z M127.33,119.23c-5.44,12.31-10.85,21.89-14.54,28.06
		c4.33,1.63,8.59,2.82,12.47,3.53c1.43,0.26,2.75,0.45,3.96,0.57c3.35-4.77,6.38-9.72,9.1-14.77c-0.06-0.15-0.12-0.31-0.19-0.46
		C136.37,131.85,132.31,125.62,127.33,119.23L127.33,119.23z"/>
	<path class="st10" d="M138.33,136.63c-2.72,5.06-5.75,10-9.1,14.77c3.52,0.35,6.15,0.13,7.99-0.68c1.02-1.17,2.05-2.41,3.07-3.71
		C140.83,144.55,140.12,141.09,138.33,136.63L138.33,136.63z"/>
	<path class="st10" d="M117.35,107.61c-4.26,11.48-8.31,27.16-10.7,37.09c2.04,0.96,4.1,1.82,6.14,2.59
		c3.69-6.17,9.1-15.76,14.54-28.06C124.25,115.28,120.82,111.27,117.35,107.61L117.35,107.61z"/>
</g>
</svg>
