<?xml version="1.0" encoding="utf-8"?>
<!-- Generator: Adobe Illustrator 23.0.1, SVG Export Plug-In . SVG Version: 6.00 Build 0)  -->
<svg version="1.1" id="Layer_1" xmlns="http://www.w3.org/2000/svg" xmlns:xlink="http://www.w3.org/1999/xlink" x="0px" y="0px"
	 viewBox="0 0 137.1 126.5" style="enable-background:new 0 0 137.1 126.5;" xml:space="preserve">
<style type="text/css">
	.st0{fill:#EFDAE8;}
	.st1{fill:#B93B8E;}
	.st2{fill:#F7EDF3;}
	.st3{fill:#FFFFFF;}
	.st4{fill:#CF559A;}
	.st5{fill:#D063A2;}
	.st6{fill:#D877AE;}
	.st7{fill:#FDEDF5;}
</style>
<g>
	<ellipse class="st0" cx="68.1" cy="63.8" rx="68.1" ry="62"/>
	<path class="st1" d="M124.9,41.2c0,0-7.3,25,2.2,29.3c3.4,1.6,6,3.5,7.9,5.4c0.9-3.9,1.3-8,1.3-12.2c0-5.7-0.9-11.2-2.4-16.5
		C129.4,43.4,124.9,41.2,124.9,41.2z"/>
	<path class="st1" d="M67.4,117.7c-2.2,3.6-5.6,5.9-8.7,7.4c3.1,0.4,6.3,0.6,9.5,0.6c9.1,0,17.8-1.6,25.8-4.6
		c5-6.7,6.1-13.3,6.1-13.3S72.1,109.8,67.4,117.7z"/>
	<path class="st1" d="M18.4,106.1c3.1,1.1,8.3,0.8,8.3,0.8S17.5,82.7,4.7,81.9c-0.6,0-1.2-0.1-1.8-0.2C6,90.9,11.3,99.3,18.4,106.1z
		"/>
	<path class="st1" d="M84.7,3.6c-2.5-0.3-3.9-0.1-3.9-0.1s17.5,15.6,27.5,14.1c1.7-0.3,3.3-0.4,4.7-0.5
		C105.1,10.8,95.4,6.1,84.7,3.6z"/>
	<ellipse class="st2" cx="64.1" cy="59.7" rx="64.1" ry="58.1"/>
	<path class="st3" d="M75.1,7.2c7.3,0,15,0.9,21.8,2.5c-9.8-5.5-21-8.2-32.8-8.2C31.5,1.5,5.8,22.8,0.8,50.4
		C13.7,24.9,42.1,7.2,75.1,7.2z"/>
	<path class="st4" d="M68.1,47c0,0-6.8-31.1,12.9-43.5c0,0,13.6,2.1,27.3,14.1C108.4,17.7,81.7,25.8,68.1,47z"/>
	<path class="st5" d="M72.2,34.1c0,0-2.6-18.2,9.2-25.5c0,0,11,0.5,19.1,7.8C100.5,16.4,83.1,18.9,72.2,34.1z"/>
	<path class="st6" d="M81.1,3.5c-1.7,1.1-3.3,2.3-4.6,3.7c6.9,0.1,14.1,1,20.5,2.5C92,6.9,86.7,4.8,81.1,3.5z"/>
	<path class="st4" d="M77.5,58.8c0,0,22.4-25.2,47.4-17.6c0,0,6.2,11.1,2.2,29.3C127,70.6,103.2,57.2,77.5,58.8z"/>
	<path class="st4" d="M70.8,67.7c0,0,31.8,15.6,29.3,40.1c0,0-13.6,9.2-32.7,9.9C67.4,117.7,77.9,90.9,70.8,67.7z"/>
	<path class="st4" d="M52.8,63.8c0,0-1.2,35.3-26.1,43.1c0,0-14.2-8.2-21.9-24.9C4.7,81.9,33.1,79.3,52.8,63.8z"/>
	<path class="st4" d="M51.7,51.9c0,0-34.5-2-41-24.5c0,0,7.5-11.8,25.2-20.1C36,7.3,37.1,33.5,51.7,51.9z"/>
	<path class="st6" d="M36,7.3c-16.4,6.6-25.3,20.1-25.3,20.1c0.6,2,1.4,3.9,2.4,5.6c6.7-7,14.7-12.9,23.8-17.2
		C36.2,11.1,36,7.9,36,7.3z"/>
	<path class="st5" d="M86.2,55.2c0,0,15.9-13.9,29.7-11.2c0,0,5.9,7.8,3.6,18.6C119.5,62.6,107.6,53.3,86.2,55.2z"/>
	<path class="st5" d="M75.9,75.9c0,0,17.6,11.9,17.5,25.1c0,0-7.1,6.9-18.8,6.9C74.6,107.9,82,95.2,75.9,75.9z"/>
	<path class="st5" d="M48,71.3c0,0-3.8,20-16.6,25.6c0,0-9.7-3-14.8-12.9C16.5,84,32,84.8,48,71.3z"/>
	<path class="st5" d="M43.5,46c0,0-16.8-3.5-21.2-13.2c0,0,2.8-7.1,11.4-10.6C33.8,22.2,32.6,33.7,43.5,46z"/>
	<path class="st7" d="M26.7,106.9c0,0,2.1,1.1,5.9,2.6c1.9,0.8,4.3,1.6,7,2.4c2.7,0.8,5.8,1.6,9.3,2.3c3.4,0.7,7.2,1.2,11.2,1.4
		c4,0.2,8.2,0.1,12.5-0.4s8.6-1.5,12.9-2.9c4.2-1.4,8.4-3.3,12.3-5.6c0.5-0.3,1-0.6,1.4-0.9l1.5-0.9l1.4-0.9l1.4-1
		c1.8-1.3,3.5-2.7,5.2-4.2c3.2-2.9,6.1-6.1,8.5-9.5c2.3-3.4,4.2-6.9,5.7-10.3c1.4-3.5,2.5-6.9,3.2-10.1c0.7-3.2,1.1-6.2,1.4-8.9
		c0.2-2.7,0.3-5,0.2-7c-0.1-3.9-0.4-6.1-0.4-6.1s0.2,0.5,0.4,1.6c0.2,1,0.6,2.5,0.9,4.5c0.3,1.9,0.6,4.3,0.6,7.1
		c0.1,2.7,0,5.9-0.5,9.2c-0.5,3.4-1.2,7-2.6,10.8c-1.3,3.7-3.1,7.6-5.5,11.3c-2.4,3.7-5.3,7.3-8.8,10.5c-1.7,1.6-3.6,3.1-5.5,4.5
		l-1.5,1.1l-1.5,1l-1.5,0.9c-0.5,0.4-1,0.6-1.6,0.9c-4.2,2.4-8.7,4.4-13.2,5.9c-4.6,1.5-9.3,2.3-13.9,2.7c-4.6,0.4-9.1,0.3-13.2-0.2
		c-4.2-0.4-8-1.2-11.5-2.2c-3.5-0.9-6.6-2.1-9.3-3.2c-2.7-1.1-4.9-2.2-6.8-3.2c-1.8-1-3.2-1.8-4.1-2.4
		C27.1,107.2,26.7,106.9,26.7,106.9z"/>
</g>
</svg>
