<?xml version="1.0" encoding="utf-8"?>
<!-- Generator: Adobe Illustrator 23.0.1, SVG Export Plug-In . SVG Version: 6.00 Build 0)  -->
<svg version="1.1" id="Layer_1" xmlns="http://www.w3.org/2000/svg" xmlns:xlink="http://www.w3.org/1999/xlink" x="0px" y="0px"
	 viewBox="0 0 124.9 124.9" style="enable-background:new 0 0 124.9 124.9;" xml:space="preserve">
<style type="text/css">
	.st0{fill:#B2CC31;}
	.st1{fill:#7BB929;}
	.st2{fill:#F3EAF5;}
	.st3{fill:#DCE1ED;}
	.st4{fill:#CCDB72;}
	.st5{fill:#F7F0F8;}
	.st6{fill:#FFFFFF;}
</style>
<g>
	<path class="st0" d="M110.7,108.4c-21.9,23.4-61.2,21.7-87.8-3.6s-30.6-64.9-8.7-88.2C36-6.9,75.3-5.2,102,20.1
		C128.6,45.5,132.5,85,110.7,108.4L110.7,108.4z"/>
	<path class="st1" d="M124.5,76.4c-0.6,0.7-1.2,1.5-1.8,2.2C100.8,102,61.5,100.4,34.9,75c-16.6-15.8-24.3-37-22.6-56.4
		C-7.4,42.2-3,80.1,22.8,104.7c26.7,25.4,66,27,87.8,3.6C118.9,99.5,123.5,88.3,124.5,76.4z"/>
	<path class="st2" d="M111.4,30.9c-2.7-3.8-5.8-7.4-9.4-10.8c-4.9-4.7-10.2-8.5-15.8-11.6C74,6.1,57.4,5.8,39.8,14.2
		C21,23.2,8.1,39.4,0.1,52.5c-0.2,12.2,3.1,24.8,10,36.3C26.6,41.7,67.3,17.9,111.4,30.9L111.4,30.9z"/>
	<path class="st3" d="M23.8,61.9c-5.6-8.5-9.2-17.7-10.8-27c-5.2,5.9-9.6,12-13,17.6c0,0.1,0,0.2,0,0.3c-0.1,5.9,0.7,11.8,2.2,17.7
		c0,0.2,0.1,0.4,0.2,0.6c0.4,1.3,0.8,2.6,1.2,3.9c0.1,0.4,0.3,0.8,0.4,1.2c0.5,1.2,0.9,2.5,1.4,3.7c0.1,0.3,0.3,0.6,0.4,1
		c1.2,2.6,2.5,5.2,3.9,7.7c0.1,0.1,0.1,0.2,0.2,0.3C13.6,78.7,18.3,69.7,23.8,61.9z"/>
	<path class="st2" d="M121.2,49.9c-16-6.1-38.7-6.9-54.2,3.4c-29.2,19.4-41.4,53.3-41.4,54.1c10,9.5,25,14.3,25,14.3
		c12.1-41.5,50.5-60.4,74.2-50.2C124.5,61.7,124.4,59.2,121.2,49.9L121.2,49.9z"/>
	<path class="st3" d="M25.6,107.4c7.7,6.6,16.2,11.4,25,14.3c3.3-11.4,8.7-21,15.1-28.8c-8.9-2.4-17.6-6.7-25.5-12.9
		C30.5,93.7,25.9,106,25.6,107.4z"/>
	<path class="st4" d="M87.7,27.4c-12.6,0-24.6,3.1-35.4,8.9c2.3,5,5.9,10.1,10.6,14.5c1.1,1.1,2.3,2.1,3.4,3
		c0.3-0.2,0.5-0.4,0.8-0.5c8.4-5.6,18.8-7.9,29.2-7.9c3,0,6,0.2,8.9,0.6c-0.2-5.6-2.5-11.9-6.6-17.8C94.9,27.6,91.3,27.4,87.7,27.4
		L87.7,27.4z"/>
	<path class="st5" d="M65.5,7.9c-4.9,0-9.2,1.5-12.2,4.7c-5.1,5.5-5.2,14.5-1,23.7C63,30.5,75,27.4,87.6,27.4
		c3.6,0,7.2,0.2,10.9,0.8c-1.9-2.8-4.2-5.6-6.9-8.1C83.4,12.1,73.6,7.9,65.5,7.9L65.5,7.9z"/>
	<path class="st5" d="M96.2,45.4c-10.4,0-20.8,2.3-29.2,7.9c-0.3,0.2-0.5,0.4-0.8,0.5c7.4,5.9,15.7,9.1,22.7,9.1
		c4.9,0,9.2-1.5,12.2-4.7c2.9-3.1,4.2-7.4,4-12.2C102.2,45.6,99.2,45.4,96.2,45.4L96.2,45.4z"/>
	<ellipse transform="matrix(0.5368 -0.8437 0.8437 0.5368 19.6026 73.8708)" class="st6" cx="77.1" cy="19.1" rx="5.7" ry="10.2"/>
	<path class="st6" d="M94.7,40.5c-2.1,1.5-5.1,0.6-6.6-2s-1-6,1.1-7.5s5.1-0.6,6.6,2S96.8,39,94.7,40.5z"/>
</g>
</svg>
