<?xml version="1.0" encoding="utf-8"?>
<!-- Generator: Adobe Illustrator 23.0.1, SVG Export Plug-In . SVG Version: 6.00 Build 0)  -->
<svg version="1.1" id="Layer_1" xmlns="http://www.w3.org/2000/svg" xmlns:xlink="http://www.w3.org/1999/xlink" x="0px" y="0px"
	 viewBox="0 0 595.28 841.89" style="enable-background:new 0 0 595.28 841.89;" xml:space="preserve">
<style type="text/css">
	.st0{fill:#EFDAE8;}
	.st1{fill:#B93B8E;}
	.st2{fill:#F7EDF3;}
	.st3{fill:#FFFFFF;}
	.st4{fill:#CF559A;}
	.st5{fill:#D063A2;}
	.st6{fill:#D877AE;}
	.st7{fill:#FDEDF5;}
</style>
<g>
	<ellipse class="st0" cx="113.9" cy="109.81" rx="68.14" ry="61.97"/>
	<path class="st1" d="M170.64,87.27c0,0-7.34,24.97,2.17,29.35c3.37,1.55,5.95,3.52,7.9,5.41c0.87-3.95,1.33-8.04,1.33-12.22
		c0-5.71-0.85-11.23-2.44-16.48C175.17,89.48,170.64,87.27,170.64,87.27z"/>
	<path class="st1" d="M113.12,163.77c-2.15,3.6-5.61,5.94-8.73,7.41c3.11,0.39,6.28,0.6,9.51,0.6c9.13,0,17.84-1.64,25.79-4.6
		c4.96-6.71,6.1-13.34,6.1-13.34S117.83,155.9,113.12,163.77z"/>
	<path class="st1" d="M64.16,152.16c3.12,1.05,8.26,0.75,8.26,0.75s-9.16-24.2-21.92-24.92c-0.62-0.03-1.23-0.11-1.83-0.2
		C51.74,137,57.11,145.31,64.16,152.16z"/>
	<path class="st1" d="M130.49,49.7c-2.52-0.34-3.89-0.1-3.89-0.1s17.51,15.62,27.51,14.11c1.74-0.26,3.3-0.4,4.72-0.46
		C150.83,56.85,141.16,52.13,130.49,49.7z"/>
	<ellipse class="st2" cx="109.85" cy="105.72" rx="64.09" ry="58.12"/>
	<path class="st3" d="M120.88,53.25c7.33,0,15,0.88,21.76,2.52c-9.75-5.48-21-8.17-32.79-8.17c-32.56,0-58.31,21.29-63.31,48.87
		C59.47,70.96,87.89,53.25,120.88,53.25z"/>
	<path class="st4" d="M113.9,93.08c0,0-6.84-31.07,12.9-43.51c0,0,13.65,2.08,27.34,14.14C154.14,63.71,127.46,71.85,113.9,93.08z"
		/>
	<path class="st5" d="M117.95,80.18c0,0-2.61-18.23,9.17-25.54c0,0,11,0.45,19.11,7.85C146.23,62.49,128.86,64.97,117.95,80.18z"/>
	<path class="st6" d="M126.87,49.52c-1.74,1.1-3.27,2.34-4.62,3.69c6.93,0.1,14.1,0.96,20.46,2.5
		C137.78,52.93,132.46,50.87,126.87,49.52z"/>
	<path class="st4" d="M123.27,104.88c0,0,22.38-25.16,47.36-17.62c0,0,6.21,11.11,2.17,29.35
		C172.81,116.62,148.99,103.29,123.27,104.88z"/>
	<path class="st4" d="M116.54,113.78c0,0,31.81,15.64,29.25,40.07c0,0-13.65,9.23-32.66,9.92
		C113.12,163.77,123.68,136.93,116.54,113.78z"/>
	<path class="st4" d="M98.56,109.81c0,0-1.25,35.28-26.13,43.1c0,0-14.18-8.2-21.91-24.92C50.51,127.99,78.89,125.38,98.56,109.81z"
		/>
	<path class="st4" d="M97.48,97.91c0,0-34.47-1.97-40.98-24.46c0,0,7.5-11.77,25.25-20.09C81.75,53.36,82.82,79.6,97.48,97.91z"/>
	<path class="st6" d="M81.75,53.36c-16.43,6.57-25.26,20.06-25.26,20.06c0.59,2.02,1.41,3.89,2.4,5.6
		c6.66-7.01,14.74-12.87,23.84-17.22C81.98,57.18,81.79,54,81.75,53.36z"/>
	<path class="st5" d="M131.97,101.24c0,0,15.87-13.87,29.7-11.16c0,0,5.89,7.83,3.62,18.6C165.29,108.68,153.37,99.38,131.97,101.24
		z"/>
	<path class="st5" d="M121.67,121.95c0,0,17.64,11.86,17.49,25.07c0,0-7.07,6.92-18.81,6.94
		C120.35,153.96,127.78,141.22,121.67,121.95z"/>
	<path class="st5" d="M93.73,117.34c0,0-3.8,20-16.61,25.59c0,0-9.73-2.96-14.83-12.85C62.3,130.08,77.8,130.83,93.73,117.34z"/>
	<path class="st5" d="M89.31,92.06c0,0-16.85-3.51-21.16-13.21c0,0,2.85-7.13,11.42-10.57C79.58,68.29,78.4,79.77,89.31,92.06z"/>
	<path class="st7" d="M72.42,152.91c0,0,2.09,1.08,5.92,2.58c1.91,0.75,4.26,1.57,6.99,2.41c2.73,0.83,5.85,1.62,9.28,2.3
		c3.44,0.66,7.2,1.16,11.17,1.39c3.98,0.22,8.18,0.1,12.46-0.39c4.28-0.49,8.62-1.5,12.87-2.9c4.25-1.41,8.39-3.31,12.27-5.6
		c0.47-0.29,0.99-0.57,1.43-0.86l1.47-0.93l1.38-0.92l1.37-0.97c1.8-1.32,3.53-2.69,5.16-4.16c3.24-2.93,6.12-6.11,8.46-9.49
		c2.34-3.37,4.24-6.87,5.69-10.33c1.43-3.46,2.48-6.87,3.2-10.07c0.7-3.21,1.13-6.2,1.36-8.87c0.22-2.67,0.28-5.02,0.25-6.96
		c-0.06-3.87-0.4-6.09-0.4-6.09s0.18,0.53,0.44,1.55c0.25,1.02,0.6,2.53,0.88,4.47c0.29,1.94,0.55,4.32,0.6,7.07
		c0.07,2.74-0.03,5.86-0.51,9.23c-0.46,3.37-1.24,7.02-2.57,10.75c-1.3,3.73-3.08,7.58-5.49,11.27c-2.4,3.68-5.32,7.27-8.77,10.46
		c-1.72,1.6-3.55,3.13-5.48,4.54l-1.46,1.05l-1.52,1.02l-1.48,0.94c-0.54,0.35-1.04,0.63-1.57,0.94c-4.19,2.41-8.66,4.41-13.25,5.88
		c-4.59,1.48-9.31,2.32-13.89,2.73c-4.59,0.42-9.05,0.27-13.2-0.18c-4.16-0.44-8.03-1.25-11.51-2.2c-3.49-0.93-6.59-2.06-9.27-3.16
		c-2.69-1.09-4.94-2.22-6.77-3.18c-1.83-0.96-3.2-1.82-4.12-2.41C72.89,153.26,72.42,152.91,72.42,152.91z"/>
</g>
</svg>
