<?xml version="1.0" encoding="utf-8"?>
<!-- Generator: Adobe Illustrator 23.0.1, SVG Export Plug-In . SVG Version: 6.00 Build 0)  -->
<svg version="1.1" id="Layer_1" xmlns="http://www.w3.org/2000/svg" xmlns:xlink="http://www.w3.org/1999/xlink" x="0px" y="0px"
	 viewBox="0 0 242 204.9" style="enable-background:new 0 0 242 204.9;" xml:space="preserve">
<style type="text/css">
	.st0{fill:#F7A62D;}
	.st1{fill:#F49821;}
	.st2{fill:#FBBC39;}
	.st3{fill:#FFEFA5;}
	.st4{fill:#FDE2B3;}
	.st5{fill:#F69F22;}
	.st6{fill:#FAB733;}
	.st7{fill:#FDD879;}
	.st8{fill:#F7A829;}
	.st9{fill:#FDC655;}
	.st10{fill:#FFF1B3;}
</style>
<g>
	<path class="st0" d="M74.5,109.4c0,0-16.5,8-23.6,8.6s-29.7-7.5-30.8-10.5c-0.6-1.8,5.4-6.2,10.7-10.2c3.8-2.8,7.2-5.3,7.7-6.4
		c1.1-2.5-18.5-16.8-16.4-22.3c1.1-2.8,8.1-3.2,14.8-3.2c6.2,0,12.1,0.2,12.5-1.1c0.8-2.6-7.6-22.8-6.3-25.4c1.3-2.7,29,5,33.2,11.4
		c4.2,6.4,11.9,23.4,11.9,23.4L74.5,109.4L74.5,109.4z"/>
	<path class="st0" d="M162.6,143.5c0,0,6.8,17,11.7,22.2s27,14.5,29.8,13c2.8-1.5-3.3-22.1-2.5-24.7c0.4-1.3,6.2-1.3,12.4-1.6
		c6.6-0.4,13.6-1,14.7-3.8c2.1-5.4-18.4-19.1-17.3-21.6c0.6-1.2,5.4-4,10.5-6.8c5.4-3.1,10.9-6.2,11.3-7.7
		c0.8-2.9-24.8-15.9-32.2-13.9c-7.4,1.9-24.6,9.3-24.6,9.3L162.6,143.5L162.6,143.5z"/>
	<path class="st1" d="M43.2,38.9c-1.3,2.6,7.1,22.8,6.3,25.4c0,0,13.8,0.5,33.6,7.3c0,0,3.3,0.6,4.9,1.3c-1.5-3.3-7.9-17-11.6-22.6
		C72.3,43.9,44.6,36.2,43.2,38.9L43.2,38.9z"/>
	<path class="st1" d="M200.9,98.4c-7.4,1.9-24.6,9.3-24.6,9.3l-0.6,1.6c21.4,12.8,39,26.9,51.3,40.9c0.8-0.4,1.4-1,1.6-1.6
		c2.1-5.4-18.4-19.1-17.3-21.6c0.6-1.2,5.4-4,10.5-6.8c5.4-3.1,10.9-6.2,11.3-7.7C234,109.5,208.4,96.5,200.9,98.4L200.9,98.4z"/>
	<path class="st2" d="M141.8,63.7c29.2,11.3,45.1,40.6,35.5,65.3c-9.6,24.8-41,35.7-70.2,24.4c-29.2-11.3-45.1-40.6-35.5-65.3
		S112.6,52.4,141.8,63.7L141.8,63.7z"/>
	<path class="st3" d="M125.4,59.7c-1.8-0.2-4.6-0.4-6.4-0.4C108.4,68,99.2,81.3,93.3,96.6s-7.9,33.8-6.2,44.8
		c1.3,1.2,2.6,2.3,4.1,3.4C93.6,112,107.5,81.6,125.4,59.7L125.4,59.7z"/>
	<path class="st3" d="M79.5,91.3c4.9-12.6,13.3-22.8,23.8-30.1c-14.8,4-26.6,13.3-31.9,27c-5.3,13.7-2.8,28.8,5.4,41.4
		C74,117.1,74.7,103.9,79.5,91.3L79.5,91.3z"/>
	<path class="st3" d="M156.6,71.8c1.5,1.1,3.7,2.8,5,4c2,13.6-0.3,29.6-6.2,44.8c-5.9,15.3-16.9,30.3-25.6,37.3
		c-1.8,0-3.5-0.1-5.3-0.3C144.9,131.9,155.1,100,156.6,71.8L156.6,71.8z"/>
	<path class="st3" d="M169.2,126c4.9-12.6,5.5-25.8,2.6-38.3c8.2,12.6,10.7,27.7,5.4,41.4c-5.3,13.7-17.4,23.3-31.9,27
		C155.9,148.8,164.4,138.6,169.2,126L169.2,126z"/>
	<path class="st3" d="M139.5,62.9c-3.5,6.2-15.6,27.9-21.5,43.1c-6,15.4-11.7,40.1-13.2,46.6c1.2,0.6,2.5,1,3.8,1.5
		c2.5-4.2,12.8-19.7,22.1-43c9.1-22.7,12.1-41.2,13.2-46.5C142.7,64.1,141,63.4,139.5,62.9L139.5,62.9z"/>
	<path class="st4" d="M86.3,69.1L86.3,69.1c8.5-6.2,19.3-9.6,30.8-9.9C105.6,59.5,94.8,62.9,86.3,69.1L86.3,69.1z"/>
	<path class="st5" d="M85.4,69.8c0.1-0.1,0.2-0.1,0.2-0.2c0.2-0.2,0.4-0.3,0.6-0.4l0,0C86,69.3,85.7,69.5,85.4,69.8L85.4,69.8z"/>
	<path class="st6" d="M125.4,59.7c-4.9,6.1-9.6,12.8-13.8,20.1c4.1,1.3,8.2,2.8,12.2,4.4c1.2,0.4,2.3,0.9,3.5,1.4
		c5-9.9,10-18.9,12.1-22.6C134.8,61.3,130.1,60.2,125.4,59.7L125.4,59.7z M85.7,69.6c5.1-3.8,11.1-6.7,17.7-8.4
		c-1.5,1-3,2.1-4.4,3.3c-3.3,2.7-6.3,5.7-9,9c4.4,1.2,8.8,2.4,13.3,3.7c4.6-7,9.9-13.2,15.7-17.9c-0.6,0-1.3,0-1.9,0
		c-11.5,0.2-22.3,3.7-30.8,9.9C86.1,69.3,85.9,69.4,85.7,69.6L85.7,69.6z"/>
	<path class="st7" d="M119,59.3c-5.7,4.7-11.1,10.8-15.7,17.9c2.8,0.8,5.5,1.7,8.3,2.6c4.2-7.2,8.8-14,13.8-20.1
		C123.2,59.4,121.1,59.3,119,59.3L119,59.3z"/>
	<path class="st7" d="M84.2,70.7c-0.4,0.3-0.7,0.6-1.1,0.9c2.3,0.6,4.5,1.2,6.8,1.8c2.7-3.3,5.8-6.3,9-9c1.4-1.2,2.9-2.2,4.4-3.3
		c-6.6,1.8-12.6,4.6-17.7,8.4c-0.1,0.1-0.2,0.1-0.2,0.2C85,70.1,84.6,70.4,84.2,70.7L84.2,70.7z"/>
	<path class="st4" d="M142.2,63.9L142.2,63.9L142.2,63.9L142.2,63.9z M142.1,63.8L142.1,63.8L142.1,63.8L142.1,63.8z M142,63.8
		C142,63.8,142,63.8,142,63.8C142,63.8,142,63.8,142,63.8L142,63.8z M141.9,63.8L141.9,63.8C142,63.8,142,63.8,141.9,63.8
		L141.9,63.8z M141.9,63.8L141.9,63.8C141.9,63.8,141.9,63.8,141.9,63.8L141.9,63.8z M141.8,63.7C141.8,63.7,141.8,63.7,141.8,63.7
		C141.8,63.7,141.8,63.7,141.8,63.7L141.8,63.7z"/>
	<path class="st6" d="M161.6,75.8C161.6,75.8,161.6,75.8,161.6,75.8c1.1,7.8,0.9,16.3-0.7,25.1c4.3,2.2,8.4,4.6,12.4,6.9
		c0.6-6.8,0-13.6-1.5-20.1C169.1,83.4,165.7,79.4,161.6,75.8L161.6,75.8z M141.6,63.7c0.8,0.3,1.7,0.7,2.4,1
		c-0.8,3.5-2.3,12.8-6,25.3c5.1,2.2,10.2,4.6,15,7c1.9-8.5,3.1-17,3.5-25.2l0,0c-4.3-3.1-9.2-5.8-14.4-7.9l0,0c0,0,0,0-0.1,0h0
		c0,0,0,0-0.1,0h0c0,0,0,0-0.1,0h0c0,0,0,0-0.1,0l0,0c0,0,0,0-0.1,0c0,0,0,0,0,0c0,0,0,0-0.1,0l0,0l0,0
		C141.7,63.7,141.7,63.7,141.6,63.7L141.6,63.7z"/>
	<path class="st4" d="M179.3,105.9c0,0.2,0.1,0.4,0.1,0.5l0,0C179.4,106.2,179.3,106.1,179.3,105.9L179.3,105.9z"/>
	<path class="st8" d="M180,111.8C180,111.8,180,111.8,180,111.8C180,111.8,180,111.8,180,111.8C180,111.8,180,111.8,180,111.8
		L180,111.8L180,111.8z M179.4,106.4L179.4,106.4L179.4,106.4L179.4,106.4L179.4,106.4L179.4,106.4z"/>
	<path class="st5" d="M179.4,106.4c0.3,1.8,0.5,3.6,0.6,5.4c0,0,0,0,0,0C179.9,110,179.7,108.2,179.4,106.4L179.4,106.4L179.4,106.4
		z"/>
	<path class="st7" d="M156.6,71.8c-0.4,8.2-1.6,16.6-3.5,25.2c2.7,1.3,5.3,2.7,7.9,4c1.5-8.8,1.8-17.4,0.7-25.1c0,0,0,0,0,0
		C160.1,74.4,158.4,73,156.6,71.8C156.6,71.8,156.6,71.8,156.6,71.8L156.6,71.8z"/>
	<path class="st7" d="M171.9,87.7c1.5,6.6,2.1,13.3,1.5,20.1c2.2,1.3,4.5,2.6,6.6,4c0,0,0,0,0,0c-0.1-1.8-0.3-3.6-0.6-5.4l0,0
		c0-0.2-0.1-0.4-0.1-0.5C178.1,99.6,175.6,93.4,171.9,87.7L171.9,87.7z"/>
	<path class="st7" d="M139.5,62.9c-2.1,3.7-7.1,12.7-12.1,22.6c3.6,1.4,7.2,2.9,10.7,4.5c3.6-12.5,5.2-21.8,6-25.3
		c-0.7-0.3-1.6-0.6-2.4-1C140.9,63.4,140.2,63.1,139.5,62.9L139.5,62.9z"/>
	<path class="st9" d="M103.6,95.6c-5.5,12.6-9.5,26.2-11.4,40.4c4.4,3.4,9.4,6.3,14.5,8.7c2.4-9.9,6.4-25.6,10.7-37.1
		C112.5,102.5,107.6,98.1,103.6,95.6L103.6,95.6z M86.2,97c-7.6,6.2-11.1,18.7-5.6,27.1c1.7,2.5,3.7,4.9,5.9,7.1
		c0.2-10.4,2.4-23.4,6.8-34.6c0.4-1.1,0.9-2.2,1.4-3.3C91.6,93.6,88.7,95,86.2,97L86.2,97z"/>
	<path class="st10" d="M94.7,93.3c-0.5,1.1-0.9,2.2-1.4,3.3c-4.3,11.2-6.6,24.1-6.8,34.6c1.7,1.7,3.6,3.3,5.6,4.8
		c1.9-14.2,5.9-27.9,11.4-40.4c-2-1.3-3.9-2.1-5.4-2.3C97,93.1,95.8,93.1,94.7,93.3L94.7,93.3z"/>
	<path class="st9" d="M140.3,147c-1,1.3-2.1,2.5-3.1,3.7c0.5-0.2,1-0.5,1.4-0.8C139.4,149.2,140,148.2,140.3,147L140.3,147z
		 M127.3,119.2c-5.4,12.3-10.8,21.9-14.5,28.1c4.3,1.6,8.6,2.8,12.5,3.5c1.4,0.3,2.8,0.4,4,0.6c3.4-4.8,6.4-9.7,9.1-14.8
		c-0.1-0.1-0.1-0.3-0.2-0.5C136.4,131.9,132.3,125.6,127.3,119.2L127.3,119.2z"/>
	<path class="st10" d="M138.3,136.6c-2.7,5.1-5.8,10-9.1,14.8c3.5,0.4,6.1,0.1,8-0.7c1-1.2,2.1-2.4,3.1-3.7
		C140.8,144.6,140.1,141.1,138.3,136.6L138.3,136.6z"/>
	<path class="st10" d="M117.3,107.6c-4.3,11.5-8.3,27.2-10.7,37.1c2,1,4.1,1.8,6.1,2.6c3.7-6.2,9.1-15.8,14.5-28.1
		C124.2,115.3,120.8,111.3,117.3,107.6L117.3,107.6z"/>
</g>
</svg>
