<?xml version="1.0" encoding="utf-8"?>
<!-- Generator: Adobe Illustrator 23.0.1, SVG Export Plug-In . SVG Version: 6.00 Build 0)  -->
<svg version="1.1" id="Layer_1" xmlns="http://www.w3.org/2000/svg" xmlns:xlink="http://www.w3.org/1999/xlink" x="0px" y="0px"
	 viewBox="0 0 181.3 197.5" style="enable-background:new 0 0 181.3 197.5;" xml:space="preserve">
<style type="text/css">
	.st0{fill:#6E62A9;}
	.st1{fill:#5D55A0;}
	.st2{fill:#8F80BB;}
	.st3{fill:#BFB4DA;}
	.st4{fill:#A494C7;}
	.st5{fill:#CAC0E0;}
	.st6{fill:#EBE8F5;}
	.st7{fill:#5F56A1;}
	.st8{fill:#897BB8;}
	.st9{fill:#B5A9D3;}
</style>
<g>
	<path class="st0" d="M96.6,56.4c0,0-2.4-19.5-0.4-27.2c2-7.7,18.2-29,21.6-29.2s8.2,22.2,10.4,24c1,0.9,6.5-2.3,12.4-5.6
		c6.5-3.6,13.7-7.1,16.2-5.2c4.8,3.8-7.7,28.2-5.3,29.8c1.1,0.8,7,0.5,13.1,0.2c6.8-0.3,13.9-0.7,15,0.5c2.2,2.2-15.4,29-23.4,31.5
		s-28.1,5.8-28.1,5.8L96.6,56.4L96.6,56.4z"/>
	<path class="st0" d="M50.6,114.6c0,0-19.7,2.2-26.8,5.9S-0.5,144.6,0,147.9c0.5,3.4,23.7,2.8,26.1,4.5s-8.8,26.2-4,29.9
		c2.5,2,9.5-1.9,15.9-5.8c5.9-3.5,11.2-7.1,12.2-6.2c2.1,1.9,4.5,25.3,7.1,26.9c2.7,1.7,25-21.4,25.7-29.8s-0.8-28.4-0.8-28.4
		L50.6,114.6L50.6,114.6z"/>
	<path class="st1" d="M179.6,43.8c-1.2-1.1-8.3-0.8-15.1-0.5c-6.1,0.3-12,0.6-13.1-0.2c0,0-5.4,14.4-19.4,33c0,0-1.8,3.3-3,4.8
		c4-0.7,20.2-3.4,27.2-5.7C164.3,72.7,181.9,46,179.6,43.8L179.6,43.8z"/>
	<path class="st1" d="M83,167.6c0.7-8.3-0.8-28.4-0.8-28.4l-1.4-1.1c-20.6,18.8-41.2,33.1-59.9,42c0.2,0.9,0.5,1.7,1.1,2.1
		c2.5,2,9.5-1.9,15.9-5.8c5.9-3.5,11.2-7.1,12.2-6.2c2.1,1.9,4.5,25.3,7.1,26.9C60,199,82.3,175.9,83,167.6L83,167.6z"/>
	<path class="st2" d="M128.8,127.8c-17.4,21.7-49.2,25.4-71.1,8.3s-25.6-48.6-8.2-70.3c17.4-21.7,49.2-25.4,71.1-8.3
		C142.5,74.6,146.2,106.1,128.8,127.8L128.8,127.8z"/>
	<path class="st3" d="M112.2,69.5c-38.9-30.4-55.7,18.7-48.5,34.4c0,0-8,9.6-5.8,14.1c1.9,3.8,6.3,2,6.3,2s-2.6,6.9,0.4,9.3
		c3.1,2.5,8.6-1.9,8.6-1.9s-0.2,4.5,4.4,4.8c5.8,0.3,12.7-7.9,12.7-7.9C107.5,126.6,150.4,99.3,112.2,69.5L112.2,69.5z M78.4,92.5
		c-3.5-1.9-4.9-6.2-3.2-9.7c1.7-3.4,5.9-4.6,9.4-2.7c3.5,1.9,4.9,6.2,3.2,9.7C86.1,93.2,81.9,94.4,78.4,92.5L78.4,92.5z
		 M108.8,110.7c-4.4,2.6-10.5,1.4-13.5-2.7s-1.9-9.6,2.5-12.2c4.4-2.6,10.5-1.4,13.5,2.7C114.3,102.6,113.2,108,108.8,110.7
		L108.8,110.7z"/>
	<path class="st4" d="M81.1,79.2c-2.4,0-4.7,1.3-5.9,3.6c-1.7,3.4-0.3,7.7,3.2,9.7c1.1,0.6,2.3,0.9,3.5,0.9c2.4,0,4.7-1.3,5.9-3.6
		c1.7-3.4,0.3-7.7-3.2-9.7C83.5,79.5,82.3,79.2,81.1,79.2L81.1,79.2z M86.9,52.6c-1,0-2,0.1-3,0.3C68.1,56.1,54,70.5,48.1,82.7
		c-5.8,12-2,16.5,10.8,16.5c0.2,0,0.4,0,0.5,0c0.9,0,1.9-0.1,3-0.2c-2-14.2,7-39.2,26.6-39.2c5.6,0,12.2,2.1,19.6,7.1
		C104.6,59.1,95.3,52.6,86.9,52.6L86.9,52.6z"/>
	<path class="st5" d="M81.9,93.4c-1.2,0-2.4-0.3-3.5-0.9c-3.5-1.9-4.9-6.2-3.2-9.7c1.1-2.3,3.4-3.6,5.9-3.6c1.2,0,2.4,0.3,3.5,0.9
		c3.5,1.9,4.9,6.2,3.2,9.7C86.6,92.1,84.3,93.4,81.9,93.4L81.9,93.4z M89.1,59.7c-19.6,0-28.7,25.1-26.6,39.2
		c14.7-1.5,44.1-12,47.3-19.9c1.6-3.9,1-8.2-1.1-12.2C101.2,61.8,94.7,59.7,89.1,59.7L89.1,59.7z"/>
	<path class="st6" d="M82.7,146.4L82.7,146.4c0.5,0.1,1,0.1,1.6,0.2C83.7,146.5,83.2,146.5,82.7,146.4L82.7,146.4z M128.8,127.8
		c-0.1,0.1-0.1,0.2-0.2,0.3C128.7,127.9,128.8,127.8,128.8,127.8L128.8,127.8z M128.9,127.6C128.9,127.7,128.9,127.7,128.9,127.6
		C128.9,127.7,128.9,127.7,128.9,127.6L128.9,127.6z M129,127.6L129,127.6C129,127.6,129,127.6,129,127.6L129,127.6z M129.1,127.5
		C129.1,127.5,129.1,127.5,129.1,127.5C129.1,127.5,129.1,127.5,129.1,127.5L129.1,127.5z M129.1,127.4
		C129.1,127.4,129.1,127.4,129.1,127.4C129.1,127.4,129.1,127.4,129.1,127.4L129.1,127.4z M129.2,127.3L129.2,127.3L129.2,127.3
		L129.2,127.3z M136.8,79.6L136.8,79.6c3.4,9.3,4,19.5,1.5,29.2C140.7,99.2,140.2,89,136.8,79.6L136.8,79.6z"/>
	<polygon class="st0" points="136.8,79.6 136.8,79.6 136.8,79.6 136.8,79.6 	"/>
	<polygon class="st0" points="82.7,146.4 82.7,146.4 82.7,146.4 82.7,146.4 	"/>
	<path class="st7" d="M134.1,73.4L134.1,73.4c1,2,2,4.1,2.7,6.2l0,0C136,77.5,135.1,75.4,134.1,73.4L134.1,73.4z"/>
	<path class="st7" d="M73.8,144.5C73.8,144.5,73.8,144.5,73.8,144.5c2.9,0.9,5.9,1.6,8.9,1.9l0,0C79.7,146,76.7,145.4,73.8,144.5
		L73.8,144.5z"/>
	<path class="st8" d="M112.8,105.1c-1.6,2-3.3,4.1-5,6c0.3-0.1,0.6-0.3,0.9-0.5C111,109.4,112.4,107.3,112.8,105.1L112.8,105.1z
		 M134.1,73.4c-2.5,4.2-5.2,8.6-8,13c7.5,19.6-15,35.3-30,37.6c-7.3,7.5-14.8,14.3-22.3,20.4c2.9,0.9,5.9,1.5,8.9,1.9l0,0
		c0.5,0.1,1,0.1,1.6,0.2c1.6,0.1,3.2,0.2,4.7,0.2c14.9,0,29.6-6.4,39.6-18.8c0.1-0.1,0.1-0.2,0.2-0.3l0,0c0,0,0-0.1,0.1-0.1
		c0,0,0,0,0,0c0,0,0-0.1,0.1-0.1l0,0c0,0,0-0.1,0.1-0.1c0,0,0,0,0,0c0,0,0-0.1,0.1-0.1c0,0,0,0,0,0c0,0,0-0.1,0.1-0.1l0,0
		c4.4-5.6,7.4-11.9,9.1-18.4c2.5-9.7,1.9-19.9-1.5-29.2l0,0C136,77.5,135.1,75.4,134.1,73.4L134.1,73.4z"/>
	<path class="st9" d="M126.1,86.4c-4,6.2-8.3,12.5-13,18.4c-0.1,0.1-0.2,0.2-0.2,0.3c-0.5,2.2-1.9,4.2-4.1,5.5
		c-0.3,0.2-0.6,0.3-0.9,0.5c-3.8,4.5-7.8,8.8-11.7,12.9C111.1,121.8,133.6,106.1,126.1,86.4L126.1,86.4z"/>
</g>
</svg>
