<?xml version="1.0" encoding="utf-8"?>
<!-- Generator: Adobe Illustrator 23.0.1, SVG Export Plug-In . SVG Version: 6.00 Build 0)  -->
<svg version="1.1" id="Layer_1" xmlns="http://www.w3.org/2000/svg" xmlns:xlink="http://www.w3.org/1999/xlink" x="0px" y="0px"
	 viewBox="0 0 119.7 123.4" style="enable-background:new 0 0 119.7 123.4;" xml:space="preserve">
<style type="text/css">
	.st0{fill:#68C2C4;}
	.st1{fill:#ABDCED;}
	.st2{fill:#E5F3F5;}
	.st3{fill:#3FB8B7;}
	.st4{fill:#E6285E;}
	.st5{fill:#FFFFFF;}
	.st6{fill:#EA4B7B;}
	.st7{fill:#EB5B88;}
	.st8{fill:#6AC4D0;}
</style>
<g>
	<path class="st0" d="M64.4,4.9C66.2,5.4,68,6,69.7,6.7c5.2-2.3,8.7-3.5,9-3.5c-0.5-0.1-0.9-0.3-1.4-0.4c-0.1,0-0.1,0-0.1,0
		c-0.3-0.1-0.7-0.2-1.1-0.3C75.5,2.5,70.9,3.1,64.4,4.9z"/>
	<path class="st1" d="M66.8,5.6C73,3.3,77,2.7,77.1,2.7c-5.2-1.4-10.8-2.1-16.4-1.9c0,0,0,0,0,0c-0.9,0-1.9,0.1-2.9,0.2
		c-0.9,0.1-1.7,0.2-2.6,0.3c-0.2,0-0.4,0.1-0.7,0.1c-0.7,0.1-1.4,0.2-2.1,0.3c-0.2,0-0.3,0.1-0.5,0.1c-0.8,0.2-1.7,0.4-2.5,0.6
		C55.5,2.7,61.3,3.8,66.8,5.6z"/>
	<g>
		
			<ellipse transform="matrix(0.9957 -9.210428e-02 9.210428e-02 0.9957 -5.4451 5.776)" class="st2" cx="59.9" cy="61.9" rx="59.5" ry="61.2"/>
		<path class="st3" d="M75.9,3.1c-6.9-2-14.2-2.9-21.7-2.2C21.5,3.9-2.5,33.7,0.6,67.4C0.9,70.2,1.3,73,2,75.7
			c2.5-7.2,6-11.4,6-11.4C15.5,36.5,66.5,8.1,75.9,3.1z"/>
		<path class="st4" d="M23.2,109.9c6.4-0.8,11.5-2.8,11.5-2.8C43.3,95.2,27,80.4,17.3,90c-2.7,2.6-4.6,5-5.9,7.1
			C14.7,101.9,18.7,106.2,23.2,109.9z"/>
		<path class="st3" d="M119.1,56.4c-0.5-5.3-1.6-10.5-3.4-15.3l-54.1,74.2c0,0-8.4,3.8-17.1,5.6c6.6,1.8,13.7,2.5,20.9,1.9
			C98.2,119.8,122.2,90.1,119.1,56.4z"/>
		
			<ellipse transform="matrix(0.9957 -9.210512e-02 9.210512e-02 0.9957 -5.0635 6.088)" class="st5" cx="63.4" cy="57.9" rx="55.8" ry="57.5"/>
		<path class="st5" d="M113.9,65c0.6,6.7,0.3,13.2-0.9,19.5c4.8-9.4,7-20.4,5.9-31.8c-2.9-31.6-30.2-55-60.8-52.1
			c-2.8,0.3-5.6,0.7-8.3,1.4C82.9,3.6,110.7,30.1,113.9,65z"/>
		<path class="st6" d="M110.5,27.2c-3.4-5.6-7.5-10.2-12.3-14.1C79.5,24.8,41.2,51.7,17.3,90c4.5,6.9,10.5,12.7,17.4,17.1
			C57.5,88.3,93.6,56.1,110.5,27.2z"/>
		<path class="st7" d="M98.2,13.1c-2.4,1.5-5.1,3.2-8.1,5.2c5.8,5,10.8,11,14.7,17.8c2.1-3,4-6,5.7-8.9c-0.2-0.4-0.5-0.8-0.7-1.2
			l0,0c-3-4.6-6.6-8.7-10.6-12.2c-0.1-0.1-0.3-0.2-0.4-0.4C98.6,13.4,98.4,13.3,98.2,13.1z"/>
		<path class="st4" d="M33,106c0.6,0.4,1.1,0.8,1.7,1.1c30.2-21.7,57.2-43.9,75.8-79.8c-0.3-0.5-0.6-1-1-1.5C92,54.8,56,87,33,106z"
			/>
		<path class="st4" d="M103.8,34.5c0.5,0.8,0.9,1.6,1.4,2.3c1.9-3.1,3.6-6.3,5.3-9.6c-0.2-0.4-0.7-1.2-1-1.5
			C107.8,28.6,105.9,31.5,103.8,34.5z"/>
		<path class="st8" d="M119,52.8c-0.4-4.4-1.3-8.6-2.5-12.6c-2.4,13-12.5,41.3-54.8,75.2c2.3,0.1,4.7,0,7-0.2
			C99.4,112.3,121.9,84.4,119,52.8z"/>
		<path class="st1" d="M118.6,49.7c-0.1-0.9-0.3-1.9-0.5-2.8c0,0,0-0.1,0-0.1c-0.2-0.9-0.4-1.8-0.6-2.8c0,0,0-0.1,0-0.1
			c-0.2-0.8-0.4-1.6-0.7-2.4c-0.1-0.5-0.3-0.9-0.4-1.4c0,0,0,0,0,0c-0.7,3.6-1.9,8.4-4.3,14.2c0.9,3.4,1.5,7,1.8,10.6
			c0.6,6.7,0.3,13.2-0.9,19.5c0.9-1.8,1.7-3.6,2.4-5.4c0,0,0-0.1,0-0.1c0.2-0.6,0.4-1.2,0.6-1.8c0-0.1,0.1-0.2,0.1-0.2
			c0.4-1.2,0.8-2.4,1.1-3.6c0,0,0-0.1,0-0.1c0.1-0.5,0.3-1,0.4-1.5c0.1-0.3,0.1-0.6,0.2-0.9c0.1-0.5,0.2-0.9,0.3-1.4
			c0.1-0.4,0.2-0.9,0.2-1.3c0.1-0.6,0.2-1.2,0.3-1.8c0.1-0.5,0.1-1,0.2-1.5c0-0.4,0.1-0.7,0.1-1.1c0.1-0.6,0.1-1.1,0.1-1.7
			c0-0.3,0-0.5,0.1-0.8c0-0.8,0.1-1.7,0.1-2.5c0-0.2,0-0.5,0-0.7c0-0.7,0-1.3,0-2c0-0.3,0-0.5,0-0.8c0-0.9-0.1-1.8-0.2-2.6
			c-0.1-0.9-0.2-1.9-0.3-2.8C118.7,49.9,118.7,49.8,118.6,49.7z"/>
		<path class="st4" d="M59.6,47.3C78.7,29.5,99.9,14.6,100,14.6c-0.6-0.6-1.1-1-1.7-1.5C79.5,24.8,41.2,51.7,17.3,90
			c1,1.5,2.3,3.3,2.3,3.3C29.6,79.7,47,58.9,59.6,47.3z"/>
		<path class="st4" d="M98.2,13.1c-2.4,1.5-5.1,3.2-8.1,5.2c0.7,0.6,1.4,1.3,2.1,1.9c4.6-3.5,7.6-5.5,7.7-5.7
			C99.4,14.1,98.8,13.6,98.2,13.1z"/>
		<path class="st3" d="M61.6,115.4c2.4,0.2,3.2,0.1,3.2,0.1c10-7,25.2-19,35-33.4c11.4-16.9,16-30.5,17.6-38.6c0,0-0.2-1.2-0.9-3.2
			C114.1,53.2,103.9,81.5,61.6,115.4z"/>
		<path class="st0" d="M116.4,40.2c-0.7,3.6-1.9,8.4-4.3,14.2c0.3,1.2,0.5,2.3,0.8,3.5c2.4-5.9,3.8-10.8,4.5-14.5
			C117.1,42.3,116.8,41.1,116.4,40.2z"/>
		<path class="st3" d="M76.5,2.1c0,0,1.9,0.5,2.5,0.7c0,0-18.5,6-35.8,19.2C23.3,37.4,8,64.4,8,64.4s-0.4-3.1-0.4-4.7
			c0,0,16-33.8,33.4-44.8C58.4,3.9,76.5,2.1,76.5,2.1z"/>
		<path class="st8" d="M77.4,2.3C71.3,0.5,64.8,0,58.1,0.6c-30.5,2.8-53.5,31-50.3,62C35.3,8.4,77.3,2.3,77.4,2.3z"/>
		<path class="st5" d="M15.2,28.3c0,0-0.9,2-2,5.5c-0.6,1.8-1.2,3.9-1.7,6.5c-0.6,2.5-1.1,5.4-1.4,8.5c-0.3,3.1-0.5,6.5-0.4,10.1
			c0.1,3.6,0.6,7.3,1.4,11.1s2.2,7.6,3.8,11.2c1.7,3.7,3.8,7.2,6.4,10.5c0.3,0.4,0.6,0.8,0.9,1.2l1,1.2l1,1.1l1,1.1
			c1.4,1.5,2.9,2.9,4.4,4.2c3.1,2.6,6.3,4.9,9.8,6.7s6.9,3.2,10.3,4.2c3.4,1,6.8,1.6,9.9,2c3.1,0.3,6,0.5,8.6,0.4
			c2.6,0,4.8-0.2,6.7-0.4c3.7-0.4,5.8-0.9,5.8-0.9s-0.5,0.2-1.4,0.5c-1,0.3-2.4,0.8-4.2,1.2c-1.8,0.4-4.1,0.9-6.7,1.2
			c-2.6,0.3-5.6,0.5-8.9,0.4c-3.3-0.1-6.8-0.5-10.5-1.3c-3.7-0.8-7.5-2.1-11.2-3.9c-3.7-1.8-7.4-4.1-10.7-6.9
			c-1.7-1.4-3.3-2.9-4.8-4.5l-1.1-1.2L20,96.8l-1-1.2c-0.4-0.4-0.7-0.9-1-1.3c-2.7-3.5-4.9-7.4-6.7-11.3c-1.8-4-3-8.1-3.8-12.2
			c-0.8-4.1-1-8.1-0.9-11.8c0.1-3.8,0.5-7.3,1.2-10.5c0.6-3.2,1.4-6.1,2.3-8.6c0.8-2.5,1.7-4.6,2.5-6.3s1.5-3,2-3.9
			C14.9,28.8,15.2,28.3,15.2,28.3z"/>
	</g>
</g>
</svg>
