<?xml version="1.0" encoding="utf-8"?>
<!-- Generator: Adobe Illustrator 23.0.1, SVG Export Plug-In . SVG Version: 6.00 Build 0)  -->
<svg version="1.1" id="Layer_1" xmlns="http://www.w3.org/2000/svg" xmlns:xlink="http://www.w3.org/1999/xlink" x="0px" y="0px"
	 viewBox="0 0 595.28 841.89" style="enable-background:new 0 0 595.28 841.89;" xml:space="preserve">
<style type="text/css">
	.st0{fill:#EFDFEF;}
	.st1{fill:#6AC4D0;}
	.st2{fill:#3FB8B7;}
	.st3{fill:#ABDCED;}
	.st4{fill:#FFFFFF;}
	.st5{fill:#D1EBF5;}
	.st6{fill:#81CBD5;}
</style>
<g>
	<path class="st0" d="M85.04,209.82l36.2-112.39c1.04-3.22,4.53-5.01,7.75-3.97h0c3.22,1.04,5.01,4.53,3.97,7.75L96.76,213.6
		C92.92,225.52,81.27,221.51,85.04,209.82z"/>
	<g>
		
			<ellipse transform="matrix(0.3066 -0.9518 0.9518 0.3066 8.7756 185.7215)" class="st1" cx="131.86" cy="86.84" rx="49.23" ry="48.88"/>
		<path class="st2" d="M147.38,39.17c-26.5-8.54-54.91,6.03-63.44,32.53c-8.54,26.5,6.03,54.91,32.53,63.44
			c26.5,8.54,54.91-6.03,63.44-32.53C188.45,76.11,173.88,47.7,147.38,39.17z M144.14,40.5c13.74,3.68,25.7,14.19,27.91,27.36
			c3.76,22.43-52.93,14.22-81.24-7.64C90.81,60.22,109.77,31.29,144.14,40.5z M116.51,126.29c-16.99-5.47-28.32-20.45-30.2-37.37
			c37.12,29.83,68.29,23.88,64.97,32.15C147.22,131.2,124.84,128.97,116.51,126.29z"/>
		<path class="st1" d="M115.31,133.18c-9.75-3.14-17.94-8.89-24.04-16.22c6.06,8.28,14.69,14.79,25.2,18.18
			c26.5,8.54,54.91-6.03,63.44-32.53c0.16-0.51,0.32-1.02,0.46-1.52C170.96,127.51,142.19,141.84,115.31,133.18z"/>
		<path class="st3" d="M89.64,59.44c-2.23-1.5-5.29-0.67-6.42,1.76c-0.96,2.07-4.52,13.98-4.9,17.75c-0.17,1.67,0.61,3.29,2.03,4.19
			c13.16,8.33,28.87,15.72,46.27,21.32c17.4,5.61,34.47,8.78,50.02,9.7c1.68,0.1,3.26-0.76,4.1-2.22
			c1.89-3.29,5.96-15.04,6.38-17.28c0.5-2.64-1.5-5.1-4.19-5.18c-16.14-0.52-33.39-2.52-49.05-7.56S103.05,68.44,89.64,59.44z"/>
		<path class="st4" d="M96.25,63.73c0,0,0.3,0.16,0.86,0.46c0.56,0.29,1.39,0.72,2.44,1.27c1.05,0.54,2.33,1.2,3.79,1.95
			c1.47,0.74,3.13,1.57,4.94,2.48c0.9,0.46,1.86,0.91,2.84,1.38c0.98,0.47,2,0.96,3.04,1.45c2.09,0.99,4.32,1.98,6.63,3
			c1.15,0.52,2.34,0.99,3.53,1.49c0.6,0.25,1.2,0.49,1.81,0.72c0.61,0.24,1.22,0.48,1.83,0.72c1.23,0.48,2.48,0.91,3.74,1.37
			c1.26,0.41,2.55,0.84,3.8,1.21l1.95,0.56c0.65,0.19,1.3,0.38,1.94,0.53c1.29,0.32,2.56,0.67,3.86,0.95
			c1.29,0.29,2.56,0.59,3.83,0.86c1.27,0.28,2.52,0.54,3.76,0.77c0.62,0.12,1.23,0.24,1.84,0.36c0.61,0.11,1.21,0.22,1.81,0.33
			c1.19,0.23,2.36,0.44,3.51,0.63c1.14,0.2,2.25,0.38,3.33,0.56c1.08,0.18,2.12,0.36,3.12,0.51c2,0.31,3.84,0.59,5.46,0.84
			c1.63,0.24,3.05,0.44,4.22,0.62c2.35,0.33,3.69,0.52,3.69,0.52s-0.34,0-0.97-0.01c-0.63-0.01-1.57-0.02-2.75-0.06
			c-1.18-0.04-2.62-0.1-4.27-0.2c-1.65-0.1-3.51-0.22-5.53-0.41c-2.03-0.17-4.22-0.39-6.53-0.68c-1.16-0.13-2.35-0.29-3.56-0.46
			c-1.22-0.15-2.45-0.36-3.71-0.57c-1.26-0.2-2.53-0.43-3.82-0.67c-0.64-0.12-1.3-0.23-1.95-0.37c-0.65-0.14-1.3-0.28-1.96-0.42
			c-1.31-0.27-2.63-0.61-3.96-0.94c-0.67-0.16-1.32-0.33-1.97-0.52l-1.95-0.55c-1.34-0.41-2.61-0.85-3.91-1.29
			c-1.27-0.48-2.55-0.93-3.8-1.43c-2.5-0.99-4.9-2.08-7.21-3.16c-2.31-1.08-4.5-2.21-6.56-3.3c-2.07-1.09-3.98-2.17-5.74-3.2
			c-3.52-2.04-6.37-3.87-8.35-5.18c-0.99-0.65-1.75-1.19-2.27-1.55C96.53,63.93,96.25,63.73,96.25,63.73z"/>
		<path class="st5" d="M91.67,64.02c-3.28-0.48-9.44,11.13-6.44,15.58c3,4.45,17.84,8.76,20.88,5.46
			C109.57,81.32,99.36,65.15,91.67,64.02z"/>
		<path class="st6" d="M185.42,95.37c0.43-2.38-1.5-4.64-4.04-4.76c-4.25-0.2-8.57-0.5-12.93-0.94
			c-9.49,9.84-35.99,10.97-64.33,1.84c-7.32-2.36-14.14-5.2-20.27-8.36c0.1,0.07,0.19,0.15,0.29,0.21
			c12.59,7.74,27.57,14.66,44.13,20s32.77,8.46,47.51,9.52c1.59,0.11,3.08-0.64,3.85-1.95C181.37,107.98,185.05,97.39,185.42,95.37z
			"/>
		<path class="st6" d="M125.87,40.2c-4.67,0.86-14.02,3.8-21.33,10.94c-7.3,7.15,2.37,14.14,14.29,16.8
			c16.39,3.67,43.22-2.92,37.39-16.07C152.21,42.82,136.59,38.23,125.87,40.2z"/>
		<path class="st3" d="M145.55,49.84c-1.72,2.84-7.92,4.08-17.07,5.69c-9.15,1.61-14.34,3.37-17.82,0.7
			c-4.27-3.28,5.79-12.17,14.94-13.78C134.75,40.84,148.35,45.22,145.55,49.84z"/>
		
			<ellipse transform="matrix(0.3066 -0.9518 0.9518 0.3066 -1.2513 136.4761)" class="st4" cx="93.05" cy="69.1" rx="2.34" ry="4.33"/>
		
			<ellipse transform="matrix(0.1312 -0.9914 0.9914 0.1312 69.8473 172.2517)" class="st4" cx="133.2" cy="46.27" rx="2.34" ry="6.24"/>
		<path class="st4" d="M124.34,47.25c0.39,1.23-1.14,2.81-3.41,3.53c-2.27,0.72-4.43,0.31-4.82-0.92c-0.39-1.23,1.14-2.81,3.41-3.53
			C121.79,45.6,123.95,46.02,124.34,47.25z"/>
	</g>
</g>
</svg>
