<?xml version="1.0" encoding="utf-8"?>
<!-- Generator: Adobe Illustrator 23.0.1, SVG Export Plug-In . SVG Version: 6.00 Build 0)  -->
<svg version="1.1" id="Layer_1" xmlns="http://www.w3.org/2000/svg" xmlns:xlink="http://www.w3.org/1999/xlink" x="0px" y="0px"
	 viewBox="0 0 216.9 142.1" style="enable-background:new 0 0 216.9 142.1;" xml:space="preserve">
<style type="text/css">
	.st0{fill:#F7A62D;}
	.st1{fill:#F49821;}
	.st2{fill:#FBBC39;}
	.st3{fill:#FFEFA5;}
	.st4{fill:#FDE2B3;}
	.st5{fill:#F69F22;}
	.st6{fill:#FAB733;}
	.st7{fill:#FDD879;}
	.st8{fill:#F7A829;}
	.st9{fill:#FDC655;}
	.st10{fill:#FFF1B3;}
</style>
<g>
	<path class="st0" d="M56.4,72.7c0,0-16.5,8-23.6,8.6S3,73.8,2,70.8C1.4,69,7.4,64.5,12.7,60.6c3.8-2.8,7.2-5.3,7.7-6.4
		C21.5,51.7,2,37.3,4.1,31.9c1.1-2.8,8.1-3.2,14.8-3.2c6.2,0,12.1,0.2,12.5-1.1c0.8-2.6-7.6-22.8-6.3-25.4c1.3-2.7,29,5,33.2,11.4
		c4.2,6.4,11.9,23.4,11.9,23.4L56.4,72.7L56.4,72.7z"/>
	<path class="st0" d="M144.4,106.8c0,0,6.8,17,11.7,22.2c4.9,5.2,27,14.5,29.8,13c2.8-1.5-3.3-22.1-2.5-24.7
		c0.4-1.3,6.2-1.3,12.4-1.6c6.6-0.4,13.6-1,14.7-3.8c2.1-5.4-18.4-19.1-17.3-21.6c0.6-1.2,5.4-4,10.5-6.8c5.4-3.1,10.9-6.2,11.3-7.7
		c0.8-2.9-24.8-15.9-32.2-13.9c-7.4,1.9-24.6,9.3-24.6,9.3L144.4,106.8L144.4,106.8z"/>
	<path class="st1" d="M25.1,2.2c-1.3,2.6,7.1,22.8,6.3,25.4c0,0,13.8,0.5,33.6,7.3c0,0,3.3,0.6,4.9,1.3c-1.5-3.3-7.9-17-11.6-22.6
		C54.1,7.2,26.4-0.5,25.1,2.2L25.1,2.2z"/>
	<path class="st1" d="M182.8,61.7c-7.4,1.9-24.6,9.3-24.6,9.3l-0.6,1.6c21.4,12.8,39,26.9,51.3,40.8c0.8-0.4,1.4-1,1.6-1.6
		c2.1-5.4-18.4-19.1-17.3-21.6c0.6-1.2,5.4-4,10.5-6.8c5.4-3.1,10.9-6.2,11.3-7.7C215.8,72.8,190.2,59.8,182.8,61.7L182.8,61.7z"/>
	<path class="st2" d="M123.6,27c29.2,11.3,45.1,40.6,35.5,65.3c-9.6,24.8-41,35.7-70.3,24.4c-29.2-11.3-45.1-40.6-35.5-65.3
		S94.4,15.7,123.6,27L123.6,27z"/>
	<path class="st3" d="M107.2,23c-1.8-0.2-4.6-0.4-6.4-0.4c-10.6,8.7-19.7,22.1-25.6,37.3s-7.9,33.8-6.2,44.8
		c1.3,1.2,2.6,2.3,4.1,3.4C75.4,75.3,89.4,44.9,107.2,23L107.2,23z"/>
	<path class="st3" d="M61.4,54.6C66.2,42,74.7,31.7,85.2,24.5c-14.8,4-26.6,13.3-31.9,27c-5.3,13.7-2.8,28.8,5.4,41.4
		C55.9,80.4,56.5,67.2,61.4,54.6L61.4,54.6z"/>
	<path class="st3" d="M138.4,35.1c1.5,1.1,3.7,2.8,5,4c2,13.6-0.3,29.6-6.2,44.8c-5.9,15.3-16.9,30.3-25.6,37.3
		c-1.8,0-3.5-0.1-5.3-0.3C126.8,95.1,136.9,63.3,138.4,35.1L138.4,35.1z"/>
	<path class="st3" d="M151.1,89.3c4.9-12.6,5.5-25.8,2.6-38.3c8.2,12.6,10.7,27.7,5.4,41.4s-17.4,23.3-31.9,27
		C137.7,112.1,146.2,101.9,151.1,89.3L151.1,89.3z"/>
	<path class="st3" d="M121.3,26.2c-3.5,6.2-15.6,27.9-21.5,43.1c-6,15.4-11.7,40-13.2,46.6c1.2,0.6,2.5,1,3.8,1.5
		c2.5-4.2,12.8-19.7,22.1-43c9.1-22.7,12.1-41.2,13.2-46.5C124.5,27.4,122.8,26.7,121.3,26.2L121.3,26.2z"/>
	<path class="st4" d="M68.1,32.4L68.1,32.4c8.5-6.2,19.3-9.6,30.8-9.9C87.4,22.8,76.6,26.2,68.1,32.4L68.1,32.4z"/>
	<path class="st5" d="M67.3,33.1c0.1-0.1,0.2-0.1,0.2-0.2c0.2-0.2,0.4-0.3,0.6-0.4l0,0C67.8,32.6,67.5,32.8,67.3,33.1L67.3,33.1z"/>
	<path class="st6" d="M107.2,23c-4.9,6.1-9.6,12.8-13.8,20.1c4.1,1.3,8.2,2.8,12.2,4.4c1.2,0.4,2.3,0.9,3.5,1.4
		c5-9.9,10-18.9,12.1-22.6C116.6,24.6,111.9,23.5,107.2,23L107.2,23z M67.5,32.9c5.1-3.8,11.1-6.7,17.7-8.4c-1.5,1-3,2.1-4.4,3.3
		c-3.3,2.7-6.3,5.7-9,9c4.4,1.2,8.8,2.4,13.3,3.7c4.6-7,9.9-13.2,15.7-17.9c-0.6,0-1.3,0-1.9,0c-11.5,0.2-22.3,3.7-30.8,9.9
		C67.9,32.6,67.7,32.7,67.5,32.9L67.5,32.9z"/>
	<path class="st7" d="M100.8,22.6c-5.7,4.7-11.1,10.8-15.7,17.9c2.8,0.8,5.5,1.7,8.3,2.6c4.2-7.2,8.8-14,13.8-20.1
		C105.1,22.7,102.9,22.6,100.8,22.6L100.8,22.6z"/>
	<path class="st7" d="M66.1,34c-0.4,0.3-0.7,0.6-1.1,0.9c2.3,0.6,4.5,1.2,6.8,1.8c2.7-3.3,5.8-6.3,9-9c1.4-1.2,2.9-2.2,4.4-3.3
		c-6.6,1.8-12.6,4.6-17.7,8.4c-0.1,0.1-0.2,0.1-0.2,0.2C66.9,33.4,66.5,33.7,66.1,34L66.1,34z"/>
	<path class="st4" d="M124,27.2L124,27.2L124,27.2L124,27.2z M123.9,27.1L123.9,27.1L123.9,27.1L123.9,27.1z M123.9,27.1
		C123.9,27.1,123.9,27.1,123.9,27.1C123.9,27.1,123.9,27.1,123.9,27.1L123.9,27.1z M123.8,27.1L123.8,27.1
		C123.8,27.1,123.8,27.1,123.8,27.1L123.8,27.1z M123.7,27.1L123.7,27.1C123.7,27.1,123.7,27.1,123.7,27.1L123.7,27.1z M123.7,27
		C123.7,27,123.7,27,123.7,27C123.7,27,123.7,27,123.7,27L123.7,27z"/>
	<path class="st6" d="M143.5,39.1C143.5,39.1,143.5,39.1,143.5,39.1c1.1,7.8,0.9,16.3-0.7,25.1c4.3,2.2,8.4,4.6,12.4,6.9
		c0.6-6.8,0-13.6-1.5-20.1C150.9,46.7,147.5,42.7,143.5,39.1L143.5,39.1z M123.4,27c0.8,0.3,1.7,0.7,2.4,1c-0.8,3.5-2.3,12.8-6,25.3
		c5.1,2.2,10.2,4.6,15,7c1.9-8.5,3.1-17,3.5-25.2l0,0c-4.3-3.1-9.2-5.8-14.5-7.9l0,0c0,0,0,0-0.1,0h0c0,0,0,0-0.1,0h0c0,0,0,0-0.1,0
		h0c0,0,0,0-0.1,0l0,0c0,0,0,0-0.1,0c0,0,0,0,0,0c0,0,0,0-0.1,0l0,0l0,0C123.5,27,123.5,27,123.4,27L123.4,27z"/>
	<path class="st4" d="M161.1,69.2c0,0.2,0.1,0.4,0.1,0.5l0,0C161.2,69.5,161.2,69.4,161.1,69.2L161.1,69.2z"/>
	<path class="st8" d="M161.9,75.1C161.9,75.1,161.9,75.1,161.9,75.1C161.9,75.1,161.9,75.1,161.9,75.1
		C161.9,75.1,161.9,75.1,161.9,75.1L161.9,75.1L161.9,75.1z M161.2,69.7L161.2,69.7L161.2,69.7L161.2,69.7L161.2,69.7L161.2,69.7z"
		/>
	<path class="st5" d="M161.2,69.7c0.3,1.8,0.5,3.6,0.6,5.4c0,0,0,0,0,0C161.8,73.3,161.6,71.5,161.2,69.7L161.2,69.7L161.2,69.7z"/>
	<path class="st7" d="M138.4,35.1c-0.4,8.2-1.6,16.6-3.5,25.2c2.7,1.3,5.3,2.7,7.9,4c1.5-8.8,1.8-17.4,0.7-25.1c0,0,0,0,0,0
		C141.9,37.7,140.2,36.3,138.4,35.1C138.4,35.1,138.4,35.1,138.4,35.1L138.4,35.1z"/>
	<path class="st7" d="M153.7,51c1.5,6.6,2.1,13.3,1.5,20.1c2.2,1.3,4.5,2.6,6.6,4c0,0,0,0,0,0c-0.1-1.8-0.3-3.6-0.6-5.4l0,0
		c0-0.2-0.1-0.4-0.1-0.5C160,62.9,157.4,56.7,153.7,51L153.7,51z"/>
	<path class="st7" d="M121.3,26.2c-2.1,3.7-7.1,12.7-12.1,22.6c3.6,1.4,7.2,2.9,10.7,4.5c3.6-12.5,5.2-21.8,6-25.3
		c-0.7-0.3-1.6-0.6-2.4-1C122.7,26.7,122,26.4,121.3,26.2L121.3,26.2z"/>
	<path class="st9" d="M85.4,58.9C79.9,71.4,75.9,85.1,74,99.3c4.4,3.4,9.4,6.3,14.5,8.7c2.4-9.9,6.4-25.6,10.7-37.1
		C94.4,65.8,89.5,61.4,85.4,58.9L85.4,58.9z M68.1,60.3C60.5,66.5,57,79,62.5,87.3c1.7,2.5,3.7,4.9,5.9,7.1
		c0.2-10.4,2.4-23.4,6.8-34.6c0.4-1.1,0.9-2.2,1.4-3.3C73.4,56.9,70.5,58.3,68.1,60.3L68.1,60.3z"/>
	<path class="st10" d="M76.5,56.6c-0.5,1.1-0.9,2.2-1.4,3.3c-4.3,11.2-6.6,24.1-6.8,34.6c1.7,1.7,3.6,3.3,5.6,4.8
		c1.9-14.2,5.9-27.9,11.4-40.4c-2-1.3-3.9-2.1-5.4-2.3C78.8,56.4,77.7,56.4,76.5,56.6L76.5,56.6z"/>
	<path class="st9" d="M122.1,110.3c-1,1.3-2.1,2.5-3.1,3.7c0.5-0.2,1-0.5,1.4-0.8C121.3,112.5,121.9,111.5,122.1,110.3L122.1,110.3z
		 M109.2,82.5c-5.4,12.3-10.8,21.9-14.5,28.1c4.3,1.6,8.6,2.8,12.5,3.5c1.4,0.3,2.8,0.4,4,0.6c3.4-4.8,6.4-9.7,9.1-14.8
		c-0.1-0.1-0.1-0.3-0.2-0.5C118.2,95.1,114.1,88.9,109.2,82.5L109.2,82.5z"/>
	<path class="st10" d="M120.2,99.9c-2.7,5.1-5.8,10-9.1,14.8c3.5,0.4,6.1,0.1,8-0.7c1-1.2,2.1-2.4,3.1-3.7
		C122.7,107.8,122,104.4,120.2,99.9L120.2,99.9z"/>
	<path class="st10" d="M99.2,70.9c-4.3,11.5-8.3,27.2-10.7,37.1c2,1,4.1,1.8,6.1,2.6c3.7-6.2,9.1-15.8,14.5-28.1
		C106.1,78.6,102.7,74.6,99.2,70.9L99.2,70.9z"/>
</g>
</svg>
