<?xml version="1.0" encoding="utf-8"?>
<!-- Generator: Adobe Illustrator 23.0.1, SVG Export Plug-In . SVG Version: 6.00 Build 0)  -->
<svg version="1.1" id="Layer_1" xmlns="http://www.w3.org/2000/svg" xmlns:xlink="http://www.w3.org/1999/xlink" x="0px" y="0px"
	 viewBox="0 0 595.28 841.89" style="enable-background:new 0 0 595.28 841.89;" xml:space="preserve">
<style type="text/css">
	.st0{fill:#B2CC31;}
	.st1{fill:#7BB929;}
	.st2{fill:#F3EAF5;}
	.st3{fill:#DCE1ED;}
	.st4{fill:#CCDB72;}
	.st5{fill:#F7F0F8;}
	.st6{fill:#FFFFFF;}
</style>
<g>
	<path class="st0" d="M162.16,130.43c-21.85,23.37-61.17,21.74-87.83-3.63c-26.66-25.37-30.56-64.88-8.71-88.24
		c21.85-23.37,61.17-21.74,87.83,3.63C180.11,67.55,184.01,107.06,162.16,130.43L162.16,130.43z"/>
	<path class="st1" d="M176,98.49c-0.61,0.73-1.18,1.5-1.84,2.21c-21.85,23.36-61.18,21.74-87.83-3.63
		C69.77,81.31,62.01,60.11,63.73,40.7c-19.68,23.58-15.31,61.43,10.54,86.04c26.66,25.37,65.98,27,87.83,3.63
		C170.38,121.51,174.95,110.33,176,98.49z"/>
	<path class="st2" d="M162.82,52.96c-2.73-3.79-5.83-7.42-9.37-10.78c-4.9-4.66-10.23-8.51-15.8-11.56
		c-12.18-2.45-28.74-2.8-46.34,5.63c-18.81,9-31.75,25.17-39.77,38.33c-0.23,12.18,3.14,24.84,10.01,36.28
		C78.08,63.78,118.79,39.91,162.82,52.96L162.82,52.96z"/>
	<path class="st3" d="M75.3,83.93c-5.62-8.46-9.22-17.69-10.84-26.98c-5.24,5.88-9.58,11.98-12.98,17.56c0,0.1,0,0.2,0,0.3
		c-0.08,5.87,0.67,11.84,2.24,17.73c0.05,0.19,0.1,0.39,0.15,0.58c0.36,1.3,0.77,2.59,1.21,3.88c0.13,0.39,0.27,0.77,0.41,1.16
		c0.45,1.24,0.91,2.47,1.43,3.69c0.14,0.32,0.3,0.64,0.44,0.97c1.15,2.6,2.45,5.15,3.94,7.65c0.07,0.11,0.12,0.23,0.19,0.34
		C65.02,100.71,69.74,91.76,75.3,83.93z"/>
	<path class="st2" d="M172.7,71.95c-15.99-6.1-38.65-6.94-54.2,3.4c-29.18,19.41-41.38,53.26-41.36,54.12
		c9.98,9.5,24.98,14.27,24.98,14.27c12.11-41.5,50.52-60.42,74.2-50.21C176.01,83.71,175.86,81.27,172.7,71.95L172.7,71.95z"/>
	<path class="st3" d="M77.06,129.4c7.66,6.59,16.18,11.41,24.99,14.29c3.35-11.37,8.7-20.98,15.15-28.81
		c-8.88-2.45-17.59-6.74-25.47-12.93C81.93,115.74,77.37,128.06,77.06,129.4z"/>
	<path class="st4" d="M139.12,49.42c-12.63,0-24.63,3.1-35.41,8.92c2.29,5.03,5.86,10.07,10.56,14.54c1.12,1.07,2.27,2.07,3.44,3
		c0.26-0.18,0.53-0.36,0.79-0.53c8.39-5.58,18.84-7.9,29.2-7.9c3,0,5.99,0.19,8.92,0.56c-0.25-5.59-2.52-11.88-6.56-17.82
		C146.36,49.67,142.72,49.42,139.12,49.42L139.12,49.42z"/>
	<path class="st5" d="M116.92,29.94c-4.89,0-9.19,1.53-12.18,4.73c-5.13,5.49-5.19,14.55-1.04,23.67
		c10.79-5.82,22.78-8.92,35.41-8.92c3.6,0,7.25,0.25,10.94,0.76c-1.92-2.83-4.25-5.59-6.94-8.15
		C134.86,34.18,125.06,29.94,116.92,29.94L116.92,29.94z"/>
	<path class="st5" d="M147.7,67.45c-10.36,0-20.82,2.32-29.2,7.9c-0.27,0.18-0.53,0.36-0.79,0.53c7.45,5.93,15.72,9.09,22.75,9.09
		c4.89,0,9.19-1.53,12.18-4.73c2.93-3.13,4.21-7.43,3.99-12.23C153.69,67.64,150.7,67.45,147.7,67.45L147.7,67.45z"/>
	
		<ellipse transform="matrix(0.5368 -0.8437 0.8437 0.5368 24.8555 127.5027)" class="st6" cx="128.54" cy="41.12" rx="5.7" ry="10.24"/>
	<path class="st6" d="M146.14,62.55c-2.13,1.5-5.09,0.6-6.61-2.02c-1.52-2.62-1.02-5.96,1.11-7.46c2.13-1.5,5.09-0.6,6.61,2.02
		C148.77,57.71,148.27,61.05,146.14,62.55z"/>
</g>
</svg>
