<?xml version="1.0" encoding="utf-8"?>
<!-- Generator: Adobe Illustrator 23.0.1, SVG Export Plug-In . SVG Version: 6.00 Build 0)  -->
<svg version="1.1" id="Layer_1" xmlns="http://www.w3.org/2000/svg" xmlns:xlink="http://www.w3.org/1999/xlink" x="0px" y="0px"
	 viewBox="0 0 201 200.9" style="enable-background:new 0 0 201 200.9;" xml:space="preserve">
<style type="text/css">
	.st0{fill:#EFDAE8;}
	.st1{fill:#B93B8E;}
	.st2{fill:#F7EDF3;}
	.st3{fill:#FFFFFF;}
	.st4{fill:#CF559A;}
	.st5{fill:#D063A2;}
	.st6{fill:#D877AE;}
	.st7{fill:#FDEDF5;}
</style>
<g>
	<ellipse class="st0" cx="113.9" cy="109.8" rx="68.1" ry="62"/>
	<path class="st1" d="M170.6,87.3c0,0-7.3,25,2.2,29.3c3.4,1.6,5.9,3.5,7.9,5.4c0.9-3.9,1.3-8,1.3-12.2c0-5.7-0.9-11.2-2.4-16.5
		C175.2,89.5,170.6,87.3,170.6,87.3z"/>
	<path class="st1" d="M113.1,163.8c-2.2,3.6-5.6,5.9-8.7,7.4c3.1,0.4,6.3,0.6,9.5,0.6c9.1,0,17.8-1.6,25.8-4.6
		c5-6.7,6.1-13.3,6.1-13.3S117.8,155.9,113.1,163.8z"/>
	<path class="st1" d="M64.2,152.2c3.1,1.1,8.3,0.8,8.3,0.8s-9.2-24.2-21.9-24.9c-0.6,0-1.2-0.1-1.8-0.2
		C51.7,137,57.1,145.3,64.2,152.2z"/>
	<path class="st1" d="M130.5,49.7c-2.5-0.3-3.9-0.1-3.9-0.1s17.5,15.6,27.5,14.1c1.7-0.3,3.3-0.4,4.7-0.5
		C150.8,56.8,141.2,52.1,130.5,49.7z"/>
	<ellipse class="st2" cx="109.8" cy="105.7" rx="64.1" ry="58.1"/>
	<path class="st3" d="M120.9,53.2c7.3,0,15,0.9,21.8,2.5c-9.8-5.5-21-8.2-32.8-8.2c-32.6,0-58.3,21.3-63.3,48.9
		C59.5,71,87.9,53.2,120.9,53.2z"/>
	<path class="st4" d="M113.9,93.1c0,0-6.8-31.1,12.9-43.5c0,0,13.6,2.1,27.3,14.1C154.1,63.7,127.5,71.8,113.9,93.1z"/>
	<path class="st5" d="M117.9,80.2c0,0-2.6-18.2,9.2-25.5c0,0,11,0.5,19.1,7.8C146.2,62.5,128.9,65,117.9,80.2z"/>
	<path class="st6" d="M126.9,49.5c-1.7,1.1-3.3,2.3-4.6,3.7c6.9,0.1,14.1,1,20.5,2.5C137.8,52.9,132.5,50.9,126.9,49.5z"/>
	<path class="st4" d="M123.3,104.9c0,0,22.4-25.2,47.4-17.6c0,0,6.2,11.1,2.2,29.3C172.8,116.6,149,103.3,123.3,104.9z"/>
	<path class="st4" d="M116.5,113.8c0,0,31.8,15.6,29.3,40.1c0,0-13.6,9.2-32.7,9.9C113.1,163.8,123.7,136.9,116.5,113.8z"/>
	<path class="st4" d="M98.6,109.8c0,0-1.2,35.3-26.1,43.1c0,0-14.2-8.2-21.9-24.9C50.5,128,78.9,125.4,98.6,109.8z"/>
	<path class="st4" d="M97.5,97.9c0,0-34.5-2-41-24.5c0,0,7.5-11.8,25.2-20.1C81.8,53.4,82.8,79.6,97.5,97.9z"/>
	<path class="st6" d="M81.8,53.4c-16.4,6.6-25.3,20.1-25.3,20.1c0.6,2,1.4,3.9,2.4,5.6c6.7-7,14.7-12.9,23.8-17.2
		C82,57.2,81.8,54,81.8,53.4z"/>
	<path class="st5" d="M132,101.2c0,0,15.9-13.9,29.7-11.2c0,0,5.9,7.8,3.6,18.6C165.3,108.7,153.4,99.4,132,101.2z"/>
	<path class="st5" d="M121.7,121.9c0,0,17.6,11.9,17.5,25.1c0,0-7.1,6.9-18.8,6.9C120.3,154,127.8,141.2,121.7,121.9z"/>
	<path class="st5" d="M93.7,117.3c0,0-3.8,20-16.6,25.6c0,0-9.7-3-14.8-12.9C62.3,130.1,77.8,130.8,93.7,117.3z"/>
	<path class="st5" d="M89.3,92.1c0,0-16.8-3.5-21.2-13.2c0,0,2.8-7.1,11.4-10.6C79.6,68.3,78.4,79.8,89.3,92.1z"/>
	<path class="st7" d="M72.4,152.9c0,0,2.1,1.1,5.9,2.6c1.9,0.8,4.3,1.6,7,2.4c2.7,0.8,5.8,1.6,9.3,2.3c3.4,0.7,7.2,1.2,11.2,1.4
		c4,0.2,8.2,0.1,12.5-0.4s8.6-1.5,12.9-2.9c4.2-1.4,8.4-3.3,12.3-5.6c0.5-0.3,1-0.6,1.4-0.9l1.5-0.9l1.4-0.9l1.4-1
		c1.8-1.3,3.5-2.7,5.2-4.2c3.2-2.9,6.1-6.1,8.5-9.5c2.3-3.4,4.2-6.9,5.7-10.3c1.4-3.5,2.5-6.9,3.2-10.1c0.7-3.2,1.1-6.2,1.4-8.9
		c0.2-2.7,0.3-5,0.2-7c-0.1-3.9-0.4-6.1-0.4-6.1s0.2,0.5,0.4,1.6c0.2,1,0.6,2.5,0.9,4.5c0.3,1.9,0.6,4.3,0.6,7.1
		c0.1,2.7,0,5.9-0.5,9.2c-0.5,3.4-1.2,7-2.6,10.8c-1.3,3.7-3.1,7.6-5.5,11.3c-2.4,3.7-5.3,7.3-8.8,10.5c-1.7,1.6-3.6,3.1-5.5,4.5
		l-1.5,1.1l-1.5,1l-1.5,0.9c-0.5,0.4-1,0.6-1.6,0.9c-4.2,2.4-8.7,4.4-13.2,5.9c-4.6,1.5-9.3,2.3-13.9,2.7c-4.6,0.4-9.1,0.3-13.2-0.2
		c-4.2-0.4-8-1.2-11.5-2.2c-3.5-0.9-6.6-2.1-9.3-3.2c-2.7-1.1-4.9-2.2-6.8-3.2c-1.8-1-3.2-1.8-4.1-2.4
		C72.9,153.3,72.4,152.9,72.4,152.9z"/>
</g>
</svg>
