<?xml version="1.0" encoding="utf-8"?>
<!-- Generator: Adobe Illustrator 23.0.1, SVG Export Plug-In . SVG Version: 6.00 Build 0)  -->
<svg version="1.1" id="Layer_1" xmlns="http://www.w3.org/2000/svg" xmlns:xlink="http://www.w3.org/1999/xlink" x="0px" y="0px"
	 viewBox="0 0 595.28 841.89" style="enable-background:new 0 0 595.28 841.89;" xml:space="preserve">
<style type="text/css">
	.st0{fill:#6E62A9;}
	.st1{fill:#5D55A0;}
	.st2{fill:#8F80BB;}
	.st3{fill:#BFB4DA;}
	.st4{fill:#A494C7;}
	.st5{fill:#CAC0E0;}
	.st6{fill:#EBE8F5;}
	.st7{fill:#5F56A1;}
	.st8{fill:#897BB8;}
	.st9{fill:#B5A9D3;}
</style>
<g>
	<path class="st0" d="M505.81,65.66c0,0-2.35-19.51-0.36-27.17c1.99-7.66,18.16-28.95,21.59-29.2s8.23,22.17,10.4,24.05
		c1.03,0.9,6.46-2.34,12.38-5.58c6.53-3.57,13.67-7.15,16.19-5.17c4.82,3.77-7.67,28.18-5.28,29.8c1.13,0.77,7.01,0.48,13.13,0.19
		c6.8-0.33,13.88-0.65,15.05,0.48c2.25,2.18-15.36,28.96-23.39,31.52c-8.03,2.56-28.1,5.8-28.1,5.8L505.81,65.66L505.81,65.66z"/>
	<path class="st0" d="M459.89,123.85c0,0-19.75,2.23-26.84,5.9c-7.09,3.67-24.33,24.12-23.79,27.48c0.54,3.35,23.72,2.81,26.08,4.47
		c2.36,1.66-8.84,26.19-4.02,29.95c2.52,1.97,9.5-1.9,15.9-5.78c5.85-3.54,11.21-7.07,12.23-6.16c2.15,1.92,4.5,25.3,7.14,26.95
		c2.66,1.66,24.99-21.43,25.66-29.75c0.67-8.32-0.75-28.36-0.75-28.36L459.89,123.85L459.89,123.85z"/>
	<path class="st1" d="M588.86,53.07c-1.17-1.13-8.26-0.81-15.06-0.48c-6.11,0.29-11.99,0.59-13.12-0.18c0,0-5.41,14.35-19.4,33.05
		c0,0-1.82,3.28-3.03,4.79c3.96-0.66,20.19-3.42,27.21-5.65C573.5,82.03,591.11,55.25,588.86,53.07L588.86,53.07z"/>
	<path class="st1" d="M492.25,176.92c0.67-8.32-0.75-28.36-0.75-28.36l-1.37-1.07c-20.63,18.75-41.25,33.15-59.89,42.03
		c0.17,0.95,0.51,1.69,1.08,2.13c2.52,1.97,9.5-1.9,15.9-5.78c5.85-3.54,11.21-7.07,12.23-6.16c2.15,1.92,4.5,25.3,7.14,26.95
		C469.25,208.33,491.58,185.23,492.25,176.92L492.25,176.92z"/>
	<path class="st2" d="M538.09,137.04c-17.37,21.7-49.21,25.4-71.11,8.27c-21.9-17.13-25.58-48.6-8.2-70.3
		c17.37-21.7,49.21-25.4,71.11-8.27C551.79,83.87,555.46,115.34,538.09,137.04L538.09,137.04z"/>
	<path class="st3" d="M521.49,78.77c-38.92-30.43-55.68,18.65-48.46,34.39c0,0-8.04,9.56-5.78,14.06c1.91,3.79,6.26,2.02,6.26,2.02
		s-2.58,6.95,0.41,9.29c3.15,2.46,8.6-1.88,8.6-1.88s-0.23,4.5,4.41,4.77c5.78,0.34,12.72-7.89,12.72-7.89
		C516.78,135.85,559.61,108.58,521.49,78.77L521.49,78.77z M487.68,101.76c-3.47-1.92-4.9-6.24-3.21-9.65
		c1.7-3.41,5.88-4.62,9.35-2.7c3.47,1.92,4.9,6.24,3.21,9.65C495.34,102.47,491.15,103.68,487.68,101.76L487.68,101.76z
		 M518.01,119.97c-4.44,2.64-10.49,1.45-13.52-2.66c-3.03-4.11-1.89-9.59,2.54-12.23c4.44-2.64,10.49-1.45,13.52,2.66
		C523.58,111.85,522.44,117.32,518.01,119.97L518.01,119.97z"/>
	<path class="st4" d="M490.35,88.49c-2.44,0-4.73,1.3-5.88,3.61c-1.7,3.41-0.26,7.73,3.21,9.65c1.12,0.62,2.31,0.91,3.47,0.91
		c2.44,0,4.73-1.3,5.88-3.61c1.7-3.41,0.26-7.73-3.21-9.65C492.71,88.79,491.51,88.49,490.35,88.49L490.35,88.49z M496.12,61.87
		c-1.02,0-2.03,0.1-3.02,0.3c-15.78,3.23-29.84,17.63-35.77,29.8c-5.84,12-2.04,16.46,10.82,16.46c0.18,0,0.37,0,0.55,0
		c0.9-0.01,1.89-0.07,2.96-0.18c-2.04-14.18,7.03-39.25,26.64-39.24c5.65,0,12.18,2.08,19.56,7.11
		C513.85,68.4,504.56,61.87,496.12,61.87L496.12,61.87z"/>
	<path class="st5" d="M491.15,102.67c-1.16,0-2.35-0.29-3.47-0.91c-3.47-1.92-4.9-6.24-3.21-9.65c1.15-2.31,3.44-3.61,5.88-3.61
		c1.16,0,2.35,0.29,3.47,0.91c3.47,1.92,4.9,6.24,3.21,9.65C495.88,101.37,493.59,102.67,491.15,102.67L491.15,102.67z
		 M498.31,69.02c-19.61,0-28.68,25.06-26.64,39.24c14.74-1.49,44.09-12.02,47.34-19.88c1.62-3.91,0.95-8.24-1.14-12.25
		C510.49,71.1,503.96,69.02,498.31,69.02L498.31,69.02z"/>
	<path class="st6" d="M491.93,155.68L491.93,155.68c0.53,0.07,1.05,0.12,1.58,0.17C492.99,155.81,492.46,155.75,491.93,155.68
		L491.93,155.68z M538.09,137.04c-0.07,0.08-0.14,0.17-0.21,0.26C537.96,137.21,538.03,137.12,538.09,137.04L538.09,137.04z
		 M538.18,136.93c-0.01,0.01-0.01,0.02-0.02,0.02C538.16,136.95,538.17,136.94,538.18,136.93L538.18,136.93z M538.24,136.85
		c0,0-0.01,0.01-0.01,0.01C538.24,136.86,538.24,136.85,538.24,136.85L538.24,136.85z M538.32,136.75c0,0.01-0.01,0.01-0.01,0.02
		C538.31,136.76,538.32,136.75,538.32,136.75L538.32,136.75z M538.39,136.66C538.39,136.67,538.38,136.67,538.39,136.66
		C538.38,136.67,538.39,136.67,538.39,136.66L538.39,136.66z M538.46,136.57C538.46,136.57,538.46,136.57,538.46,136.57
		C538.46,136.57,538.46,136.57,538.46,136.57L538.46,136.57z M546.04,88.88C546.04,88.88,546.04,88.88,546.04,88.88
		c3.41,9.33,3.96,19.54,1.5,29.25C549.99,108.48,549.48,98.28,546.04,88.88L546.04,88.88z"/>
	<polygon class="st0" points="546.04,88.88 546.04,88.88 546.04,88.88 546.04,88.88 546.04,88.88 	"/>
	<polygon class="st0" points="491.93,155.68 491.93,155.68 491.93,155.68 491.93,155.68 491.93,155.68 	"/>
	<path class="st7" d="M543.31,82.73L543.31,82.73c1.05,1.99,1.96,4.05,2.73,6.15c0,0,0,0,0,0
		C545.27,86.79,544.36,84.73,543.31,82.73L543.31,82.73z"/>
	<path class="st7" d="M483.09,153.77C483.08,153.77,483.08,153.77,483.09,153.77c2.9,0.91,5.86,1.55,8.85,1.92v0
		C488.95,155.31,485.99,154.67,483.09,153.77L483.09,153.77z"/>
	<path class="st8" d="M522.07,114.43c-1.64,2.04-3.3,4.05-4.97,6.02c0.31-0.14,0.61-0.3,0.9-0.48
		C520.22,118.65,521.61,116.63,522.07,114.43L522.07,114.43z M543.31,82.73c-2.52,4.25-5.16,8.62-7.95,13
		c7.47,19.62-15.03,35.33-29.97,37.63c-7.27,7.51-14.75,14.33-22.29,20.41c2.9,0.91,5.86,1.54,8.85,1.92h0
		c0.53,0.07,1.05,0.12,1.58,0.17c1.58,0.15,3.16,0.22,4.74,0.22c14.87,0,29.62-6.44,39.63-18.78c0.07-0.08,0.14-0.17,0.21-0.26l0,0
		c0.02-0.03,0.04-0.05,0.07-0.08c0.01-0.01,0.01-0.02,0.02-0.02c0.02-0.02,0.04-0.05,0.06-0.07c0,0,0.01-0.01,0.01-0.01
		c0.02-0.03,0.04-0.06,0.07-0.08c0-0.01,0.01-0.01,0.01-0.02c0.02-0.03,0.04-0.05,0.06-0.08c0,0,0-0.01,0.01-0.01
		c0.02-0.03,0.05-0.06,0.07-0.09c0,0,0,0,0,0c4.39-5.62,7.41-11.9,9.07-18.44c2.46-9.71,1.91-19.92-1.5-29.25l0,0
		C545.27,86.79,544.36,84.73,543.31,82.73L543.31,82.73z"/>
	<path class="st9" d="M535.35,95.73c-3.99,6.23-8.3,12.48-13.05,18.41c-0.08,0.09-0.15,0.19-0.23,0.28
		c-0.47,2.2-1.86,4.22-4.07,5.54c-0.29,0.18-0.6,0.33-0.9,0.48c-3.83,4.5-7.75,8.81-11.72,12.92
		C520.32,131.07,542.82,115.35,535.35,95.73L535.35,95.73z"/>
</g>
</svg>
