<?xml version="1.0" encoding="utf-8"?>
<!-- Generator: Adobe Illustrator 23.0.1, SVG Export Plug-In . SVG Version: 6.00 Build 0)  -->
<svg version="1.1" id="Layer_1" xmlns="http://www.w3.org/2000/svg" xmlns:xlink="http://www.w3.org/1999/xlink" x="0px" y="0px"
	 viewBox="0 0 175 198.9" style="enable-background:new 0 0 175 198.9;" xml:space="preserve">
<style type="text/css">
	.st0{fill:#F08016;}
	.st1{fill:#FEC906;}
	.st2{fill:#EFE8DF;}
	.st3{fill:#ED6B18;}
	.st4{fill:#F9AE0E;}
	.st5{fill:#DCD2CB;}
	.st6{fill:#F59F43;}
	.st7{fill:#F4EEE7;}
</style>
<g>
	<path class="st0" d="M69,166.8c21.8,20.5,97.4-24.1,96.1-62.9c-0.5-15.4-86.7-87.2-118-61C21.1,64.7,56.8,155.3,69,166.8L69,166.8z
		"/>
	<path class="st1" d="M53.5,137.9c5.7,14.3,11.7,25.3,15.5,28.9c21.8,20.5,97.4-24.1,96.1-62.9c-0.2-5-9.3-15.9-22.7-27.5
		C137.7,110.4,79.7,146.2,53.5,137.9z"/>
	<path class="st2" d="M103.2,49.3c-21.5-11.5-43.4-17.1-56.1-6.3c-11.3,9.5-10.9,32.2-5.8,55.7C67.3,99.9,99.3,71.2,103.2,49.3
		L103.2,49.3z"/>
	<path class="st3" d="M69.1,37.5c0,0,73.5,41.7,62.8,88.6c-10.7,46.8-62.6,37.1-71.2,27.6l-0.1-0.1c3.2,6.4,6.2,11.1,8.4,13.2
		c21.8,20.5,97.4-24.1,96.1-62.9C164.7,91.4,107.2,41.2,69.1,37.5z"/>
	<path class="st4" d="M142.4,76.4c-1.2,8.4-5.6,17-12.1,25c2.6,7.9,3.2,16.6,0.6,24.9c-12.4,39.7-61.7,36.8-70.3,27.4
		c0,0,5.8,11.8,9.3,14.3c16.3,12,55.4-3.2,78.2-28c10.4-11.3,20.9-26.3,16.8-38.5C163.5,97.3,154.2,86.6,142.4,76.4z"/>
	<path class="st5" d="M68.7,37.4c0,0,15.6,9.1,30.9,22.3c1.8-3.5,3.1-7.1,3.7-10.4C91.1,42.7,79.3,38.4,68.7,37.4z"/>
	<path class="st6" d="M63,93.8c-5.7,2.6-11.6,4.3-17.3,4.7c4.6,14.1,13.2,23.8,18.5,23.8c0.3,0,0.6,0,0.9-0.1
		C70,121.1,66.7,108.7,63,93.8L63,93.8z"/>
	<path class="st7" d="M50.5,58.9c-0.3,0-0.5,0-0.8,0.1c-5.6,1.4-9.7,17.3-5.5,34.8c0.4,1.7,0.8,3.2,1.4,4.8
		c5.7-0.4,11.6-2.1,17.3-4.7c-0.5-2-1-4-1.5-6.1C57.4,71.1,55.6,58.9,50.5,58.9L50.5,58.9z"/>
</g>
</svg>
