<?xml version="1.0" encoding="utf-8"?>
<!-- Generator: Adobe Illustrator 23.0.1, SVG Export Plug-In . SVG Version: 6.00 Build 0)  -->
<svg version="1.1" id="Layer_1" xmlns="http://www.w3.org/2000/svg" xmlns:xlink="http://www.w3.org/1999/xlink" x="0px" y="0px"
	 viewBox="0 0 595.28 841.89" style="enable-background:new 0 0 595.28 841.89;" xml:space="preserve">
<style type="text/css">
	.st0{fill:#F08016;}
	.st1{fill:#FEC906;}
	.st2{fill:#EFE8DF;}
	.st3{fill:#ED6B18;}
	.st4{fill:#F9AE0E;}
	.st5{fill:#DCD2CB;}
	.st6{fill:#F59F43;}
	.st7{fill:#F4EEE7;}
</style>
<g>
	<path class="st0" d="M68.97,166.77c21.76,20.49,97.4-24.13,96.09-62.87c-0.52-15.39-86.7-87.22-117.98-60.97
		C21.15,64.69,56.78,155.29,68.97,166.77L68.97,166.77z"/>
	<path class="st1" d="M53.54,137.94c5.73,14.26,11.72,25.34,15.48,28.88c21.76,20.49,97.4-24.13,96.09-62.87
		c-0.17-4.98-9.32-15.88-22.68-27.46C137.69,110.39,79.72,146.25,53.54,137.94z"/>
	<path class="st2" d="M103.22,49.28c-21.49-11.45-43.38-17.06-56.14-6.35c-11.35,9.52-10.91,32.22-5.8,55.71
		C67.31,99.86,99.35,71.21,103.22,49.28L103.22,49.28z"/>
	<path class="st3" d="M69.07,37.47c0,0,73.47,41.73,62.77,88.56c-10.7,46.83-62.57,37.08-71.19,27.62l-0.07-0.06
		c3.25,6.42,6.24,11.12,8.45,13.21c21.76,20.49,97.4-24.13,96.09-62.87C164.7,91.37,107.2,41.2,69.07,37.47z"/>
	<path class="st4" d="M142.35,76.39c-1.18,8.43-5.64,17.02-12.1,24.98c2.62,7.9,3.19,16.61,0.6,24.87
		c-12.44,39.66-61.66,36.82-70.29,27.36c-0.02-0.02,5.85,11.81,9.28,14.34c16.29,12.01,55.39-3.19,78.19-28
		c10.39-11.31,20.92-26.28,16.81-38.51C163.47,97.32,154.23,86.6,142.35,76.39z"/>
	<path class="st5" d="M68.66,37.41c0,0,15.64,9.15,30.91,22.31c1.8-3.55,3.06-7.08,3.65-10.44C91.11,42.71,79.34,38.42,68.66,37.41z
		"/>
	<path class="st6" d="M62.95,93.83c-5.73,2.61-11.6,4.31-17.29,4.73c4.59,14.06,13.23,23.79,18.46,23.79c0.31,0,0.6-0.03,0.88-0.1
		C69.97,121.06,66.69,108.72,62.95,93.83L62.95,93.83z"/>
	<path class="st7" d="M50.55,58.87c-0.26,0-0.53,0.03-0.8,0.1c-5.62,1.36-9.66,17.32-5.45,34.79c0.4,1.65,0.85,3.25,1.36,4.8
		c5.69-0.42,11.56-2.12,17.29-4.73c-0.5-2-1.01-4.04-1.51-6.11C57.44,71.11,55.56,58.87,50.55,58.87L50.55,58.87z"/>
</g>
</svg>
