<?xml version="1.0" encoding="utf-8"?>
<!-- Generator: Adobe Illustrator 23.0.1, SVG Export Plug-In . SVG Version: 6.00 Build 0)  -->
<svg version="1.1" id="Layer_1" xmlns="http://www.w3.org/2000/svg" xmlns:xlink="http://www.w3.org/1999/xlink" x="0px" y="0px"
	 viewBox="0 0 595.28 841.89" style="enable-background:new 0 0 595.28 841.89;" xml:space="preserve">
<style type="text/css">
	.st0{fill:#75B848;}
	.st1{opacity:0.58;fill:#75B848;}
	.st2{fill:#6E4193;}
	.st3{opacity:0.66;fill:#6E4193;}
	.st4{fill:#FFFFFF;}
</style>
<g>
	<polygon class="st0" points="122.4,172.95 100.83,52.52 206.13,123.57 306.42,56.33 338.5,129.92 435.47,52.52 445.92,140.07 
		553.76,103.27 466.68,184.47 579.13,292.31 435.47,292.31 466.68,405.23 345.89,326.57 216.28,428.06 207.4,322.76 75.45,393.81 
		137.14,277.09 5.67,227.61 	"/>
	<polygon class="st1" points="122.4,172.95 100.83,52.52 206.13,123.57 306.42,56.33 338.5,129.92 435.47,52.52 445.92,140.07 
		553.76,103.27 466.68,184.47 579.13,292.31 435.47,292.31 466.68,405.23 345.89,326.57 216.28,428.06 207.4,322.76 75.45,393.81 
		137.14,277.09 5.67,227.61 	"/>
	<path class="st0" d="M206.13,123.57l-105.3-71.05l21.57,120.43L5.67,227.61l131.47,49.48L75.45,393.81l131.95-71.05l8.88,105.3
		l129.61-101.5l71.81,46.76c-2.17-98.68-78.88-225.75-130.4-304.18L206.13,123.57z"/>
	<polygon class="st2" points="142.13,180.77 123.06,74.32 216.14,137.12 304.8,77.68 333.15,142.73 418.86,74.32 428.1,151.7 
		523.42,119.18 446.46,190.95 545.85,286.27 418.86,286.27 446.46,386.08 339.68,316.55 225.12,406.27 217.27,313.19 100.63,375.99 
		155.16,272.82 38.95,229.08 	"/>
	<polygon class="st3" points="142.13,180.77 123.06,74.32 216.14,137.12 304.8,77.68 333.15,142.73 418.86,74.32 428.1,151.7 
		523.42,119.18 446.46,190.95 545.85,286.27 418.86,286.27 446.46,386.08 337.26,313.07 225.12,406.27 217.27,313.19 100.63,375.99 
		155.16,272.82 38.95,229.08 	"/>
	<path class="st2" d="M216.18,135.93l-94.15-63.52l19.28,107.68L36.95,228.95l117.55,44.24L99.34,377.55l117.97-63.52l7.94,94.15
		l115.88-90.75l76.33,49.78c-1.94-88.23-74.75-213.95-120.81-284.08L216.18,135.93z"/>
	<g>
		<g>
			<g>
				<path class="st4" d="M253.84,153.14l-5.68,25.24l-3.33-19.12l-13.53,0.32l-2.12,43.76l10.31,6.51l-35.12,0.18l13.51-8.06
					l6.06-42.59l-13.79-1.78l-6.78,15.42l0.41-23.65L253.84,153.14z"/>
				<path class="st4" d="M276.8,225.33c-3.8,0-15.27-10.95-19-14.68l0.26,7.93l6.75,3.74l-20.31,1.44l6.82-6.29l1.18-32.19l-8.32-4
					c16.64-0.92,22.67-0.85,24.38-0.85c5.5,0,14.48,2.82,14.48,11.21c0,2.49-1.44,14.23-23.98,14.62
					c5.57,4.2,13.3,10.03,18.81,10.03c2.69,0,6.22-0.98,8.26-5.57C283.75,222.45,278.37,225.33,276.8,225.33z M259.24,184.95
					c-0.65,0-1.31,0-1.96,0.07l0.33,17.11c8.06-0.2,16.18-3.47,16.18-8.98C273.79,189.21,272.48,184.95,259.24,184.95z"/>
				<path class="st4" d="M303.56,177.74l0.92,28.98l6.62,4.65l-22.67,1.97l7.8-6.49l1.96-31.01l-6.68-5.24l19.46,1.18L303.56,177.74
					z"/>
				<path class="st4" d="M343.59,186.74l7.8-6.23l-8.91,19.14l-0.79-9.31c-2.82-3.41-6.62-3.67-7.86-3.67
					c-6.88,0-12.19,7.28-12.19,18.68c0,11.34,5.37,19.14,11.92,19.14c6.68,0,9.44-7.34,9.44-12.78c0-0.59,0-1.11-0.07-1.7
					c2.75,1.83,4.06,4.26,4.06,6.75c0,4.59-4.59,11.01-13.11,11.01c-10.29,0-21.03-6.29-21.03-21.96
					c0-15.21,10.03-23.53,19.53-23.53C336.71,182.28,340.97,183.86,343.59,186.74z"/>
				<path class="st4" d="M396.38,147.3l-10.65,5.07l-19.1,30.24c10.69,9.25,18.32,9.77,18.32,9.77c5.84,0.42,12.51-5.62,14.48-8.59
					c-0.35,11.07-9.64,18.07-12.7,18.68c0,0-6.91,1.4-24.23-16.06l2.06,12.39l10.06,3.37l-28.72,5.25l9.53-8.96l-4.12-40.7
					l-10.41-4.29l25.81-4.09l-8.92,7.36l3.95,24.63l13.3-28.33l-3.41-4.25L396.38,147.3z"/>
				<path class="st4" d="M278.11,254.5c-5.79-1.06-10.35-6.54-9.03-13.75c1.37-7.47,7.26-12.11,13.82-10.9
					c5.52,1.01,9.62,6.36,8.18,14.23C289.66,251.87,283.97,255.58,278.11,254.5z M280.44,233.41c-4.27-0.78-8.21,2.1-9.24,7.73
					c-0.97,5.32,1.76,9.01,5.8,9.75c4.07,0.75,8.57-1.62,9.61-7.29C287.67,237.81,284.18,234.09,280.44,233.41z"/>
				<path class="st4" d="M310.16,251.51c-2.13,0.16-9.01-5.49-11.26-7.42l0.48,4.43l3.94,1.81L292,251.99l3.55-3.81l-0.7-18.07
					l-4.83-1.89c9.28-1.22,12.66-1.43,13.61-1.51c3.08-0.23,8.23,0.97,8.58,5.67c0.11,1.39-0.21,8.03-12.81,9.2
					c3.3,2.11,7.87,5.05,10.95,4.82c1.51-0.11,3.45-0.81,4.39-3.47C313.92,249.6,311.04,251.44,310.16,251.51z M298.62,229.63
					c-0.37,0.03-0.73,0.06-1.1,0.12l0.91,9.57c4.5-0.45,8.92-2.63,8.68-5.71C306.94,231.41,306.03,229.08,298.62,229.63z"/>
				<path class="st4" d="M254.59,240.03l-6.15,25.62l-3.11-19.51l-13.78,0.13l-2.79,44.52l10.4,6.77l-35.76-0.32l13.87-8.01
					l6.79-43.28l-14.02-2.01l-7.13,15.6l0.76-24.07L254.59,240.03z"/>
				<path class="st4" d="M271.87,312.02c-3.8,0-15.27-10.95-19-14.68l0.26,7.93l6.75,3.74l-20.31,1.44l6.82-6.29l1.18-32.19l-8.32-4
					c16.64-0.92,22.67-0.85,24.38-0.85c5.5,0,14.48,2.82,14.48,11.21c0,2.49-1.44,14.23-23.98,14.62
					c5.57,4.2,13.3,10.03,18.81,10.03c2.69,0,6.22-0.98,8.26-5.57C278.81,309.14,273.44,312.02,271.87,312.02z M254.31,271.64
					c-0.65,0-1.31,0-1.96,0.07l0.33,17.11c8.06-0.2,16.18-3.47,16.18-8.98C268.85,275.9,267.54,271.64,254.31,271.64z"/>
				<path class="st4" d="M316.1,303.5l-36.04,1.44l7.99-8.19l2.23-29.5l-9.63-4.72l34.27-2.43l0.59,15.01l-5.96-10.69l-14.61,2.36
					l0.46,15.14l3.34-0.46l6.62-8.78l0.46,20.19l-5.77-8.26l-4.59,0.66l0.39,13.24l14.35,1.31l5.37-13.44L316.1,303.5z"/>
				<path class="st4" d="M346.63,264.82l9.63,38.68l7.6,1.12l-18.02,7.67l6.16-7.8l-3.6-8.92l-16.51,0.52l-3.34,9.51l6.16,8.13
					l-19.13-7.54l9.44-0.92l2.69-9.05h-1.57l-2.69-3.41l5.44-0.59l5.77-19.34l-6.55-3.41L346.63,264.82z M333.39,291.7l12.78-1.44
					L339.62,274L333.39,291.7z"/>
				<path class="st4" d="M394.15,236.39l-0.15,24.97l-7.08-17.34l-12.69,3.09l7.03,41.69l11.06,4.01l-33.07,7.43l11.07-10.39
					l-3.07-41.41l-13.37,1.17l-3.21,15.94l-4.5-22.38L394.15,236.39z"/>
				<path class="st4" d="M298.02,155.36c-1.28,1.82-1.02,4.35-0.45,5.43c1.17,2.5,4.58,3.5,6.39,0.34c0.84-1.7,0.14-3.73,0.14-3.73
					s0.59,0.55,0.76,0.89c0.09,0.17,0.2,0.35,0.31,0.56c0.07,0.22,0.13,0.47,0.21,0.73c0.1,0.54,0.08,1.17-0.07,1.85
					c-0.19,0.66-0.49,1.36-0.99,2c-0.46,0.67-1.15,1.21-1.93,1.7c-0.83,0.41-1.82,0.71-2.9,0.61c-0.52-0.09-1.06-0.16-1.59-0.44
					c-0.27-0.13-0.53-0.28-0.79-0.44c-0.22-0.14-0.35-0.26-0.52-0.39c-0.86-0.68-1.43-1.48-1.95-2.37c-0.48-0.89-0.8-1.84-0.99-2.77
					c-0.08-0.44-0.14-0.86-0.18-1.28c-0.22,0.71-0.37,1.45-0.37,2.23c0,4.13,3.35,7.48,7.48,7.48s7.34-3.35,7.48-7.48
					C308.26,153.62,301.26,150.76,298.02,155.36z"/>
			</g>
		</g>
		<polygon class="st4" points="394.15,215.12 406.09,205.02 407.36,209.15 		"/>
		<polygon class="st4" points="395.66,217.26 405.3,215.56 405.3,218.37 395.66,217.89 		"/>
		<polygon class="st4" points="395.66,222.29 412.61,229.66 414.51,223.14 		"/>
		<polygon class="st4" points="194.45,217.52 177.5,191.96 171.99,202.88 		"/>
		<polygon class="st4" points="194.45,223.81 170.29,223.81 171.99,228.97 194.45,225.33 		"/>
		<polygon class="st4" points="195.93,230.35 182.37,240.41 190.31,244.76 		"/>
	</g>
</g>
</svg>
