<?xml version="1.0" encoding="utf-8"?>
<!-- Generator: Adobe Illustrator 23.0.1, SVG Export Plug-In . SVG Version: 6.00 Build 0)  -->
<svg version="1.1" id="Layer_1" xmlns="http://www.w3.org/2000/svg" xmlns:xlink="http://www.w3.org/1999/xlink" x="0px" y="0px"
	 viewBox="0 0 595.28 841.89" style="enable-background:new 0 0 595.28 841.89;" xml:space="preserve">
<style type="text/css">
	.st0{fill:#6E4193;}
	.st1{opacity:0.41;fill:#6E4193;}
	.st2{fill:#FFFFFF;}
	.st3{fill:#F28D1C;}
</style>
<g>
	<path class="st0" d="M215.44,156.08H42.34c-6.6,0-12-5.4-12-12V38.7c0-6.6,5.4-12,12-12h173.09c6.6,0,12,5.4,12,12v105.38
		C227.44,150.68,222.04,156.08,215.44,156.08z"/>
	<path class="st1" d="M215.44,156.08H42.34c-6.6,0-12-5.4-12-12V38.7c0-6.6,5.4-12,12-12h173.09c6.6,0,12,5.4,12,12v105.38
		C227.44,150.68,222.04,156.08,215.44,156.08z"/>
	<path class="st0" d="M210.38,150.75H42.34c-6.6,0-12-5.4-12-12V38.7c0-6.6,5.4-12,12-12h168.03c6.6,0,12,5.4,12,12v100.05
		C222.38,145.35,216.98,150.75,210.38,150.75z"/>
	<g>
		<path class="st2" d="M89,54.96l-4.54,4.54l-0.97,15.2L81,69.99c-1.38,1.44-2.98,2.55-4.77,3.32c-1.8,0.77-3.62,1.16-5.47,1.16
			c-1.16,0-2.34-0.16-3.54-0.48c-1.2-0.32-2.37-0.82-3.52-1.5c-1.14-0.67-2.22-1.53-3.23-2.56c-1.01-1.03-1.88-2.26-2.63-3.67
			c-0.75-1.41-1.34-3.02-1.79-4.83c-0.44-1.81-0.66-3.83-0.66-6.06c0-2.64,0.3-4.96,0.91-6.98c0.61-2.01,1.41-3.75,2.41-5.23
			c1-1.48,2.12-2.7,3.38-3.68c1.25-0.98,2.53-1.76,3.82-2.35c1.29-0.59,2.55-1.01,3.78-1.25c1.23-0.24,2.29-0.36,3.2-0.36
			c0.96,0.06,1.94,0.21,2.93,0.47c0.83,0.22,1.73,0.57,2.71,1.05c0.98,0.48,1.89,1.14,2.74,1.99l6.31-4.76L79.31,49.2v-7.78
			c-0.65-0.63-1.34-1.11-2.09-1.44c-0.75-0.33-1.44-0.58-2.09-0.73c-0.65-0.16-1.2-0.25-1.67-0.28c-0.47-0.03-0.75-0.04-0.84-0.04
			c-1.35,0.06-2.63,0.48-3.85,1.27c-1.22,0.79-2.29,1.9-3.22,3.31c-0.93,1.41-1.67,3.1-2.23,5.07s-0.83,4.16-0.83,6.57
			c0,2.44,0.28,4.63,0.83,6.59c0.55,1.96,1.31,3.62,2.28,5c0.97,1.38,2.11,2.43,3.42,3.17s2.72,1.11,4.24,1.11
			c0.13,0,0.4-0.01,0.8-0.04c0.41-0.03,0.9-0.14,1.47-0.35c0.57-0.2,1.19-0.53,1.85-0.98c0.66-0.45,1.33-1.09,1.99-1.92l-0.97-7.14
			l-6.75-3.52L89,54.96z"/>
		<path class="st2" d="M112.42,34.22l8.33,33.44l6.59,0.97l-15.58,6.64l5.31-6.75l-3.1-7.72l-14.28,0.47l-2.91,8.22l5.34,7.03
			l-16.55-6.53l8.14-0.8l2.33-7.81h-1.36l-2.33-2.96l4.71-0.5l5.01-16.72l-5.67-2.96L112.42,34.22z M100.99,57.48l11.04-1.27
			l-5.67-14.04L100.99,57.48z"/>
		<path class="st2" d="M170.78,36.08l-6.92,5.18l1.08,26.93l5.56,2.55l-16.86,3.52l6.87-6.06l-4.54-21.95l-6.17,24.5l-13.37-22.28
			l-3.63,20.07l5.31,4.48l-14.06,0.72l5.56-5.04l1.72-28.9l-5.84-3.71l13.65-0.66l9.19,25.97l7.03-25.69L170.78,36.08z"/>
		<path class="st2" d="M200.64,72.37l-31.2,1.25l6.92-7.09l1.94-25.5l-8.33-4.1l29.65-2.1l0.5,12.98l-5.15-9.22l-12.65,2.02
			l0.42,13.09l2.88-0.39l5.73-7.58l0.39,17.44l-4.98-7.14l-3.96,0.58l0.33,11.43l12.4,1.14l4.65-11.6L200.64,72.37z"/>
		<path class="st2" d="M92.13,121.85c0,3.08-0.48,5.84-1.43,8.26c-0.95,2.43-2.25,4.48-3.89,6.15c-1.64,1.67-3.56,2.95-5.74,3.83
			c-2.19,0.89-4.52,1.33-6.99,1.33c-1.62,0-3.22-0.19-4.78-0.58c-1.56-0.39-3.04-0.95-4.43-1.69c-1.39-0.74-2.68-1.64-3.86-2.7
			s-2.2-2.28-3.04-3.65c-0.85-1.37-1.51-2.89-1.99-4.54c-0.48-1.65-0.72-3.43-0.72-5.33c0-2.95,0.48-5.68,1.45-8.18
			c0.97-2.5,2.32-4.66,4.04-6.49s3.76-3.26,6.12-4.29c2.35-1.03,4.91-1.55,7.68-1.55c2.33,0,4.55,0.43,6.67,1.29
			c2.12,0.86,3.99,2.12,5.61,3.78c1.62,1.66,2.9,3.7,3.86,6.1C91.65,116,92.13,118.75,92.13,121.85z M84.68,122.38
			c0-2.29-0.39-4.29-1.16-6.02s-1.78-3.17-3.02-4.33s-2.64-2.03-4.21-2.62c-1.57-0.58-3.14-0.87-4.71-0.87c-1.81,0-3.49,0.33-5.04,1
			c-1.55,0.66-2.9,1.62-4.04,2.86c-1.14,1.25-2.04,2.76-2.7,4.54c-0.66,1.78-0.98,3.78-0.98,5.99c0,2.1,0.32,3.98,0.97,5.62
			c0.65,1.64,1.53,3.03,2.66,4.17s2.44,2,3.95,2.6c1.5,0.6,3.1,0.9,4.8,0.9c1.72,0,3.38-0.3,5-0.9c1.62-0.6,3.05-1.49,4.32-2.66
			s2.27-2.62,3.03-4.35C84.31,126.59,84.68,124.61,84.68,122.38z"/>
		<path class="st2" d="M130.97,106.79l-6.59,2.38l-8.22,27.88l4.71,3.24l-18.19,1.52l4.93-5.73l-10.71-26.8l-5.15-2.49l16.78-4.43
			l-4.04,3.9l6.98,29.26l9.02-26.46l-4.26-6.2L130.97,106.79z"/>
		<path class="st2" d="M159.7,140.4l-31.2,1.25l6.92-7.09l1.94-25.5l-8.33-4.1l29.65-2.1l0.5,12.98l-5.15-9.22l-12.65,2.02
			l0.42,13.09l2.88-0.39l5.73-7.58l0.39,17.44l-4.98-7.14l-3.96,0.58l0.33,11.43l12.4,1.14l4.65-11.6L159.7,140.4z"/>
		<path class="st2" d="M197.85,130.44c-0.5,2.53-1.13,4.61-1.91,6.24s-1.56,2.92-2.35,3.86c-0.79,0.94-1.54,1.6-2.23,1.97
			c-0.69,0.37-1.21,0.55-1.56,0.55c-0.55,0-1.26-0.24-2.13-0.72c-0.87-0.48-1.82-1.1-2.86-1.85c-1.04-0.76-2.12-1.61-3.24-2.56
			c-1.12-0.95-2.19-1.9-3.22-2.84c-1.03-0.94-1.98-1.83-2.85-2.66s-1.57-1.51-2.1-2.05l0.22,6.84l5.84,3.24l-17.58,1.25l5.9-5.43
			l1.02-27.85l-7.2-3.46c3.6-0.2,6.65-0.35,9.16-0.46c2.51-0.1,4.59-0.17,6.23-0.21c1.64-0.04,2.91-0.06,3.79-0.06s1.51,0,1.88,0
			c0.79,0,1.66,0.07,2.59,0.21c0.93,0.14,1.86,0.37,2.78,0.69c0.92,0.32,1.82,0.73,2.69,1.23c0.87,0.5,1.63,1.11,2.3,1.83
			c0.67,0.72,1.2,1.55,1.59,2.5c0.4,0.95,0.6,2.03,0.6,3.23c0,0.28-0.03,0.66-0.1,1.15c-0.06,0.49-0.2,1.05-0.4,1.69
			s-0.51,1.31-0.91,2.02c-0.41,0.71-0.96,1.42-1.65,2.13c-0.69,0.71-1.55,1.4-2.56,2.06c-1.01,0.66-2.24,1.25-3.67,1.77
			c-1.43,0.52-3.09,0.94-4.98,1.26c-1.89,0.32-4.06,0.5-6.49,0.54c1.2,0.9,2.5,1.87,3.9,2.89c1.4,1.02,2.82,1.97,4.26,2.82
			s2.85,1.57,4.24,2.13c1.38,0.56,2.68,0.84,3.88,0.84c0.57,0,1.19-0.06,1.84-0.19c0.65-0.13,1.3-0.37,1.94-0.73
			s1.25-0.85,1.83-1.47C196.89,132.24,197.4,131.43,197.85,130.44z M187.19,115.24c0-0.57-0.05-1.14-0.14-1.72
			c-0.09-0.57-0.29-1.12-0.58-1.63c-0.3-0.52-0.72-1.01-1.27-1.47c-0.55-0.46-1.3-0.86-2.23-1.19c-0.93-0.33-2.08-0.6-3.45-0.79
			c-1.37-0.19-3-0.29-4.9-0.29c-0.29,0-0.58,0-0.86,0c-0.28,0-0.56,0.02-0.86,0.06l0.28,14.78c1.16-0.02,2.32-0.12,3.46-0.29
			c1.14-0.18,2.23-0.42,3.27-0.73c1.03-0.31,2-0.69,2.89-1.14c0.89-0.44,1.67-0.95,2.31-1.51c0.65-0.56,1.15-1.19,1.52-1.87
			C187.01,116.77,187.19,116.03,187.19,115.24z"/>
		<path class="st3" d="M85.82,55.12l-4.54,4.54l-0.97,15.2l-2.49-4.71c-1.38,1.44-2.98,2.55-4.77,3.32
			c-1.8,0.77-3.62,1.16-5.47,1.16c-1.16,0-2.34-0.16-3.54-0.48c-1.2-0.32-2.37-0.82-3.52-1.5c-1.14-0.67-2.22-1.53-3.23-2.56
			c-1.01-1.03-1.88-2.26-2.63-3.67c-0.75-1.41-1.34-3.02-1.79-4.83c-0.44-1.81-0.66-3.83-0.66-6.06c0-2.64,0.3-4.96,0.91-6.98
			c0.61-2.01,1.41-3.75,2.41-5.23c1-1.48,2.12-2.7,3.38-3.68c1.25-0.98,2.53-1.76,3.82-2.35c1.29-0.59,2.55-1.01,3.78-1.25
			c1.23-0.24,2.29-0.36,3.2-0.36c0.96,0.06,1.94,0.21,2.93,0.47c0.83,0.22,1.73,0.57,2.71,1.05c0.98,0.48,1.89,1.14,2.74,1.99
			l6.31-4.76l-8.28,14.92v-7.78c-0.65-0.63-1.34-1.11-2.09-1.44c-0.75-0.33-1.44-0.58-2.09-0.73c-0.65-0.16-1.2-0.25-1.67-0.28
			c-0.47-0.03-0.75-0.04-0.84-0.04c-1.35,0.06-2.63,0.48-3.85,1.27c-1.22,0.79-2.29,1.9-3.22,3.31c-0.93,1.41-1.67,3.1-2.23,5.07
			s-0.83,4.16-0.83,6.57c0,2.44,0.28,4.63,0.83,6.59c0.55,1.96,1.31,3.62,2.28,5c0.97,1.38,2.11,2.43,3.42,3.17s2.72,1.11,4.24,1.11
			c0.13,0,0.4-0.01,0.8-0.04c0.41-0.03,0.9-0.14,1.47-0.35c0.57-0.2,1.19-0.53,1.85-0.98c0.66-0.45,1.33-1.09,1.99-1.92l-0.97-7.14
			l-6.75-3.52L85.82,55.12z"/>
		<path class="st3" d="M109.24,34.39l8.33,33.44l6.59,0.97l-15.58,6.64l5.31-6.75l-3.1-7.72L96.5,61.44l-2.91,8.22l5.34,7.03
			l-16.55-6.53l8.14-0.8l2.33-7.81h-1.36l-2.33-2.96l4.71-0.5l5.01-16.72l-5.67-2.96L109.24,34.39z M97.81,57.64l11.04-1.27
			l-5.67-14.04L97.81,57.64z"/>
		<path class="st3" d="M167.59,36.24l-6.92,5.18l1.08,26.93l5.56,2.55l-16.86,3.52l6.87-6.06l-4.54-21.95l-6.17,24.5l-13.37-22.28
			l-3.63,20.07l5.31,4.48l-14.06,0.72l5.56-5.04l1.72-28.9l-5.84-3.71l13.65-0.66l9.19,25.97l7.03-25.69L167.59,36.24z"/>
		<path class="st3" d="M197.46,72.54l-31.2,1.25l6.92-7.09l1.94-25.5l-8.33-4.1l29.65-2.1l0.5,12.98l-5.15-9.22l-12.65,2.02
			l0.42,13.09l2.88-0.39l5.73-7.58l0.39,17.44l-4.98-7.14l-3.96,0.58l0.33,11.43l12.4,1.14l4.65-11.6L197.46,72.54z"/>
		<path class="st3" d="M88.95,122.02c0,3.08-0.48,5.84-1.43,8.26c-0.95,2.43-2.25,4.48-3.89,6.15c-1.64,1.67-3.56,2.95-5.74,3.83
			c-2.19,0.89-4.52,1.33-6.99,1.33c-1.62,0-3.22-0.19-4.78-0.58c-1.56-0.39-3.04-0.95-4.43-1.69c-1.39-0.74-2.68-1.64-3.86-2.7
			s-2.2-2.28-3.04-3.65c-0.85-1.37-1.51-2.89-1.99-4.54c-0.48-1.65-0.72-3.43-0.72-5.33c0-2.95,0.48-5.68,1.45-8.18
			c0.97-2.5,2.32-4.66,4.04-6.49s3.76-3.26,6.12-4.29c2.35-1.03,4.91-1.55,7.68-1.55c2.33,0,4.55,0.43,6.67,1.29
			c2.12,0.86,3.99,2.12,5.61,3.78c1.62,1.66,2.9,3.7,3.86,6.1C88.47,116.17,88.95,118.92,88.95,122.02z M81.5,122.55
			c0-2.29-0.39-4.29-1.16-6.02s-1.78-3.17-3.02-4.33s-2.64-2.03-4.21-2.62c-1.57-0.58-3.14-0.87-4.71-0.87c-1.81,0-3.49,0.33-5.04,1
			c-1.55,0.66-2.9,1.62-4.04,2.86c-1.14,1.25-2.04,2.76-2.7,4.54c-0.66,1.78-0.98,3.78-0.98,5.99c0,2.1,0.32,3.98,0.97,5.62
			c0.65,1.64,1.53,3.03,2.66,4.17s2.44,2,3.95,2.6c1.5,0.6,3.1,0.9,4.8,0.9c1.72,0,3.38-0.3,5-0.9c1.62-0.6,3.05-1.49,4.32-2.66
			s2.27-2.62,3.03-4.35C81.12,126.76,81.5,124.78,81.5,122.55z"/>
		<path class="st3" d="M127.78,106.96l-6.59,2.38l-8.22,27.88l4.71,3.24l-18.19,1.52l4.93-5.73l-10.71-26.8l-5.15-2.49l16.78-4.43
			l-4.04,3.9l6.98,29.26l9.02-26.46l-4.26-6.2L127.78,106.96z"/>
		<path class="st3" d="M156.52,140.57l-31.2,1.25l6.92-7.09l1.94-25.5l-8.33-4.1l29.65-2.1l0.5,12.98l-5.15-9.22l-12.65,2.02
			l0.42,13.09l2.88-0.39l5.73-7.58l0.39,17.44l-4.98-7.14l-3.96,0.58l0.33,11.43l12.4,1.14l4.65-11.6L156.52,140.57z"/>
		<path class="st3" d="M194.66,130.6c-0.5,2.53-1.13,4.61-1.91,6.24s-1.56,2.92-2.35,3.86c-0.79,0.94-1.54,1.6-2.23,1.97
			c-0.69,0.37-1.21,0.55-1.56,0.55c-0.55,0-1.26-0.24-2.13-0.72c-0.87-0.48-1.82-1.1-2.86-1.85c-1.04-0.76-2.12-1.61-3.24-2.56
			c-1.12-0.95-2.19-1.9-3.22-2.84c-1.03-0.94-1.98-1.83-2.85-2.66s-1.57-1.51-2.1-2.05l0.22,6.84l5.84,3.24l-17.58,1.25l5.9-5.43
			l1.02-27.85l-7.2-3.46c3.6-0.2,6.65-0.35,9.16-0.46c2.51-0.1,4.59-0.17,6.23-0.21c1.64-0.04,2.91-0.06,3.79-0.06s1.51,0,1.88,0
			c0.79,0,1.66,0.07,2.59,0.21c0.93,0.14,1.86,0.37,2.78,0.69c0.92,0.32,1.82,0.73,2.69,1.23c0.87,0.5,1.63,1.11,2.3,1.83
			c0.67,0.72,1.2,1.55,1.59,2.5c0.4,0.95,0.6,2.03,0.6,3.23c0,0.28-0.03,0.66-0.1,1.15c-0.06,0.49-0.2,1.05-0.4,1.69
			s-0.51,1.31-0.91,2.02c-0.41,0.71-0.96,1.42-1.65,2.13c-0.69,0.71-1.55,1.4-2.56,2.06c-1.01,0.66-2.24,1.25-3.67,1.77
			c-1.43,0.52-3.09,0.94-4.98,1.26c-1.89,0.32-4.06,0.5-6.49,0.54c1.2,0.9,2.5,1.87,3.9,2.89c1.4,1.02,2.82,1.97,4.26,2.82
			s2.85,1.57,4.24,2.13c1.38,0.56,2.68,0.84,3.88,0.84c0.57,0,1.19-0.06,1.84-0.19c0.65-0.13,1.3-0.37,1.94-0.73
			s1.25-0.85,1.83-1.47C193.71,132.41,194.22,131.6,194.66,130.6z M184.01,115.4c0-0.57-0.05-1.14-0.14-1.72
			c-0.09-0.57-0.29-1.12-0.58-1.63c-0.3-0.52-0.72-1.01-1.27-1.47c-0.55-0.46-1.3-0.86-2.23-1.19c-0.93-0.33-2.08-0.6-3.45-0.79
			c-1.37-0.19-3-0.29-4.9-0.29c-0.29,0-0.58,0-0.86,0c-0.28,0-0.56,0.02-0.86,0.06l0.28,14.78c1.16-0.02,2.32-0.12,3.46-0.29
			c1.14-0.18,2.23-0.42,3.27-0.73c1.03-0.31,2-0.69,2.89-1.14c0.89-0.44,1.67-0.95,2.31-1.51c0.65-0.56,1.15-1.19,1.52-1.87
			C183.82,116.94,184.01,116.2,184.01,115.4z"/>
	</g>
</g>
</svg>
