<?xml version="1.0" encoding="utf-8"?>
<!-- Generator: Adobe Illustrator 23.0.1, SVG Export Plug-In . SVG Version: 6.00 Build 0)  -->
<svg version="1.1" id="Layer_1" xmlns="http://www.w3.org/2000/svg" xmlns:xlink="http://www.w3.org/1999/xlink" x="0px" y="0px"
	 viewBox="0 0 584 386" style="enable-background:new 0 0 584 386;" xml:space="preserve">
<style type="text/css">
	.st0{fill:#75B848;}
	.st1{opacity:0.58;fill:#75B848;enable-background:new    ;}
	.st2{fill:#6E4193;}
	.st3{opacity:0.66;fill:#6E4193;enable-background:new    ;}
	.st4{fill:#FFFFFF;}
</style>
<g>
	<polygon class="st0" points="122.4,125.1 100.8,4.6 206.1,75.7 306.4,8.4 338.5,82 435.5,4.6 445.9,92.2 553.8,55.4 466.7,136.6 
		579.1,244.4 435.5,244.4 466.7,357.3 345.9,278.7 216.3,380.2 207.4,274.9 75.4,345.9 137.1,229.2 5.7,179.7 	"/>
	<polygon class="st1" points="122.4,125.1 100.8,4.6 206.1,75.7 306.4,8.4 338.5,82 435.5,4.6 445.9,92.2 553.8,55.4 466.7,136.6 
		579.1,244.4 435.5,244.4 466.7,357.3 345.9,278.7 216.3,380.2 207.4,274.9 75.4,345.9 137.1,229.2 5.7,179.7 	"/>
	<path class="st0" d="M206.1,75.7L100.8,4.6l21.6,120.4L5.7,179.7l131.5,49.5L75.4,345.9l131.9-71l8.9,105.3l129.6-101.5l71.8,46.8
		c-2.2-98.7-78.9-225.8-130.4-304.2L206.1,75.7z"/>
	<polygon class="st2" points="142.1,132.9 123.1,26.4 216.1,89.2 304.8,29.8 333.1,94.8 418.9,26.4 428.1,103.8 523.4,71.3 
		446.5,143.1 545.8,238.4 418.9,238.4 446.5,338.2 339.7,268.7 225.1,358.4 217.3,265.3 100.6,328.1 155.2,224.9 39,181.2 	"/>
	<polygon class="st3" points="142.1,132.9 123.1,26.4 216.1,89.2 304.8,29.8 333.1,94.8 418.9,26.4 428.1,103.8 523.4,71.3 
		446.5,143.1 545.8,238.4 418.9,238.4 446.5,338.2 337.3,265.2 225.1,358.4 217.3,265.3 100.6,328.1 155.2,224.9 39,181.2 	"/>
	<path class="st2" d="M216.2,88L122,24.5l19.3,107.7L37,181.1l117.6,44.2L99.3,329.7l118-63.5l7.9,94.1l115.9-90.8l76.3,49.8
		c-1.9-88.2-74.8-213.9-120.8-284.1L216.2,88z"/>
	<g>
		<g>
			<g>
				<path class="st4" d="M253.8,105.3l-5.7,25.2l-3.3-19.1l-13.5,0.3l-2.1,43.8l10.3,6.5l-35.1,0.2l13.5-8.1l6.1-42.6l-13.8-1.8
					l-6.8,15.4l0.4-23.6L253.8,105.3z"/>
				<path class="st4" d="M276.8,177.4c-3.8,0-15.3-10.9-19-14.7l0.3,7.9l6.8,3.7l-20.3,1.4l6.8-6.3l1.2-32.2l-8.3-4
					c16.6-0.9,22.7-0.9,24.4-0.9c5.5,0,14.5,2.8,14.5,11.2c0,2.5-1.4,14.2-24,14.6c5.6,4.2,13.3,10,18.8,10c2.7,0,6.2-1,8.3-5.6
					C283.8,174.6,278.4,177.4,276.8,177.4z M259.2,137.1c-0.6,0-1.3,0-2,0.1l0.3,17.1c8.1-0.2,16.2-3.5,16.2-9
					C273.8,141.3,272.5,137.1,259.2,137.1z"/>
				<path class="st4" d="M303.6,129.9l0.9,29l6.6,4.6l-22.7,2l7.8-6.5l2-31l-6.7-5.2l19.5,1.2L303.6,129.9z"/>
				<path class="st4" d="M343.6,138.9l7.8-6.2l-8.9,19.1l-0.8-9.3c-2.8-3.4-6.6-3.7-7.9-3.7c-6.9,0-12.2,7.3-12.2,18.7
					c0,11.3,5.4,19.1,11.9,19.1c6.7,0,9.4-7.3,9.4-12.8c0-0.6,0-1.1-0.1-1.7c2.8,1.8,4.1,4.3,4.1,6.8c0,4.6-4.6,11-13.1,11
					c-10.3,0-21-6.3-21-22c0-15.2,10-23.5,19.5-23.5C336.7,134.4,341,136,343.6,138.9z"/>
				<path class="st4" d="M396.4,99.4l-10.6,5.1l-19.1,30.2c10.7,9.2,18.3,9.8,18.3,9.8c5.8,0.4,12.5-5.6,14.5-8.6
					c-0.4,11.1-9.6,18.1-12.7,18.7c0,0-6.9,1.4-24.2-16.1l2.1,12.4l10.1,3.4l-28.7,5.2l9.5-9l-4.1-40.7l-10.4-4.3l25.8-4.1l-8.9,7.4
					l4,24.6l13.3-28.3l-3.4-4.2L396.4,99.4z"/>
				<path class="st4" d="M278.1,206.6c-5.8-1.1-10.4-6.5-9-13.8c1.4-7.5,7.3-12.1,13.8-10.9c5.5,1,9.6,6.4,8.2,14.2
					C289.7,204,284,207.7,278.1,206.6z M280.4,185.5c-4.3-0.8-8.2,2.1-9.2,7.7c-1,5.3,1.8,9,5.8,9.8c4.1,0.8,8.6-1.6,9.6-7.3
					C287.7,189.9,284.2,186.2,280.4,185.5z"/>
				<path class="st4" d="M310.2,203.6c-2.1,0.2-9-5.5-11.3-7.4l0.5,4.4l3.9,1.8l-11.3,1.7l3.5-3.8l-0.7-18.1l-4.8-1.9
					c9.3-1.2,12.7-1.4,13.6-1.5c3.1-0.2,8.2,1,8.6,5.7c0.1,1.4-0.2,8-12.8,9.2c3.3,2.1,7.9,5.1,11,4.8c1.5-0.1,3.5-0.8,4.4-3.5
					C313.9,201.7,311,203.6,310.2,203.6z M298.6,181.7c-0.4,0-0.7,0.1-1.1,0.1l0.9,9.6c4.5-0.4,8.9-2.6,8.7-5.7
					C306.9,183.5,306,181.2,298.6,181.7z"/>
				<path class="st4" d="M254.6,192.1l-6.1,25.6l-3.1-19.5l-13.8,0.1l-2.8,44.5l10.4,6.8l-35.8-0.3l13.9-8l6.8-43.3l-14-2l-7.1,15.6
					l0.8-24.1L254.6,192.1z"/>
				<path class="st4" d="M271.9,264.1c-3.8,0-15.3-11-19-14.7l0.3,7.9l6.8,3.7l-20.3,1.4l6.8-6.3l1.2-32.2l-8.3-4
					c16.6-0.9,22.7-0.9,24.4-0.9c5.5,0,14.5,2.8,14.5,11.2c0,2.5-1.4,14.2-24,14.6c5.6,4.2,13.3,10,18.8,10c2.7,0,6.2-1,8.3-5.6
					C278.8,261.3,273.4,264.1,271.9,264.1z M254.3,223.8c-0.6,0-1.3,0-2,0.1l0.3,17.1c8.1-0.2,16.2-3.5,16.2-9
					C268.9,228,267.5,223.8,254.3,223.8z"/>
				<path class="st4" d="M316.1,255.6l-36,1.4l8-8.2l2.2-29.5l-9.6-4.7l34.3-2.4l0.6,15l-6-10.7l-14.6,2.4l0.5,15.1l3.3-0.5l6.6-8.8
					l0.5,20.2l-5.8-8.3l-4.6,0.7l0.4,13.2l14.4,1.3l5.4-13.4L316.1,255.6z"/>
				<path class="st4" d="M346.6,216.9l9.6,38.7l7.6,1.1l-18,7.7l6.2-7.8l-3.6-8.9l-16.5,0.5l-3.3,9.5l6.2,8.1l-19.1-7.5l9.4-0.9
					l2.7-9h-1.6l-2.7-3.4l5.4-0.6l5.8-19.3l-6.5-3.4L346.6,216.9z M333.4,243.8l12.8-1.4l-6.6-16.3L333.4,243.8z"/>
				<path class="st4" d="M394.1,188.5l-0.1,25l-7.1-17.3l-12.7,3.1l7,41.7l11.1,4l-33.1,7.4l11.1-10.4l-3.1-41.4l-13.4,1.2
					l-3.2,15.9l-4.5-22.4L394.1,188.5z"/>
				<path class="st4" d="M298,107.5c-1.3,1.8-1,4.4-0.5,5.4c1.2,2.5,4.6,3.5,6.4,0.3c0.8-1.7,0.1-3.7,0.1-3.7s0.6,0.6,0.8,0.9
					c0.1,0.2,0.2,0.4,0.3,0.6c0.1,0.2,0.1,0.5,0.2,0.7c0.1,0.5,0.1,1.2-0.1,1.9c-0.2,0.7-0.5,1.4-1,2c-0.5,0.7-1.1,1.2-1.9,1.7
					c-0.8,0.4-1.8,0.7-2.9,0.6c-0.5-0.1-1.1-0.2-1.6-0.4c-0.3-0.1-0.5-0.3-0.8-0.4c-0.2-0.1-0.4-0.3-0.5-0.4c-0.9-0.7-1.4-1.5-2-2.4
					c-0.5-0.9-0.8-1.8-1-2.8c-0.1-0.4-0.1-0.9-0.2-1.3c-0.2,0.7-0.4,1.4-0.4,2.2c0,4.1,3.4,7.5,7.5,7.5s7.3-3.4,7.5-7.5
					C308.3,105.7,301.3,102.9,298,107.5z"/>
			</g>
		</g>
		<polygon class="st4" points="394.1,167.2 406.1,157.1 407.4,161.3 		"/>
		<polygon class="st4" points="395.7,169.4 405.3,167.7 405.3,170.5 395.7,170 		"/>
		<polygon class="st4" points="395.7,174.4 412.6,181.8 414.5,175.3 		"/>
		<polygon class="st4" points="194.4,169.6 177.5,144.1 172,155 		"/>
		<polygon class="st4" points="194.4,175.9 170.3,175.9 172,181.1 194.4,177.4 		"/>
		<polygon class="st4" points="195.9,182.5 182.4,192.5 190.3,196.9 		"/>
	</g>
</g>
</svg>
