<?xml version="1.0" encoding="utf-8"?>
<!-- Generator: Adobe Illustrator 23.0.1, SVG Export Plug-In . SVG Version: 6.00 Build 0)  -->
<svg version="1.1" id="Layer_1" xmlns="http://www.w3.org/2000/svg" xmlns:xlink="http://www.w3.org/1999/xlink" x="0px" y="0px"
	 viewBox="0 0 197.1 129.4" style="enable-background:new 0 0 197.1 129.4;" xml:space="preserve">
<style type="text/css">
	.st0{fill:#6E4193;}
	.st1{opacity:0.41;fill:#6E4193;enable-background:new    ;}
	.st2{fill:#FFFFFF;}
	.st3{fill:#F28D1C;}
</style>
<g>
	<path class="st0" d="M185.1,129.4H12c-6.6,0-12-5.4-12-12V12C0,5.4,5.4,0,12,0h173.1c6.6,0,12,5.4,12,12v105.4
		C197.1,124,191.7,129.4,185.1,129.4z"/>
	<path class="st1" d="M185.1,129.4H12c-6.6,0-12-5.4-12-12V12C0,5.4,5.4,0,12,0h173.1c6.6,0,12,5.4,12,12v105.4
		C197.1,124,191.7,129.4,185.1,129.4z"/>
	<path class="st0" d="M180,124.1H12c-6.6,0-12-5.4-12-12V12C0,5.4,5.4,0,12,0h168c6.6,0,12,5.4,12,12v100.1
		C192,118.7,186.6,124.1,180,124.1z"/>
	<g>
		<path class="st2" d="M58.7,28.3l-4.5,4.5l-1,15.2l-2.5-4.7c-1.4,1.4-3,2.6-4.8,3.3c-1.8,0.8-3.6,1.2-5.5,1.2
			c-1.2,0-2.3-0.2-3.5-0.5c-1.2-0.3-2.4-0.8-3.5-1.5c-1.1-0.7-2.2-1.5-3.2-2.6s-1.9-2.3-2.6-3.7c-0.8-1.4-1.3-3-1.8-4.8
			c-0.4-1.8-0.7-3.8-0.7-6.1c0-2.6,0.3-5,0.9-7c0.6-2,1.4-3.8,2.4-5.2s2.1-2.7,3.4-3.7c1.2-1,2.5-1.8,3.8-2.3s2.6-1,3.8-1.2
			c1.2-0.2,2.3-0.4,3.2-0.4c1,0.1,1.9,0.2,2.9,0.5c0.8,0.2,1.7,0.6,2.7,1c1,0.5,1.9,1.1,2.7,2l6.3-4.8L49,22.5v-7.8
			c-0.7-0.6-1.3-1.1-2.1-1.4c-0.8-0.3-1.4-0.6-2.1-0.7c-0.7-0.2-1.2-0.2-1.7-0.3s-0.8,0-0.8,0c-1.3,0.1-2.6,0.5-3.8,1.3
			s-2.3,1.9-3.2,3.3s-1.7,3.1-2.2,5.1s-0.8,4.2-0.8,6.6c0,2.4,0.3,4.6,0.8,6.6c0.5,2,1.3,3.6,2.3,5s2.1,2.4,3.4,3.2s2.7,1.1,4.2,1.1
			c0.1,0,0.4,0,0.8,0c0.4,0,0.9-0.1,1.5-0.3c0.6-0.2,1.2-0.5,1.8-1c0.7-0.4,1.3-1.1,2-1.9l-1-7.1l-6.8-3.5L58.7,28.3z"/>
		<path class="st2" d="M82.1,7.5L90.4,41l6.6,1l-15.6,6.6l5.3-6.8l-3.1-7.7l-14.3,0.5l-2.9,8.2l5.3,7l-16.6-6.5l8.1-0.8l2.3-7.8
			h-1.4l-2.3-3l4.7-0.5l5-16.7l-5.7-3L82.1,7.5z M70.6,30.8l11-1.3l-5.7-14L70.6,30.8z"/>
		<path class="st2" d="M140.4,9.4l-6.9,5.2l1.1,26.9l5.6,2.6l-16.9,3.5l6.9-6.1l-4.5-22L119.5,44l-13.4-22.3l-3.6,20.1l5.3,4.5
			L93.7,47l5.6-5l1.7-28.9l-5.8-3.7l13.6-0.7l9.2,26L125,9L140.4,9.4z"/>
		<path class="st2" d="M170.3,45.7l-31.2,1.2l6.9-7.1l1.9-25.5l-8.3-4.1l29.6-2.1l0.5,13l-5.1-9.2l-12.6,2l0.4,13.1l2.9-0.4L161,19
			l0.4,17.4l-5-7.1l-4,0.6l0.3,11.4l12.4,1.1l4.6-11.6L170.3,45.7z"/>
		<path class="st2" d="M61.8,95.1c0,3.1-0.5,5.8-1.4,8.3c-0.9,2.4-2.2,4.5-3.9,6.1s-3.6,2.9-5.7,3.8c-2.2,0.9-4.5,1.3-7,1.3
			c-1.6,0-3.2-0.2-4.8-0.6s-3-0.9-4.4-1.7s-2.7-1.6-3.9-2.7s-2.2-2.3-3-3.6c-0.8-1.4-1.5-2.9-2-4.5c-0.5-1.7-0.7-3.4-0.7-5.3
			c0-2.9,0.5-5.7,1.5-8.2s2.3-4.7,4-6.5s3.8-3.3,6.1-4.3c2.3-1,4.9-1.6,7.7-1.6c2.3,0,4.6,0.4,6.7,1.3c2.1,0.9,4,2.1,5.6,3.8
			s2.9,3.7,3.9,6.1C61.3,89.3,61.8,92.1,61.8,95.1z M54.3,95.7c0-2.3-0.4-4.3-1.2-6s-1.8-3.2-3-4.3s-2.6-2-4.2-2.6
			c-1.6-0.6-3.1-0.9-4.7-0.9c-1.8,0-3.5,0.3-5,1c-1.6,0.7-2.9,1.6-4,2.9c-1.1,1.2-2,2.8-2.7,4.5s-1,3.8-1,6c0,2.1,0.3,4,1,5.6
			s1.5,3,2.7,4.2s2.4,2,4,2.6c1.5,0.6,3.1,0.9,4.8,0.9c1.7,0,3.4-0.3,5-0.9c1.6-0.6,3.1-1.5,4.3-2.7s2.3-2.6,3-4.4
			C54,99.9,54.3,97.9,54.3,95.7z"/>
		<path class="st2" d="M100.6,80.1L94,82.5l-8.2,27.9l4.7,3.2l-18.2,1.5l4.9-5.7L66.6,82.6l-5.1-2.5l16.8-4.4l-4,3.9l7,29.3l9-26.5
			l-4.3-6.2L100.6,80.1z"/>
		<path class="st2" d="M129.4,113.7l-31.2,1.2l6.9-7.1l1.9-25.5l-8.3-4.1l29.6-2.1l0.5,13l-5.1-9.2l-12.6,2l0.4,13.1l2.9-0.4
			l5.7-7.6l0.4,17.4l-5-7.1l-4,0.6l0.3,11.4l12.4,1.1l4.6-11.6L129.4,113.7z"/>
		<path class="st2" d="M167.5,103.7c-0.5,2.5-1.1,4.6-1.9,6.2s-1.6,2.9-2.4,3.9c-0.8,0.9-1.5,1.6-2.2,2s-1.2,0.6-1.6,0.6
			c-0.6,0-1.3-0.2-2.1-0.7c-0.9-0.5-1.8-1.1-2.9-1.9c-1-0.8-2.1-1.6-3.2-2.6c-1.1-0.9-2.2-1.9-3.2-2.8s-2-1.8-2.9-2.7
			s-1.6-1.5-2.1-2.1l0.2,6.8l5.8,3.2l-17.6,1.2l5.9-5.4l1-27.9l-7.2-3.5c3.6-0.2,6.6-0.4,9.2-0.5c2.5-0.1,4.6-0.2,6.2-0.2
			c1.6,0,2.9-0.1,3.8-0.1s1.5,0,1.9,0c0.8,0,1.7,0.1,2.6,0.2s1.9,0.4,2.8,0.7c0.9,0.3,1.8,0.7,2.7,1.2s1.6,1.1,2.3,1.8
			s1.2,1.6,1.6,2.5c0.4,0.9,0.6,2,0.6,3.2c0,0.3,0,0.7-0.1,1.2c-0.1,0.5-0.2,1.1-0.4,1.7s-0.5,1.3-0.9,2c-0.4,0.7-1,1.4-1.6,2.1
			c-0.7,0.7-1.6,1.4-2.6,2.1s-2.2,1.2-3.7,1.8c-1.4,0.5-3.1,0.9-5,1.3c-1.9,0.3-4.1,0.5-6.5,0.5c1.2,0.9,2.5,1.9,3.9,2.9
			s2.8,2,4.3,2.8s2.9,1.6,4.2,2.1c1.4,0.6,2.7,0.8,3.9,0.8c0.6,0,1.2-0.1,1.8-0.2s1.3-0.4,1.9-0.7s1.2-0.9,1.8-1.5
			C166.6,105.5,167.1,104.7,167.5,103.7z M156.9,88.5c0-0.6-0.1-1.1-0.1-1.7c-0.1-0.6-0.3-1.1-0.6-1.6c-0.3-0.5-0.7-1-1.3-1.5
			c-0.6-0.5-1.3-0.9-2.2-1.2s-2.1-0.6-3.4-0.8s-3-0.3-4.9-0.3c-0.3,0-0.6,0-0.9,0s-0.6,0-0.9,0.1l0.3,14.8c1.2,0,2.3-0.1,3.5-0.3
			c1.1-0.2,2.2-0.4,3.3-0.7c1-0.3,2-0.7,2.9-1.1c0.9-0.4,1.7-0.9,2.3-1.5c0.6-0.6,1.1-1.2,1.5-1.9C156.7,90.1,156.9,89.3,156.9,88.5
			z"/>
		<path class="st3" d="M55.5,28.4L50.9,33l-1,15.2l-2.5-4.7c-1.4,1.4-3,2.6-4.8,3.3c-1.8,0.8-3.6,1.2-5.5,1.2
			c-1.2,0-2.3-0.2-3.5-0.5c-1.2-0.3-2.4-0.8-3.5-1.5C29,45.3,28,44.4,27,43.4s-1.9-2.3-2.6-3.7c-0.8-1.4-1.3-3-1.8-4.8
			c-0.4-1.8-0.7-3.8-0.7-6.1c0-2.6,0.3-5,0.9-7c0.6-2,1.4-3.8,2.4-5.2s2.1-2.7,3.4-3.7c1.2-1,2.5-1.8,3.8-2.3c1.3-0.6,2.5-1,3.8-1.2
			S38.5,9,39.4,9c1,0.1,1.9,0.2,2.9,0.5c0.8,0.2,1.7,0.6,2.7,1c1,0.5,1.9,1.1,2.7,2l6.3-4.8l-8.3,14.9v-7.8
			c-0.7-0.6-1.3-1.1-2.1-1.4c-0.8-0.3-1.4-0.6-2.1-0.7c-0.7-0.2-1.2-0.2-1.7-0.3s-0.8,0-0.8,0c-1.3,0.1-2.6,0.5-3.8,1.3
			S33,15.6,32,17s-1.7,3.1-2.2,5.1S29,26.2,29,28.6c0,2.4,0.3,4.6,0.8,6.6c0.5,2,1.3,3.6,2.3,5c1,1.4,2.1,2.4,3.4,3.2
			s2.7,1.1,4.2,1.1c0.1,0,0.4,0,0.8,0c0.4,0,0.9-0.1,1.5-0.3c0.6-0.2,1.2-0.5,1.8-1c0.7-0.4,1.3-1.1,2-1.9l-1-7.1l-6.8-3.5
			L55.5,28.4z"/>
		<path class="st3" d="M78.9,7.7l8.3,33.4l6.6,1l-15.6,6.6l5.3-6.8l-3.1-7.7l-14.3,0.5L63.2,43l5.3,7L52,43.5l8.1-0.8l2.3-7.8h-1.4
			l-2.3-3l4.7-0.5l5-16.7l-5.7-3L78.9,7.7z M67.5,30.9l11-1.3l-5.7-14L67.5,30.9z"/>
		<path class="st3" d="M137.2,9.5l-6.9,5.2l1.1,26.9l5.6,2.6l-16.9,3.5l6.9-6.1l-4.5-22l-6.2,24.5l-13.4-22.3L99.3,42l5.3,4.5
			l-14.1,0.7l5.6-5l1.7-28.9L92,9.6l13.6-0.7l9.2,26l7-25.7L137.2,9.5z"/>
		<path class="st3" d="M167.1,45.8l-31.2,1.2l6.9-7.1l1.9-25.5l-8.3-4.1l29.6-2.1l0.5,13l-5.1-9.2l-12.6,2l0.4,13.1l2.9-0.4l5.7-7.6
			l0.4,17.4l-5-7.1l-4,0.6l0.3,11.4l12.4,1.1l4.6-11.6L167.1,45.8z"/>
		<path class="st3" d="M58.6,95.3c0,3.1-0.5,5.8-1.4,8.3c-0.9,2.4-2.2,4.5-3.9,6.1s-3.6,2.9-5.7,3.8c-2.2,0.9-4.5,1.3-7,1.3
			c-1.6,0-3.2-0.2-4.8-0.6s-3-0.9-4.4-1.7s-2.7-1.6-3.9-2.7s-2.2-2.3-3-3.6c-0.8-1.4-1.5-2.9-2-4.5c-0.5-1.7-0.7-3.4-0.7-5.3
			c0-2.9,0.5-5.7,1.5-8.2s2.3-4.7,4-6.5s3.8-3.3,6.1-4.3c2.4-1,4.9-1.6,7.7-1.6c2.3,0,4.6,0.4,6.7,1.3c2.1,0.9,4,2.1,5.6,3.8
			s2.9,3.7,3.9,6.1C58.1,89.5,58.6,92.2,58.6,95.3z M51.2,95.9c0-2.3-0.4-4.3-1.2-6s-1.8-3.2-3-4.3s-2.6-2-4.2-2.6
			c-1.6-0.6-3.1-0.9-4.7-0.9c-1.8,0-3.5,0.3-5,1c-1.5,0.7-2.9,1.6-4,2.9c-1.1,1.2-2,2.8-2.7,4.5s-1,3.8-1,6c0,2.1,0.3,4,1,5.6
			s1.5,3,2.7,4.2s2.4,2,4,2.6c1.5,0.6,3.1,0.9,4.8,0.9c1.7,0,3.4-0.3,5-0.9c1.6-0.6,3.1-1.5,4.3-2.7s2.3-2.6,3-4.4
			C50.8,100.1,51.2,98.1,51.2,95.9z"/>
		<path class="st3" d="M97.4,80.3l-6.6,2.4l-8.2,27.9l4.7,3.2l-18.2,1.5l4.9-5.7L63.4,82.8l-5.2-2.5L75,75.8l-4,3.9l7,29.3l9-26.5
			l-4.3-6.2L97.4,80.3z"/>
		<path class="st3" d="M126.2,113.9L95,115.1l6.9-7.1l1.9-25.5l-8.3-4.1l29.6-2.1l0.5,13l-5.1-9.2l-12.6,2l0.4,13.1l2.9-0.4l5.7-7.6
			l0.4,17.4l-5-7.1l-4,0.6l0.3,11.4l12.4,1.1l4.6-11.6L126.2,113.9z"/>
		<path class="st3" d="M164.3,103.9c-0.5,2.5-1.1,4.6-1.9,6.2s-1.6,2.9-2.4,3.9c-0.8,0.9-1.5,1.6-2.2,2s-1.2,0.6-1.6,0.6
			c-0.6,0-1.3-0.2-2.1-0.7c-0.9-0.5-1.8-1.1-2.9-1.9c-1-0.8-2.1-1.6-3.2-2.6c-1.1-0.9-2.2-1.9-3.2-2.8s-2-1.8-2.9-2.7
			s-1.6-1.5-2.1-2.1l0.2,6.8l5.8,3.2l-17.6,1.2l5.9-5.4l1-27.9l-7.2-3.5c3.6-0.2,6.6-0.4,9.2-0.5c2.5-0.1,4.6-0.2,6.2-0.2
			c1.6,0,2.9-0.1,3.8-0.1s1.5,0,1.9,0c0.8,0,1.7,0.1,2.6,0.2s1.9,0.4,2.8,0.7c0.9,0.3,1.8,0.7,2.7,1.2s1.6,1.1,2.3,1.8
			s1.2,1.6,1.6,2.5c0.4,0.9,0.6,2,0.6,3.2c0,0.3,0,0.7-0.1,1.2c-0.1,0.5-0.2,1.1-0.4,1.7s-0.5,1.3-0.9,2c-0.4,0.7-1,1.4-1.6,2.1
			c-0.7,0.7-1.6,1.4-2.6,2.1s-2.2,1.2-3.7,1.8c-1.4,0.5-3.1,0.9-5,1.3c-1.9,0.3-4.1,0.5-6.5,0.5c1.2,0.9,2.5,1.9,3.9,2.9
			s2.8,2,4.3,2.8s2.9,1.6,4.2,2.1c1.4,0.6,2.7,0.8,3.9,0.8c0.6,0,1.2-0.1,1.8-0.2s1.3-0.4,1.9-0.7s1.2-0.9,1.8-1.5
			C163.4,105.7,163.9,104.9,164.3,103.9z M153.7,88.7c0-0.6-0.1-1.1-0.1-1.7c-0.1-0.6-0.3-1.1-0.6-1.6c-0.3-0.5-0.7-1-1.3-1.5
			c-0.6-0.5-1.3-0.9-2.2-1.2s-2.1-0.6-3.4-0.8s-3-0.3-4.9-0.3c-0.3,0-0.6,0-0.9,0s-0.6,0-0.9,0.1l0.3,14.8c1.2,0,2.3-0.1,3.5-0.3
			c1.1-0.2,2.2-0.4,3.3-0.7c1-0.3,2-0.7,2.9-1.1c0.9-0.4,1.7-0.9,2.3-1.5c0.6-0.6,1.1-1.2,1.5-1.9C153.5,90.2,153.7,89.5,153.7,88.7
			z"/>
	</g>
</g>
</svg>
