<?xml version="1.0" encoding="utf-8"?>
<!-- Generator: Adobe Illustrator 23.0.1, SVG Export Plug-In . SVG Version: 6.00 Build 0)  -->
<svg version="1.1" id="Layer_1" xmlns="http://www.w3.org/2000/svg" xmlns:xlink="http://www.w3.org/1999/xlink" x="0px" y="0px"
	 viewBox="0 0 255 128.9" style="enable-background:new 0 0 255 128.9;" xml:space="preserve">
<style type="text/css">
	.st0{fill:#6E4193;}
	.st1{opacity:0.41;fill:#6E4193;enable-background:new    ;}
	.st2{fill:#FFFFFF;}
	.st3{fill:#F28D1C;}
</style>
<g>
	<path class="st0" d="M221.4,106.2H48.3c-6.6,0-12-5.4-12-12V43.7c0-6.6,5.4-12,12-12h173.1c6.6,0,12,5.4,12,12v50.5
		C233.4,100.8,228,106.2,221.4,106.2z"/>
	<path class="st1" d="M221.4,106.2H48.3c-6.6,0-12-5.4-12-12V43.7c0-6.6,5.4-12,12-12h173.1c6.6,0,12,5.4,12,12v50.5
		C233.4,100.8,228,106.2,221.4,106.2z"/>
	<path class="st0" d="M216.4,99h-168c-6.6,0-12-5.4-12-12V43.7c0-6.6,5.4-12,12-12h168c6.6,0,12,5.4,12,12V87
		C228.4,93.6,222.9,99,216.4,99z"/>
	<g>
		<path class="st2" d="M81.1,70.6c-0.5,2.2-1.1,4.1-1.8,5.5s-1.4,2.6-2.2,3.4c-0.7,0.8-1.4,1.4-2.1,1.7c-0.6,0.3-1.1,0.5-1.4,0.5
			c-0.5,0-1.2-0.2-2-0.6c-0.8-0.4-1.7-1-2.6-1.6s-2-1.4-3-2.3s-2-1.7-3-2.5c-1-0.8-1.8-1.6-2.6-2.3c-0.8-0.7-1.5-1.3-1.9-1.8
			l0.2,6.1l5.4,2.9l-16.2,1.1l5.4-4.8l0.9-24.7L47.7,48c3.3-0.2,6.1-0.3,8.5-0.4c2.3-0.1,4.2-0.2,5.7-0.2c1.5,0,2.7,0,3.5,0
			s1.4,0,1.7,0c0.7,0,1.5,0.1,2.4,0.2s1.7,0.3,2.6,0.6c0.8,0.3,1.7,0.7,2.5,1.1s1.5,1,2.1,1.6s1.1,1.4,1.5,2.2s0.6,1.8,0.6,2.9
			c0,0.2,0,0.6-0.1,1c-0.1,0.4-0.2,0.9-0.4,1.5s-0.5,1.2-0.8,1.8c-0.4,0.6-0.9,1.3-1.5,1.9s-1.4,1.2-2.4,1.8
			c-0.9,0.6-2.1,1.1-3.4,1.6s-2.8,0.8-4.6,1.1c-1.7,0.3-3.7,0.4-6,0.5c1.1,0.8,2.3,1.7,3.6,2.6c1.3,0.9,2.6,1.7,3.9,2.5
			c1.3,0.8,2.6,1.4,3.9,1.9c1.3,0.5,2.5,0.8,3.6,0.8c0.5,0,1.1-0.1,1.7-0.2c0.6-0.1,1.2-0.3,1.8-0.7c0.6-0.3,1.2-0.8,1.7-1.3
			C80.2,72.2,80.7,71.5,81.1,70.6z M71.3,57.1c0-0.5,0-1-0.1-1.5c-0.1-0.5-0.3-1-0.5-1.5c-0.3-0.5-0.7-0.9-1.2-1.3
			c-0.5-0.4-1.2-0.8-2.1-1c-0.9-0.3-1.9-0.5-3.2-0.7c-1.3-0.2-2.8-0.3-4.5-0.3c-0.3,0-0.5,0-0.8,0c-0.3,0-0.5,0-0.8,0L58.4,64
			c1.1,0,2.1-0.1,3.2-0.3s2.1-0.4,3-0.7c0.9-0.3,1.8-0.6,2.7-1c0.8-0.4,1.5-0.8,2.1-1.3c0.6-0.5,1.1-1,1.4-1.7
			C71.1,58.5,71.3,57.8,71.3,57.1z"/>
		<path class="st2" d="M88.3,71.3c0.2,0.9,0.5,1.8,0.9,2.7s0.8,1.7,1.4,2.3c0.5,0.7,1.2,1.2,1.9,1.7c0.7,0.4,1.5,0.6,2.4,0.6
			c1.2,0,2.2-0.2,3.1-0.7s1.6-1.1,2.2-1.8s0.9-1.5,1.2-2.4s0.3-1.7,0.1-2.5c0.5,0.2,0.9,0.4,1.2,0.7c0.3,0.3,0.6,0.6,0.7,1
			s0.3,0.7,0.4,1.1s0.1,0.7,0.1,1.1c0,0.8-0.2,1.5-0.7,2.3c-0.5,0.7-1.1,1.4-2,1.9c-0.9,0.6-1.9,1-3.1,1.4c-1.2,0.3-2.5,0.5-3.8,0.5
			c-1.9,0-3.5-0.3-5-1.1c-1.5-0.7-2.7-1.7-3.7-2.9c-1-1.2-1.8-2.6-2.3-4.2c-0.5-1.6-0.8-3.3-0.8-5.2c0-1.9,0.3-3.6,0.8-5.2
			c0.5-1.6,1.3-2.9,2.4-4c1.1-1.1,2.4-2,3.9-2.5c1.6-0.6,3.3-0.8,5.4-0.7c1.4,0.1,2.7,0.5,3.8,1.2s2.2,1.5,3.1,2.6
			c0.9,1,1.6,2.3,2.1,3.6c0.5,1.4,0.9,2.8,1,4.2L88.3,71.3z M87.8,67.4c0,0.2,0,0.4,0,0.7s0,0.4,0.1,0.7l11.2-3.9
			c-0.4-1.2-0.8-2.2-1.3-3c-0.5-0.8-1-1.5-1.5-2.1s-1-0.9-1.5-1.2c-0.5-0.2-1-0.4-1.5-0.4c-0.7,0-1.3,0.1-1.9,0.4
			c-0.5,0.3-1,0.6-1.4,1.1s-0.7,1-1,1.6c-0.3,0.6-0.5,1.2-0.7,1.9s-0.3,1.4-0.4,2.1C87.8,66,87.8,66.7,87.8,67.4z"/>
		<path class="st2" d="M117.4,55.4c0.7,0,1.3,0,2,0.2c0.7,0.1,1.3,0.3,1.9,0.5c0.6,0.2,1.2,0.5,1.8,0.7s1.1,0.6,1.5,0.9l4.2-5
			L127,64.9c-0.2-0.8-0.6-1.7-1.1-2.5c-0.5-0.8-1.1-1.6-1.9-2.2c-0.8-0.7-1.6-1.2-2.6-1.6c-1-0.4-2.1-0.6-3.2-0.6
			c-0.7,0-1.3,0.1-1.9,0.2c-0.6,0.1-1.1,0.4-1.6,0.7c-0.4,0.3-0.8,0.7-1.1,1.2c-0.3,0.5-0.4,1-0.4,1.7c0,0.8,0.2,1.4,0.7,1.9
			s1,0.9,1.8,1.2c0.7,0.3,1.6,0.6,2.5,0.9c0.9,0.2,1.9,0.5,2.9,0.8s1.9,0.6,2.9,0.9c0.9,0.3,1.8,0.8,2.5,1.4s1.3,1.2,1.8,2.1
			c0.4,0.8,0.7,1.8,0.7,3.1c0,1.4-0.3,2.5-0.8,3.5s-1.3,1.7-2.1,2.3c-0.9,0.6-1.8,1.1-2.9,1.3c-1.1,0.3-2.1,0.4-3.1,0.4
			c-0.8,0-1.6-0.1-2.4-0.2c-0.8-0.2-1.6-0.4-2.4-0.7c-0.8-0.3-1.5-0.7-2.2-1.1c-0.7-0.4-1.3-0.8-1.9-1.3l-3.9,5l1.2-12.2
			c0.5,1.1,1.2,2.2,2,3.1c0.8,1,1.6,1.8,2.6,2.5c0.9,0.7,1.9,1.3,3,1.7s2.2,0.6,3.3,0.6c1.3,0,2.4-0.3,3.2-0.8
			c0.8-0.6,1.2-1.3,1.2-2.3c0-0.7-0.2-1.2-0.7-1.6s-1.1-0.8-1.8-1.1s-1.6-0.6-2.5-0.9c-0.9-0.3-1.9-0.6-2.9-0.9
			c-1-0.3-1.9-0.7-2.9-1.1c-0.9-0.4-1.8-0.9-2.5-1.6c-0.7-0.6-1.3-1.4-1.8-2.3c-0.4-0.9-0.7-2-0.7-3.3c0-1.1,0.2-2.1,0.5-2.9
			c0.3-0.8,0.8-1.5,1.3-2.1s1.2-1,1.9-1.4s1.4-0.6,2.1-0.8c0.7-0.2,1.4-0.3,2-0.4C116.4,55.4,116.9,55.4,117.4,55.4z"/>
		<path class="st2" d="M133.6,69.6c0-1.5,0.2-3.1,0.5-4.6s0.7-2.9,1.1-4.2l-4.4,0.3L143.2,48c-1,3-1.8,5.7-2.4,8.1l9.9,0.8l-1.3,2.9
			l-9.6,0.7c-0.2,1.2-0.4,2.2-0.6,3.2c-0.1,0.9-0.2,1.7-0.3,2.3c-0.1,0.8-0.1,1.4-0.2,2c0,1.6,0.1,3.1,0.3,4.4
			c0.2,1.3,0.5,2.4,1,3.3c0.4,0.9,1,1.6,1.7,2.1s1.5,0.8,2.4,0.8c0.9,0,1.6-0.2,2.2-0.5c0.6-0.3,1.1-0.8,1.4-1.3s0.6-1.1,0.8-1.8
			s0.2-1.3,0.2-2c0-0.6-0.1-1.2-0.1-1.8c0.7,0.4,1.3,0.9,1.7,1.7s0.6,1.7,0.6,2.6c0,1-0.2,1.8-0.5,2.6c-0.3,0.7-0.8,1.3-1.4,1.8
			c-0.6,0.5-1.3,0.9-2,1.1s-1.6,0.4-2.5,0.4c-0.5,0-1.2-0.1-1.9-0.2c-0.7-0.1-1.5-0.3-2.3-0.6c-0.8-0.3-1.6-0.7-2.4-1.3
			s-1.5-1.3-2.1-2.2c-0.6-0.9-1.1-2-1.5-3.2C133.7,72.8,133.6,71.3,133.6,69.6z"/>
		<path class="st2" d="M174.7,65c0,0.9-0.1,1.8-0.1,2.8c-0.1,1-0.2,2-0.4,3s-0.4,2-0.7,3c-0.3,1-0.6,1.9-0.9,2.7l5.4,3.7l-9.6-0.4
			l0.6-3c-1,1.2-2.2,2.2-3.5,2.8c-1.3,0.7-2.9,1-4.6,1.2c-1.4,0.1-2.7,0-3.7-0.3c-1.1-0.3-1.9-0.7-2.6-1.3c-0.7-0.6-1.2-1.3-1.6-2.2
			c-0.3-0.9-0.5-1.8-0.5-2.9c0-1,0.3-2,0.8-2.9c0.5-0.9,1.2-1.8,2.2-2.5s2.1-1.3,3.5-1.7c1.4-0.4,3-0.7,4.8-0.7
			c0.8,0,1.8,0.1,2.8,0.2c1.1,0.2,2.1,0.5,3,0.9c-0.1-1-0.2-2-0.5-3.1s-0.6-2-1-2.8c-0.4-0.8-1-1.5-1.7-2.1
			c-0.7-0.5-1.6-0.8-2.6-0.8c-0.9,0-1.8,0.2-2.6,0.5s-1.6,0.9-2.4,1.5c-0.7,0.7-1.4,1.5-2,2.5c-0.6,1-1.1,2.1-1.5,3.3l-2.1-12
			l3.2,4.8c0.8-1,1.6-1.7,2.4-2.3c0.8-0.6,1.6-1,2.4-1.3s1.6-0.5,2.4-0.6c0.8-0.1,1.5-0.2,2.2-0.2c1.3,0.1,2.5,0.3,3.6,0.8
			c1.1,0.5,2.1,1.1,2.9,1.9c0.8,0.8,1.5,1.9,1.9,3.1C174.4,62.1,174.7,63.5,174.7,65z M169.4,72.9c0-0.5,0.1-0.9,0.1-1.3
			s0-0.8,0-1.2V70c-0.6-0.2-1.2-0.4-1.9-0.5c-0.6-0.1-1.2-0.2-1.7-0.3c-0.5-0.1-1-0.1-1.3-0.1s-0.6,0-0.7,0c-1,0-1.8,0.2-2.5,0.5
			c-0.7,0.3-1.3,0.7-1.8,1.2c-0.5,0.5-0.8,1-1.1,1.6c-0.2,0.6-0.3,1.1-0.3,1.7c0,1.3,0.3,2.2,1,2.9s1.6,1,2.8,1
			c0.8,0,1.6-0.1,2.3-0.4c0.7-0.3,1.4-0.7,2.1-1.1c0.6-0.5,1.2-1,1.7-1.6C168.6,74.1,169,73.5,169.4,72.9z"/>
		<path class="st2" d="M196.8,63.6c-0.1-0.6-0.4-1.1-0.6-1.5c-0.3-0.4-0.6-0.8-0.9-1.1c-0.4-0.3-0.7-0.5-1.1-0.7
			c-0.4-0.2-0.8-0.3-1.2-0.4c-0.9-0.2-1.9-0.2-2.9,0c-0.4,0.1-0.7,0.3-1.1,0.5c-0.4,0.2-0.8,0.5-1.2,0.9s-0.9,0.9-1.5,1.5l0.5,14.2
			l4.6,2.2l-13.5,1.2l3.5-3.4l1.4-17.1l-5.4-2.4l8.8-1.6l0.1,3.1c0.6-0.7,1.2-1.2,1.8-1.7c0.6-0.4,1.2-0.8,1.7-1.1
			c0.6-0.3,1.2-0.5,1.7-0.7c1-0.2,2.1-0.3,3.1-0.3c0.4,0,0.9,0.1,1.4,0.2s1,0.2,1.5,0.4c0.5,0.2,1,0.4,1.5,0.7
			c0.5,0.3,0.9,0.6,1.4,1.1L196.8,63.6z"/>
		<path class="st2" d="M202.7,69.6c0-1.5,0.2-3.1,0.5-4.6s0.7-2.9,1.1-4.2l-4.4,0.3L212.3,48c-1,3-1.8,5.7-2.4,8.1l9.9,0.8l-1.3,2.9
			l-9.6,0.7c-0.2,1.2-0.4,2.2-0.6,3.2c-0.1,0.9-0.2,1.7-0.3,2.3c-0.1,0.8-0.1,1.4-0.2,2c0,1.6,0.1,3.1,0.3,4.4
			c0.2,1.3,0.5,2.4,1,3.3c0.4,0.9,1,1.6,1.7,2.1s1.5,0.8,2.4,0.8c0.9,0,1.6-0.2,2.2-0.5c0.6-0.3,1.1-0.8,1.4-1.3s0.6-1.1,0.8-1.8
			c0.1-0.7,0.2-1.3,0.2-2c0-0.6-0.1-1.2-0.1-1.8c0.7,0.4,1.3,0.9,1.7,1.7s0.6,1.7,0.6,2.6c0,1-0.2,1.8-0.5,2.6
			c-0.3,0.7-0.8,1.3-1.4,1.8c-0.6,0.5-1.3,0.9-2,1.1s-1.6,0.4-2.5,0.4c-0.5,0-1.2-0.1-1.9-0.2c-0.7-0.1-1.5-0.3-2.3-0.6
			c-0.8-0.3-1.6-0.7-2.4-1.3s-1.5-1.3-2.1-2.2c-0.6-0.9-1.1-2-1.5-3.2C202.9,72.8,202.7,71.3,202.7,69.6z"/>
		<path class="st3" d="M78.2,70.7c-0.5,2.2-1.1,4.1-1.8,5.5s-1.4,2.6-2.2,3.4c-0.7,0.8-1.4,1.4-2.1,1.7c-0.6,0.3-1.1,0.5-1.4,0.5
			c-0.5,0-1.2-0.2-2-0.6c-0.8-0.4-1.7-1-2.6-1.6s-2-1.4-3-2.3c-1-0.8-2-1.7-3-2.5s-1.8-1.6-2.6-2.3c-0.8-0.7-1.5-1.3-1.9-1.8
			l0.2,6.1l5.4,2.9L45,80.7l5.4-4.8l0.9-24.7l-6.6-3.1c3.3-0.2,6.1-0.3,8.5-0.4c2.3-0.1,4.2-0.2,5.7-0.2c1.5,0,2.7,0,3.5,0
			s1.4,0,1.7,0c0.7,0,1.5,0.1,2.4,0.2s1.7,0.3,2.6,0.6c0.8,0.3,1.7,0.7,2.5,1.1s1.5,1,2.1,1.6s1.1,1.4,1.5,2.2s0.6,1.8,0.6,2.9
			c0,0.2,0,0.6-0.1,1c-0.1,0.4-0.2,0.9-0.4,1.5s-0.5,1.2-0.8,1.8c-0.4,0.6-0.9,1.3-1.5,1.9s-1.4,1.2-2.4,1.8
			c-0.9,0.6-2.1,1.1-3.4,1.6s-2.8,0.8-4.6,1.1c-1.7,0.3-3.7,0.4-6,0.5c1.1,0.8,2.3,1.7,3.6,2.6c1.3,0.9,2.6,1.7,3.9,2.5
			s2.6,1.4,3.9,1.9c1.3,0.5,2.5,0.8,3.6,0.8c0.5,0,1.1-0.1,1.7-0.2c0.6-0.1,1.2-0.3,1.8-0.7s1.2-0.8,1.7-1.3
			C77.3,72.3,77.8,71.6,78.2,70.7z M68.4,57.3c0-0.5,0-1-0.1-1.5c-0.1-0.5-0.3-1-0.5-1.5c-0.3-0.5-0.7-0.9-1.2-1.3
			c-0.5-0.4-1.2-0.8-2.1-1c-0.9-0.3-1.9-0.5-3.2-0.7C60,51.1,58.5,51,56.8,51c-0.3,0-0.5,0-0.8,0c-0.3,0-0.5,0-0.8,0l0.2,13.1
			c1.1,0,2.1-0.1,3.2-0.3s2.1-0.4,3-0.7c1-0.3,1.8-0.6,2.7-1c0.8-0.4,1.5-0.8,2.1-1.3c0.6-0.5,1.1-1,1.4-1.7
			C68.2,58.6,68.4,58,68.4,57.3z"/>
		<path class="st3" d="M85.4,71.5c0.2,0.9,0.5,1.8,0.9,2.7s0.8,1.7,1.4,2.3c0.5,0.7,1.2,1.2,1.9,1.7c0.7,0.4,1.5,0.6,2.4,0.6
			c1.2,0,2.2-0.2,3.1-0.7s1.6-1.1,2.2-1.8s0.9-1.5,1.2-2.4s0.3-1.7,0.1-2.5c0.5,0.2,0.9,0.4,1.2,0.7c0.3,0.3,0.6,0.6,0.7,1
			s0.3,0.7,0.4,1.1s0.1,0.7,0.1,1.1c0,0.8-0.2,1.5-0.7,2.3c-0.5,0.7-1.1,1.4-2,1.9c-0.9,0.6-1.9,1-3.1,1.4c-1.2,0.3-2.5,0.5-3.8,0.5
			c-1.9,0-3.5-0.3-5-1.1c-1.5-0.7-2.7-1.7-3.7-2.9c-1-1.2-1.8-2.6-2.3-4.2c-0.5-1.6-0.8-3.3-0.8-5.2c0-1.9,0.3-3.6,0.8-5.2
			c0.5-1.6,1.3-2.9,2.4-4c1.1-1.1,2.4-2,3.9-2.5c1.6-0.6,3.3-0.8,5.4-0.7c1.4,0.1,2.7,0.5,3.8,1.2s2.2,1.5,3.1,2.6
			c0.9,1,1.6,2.3,2.1,3.6c0.5,1.4,0.9,2.8,1,4.2L85.4,71.5z M84.9,67.5c0,0.2,0,0.4,0,0.7s0,0.4,0.1,0.7l11.2-3.9
			c-0.4-1.2-0.8-2.2-1.3-3c-0.5-0.8-1-1.5-1.5-2.1s-1-0.9-1.5-1.2c-0.5-0.2-1-0.4-1.5-0.4c-0.7,0-1.3,0.1-1.9,0.4
			c-0.5,0.3-1,0.6-1.4,1.1s-0.7,1-1,1.6c-0.3,0.6-0.5,1.2-0.7,1.9s-0.3,1.4-0.4,2.1C84.9,66.1,84.9,66.8,84.9,67.5z"/>
		<path class="st3" d="M114.5,55.5c0.7,0,1.3,0,2,0.2c0.7,0.1,1.3,0.3,1.9,0.5c0.6,0.2,1.2,0.5,1.8,0.7s1.1,0.6,1.5,0.9l4.2-5
			L124,65.1c-0.2-0.8-0.6-1.7-1.1-2.5c-0.5-0.8-1.1-1.6-1.9-2.2c-0.8-0.7-1.6-1.2-2.6-1.6c-1-0.4-2.1-0.6-3.2-0.6
			c-0.7,0-1.3,0.1-1.9,0.2c-0.6,0.1-1.1,0.4-1.6,0.7c-0.4,0.3-0.8,0.7-1.1,1.2c-0.3,0.5-0.4,1-0.4,1.7c0,0.8,0.2,1.4,0.7,1.9
			s1,0.9,1.8,1.2c0.7,0.3,1.6,0.6,2.5,0.9c0.9,0.2,1.9,0.5,2.9,0.8s1.9,0.6,2.9,0.9c0.9,0.3,1.8,0.8,2.5,1.4s1.3,1.2,1.8,2.1
			c0.4,0.8,0.7,1.8,0.7,3.1c0,1.4-0.3,2.5-0.8,3.5s-1.3,1.7-2.1,2.3c-0.9,0.6-1.8,1.1-2.9,1.3c-1.1,0.3-2.1,0.4-3.1,0.4
			c-0.8,0-1.6-0.1-2.4-0.2c-0.8-0.2-1.6-0.4-2.4-0.7c-0.8-0.3-1.5-0.7-2.2-1.1c-0.7-0.4-1.3-0.8-1.9-1.3l-3.9,5l1.2-12.2
			c0.5,1.1,1.2,2.2,2,3.1c0.8,1,1.6,1.8,2.6,2.5c0.9,0.7,1.9,1.3,3,1.7s2.2,0.6,3.3,0.6c1.3,0,2.4-0.3,3.2-0.8
			c0.8-0.6,1.2-1.3,1.2-2.3c0-0.7-0.2-1.2-0.7-1.6s-1.1-0.8-1.8-1.1s-1.6-0.6-2.5-0.9c-0.9-0.3-1.9-0.6-2.9-0.9
			c-1-0.3-1.9-0.7-2.9-1.1c-0.9-0.4-1.8-0.9-2.5-1.6c-0.7-0.6-1.3-1.4-1.8-2.3c-0.4-0.9-0.7-2-0.7-3.3c0-1.1,0.2-2.1,0.5-2.9
			c0.3-0.8,0.8-1.5,1.3-2.1s1.2-1,1.9-1.4s1.4-0.6,2.1-0.8c0.7-0.2,1.4-0.3,2-0.4C113.5,55.5,114,55.5,114.5,55.5z"/>
		<path class="st3" d="M130.6,69.7c0-1.5,0.2-3.1,0.5-4.6s0.7-2.9,1.1-4.2l-4.4,0.3l12.4-13.1c-1,3-1.8,5.7-2.4,8.1l9.9,0.8
			l-1.3,2.9l-9.6,0.7c-0.2,1.2-0.4,2.2-0.6,3.2c-0.1,0.9-0.2,1.7-0.3,2.3c-0.1,0.8-0.1,1.4-0.2,2c0,1.6,0.1,3.1,0.3,4.4
			c0.2,1.3,0.5,2.4,1,3.3c0.4,0.9,1,1.6,1.7,2.1s1.5,0.8,2.4,0.8c0.9,0,1.6-0.2,2.2-0.5c0.6-0.3,1.1-0.8,1.4-1.3s0.6-1.1,0.8-1.8
			c0.1-0.7,0.2-1.3,0.2-2c0-0.6-0.1-1.2-0.1-1.8c0.7,0.4,1.3,0.9,1.7,1.7s0.6,1.7,0.6,2.6c0,1-0.2,1.8-0.5,2.6
			c-0.3,0.7-0.8,1.3-1.4,1.8c-0.6,0.5-1.3,0.9-2,1.1s-1.6,0.4-2.5,0.4c-0.5,0-1.2-0.1-1.9-0.2c-0.7-0.1-1.5-0.3-2.3-0.6
			s-1.6-0.7-2.4-1.3s-1.5-1.3-2.1-2.2c-0.6-0.9-1.1-2-1.5-3.2C130.8,72.9,130.6,71.4,130.6,69.7z"/>
		<path class="st3" d="M171.8,65.2c0,0.9-0.1,1.8-0.1,2.8c-0.1,1-0.2,2-0.4,3s-0.4,2-0.7,3c-0.3,1-0.6,1.9-0.9,2.7l5.4,3.7l-9.6-0.4
			l0.6-3c-1,1.2-2.2,2.2-3.5,2.8c-1.3,0.7-2.9,1-4.6,1.2c-1.4,0.1-2.7,0-3.7-0.3c-1.1-0.3-1.9-0.7-2.6-1.3c-0.7-0.6-1.2-1.3-1.6-2.2
			c-0.3-0.9-0.5-1.8-0.5-2.9c0-1,0.3-2,0.8-2.9c0.5-0.9,1.2-1.8,2.2-2.5s2.1-1.3,3.5-1.7c1.4-0.4,3-0.7,4.8-0.7
			c0.8,0,1.8,0.1,2.8,0.2c1.1,0.2,2.1,0.5,3,0.9c-0.1-1-0.2-2-0.5-3.1s-0.6-2-1-2.8c-0.4-0.8-1-1.5-1.7-2.1
			c-0.7-0.5-1.6-0.8-2.6-0.8c-0.9,0-1.8,0.2-2.6,0.5s-1.6,0.9-2.4,1.5c-0.7,0.7-1.4,1.5-2,2.5c-0.6,1-1.1,2.1-1.5,3.3l-2.1-12
			l3.2,4.8c0.8-1,1.6-1.7,2.4-2.3c0.8-0.6,1.6-1,2.4-1.3s1.6-0.5,2.4-0.6c0.8-0.1,1.5-0.2,2.2-0.2c1.3,0.1,2.5,0.3,3.6,0.8
			c1.1,0.5,2.1,1.1,2.9,1.9c0.8,0.8,1.5,1.9,1.9,3.1C171.5,62.2,171.8,63.6,171.8,65.2z M166.5,73c0-0.5,0.1-0.9,0.1-1.3
			s0-0.8,0-1.2v-0.3c-0.6-0.2-1.2-0.4-1.9-0.5c-0.6-0.1-1.2-0.2-1.7-0.3c-0.5-0.1-1-0.1-1.3-0.1s-0.6,0-0.7,0c-1,0-1.8,0.2-2.5,0.5
			s-1.3,0.7-1.8,1.2c-0.5,0.5-0.8,1-1.1,1.6c-0.2,0.6-0.3,1.1-0.3,1.7c0,1.3,0.3,2.2,1,2.9s1.6,1,2.8,1c0.8,0,1.6-0.1,2.3-0.4
			c0.7-0.3,1.4-0.7,2.1-1.1c0.6-0.5,1.2-1,1.7-1.6C165.6,74.3,166.1,73.7,166.5,73z"/>
		<path class="st3" d="M193.9,63.7c-0.1-0.6-0.4-1.1-0.6-1.5c-0.3-0.4-0.6-0.8-0.9-1.1c-0.4-0.3-0.7-0.5-1.1-0.7
			c-0.4-0.2-0.8-0.3-1.2-0.4c-0.9-0.2-1.9-0.2-2.9,0c-0.4,0.1-0.7,0.3-1.1,0.5c-0.4,0.2-0.8,0.5-1.2,0.9s-0.9,0.9-1.5,1.5l0.5,14.2
			l4.6,2.2l-13.5,1.2l3.5-3.4l1.4-17.1l-5.4-2.4l8.8-1.6l0.1,3.1c0.6-0.7,1.2-1.2,1.8-1.7c0.6-0.4,1.2-0.8,1.7-1.1
			c0.6-0.3,1.2-0.5,1.7-0.7c1-0.2,2.1-0.3,3.1-0.3c0.4,0,0.9,0.1,1.4,0.2s1,0.2,1.5,0.4c0.5,0.2,1,0.4,1.5,0.7
			c0.5,0.3,0.9,0.6,1.4,1.1L193.9,63.7z"/>
		<path class="st3" d="M199.8,69.7c0-1.5,0.2-3.1,0.5-4.6s0.7-2.9,1.1-4.2l-4.4,0.3l12.4-13.1c-1,3-1.8,5.7-2.4,8.1l9.9,0.8
			l-1.3,2.9l-9.6,0.6c-0.2,1.2-0.4,2.2-0.6,3.2c-0.1,0.9-0.2,1.7-0.3,2.3c-0.1,0.8-0.1,1.4-0.2,2c0,1.6,0.1,3.1,0.3,4.4
			c0.2,1.3,0.5,2.4,1,3.3c0.4,0.9,1,1.6,1.7,2.1s1.5,0.8,2.4,0.8c0.9,0,1.6-0.2,2.2-0.5c0.6-0.3,1.1-0.8,1.4-1.3s0.6-1.1,0.8-1.8
			c0.1-0.7,0.2-1.3,0.2-2c0-0.6-0.1-1.2-0.1-1.8c0.7,0.4,1.3,0.9,1.7,1.7s0.6,1.7,0.6,2.6c0,1-0.2,1.8-0.5,2.6
			c-0.3,0.7-0.8,1.3-1.4,1.8c-0.6,0.5-1.3,0.9-2,1.1s-1.6,0.4-2.5,0.4c-0.5,0-1.2-0.1-1.9-0.2c-0.7-0.1-1.5-0.3-2.3-0.6
			s-1.6-0.7-2.4-1.3s-1.5-1.3-2.1-2.2c-0.6-0.9-1.1-2-1.5-3.2S199.8,71.4,199.8,69.7z"/>
	</g>
</g>
</svg>
