<?xml version="1.0" encoding="utf-8"?>
<!-- Generator: Adobe Illustrator 23.0.1, SVG Export Plug-In . SVG Version: 6.00 Build 0)  -->
<svg version="1.1" id="Layer_1" xmlns="http://www.w3.org/2000/svg" xmlns:xlink="http://www.w3.org/1999/xlink" x="0px" y="0px"
	 viewBox="0 0 197.1 74.5" style="enable-background:new 0 0 197.1 74.5;" xml:space="preserve">
<style type="text/css">
	.st0{fill:#6E4193;}
	.st1{opacity:0.41;fill:#6E4193;enable-background:new    ;}
	.st2{fill:#FFFFFF;}
	.st3{fill:#F28D1C;}
</style>
<g>
	<path class="st0" d="M185.1,74.5H12c-6.6,0-12-5.4-12-12V12C0,5.4,5.4,0,12,0h173.1c6.6,0,12,5.4,12,12v50.5
		C197.1,69.1,191.7,74.5,185.1,74.5z"/>
	<path class="st1" d="M185.1,74.5H12c-6.6,0-12-5.4-12-12V12C0,5.4,5.4,0,12,0h173.1c6.6,0,12,5.4,12,12v50.5
		C197.1,69.1,191.7,74.5,185.1,74.5z"/>
	<path class="st0" d="M180,67.2H12c-6.6,0-12-5.4-12-12V12C0,5.4,5.4,0,12,0h168c6.6,0,12,5.4,12,12v43.2
		C192,61.8,186.6,67.2,180,67.2z"/>
	<g>
		<path class="st2" d="M44.8,38.8c-0.5,2.2-1.1,4.1-1.8,5.5s-1.4,2.6-2.2,3.4c-0.7,0.8-1.4,1.4-2.1,1.7c-0.6,0.3-1.1,0.5-1.4,0.5
			c-0.5,0-1.2-0.2-2-0.6c-0.8-0.4-1.7-1-2.6-1.6s-2-1.4-3-2.3s-2-1.7-3-2.5c-1-0.8-1.8-1.6-2.6-2.3c-0.8-0.7-1.5-1.3-1.9-1.8
			l0.2,6.1l5.4,2.9l-16.2,1.1l5.4-4.8L18,19.4l-6.6-3.1c3.3-0.2,6.1-0.3,8.5-0.4c2.3-0.1,4.2-0.2,5.7-0.2c1.5,0,2.7,0,3.5,0
			s1.4,0,1.7,0c0.7,0,1.5,0.1,2.4,0.2s1.7,0.3,2.6,0.6c0.8,0.3,1.7,0.7,2.5,1.1s1.5,1,2.1,1.6s1.1,1.4,1.5,2.2s0.6,1.8,0.6,2.9
			c0,0.2,0,0.6-0.1,1c-0.1,0.4-0.2,0.9-0.4,1.5s-0.5,1.2-0.8,1.8c-0.4,0.6-0.9,1.3-1.5,1.9s-1.4,1.2-2.4,1.8
			c-0.9,0.6-2.1,1.1-3.4,1.6S31,34.7,29.2,35c-1.7,0.3-3.7,0.4-6,0.5c1.1,0.8,2.3,1.7,3.6,2.6c1.3,0.9,2.6,1.7,3.9,2.5
			c1.3,0.8,2.6,1.4,3.9,1.9c1.3,0.5,2.5,0.8,3.6,0.8c0.5,0,1.1-0.1,1.7-0.2c0.6-0.1,1.2-0.3,1.8-0.7c0.6-0.3,1.2-0.8,1.7-1.3
			C43.9,40.4,44.4,39.7,44.8,38.8z M35,25.4c0-0.5,0-1-0.1-1.5c-0.1-0.5-0.3-1-0.5-1.5c-0.3-0.5-0.7-0.9-1.2-1.3
			c-0.5-0.4-1.2-0.8-2.1-1c-0.9-0.3-1.9-0.5-3.2-0.7c-1.3-0.2-2.8-0.3-4.5-0.3c-0.3,0-0.5,0-0.8,0c-0.3,0-0.5,0-0.8,0l0.2,13.1
			c1.1,0,2.1-0.1,3.2-0.3s2.1-0.4,3-0.7c0.9-0.3,1.8-0.6,2.7-1c0.8-0.4,1.5-0.8,2.1-1.3c0.6-0.5,1.1-1,1.4-1.7
			C34.8,26.8,35,26.1,35,25.4z"/>
		<path class="st2" d="M52,39.6c0.2,0.9,0.5,1.8,0.9,2.7s0.8,1.7,1.4,2.3c0.5,0.7,1.2,1.2,1.9,1.7c0.7,0.4,1.5,0.6,2.4,0.6
			c1.2,0,2.2-0.2,3.1-0.7s1.6-1.1,2.2-1.8s0.9-1.5,1.2-2.4s0.3-1.7,0.1-2.5c0.5,0.2,0.9,0.4,1.2,0.7c0.3,0.3,0.6,0.6,0.7,1
			s0.3,0.7,0.4,1.1s0.1,0.7,0.1,1.1c0,0.8-0.2,1.5-0.7,2.3c-0.5,0.7-1.1,1.4-2,1.9c-0.9,0.6-1.9,1-3.1,1.4c-1.2,0.3-2.5,0.5-3.8,0.5
			c-1.9,0-3.5-0.3-5-1.1c-1.5-0.7-2.7-1.7-3.7-2.9c-1-1.2-1.8-2.6-2.3-4.2c-0.5-1.6-0.8-3.3-0.8-5.2c0-1.9,0.3-3.6,0.8-5.2
			c0.5-1.6,1.3-2.9,2.4-4c1.1-1.1,2.4-2,3.9-2.5c1.6-0.6,3.3-0.8,5.4-0.7c1.4,0.1,2.7,0.5,3.8,1.2s2.2,1.5,3.1,2.6
			c0.9,1,1.6,2.3,2.1,3.6c0.5,1.4,0.9,2.8,1,4.2L52,39.6z M51.5,35.6c0,0.2,0,0.4,0,0.7s0,0.4,0.1,0.7L62.8,33
			c-0.4-1.2-0.8-2.2-1.3-3c-0.5-0.8-1-1.5-1.5-2.1s-1-0.9-1.5-1.2c-0.5-0.2-1-0.4-1.5-0.4c-0.7,0-1.3,0.1-1.9,0.4
			c-0.5,0.3-1,0.6-1.4,1.1s-0.7,1-1,1.6c-0.3,0.6-0.5,1.2-0.7,1.9s-0.3,1.4-0.4,2.1C51.5,34.2,51.5,34.9,51.5,35.6z"/>
		<path class="st2" d="M81.1,23.6c0.7,0,1.3,0,2,0.2c0.7,0.1,1.3,0.3,1.9,0.5c0.6,0.2,1.2,0.5,1.8,0.7s1.1,0.6,1.5,0.9l4.2-5
			l-1.9,12.2c-0.2-0.8-0.6-1.7-1.1-2.5c-0.5-0.8-1.1-1.6-1.9-2.2c-0.8-0.7-1.6-1.2-2.6-1.6c-1-0.4-2.1-0.6-3.2-0.6
			c-0.7,0-1.3,0.1-1.9,0.2c-0.6,0.1-1.1,0.4-1.6,0.7c-0.4,0.3-0.8,0.7-1.1,1.2c-0.3,0.5-0.4,1-0.4,1.7c0,0.8,0.2,1.4,0.7,1.9
			s1,0.9,1.8,1.2c0.7,0.3,1.6,0.6,2.5,0.9c0.9,0.2,1.9,0.5,2.9,0.8s1.9,0.6,2.9,0.9c0.9,0.3,1.8,0.8,2.5,1.4s1.3,1.2,1.8,2.1
			c0.4,0.8,0.7,1.8,0.7,3.1c0,1.4-0.3,2.5-0.8,3.5s-1.3,1.7-2.1,2.3c-0.9,0.6-1.8,1.1-2.9,1.3c-1.1,0.3-2.1,0.4-3.1,0.4
			c-0.8,0-1.6-0.1-2.4-0.2c-0.8-0.2-1.6-0.4-2.4-0.7c-0.8-0.3-1.5-0.7-2.2-1.1c-0.7-0.4-1.3-0.8-1.9-1.3l-3.9,5l1.2-12.2
			c0.5,1.1,1.2,2.2,2,3.1c0.8,1,1.6,1.8,2.6,2.5c0.9,0.7,1.9,1.3,3,1.7s2.2,0.6,3.3,0.6c1.3,0,2.4-0.3,3.2-0.8
			c0.8-0.6,1.2-1.3,1.2-2.3c0-0.7-0.2-1.2-0.7-1.6s-1.1-0.8-1.8-1.1s-1.6-0.6-2.5-0.9c-0.9-0.3-1.9-0.6-2.9-0.9
			c-1-0.3-1.9-0.7-2.9-1.1c-0.9-0.4-1.8-0.9-2.5-1.6c-0.7-0.6-1.3-1.4-1.8-2.3c-0.4-0.9-0.7-2-0.7-3.3c0-1.1,0.2-2.1,0.5-2.9
			c0.3-0.8,0.8-1.5,1.3-2.1s1.2-1,1.9-1.4s1.4-0.6,2.1-0.8c0.7-0.2,1.4-0.3,2-0.4C80.1,23.7,80.6,23.6,81.1,23.6z"/>
		<path class="st2" d="M97.2,37.8c0-1.5,0.2-3.1,0.5-4.6s0.7-2.9,1.1-4.2l-4.4,0.3l12.4-13.1c-1,3-1.8,5.7-2.4,8.1l9.9,0.8l-1.3,2.9
			l-9.6,0.7c-0.2,1.2-0.4,2.2-0.6,3.2c-0.1,0.9-0.2,1.7-0.3,2.3c-0.1,0.8-0.1,1.4-0.2,2c0,1.6,0.1,3.1,0.3,4.4
			c0.2,1.3,0.5,2.4,1,3.3c0.4,0.9,1,1.6,1.7,2.1s1.5,0.8,2.4,0.8c0.9,0,1.6-0.2,2.2-0.5c0.6-0.3,1.1-0.8,1.4-1.3s0.6-1.1,0.8-1.8
			s0.2-1.3,0.2-2c0-0.6-0.1-1.2-0.1-1.8c0.7,0.4,1.3,0.9,1.7,1.7s0.6,1.7,0.6,2.6c0,1-0.2,1.8-0.5,2.6c-0.3,0.7-0.8,1.3-1.4,1.8
			c-0.6,0.5-1.3,0.9-2,1.1s-1.6,0.4-2.5,0.4c-0.5,0-1.2-0.1-1.9-0.2c-0.7-0.1-1.5-0.3-2.3-0.6c-0.8-0.3-1.6-0.7-2.4-1.3
			s-1.5-1.3-2.1-2.2c-0.6-0.9-1.1-2-1.5-3.2C97.4,41,97.2,39.6,97.2,37.8z"/>
		<path class="st2" d="M138.4,33.3c0,0.9,0,1.8-0.1,2.8c-0.1,1-0.2,2-0.4,3c-0.2,1-0.4,2-0.7,3s-0.6,1.9-0.9,2.7l5.4,3.7l-9.6-0.4
			l0.6-3c-1,1.2-2.2,2.2-3.5,2.8c-1.3,0.7-2.9,1-4.6,1.2c-1.4,0.1-2.7,0-3.7-0.3c-1.1-0.3-1.9-0.7-2.6-1.3c-0.7-0.6-1.2-1.3-1.6-2.2
			c-0.3-0.9-0.5-1.8-0.5-2.9c0-1,0.3-2,0.8-2.9c0.5-0.9,1.2-1.8,2.2-2.5s2.1-1.3,3.5-1.7c1.4-0.4,3-0.7,4.8-0.7
			c0.8,0,1.8,0.1,2.8,0.2s2.1,0.5,3,0.9c-0.1-1-0.2-2-0.5-3.1c-0.2-1-0.6-2-1-2.8c-0.4-0.8-1-1.5-1.7-2.1c-0.7-0.5-1.6-0.8-2.6-0.8
			c-0.9,0-1.8,0.2-2.6,0.5s-1.6,0.9-2.4,1.5c-0.7,0.7-1.4,1.5-2,2.5c-0.6,1-1.1,2.1-1.5,3.3l-2.1-12l3.2,4.8c0.8-1,1.6-1.7,2.4-2.3
			c0.8-0.6,1.6-1,2.4-1.3s1.6-0.5,2.4-0.6c0.8-0.1,1.5-0.2,2.2-0.2c1.3,0.1,2.5,0.3,3.6,0.8c1.1,0.5,2.1,1.1,2.9,1.9
			c0.8,0.8,1.5,1.9,1.9,3.1C138.1,30.3,138.4,31.7,138.4,33.3z M133.1,41.1c0-0.5,0.1-0.9,0.1-1.3c0-0.4,0-0.8,0-1.2v-0.3
			c-0.6-0.2-1.2-0.4-1.9-0.5c-0.6-0.1-1.2-0.2-1.7-0.3c-0.5-0.1-1-0.1-1.3-0.1c-0.4,0-0.6,0-0.7,0c-1,0-1.8,0.2-2.5,0.5
			c-0.7,0.3-1.3,0.7-1.8,1.2c-0.5,0.5-0.8,1-1.1,1.6c-0.2,0.6-0.3,1.1-0.3,1.7c0,1.3,0.3,2.2,1,2.9s1.6,1,2.8,1
			c0.8,0,1.6-0.1,2.3-0.4c0.7-0.3,1.4-0.7,2.1-1.1c0.6-0.5,1.2-1,1.7-1.6C132.2,42.4,132.7,41.8,133.1,41.1z"/>
		<path class="st2" d="M160.5,31.9c-0.1-0.6-0.4-1.1-0.6-1.5c-0.3-0.4-0.6-0.8-0.9-1.1c-0.4-0.3-0.7-0.5-1.1-0.7
			c-0.4-0.2-0.8-0.3-1.2-0.4c-0.9-0.2-1.9-0.2-2.9,0c-0.4,0.1-0.7,0.3-1.1,0.5c-0.4,0.2-0.8,0.5-1.2,0.9s-1,0.9-1.5,1.5l0.5,14.2
			l4.6,2.2l-13.5,1.2l3.5-3.4l1.4-17.1l-5.4-2.4l8.8-1.6l0.1,3.1c0.6-0.7,1.2-1.2,1.8-1.7s1.2-0.8,1.7-1.1c0.6-0.3,1.2-0.5,1.7-0.7
			c1-0.2,2.1-0.3,3.1-0.3c0.4,0,0.9,0.1,1.4,0.2c0.5,0.1,1,0.2,1.5,0.4c0.5,0.2,1,0.4,1.5,0.7c0.5,0.3,0.9,0.6,1.4,1.1L160.5,31.9z"
			/>
		<path class="st2" d="M166.4,37.8c0-1.5,0.2-3.1,0.5-4.6c0.3-1.5,0.7-2.9,1.1-4.2l-4.4,0.3L176,16.2c-1,3-1.8,5.7-2.4,8.1l9.9,0.8
			l-1.3,2.9l-9.6,0.7c-0.2,1.2-0.4,2.2-0.6,3.2c-0.1,0.9-0.2,1.7-0.3,2.3c-0.1,0.8-0.1,1.4-0.2,2c0,1.6,0.1,3.1,0.3,4.4
			c0.2,1.3,0.5,2.4,1,3.3c0.4,0.9,1,1.6,1.7,2.1c0.7,0.5,1.5,0.8,2.4,0.8c0.9,0,1.6-0.2,2.2-0.5c0.6-0.3,1.1-0.8,1.4-1.3
			c0.4-0.5,0.6-1.1,0.8-1.8c0.1-0.7,0.2-1.3,0.2-2c0-0.6,0-1.2-0.1-1.8c0.7,0.4,1.3,0.9,1.7,1.7s0.6,1.7,0.6,2.6
			c0,1-0.2,1.8-0.5,2.6c-0.3,0.7-0.8,1.3-1.4,1.8c-0.6,0.5-1.3,0.9-2,1.1s-1.6,0.4-2.5,0.4c-0.5,0-1.2-0.1-1.9-0.2
			c-0.7-0.1-1.5-0.3-2.3-0.6c-0.8-0.3-1.6-0.7-2.4-1.3s-1.5-1.3-2.1-2.2c-0.6-0.9-1.1-2-1.5-3.2C166.6,41,166.4,39.6,166.4,37.8z"/>
		<path class="st3" d="M41.9,39c-0.5,2.2-1.1,4.1-1.8,5.5s-1.4,2.6-2.2,3.4c-0.7,0.8-1.4,1.4-2.1,1.7c-0.6,0.3-1.1,0.5-1.4,0.5
			c-0.5,0-1.2-0.2-2-0.6c-0.8-0.4-1.7-1-2.6-1.6s-2-1.4-3-2.3c-1-0.8-2-1.7-3-2.5s-1.8-1.6-2.6-2.3c-0.8-0.7-1.5-1.3-1.9-1.8
			l0.2,6.1l5.4,2.9L8.7,49l5.4-4.8l0.9-24.7l-6.6-3.1c3.3-0.2,6.1-0.3,8.5-0.4c2.3-0.1,4.2-0.2,5.7-0.2c1.5,0,2.7,0,3.5,0
			s1.4,0,1.7,0c0.7,0,1.5,0.1,2.4,0.2s1.7,0.3,2.6,0.6c0.8,0.3,1.7,0.7,2.5,1.1s1.5,1,2.1,1.6s1.1,1.4,1.5,2.2s0.6,1.8,0.6,2.9
			c0,0.2,0,0.6-0.1,1c-0.1,0.4-0.2,0.9-0.4,1.5s-0.5,1.2-0.8,1.8c-0.4,0.6-0.9,1.3-1.5,1.9s-1.4,1.2-2.4,1.8
			c-0.9,0.6-2.1,1.1-3.4,1.6s-2.8,0.8-4.6,1.1c-1.7,0.3-3.7,0.4-6,0.5c1.1,0.8,2.3,1.7,3.6,2.6c1.3,0.9,2.6,1.7,3.9,2.5
			s2.6,1.4,3.9,1.9c1.3,0.5,2.5,0.8,3.6,0.8c0.5,0,1.1-0.1,1.7-0.2c0.6-0.1,1.2-0.3,1.8-0.7s1.2-0.8,1.7-1.3
			C41,40.6,41.5,39.9,41.9,39z M32.1,25.5c0-0.5,0-1-0.1-1.5c-0.1-0.5-0.3-1-0.5-1.5c-0.3-0.5-0.7-0.9-1.2-1.3
			c-0.5-0.4-1.2-0.8-2.1-1c-0.9-0.3-1.9-0.5-3.2-0.7c-1.3-0.2-2.8-0.3-4.5-0.3c-0.3,0-0.5,0-0.8,0c-0.3,0-0.5,0-0.8,0l0.2,13.1
			c1.1,0,2.1-0.1,3.2-0.3s2.1-0.4,3-0.7c1-0.3,1.8-0.6,2.7-1c0.8-0.4,1.5-0.8,2.1-1.3c0.6-0.5,1.1-1,1.4-1.7
			C31.9,26.9,32.1,26.2,32.1,25.5z"/>
		<path class="st3" d="M49.1,39.7c0.2,0.9,0.5,1.8,0.9,2.7s0.8,1.7,1.4,2.3c0.5,0.7,1.2,1.2,1.9,1.7c0.7,0.4,1.5,0.6,2.4,0.6
			c1.2,0,2.2-0.2,3.1-0.7s1.6-1.1,2.2-1.8s0.9-1.5,1.2-2.4s0.3-1.7,0.1-2.5c0.5,0.2,0.9,0.4,1.2,0.7c0.3,0.3,0.6,0.6,0.7,1
			s0.3,0.7,0.4,1.1s0.1,0.7,0.1,1.1c0,0.8-0.2,1.5-0.7,2.3c-0.5,0.7-1.1,1.4-2,1.9c-0.9,0.6-1.9,1-3.1,1.4c-1.2,0.3-2.5,0.5-3.8,0.5
			c-1.9,0-3.5-0.3-5-1.1c-1.5-0.7-2.7-1.7-3.7-2.9c-1-1.2-1.8-2.6-2.3-4.2c-0.5-1.6-0.8-3.3-0.8-5.2c0-1.9,0.3-3.6,0.8-5.2
			c0.5-1.6,1.3-2.9,2.4-4c1.1-1.1,2.4-2,3.9-2.5c1.6-0.6,3.3-0.8,5.4-0.7c1.4,0.1,2.7,0.5,3.8,1.2s2.2,1.5,3.1,2.6
			c0.9,1,1.6,2.3,2.1,3.6c0.5,1.4,0.9,2.8,1,4.2L49.1,39.7z M48.6,35.8c0,0.2,0,0.4,0,0.7s0,0.4,0.1,0.7l11.2-3.9
			c-0.4-1.2-0.8-2.2-1.3-3c-0.5-0.8-1-1.5-1.5-2.1s-1-0.9-1.5-1.2c-0.5-0.2-1-0.4-1.5-0.4c-0.7,0-1.3,0.1-1.9,0.4
			c-0.5,0.3-1,0.6-1.4,1.1s-0.7,1-1,1.6c-0.3,0.6-0.5,1.2-0.7,1.9s-0.3,1.4-0.4,2.1C48.6,34.4,48.6,35.1,48.6,35.8z"/>
		<path class="st3" d="M78.1,23.8c0.7,0,1.3,0,2,0.2c0.7,0.1,1.3,0.3,1.9,0.5c0.6,0.2,1.2,0.5,1.8,0.7s1.1,0.6,1.5,0.9l4.2-5
			l-1.9,12.2c-0.2-0.8-0.6-1.7-1.1-2.5c-0.5-0.8-1.1-1.6-1.9-2.2C84,28,83.1,27.4,82.1,27c-1-0.4-2.1-0.6-3.2-0.6
			c-0.7,0-1.3,0.1-1.9,0.2c-0.6,0.1-1.1,0.4-1.6,0.7c-0.4,0.3-0.8,0.7-1.1,1.2c-0.3,0.5-0.4,1-0.4,1.7c0,0.8,0.2,1.4,0.7,1.9
			s1,0.9,1.8,1.2c0.7,0.3,1.6,0.6,2.5,0.9c0.9,0.2,1.9,0.5,2.9,0.8s1.9,0.6,2.9,0.9c0.9,0.3,1.8,0.8,2.5,1.4s1.3,1.2,1.8,2.1
			c0.4,0.8,0.7,1.8,0.7,3.1c0,1.4-0.3,2.5-0.8,3.5s-1.3,1.7-2.1,2.3c-0.9,0.6-1.8,1.1-2.9,1.3c-1.1,0.3-2.1,0.4-3.1,0.4
			c-0.8,0-1.6-0.1-2.4-0.2c-0.8-0.2-1.6-0.4-2.4-0.7c-0.8-0.3-1.5-0.7-2.2-1.1c-0.7-0.4-1.3-0.8-1.9-1.3l-3.9,5l1.2-12.2
			c0.5,1.1,1.2,2.2,2,3.1c0.8,1,1.6,1.8,2.6,2.5c0.9,0.7,1.9,1.3,3,1.7s2.2,0.6,3.3,0.6c1.3,0,2.4-0.3,3.2-0.8
			c0.8-0.6,1.2-1.3,1.2-2.3c0-0.7-0.2-1.2-0.7-1.6s-1.1-0.8-1.8-1.1s-1.6-0.6-2.5-0.9c-0.9-0.3-1.9-0.6-2.9-0.9
			c-1-0.3-1.9-0.7-2.9-1.1c-0.9-0.4-1.8-0.9-2.5-1.6c-0.7-0.6-1.3-1.4-1.8-2.3c-0.4-0.9-0.7-2-0.7-3.3c0-1.1,0.2-2.1,0.5-2.9
			c0.3-0.8,0.8-1.5,1.3-2.1s1.2-1,1.9-1.4s1.4-0.6,2.1-0.8c0.7-0.2,1.4-0.3,2-0.4C77.2,23.8,77.7,23.8,78.1,23.8z"/>
		<path class="st3" d="M94.3,38c0-1.5,0.2-3.1,0.5-4.6s0.7-2.9,1.1-4.2l-4.4,0.3l12.4-13.1c-1,3-1.8,5.7-2.4,8.1l9.9,0.8l-1.3,2.9
			l-9.6,0.7c-0.2,1.2-0.4,2.2-0.6,3.2c-0.1,0.9-0.2,1.7-0.3,2.3c-0.1,0.8-0.1,1.4-0.2,2c0,1.6,0.1,3.1,0.3,4.4
			c0.2,1.3,0.5,2.4,1,3.3c0.4,0.9,1,1.6,1.7,2.1s1.5,0.8,2.4,0.8c0.9,0,1.6-0.2,2.2-0.5c0.6-0.3,1.1-0.8,1.4-1.3s0.6-1.1,0.8-1.8
			c0.1-0.7,0.2-1.3,0.2-2c0-0.6-0.1-1.2-0.1-1.8c0.7,0.4,1.3,0.9,1.7,1.7s0.6,1.7,0.6,2.6c0,1-0.2,1.8-0.5,2.6
			c-0.3,0.7-0.8,1.3-1.4,1.8c-0.6,0.5-1.3,0.9-2,1.1s-1.6,0.4-2.5,0.4c-0.5,0-1.2-0.1-1.9-0.2c-0.7-0.1-1.5-0.3-2.3-0.6
			s-1.6-0.7-2.4-1.3s-1.5-1.3-2.1-2.2c-0.6-0.9-1.1-2-1.5-3.2C94.5,41.2,94.3,39.7,94.3,38z"/>
		<path class="st3" d="M135.4,33.5c0,0.9,0,1.8-0.1,2.8c-0.1,1-0.2,2-0.4,3c-0.2,1-0.4,2-0.7,3s-0.6,1.9-0.9,2.7l5.4,3.7l-9.6-0.4
			l0.6-3c-1,1.2-2.2,2.2-3.5,2.8c-1.3,0.7-2.9,1-4.6,1.2c-1.4,0.1-2.7,0-3.7-0.3c-1.1-0.3-1.9-0.7-2.6-1.3c-0.7-0.6-1.2-1.3-1.6-2.2
			c-0.3-0.9-0.5-1.8-0.5-2.9c0-1,0.3-2,0.8-2.9c0.5-0.9,1.2-1.8,2.2-2.5s2.1-1.3,3.5-1.7c1.4-0.4,3-0.7,4.8-0.7
			c0.8,0,1.8,0.1,2.8,0.2c1.1,0.2,2.1,0.5,3,0.9c-0.1-1-0.2-2-0.5-3.1c-0.2-1-0.6-2-1-2.8c-0.4-0.8-1-1.5-1.7-2.1
			c-0.7-0.5-1.6-0.8-2.6-0.8c-0.9,0-1.8,0.2-2.6,0.5s-1.6,0.9-2.4,1.5c-0.7,0.7-1.4,1.5-2,2.5c-0.6,1-1.1,2.1-1.5,3.3l-2.1-12
			l3.2,4.8c0.8-1,1.6-1.7,2.4-2.3c0.8-0.6,1.6-1,2.4-1.3s1.6-0.5,2.4-0.6c0.8-0.1,1.5-0.2,2.2-0.2c1.3,0.1,2.5,0.3,3.6,0.8
			c1.1,0.5,2.1,1.1,2.9,1.9c0.8,0.8,1.5,1.9,1.9,3.1C135.2,30.5,135.4,31.9,135.4,33.5z M130.1,41.3c0-0.5,0.1-0.9,0.1-1.3
			c0-0.4,0-0.8,0-1.2v-0.3c-0.6-0.2-1.2-0.4-1.9-0.5c-0.6-0.1-1.2-0.2-1.7-0.3c-0.5-0.1-1-0.1-1.3-0.1s-0.6,0-0.7,0
			c-1,0-1.8,0.2-2.5,0.5s-1.3,0.7-1.8,1.2c-0.5,0.5-0.8,1-1.1,1.6c-0.2,0.6-0.3,1.1-0.3,1.7c0,1.3,0.3,2.2,1,2.9s1.6,1,2.8,1
			c0.8,0,1.6-0.1,2.3-0.4c0.7-0.3,1.4-0.7,2.1-1.1c0.6-0.5,1.2-1,1.7-1.6C129.3,42.5,129.8,41.9,130.1,41.3z"/>
		<path class="st3" d="M157.6,32c-0.1-0.6-0.4-1.1-0.6-1.5c-0.3-0.4-0.6-0.8-0.9-1.1c-0.4-0.3-0.7-0.5-1.1-0.7
			c-0.4-0.2-0.8-0.3-1.2-0.4c-0.9-0.2-1.9-0.2-2.9,0c-0.4,0.1-0.7,0.3-1.1,0.5c-0.4,0.2-0.8,0.5-1.2,0.9s-1,0.9-1.5,1.5l0.5,14.2
			l4.6,2.2L138.4,49l3.5-3.4l1.4-17.1l-5.4-2.4l8.8-1.6l0.1,3.1c0.6-0.7,1.2-1.2,1.8-1.7s1.2-0.8,1.7-1.1c0.6-0.3,1.2-0.5,1.7-0.7
			c1-0.2,2.1-0.3,3.1-0.3c0.4,0,0.9,0.1,1.4,0.2c0.5,0.1,1,0.2,1.5,0.4c0.5,0.2,1,0.4,1.5,0.7c0.5,0.3,0.9,0.6,1.4,1.1L157.6,32z"/>
		<path class="st3" d="M163.5,38c0-1.5,0.2-3.1,0.5-4.6c0.3-1.5,0.7-2.9,1.1-4.2l-4.4,0.3l12.4-13.1c-1,3-1.8,5.7-2.4,8.1l9.9,0.8
			l-1.3,2.9l-9.6,0.6c-0.2,1.2-0.4,2.2-0.5,3.2c-0.1,0.9-0.2,1.7-0.3,2.3c-0.1,0.8-0.1,1.4-0.2,2c0,1.6,0.1,3.1,0.3,4.4
			c0.2,1.3,0.5,2.4,1,3.3c0.4,0.9,1,1.6,1.7,2.1c0.7,0.5,1.5,0.8,2.4,0.8c0.9,0,1.6-0.2,2.2-0.5c0.6-0.3,1.1-0.8,1.4-1.3
			c0.4-0.5,0.6-1.1,0.8-1.8c0.1-0.7,0.2-1.3,0.2-2c0-0.6-0.1-1.2-0.1-1.8c0.7,0.4,1.3,0.9,1.7,1.7s0.6,1.7,0.6,2.6
			c0,1-0.2,1.8-0.5,2.6c-0.3,0.7-0.8,1.3-1.4,1.8c-0.6,0.5-1.3,0.9-2,1.1s-1.6,0.4-2.5,0.4c-0.5,0-1.2-0.1-1.9-0.2s-1.5-0.3-2.3-0.6
			c-0.8-0.3-1.6-0.7-2.4-1.3s-1.5-1.3-2.1-2.2c-0.6-0.9-1.1-2-1.5-3.2S163.5,39.7,163.5,38z"/>
	</g>
</g>
</svg>
