<?xml version="1.0" encoding="utf-8"?>
<!-- Generator: Adobe Illustrator 23.0.1, SVG Export Plug-In . SVG Version: 6.00 Build 0)  -->
<svg version="1.1" id="Layer_1" xmlns="http://www.w3.org/2000/svg" xmlns:xlink="http://www.w3.org/1999/xlink" x="0px" y="0px"
	 viewBox="0 0 595.28 841.89" style="enable-background:new 0 0 595.28 841.89;" xml:space="preserve">
<style type="text/css">
	.st0{fill:#6E4193;}
	.st1{opacity:0.41;fill:#6E4193;}
	.st2{fill:#FFFFFF;}
	.st3{fill:#F28D1C;}
</style>
<g>
	<path class="st0" d="M221.41,106.21H48.32c-6.6,0-12-5.4-12-12V43.74c0-6.6,5.4-12,12-12h173.09c6.6,0,12,5.4,12,12v50.46
		C233.41,100.81,228.01,106.21,221.41,106.21z"/>
	<path class="st1" d="M221.41,106.21H48.32c-6.6,0-12-5.4-12-12V43.74c0-6.6,5.4-12,12-12h173.09c6.6,0,12,5.4,12,12v50.46
		C233.41,100.81,228.01,106.21,221.41,106.21z"/>
	<path class="st0" d="M216.35,98.99H48.32c-6.6,0-12-5.4-12-12V43.74c0-6.6,5.4-12,12-12h168.03c6.6,0,12,5.4,12,12v43.24
		C228.35,93.59,222.95,98.99,216.35,98.99z"/>
	<g>
		<path class="st2" d="M81.13,70.59c-0.46,2.24-1.05,4.08-1.76,5.53c-0.71,1.45-1.44,2.59-2.17,3.42c-0.73,0.83-1.42,1.41-2.05,1.74
			c-0.64,0.33-1.12,0.49-1.44,0.49c-0.51,0-1.17-0.21-1.97-0.64c-0.8-0.42-1.68-0.97-2.64-1.64c-0.96-0.67-1.96-1.43-2.99-2.27
			c-1.03-0.84-2.02-1.68-2.97-2.51c-0.95-0.83-1.83-1.62-2.63-2.35c-0.8-0.74-1.45-1.34-1.94-1.81l0.2,6.05l5.39,2.87l-16.21,1.1
			l5.44-4.8l0.94-24.66l-6.64-3.06c3.32-0.18,6.13-0.31,8.45-0.4c2.31-0.09,4.23-0.15,5.74-0.18c1.51-0.03,2.68-0.05,3.5-0.05
			s1.39,0,1.74,0c0.73,0,1.53,0.06,2.39,0.18c0.86,0.12,1.71,0.33,2.56,0.61c0.85,0.29,1.68,0.65,2.48,1.09
			c0.8,0.44,1.51,0.98,2.12,1.62c0.61,0.64,1.1,1.38,1.47,2.22c0.37,0.84,0.55,1.79,0.55,2.86c0,0.25-0.03,0.58-0.09,1.02
			c-0.06,0.43-0.18,0.93-0.37,1.49c-0.19,0.56-0.47,1.16-0.84,1.79c-0.37,0.63-0.88,1.26-1.52,1.89c-0.64,0.63-1.43,1.24-2.36,1.83
			c-0.94,0.59-2.06,1.11-3.38,1.57c-1.32,0.46-2.85,0.83-4.59,1.11c-1.74,0.29-3.74,0.45-5.98,0.48c1.11,0.8,2.3,1.65,3.6,2.56
			c1.29,0.91,2.6,1.74,3.93,2.5c1.33,0.76,2.63,1.39,3.9,1.89c1.28,0.5,2.47,0.75,3.57,0.75c0.53,0,1.09-0.06,1.7-0.17
			c0.6-0.11,1.2-0.33,1.79-0.65c0.59-0.32,1.15-0.75,1.68-1.3C80.25,72.18,80.72,71.47,81.13,70.59z M71.31,57.13
			c0-0.51-0.04-1.01-0.13-1.52c-0.09-0.51-0.26-0.99-0.54-1.45c-0.27-0.46-0.66-0.89-1.17-1.3c-0.51-0.41-1.2-0.76-2.05-1.05
			c-0.86-0.29-1.92-0.53-3.18-0.7c-1.26-0.17-2.77-0.26-4.52-0.26c-0.27,0-0.54,0-0.79,0c-0.26,0-0.52,0.02-0.79,0.05l0.25,13.09
			c1.07-0.02,2.14-0.1,3.19-0.26c1.05-0.16,2.06-0.37,3.01-0.65c0.95-0.28,1.84-0.61,2.67-1.01c0.82-0.39,1.54-0.84,2.13-1.34
			c0.6-0.5,1.06-1.05,1.4-1.65C71.13,58.49,71.31,57.83,71.31,57.13z"/>
		<path class="st2" d="M88.3,71.32c0.22,0.92,0.52,1.81,0.89,2.68s0.83,1.65,1.38,2.34c0.54,0.69,1.17,1.24,1.89,1.67
			c0.71,0.42,1.52,0.64,2.42,0.64c1.19,0,2.23-0.24,3.11-0.71c0.88-0.47,1.61-1.07,2.17-1.8c0.56-0.73,0.95-1.53,1.17-2.4
			c0.22-0.87,0.26-1.71,0.13-2.51c0.48,0.18,0.87,0.42,1.19,0.71c0.31,0.29,0.56,0.62,0.74,0.97c0.18,0.35,0.3,0.71,0.37,1.08
			c0.07,0.37,0.1,0.72,0.1,1.07c0,0.78-0.24,1.54-0.71,2.27c-0.48,0.73-1.14,1.37-2,1.94c-0.86,0.56-1.88,1.02-3.05,1.36
			c-1.17,0.34-2.46,0.51-3.85,0.51c-1.87,0-3.54-0.35-5.01-1.05c-1.47-0.7-2.72-1.65-3.74-2.86c-1.02-1.2-1.8-2.61-2.35-4.23
			c-0.54-1.62-0.82-3.34-0.82-5.17c0-1.86,0.27-3.58,0.82-5.16c0.54-1.58,1.35-2.92,2.41-4.03c1.06-1.11,2.37-1.95,3.92-2.52
			c1.55-0.57,3.33-0.8,5.36-0.69c1.39,0.1,2.68,0.48,3.85,1.15s2.2,1.53,3.08,2.59c0.88,1.05,1.58,2.26,2.12,3.62
			c0.54,1.36,0.86,2.77,0.98,4.24L88.3,71.32z M87.82,67.37c0,0.23,0,0.45,0,0.67c0,0.22,0.02,0.45,0.05,0.67l11.2-3.92
			c-0.37-1.18-0.79-2.18-1.26-3.03c-0.47-0.84-0.96-1.53-1.47-2.07c-0.51-0.54-1.02-0.94-1.54-1.19c-0.52-0.25-1.02-0.38-1.49-0.38
			c-0.71,0-1.34,0.13-1.89,0.39c-0.54,0.26-1.02,0.62-1.42,1.07c-0.4,0.45-0.74,0.98-1.02,1.58c-0.28,0.6-0.51,1.25-0.68,1.94
			c-0.17,0.69-0.29,1.39-0.37,2.12C87.85,65.96,87.82,66.67,87.82,67.37z"/>
		<path class="st2" d="M117.4,55.36c0.65,0,1.3,0.05,1.96,0.16c0.66,0.11,1.31,0.26,1.95,0.47c0.64,0.2,1.24,0.45,1.81,0.74
			c0.57,0.29,1.08,0.6,1.54,0.94l4.19-4.95l-1.89,12.23c-0.2-0.85-0.56-1.69-1.07-2.51c-0.51-0.83-1.14-1.56-1.9-2.22
			c-0.76-0.65-1.63-1.18-2.62-1.58c-0.99-0.4-2.07-0.6-3.24-0.6c-0.65,0-1.27,0.07-1.86,0.21c-0.6,0.14-1.12,0.36-1.57,0.67
			c-0.45,0.31-0.81,0.7-1.07,1.18c-0.26,0.47-0.4,1.04-0.4,1.69c0,0.78,0.23,1.42,0.68,1.91c0.45,0.49,1.04,0.9,1.77,1.24
			c0.73,0.34,1.57,0.62,2.5,0.86c0.94,0.24,1.9,0.49,2.88,0.75s1.95,0.57,2.88,0.92c0.94,0.35,1.77,0.8,2.5,1.36
			c0.73,0.56,1.32,1.25,1.77,2.07c0.45,0.83,0.68,1.84,0.68,3.05c0,1.36-0.28,2.51-0.83,3.47c-0.55,0.96-1.26,1.74-2.13,2.35
			c-0.87,0.61-1.83,1.06-2.88,1.34c-1.06,0.28-2.08,0.42-3.09,0.42c-0.82,0-1.63-0.08-2.45-0.25c-0.82-0.16-1.61-0.39-2.37-0.69
			c-0.77-0.29-1.49-0.65-2.18-1.05c-0.69-0.41-1.31-0.85-1.88-1.32l-3.88,4.98l1.2-12.16c0.54,1.11,1.2,2.15,1.96,3.11
			c0.77,0.96,1.62,1.8,2.55,2.51c0.94,0.71,1.94,1.27,3.01,1.67c1.07,0.4,2.19,0.6,3.34,0.6c1.34,0,2.42-0.27,3.23-0.82
			c0.81-0.55,1.21-1.33,1.21-2.34c0-0.65-0.23-1.2-0.68-1.63c-0.45-0.43-1.05-0.81-1.79-1.14c-0.74-0.33-1.58-0.62-2.51-0.88
			c-0.94-0.26-1.9-0.55-2.88-0.86c-0.99-0.31-1.95-0.67-2.88-1.09c-0.94-0.42-1.77-0.94-2.51-1.57c-0.74-0.63-1.34-1.4-1.79-2.3
			c-0.45-0.91-0.68-2.01-0.68-3.3c0-1.11,0.17-2.07,0.51-2.89c0.34-0.82,0.79-1.51,1.34-2.07s1.17-1.02,1.86-1.37
			c0.69-0.35,1.38-0.62,2.08-0.81c0.7-0.19,1.36-0.31,1.99-0.38C116.42,55.4,116.95,55.36,117.4,55.36z"/>
		<path class="st2" d="M133.55,69.58c0-1.54,0.17-3.07,0.5-4.6c0.33-1.53,0.69-2.93,1.08-4.2l-4.42,0.27l12.45-13.06
			c-0.99,2.99-1.79,5.69-2.4,8.09l9.93,0.81l-1.3,2.94l-9.62,0.66c-0.24,1.19-0.42,2.25-0.55,3.17c-0.13,0.92-0.23,1.7-0.32,2.34
			c-0.09,0.75-0.14,1.41-0.18,1.96c0,1.63,0.1,3.1,0.31,4.41c0.2,1.31,0.52,2.42,0.96,3.35c0.43,0.92,0.99,1.63,1.66,2.13
			c0.67,0.5,1.48,0.75,2.41,0.75c0.87,0,1.6-0.17,2.18-0.5c0.59-0.33,1.06-0.77,1.42-1.3s0.61-1.13,0.77-1.79s0.23-1.32,0.23-1.97
			c0-0.6-0.05-1.19-0.15-1.76c0.73,0.36,1.29,0.94,1.67,1.73c0.38,0.79,0.57,1.65,0.57,2.59c0,0.96-0.17,1.81-0.5,2.55
			c-0.33,0.74-0.79,1.35-1.36,1.85c-0.58,0.5-1.26,0.88-2.04,1.14c-0.78,0.26-1.63,0.39-2.53,0.39c-0.54,0-1.19-0.06-1.93-0.17
			c-0.74-0.11-1.51-0.32-2.31-0.63c-0.8-0.3-1.59-0.73-2.37-1.29c-0.78-0.56-1.48-1.27-2.09-2.16c-0.61-0.88-1.11-1.96-1.49-3.22
			C133.74,72.79,133.55,71.3,133.55,69.58z"/>
		<path class="st2" d="M174.69,65.05c0,0.87-0.05,1.8-0.15,2.79c-0.1,1-0.25,2.01-0.45,3.04s-0.43,2.04-0.69,3.03
			c-0.26,0.99-0.55,1.9-0.86,2.73l5.44,3.68l-9.62-0.39l0.59-3.01c-1.02,1.23-2.2,2.16-3.53,2.81c-1.34,0.65-2.88,1.03-4.63,1.16
			c-1.43,0.1-2.68,0-3.74-0.28c-1.06-0.29-1.95-0.73-2.65-1.32c-0.71-0.6-1.23-1.33-1.57-2.21c-0.34-0.87-0.51-1.85-0.51-2.93
			c0-1,0.26-1.96,0.77-2.9c0.51-0.94,1.25-1.77,2.21-2.49c0.96-0.72,2.14-1.29,3.53-1.73c1.39-0.43,2.98-0.65,4.75-0.65
			c0.82,0,1.76,0.07,2.82,0.22c1.06,0.15,2.07,0.46,3.02,0.93c-0.08-1-0.24-2.01-0.47-3.05c-0.23-1.04-0.57-1.98-1.01-2.83
			c-0.44-0.85-1.02-1.54-1.72-2.07c-0.71-0.53-1.59-0.8-2.64-0.8c-0.9,0-1.78,0.18-2.63,0.54c-0.85,0.36-1.65,0.87-2.39,1.54
			c-0.74,0.67-1.41,1.49-2,2.45c-0.6,0.96-1.1,2.05-1.51,3.26l-2.14-12.01l3.24,4.78c0.8-0.95,1.61-1.7,2.42-2.27
			c0.82-0.56,1.63-1,2.44-1.3c0.81-0.3,1.59-0.5,2.35-0.6c0.76-0.1,1.48-0.15,2.18-0.15c1.31,0.07,2.52,0.32,3.64,0.77
			c1.11,0.45,2.08,1.09,2.9,1.94c0.82,0.84,1.46,1.88,1.93,3.1C174.45,62.06,174.69,63.46,174.69,65.05z M169.4,72.89
			c0.03-0.46,0.06-0.9,0.08-1.32c0.02-0.42,0.03-0.84,0.03-1.25v-0.29c-0.61-0.23-1.23-0.4-1.85-0.53c-0.62-0.12-1.2-0.21-1.72-0.27
			c-0.53-0.06-0.97-0.09-1.34-0.1c-0.37-0.01-0.61-0.01-0.73-0.01c-0.97,0.03-1.81,0.2-2.53,0.51c-0.71,0.31-1.31,0.7-1.77,1.16
			c-0.47,0.47-0.82,0.98-1.05,1.56c-0.23,0.57-0.34,1.14-0.34,1.69c0,1.26,0.32,2.21,0.96,2.86c0.64,0.65,1.57,0.97,2.79,0.97
			c0.82,0,1.59-0.14,2.32-0.42c0.73-0.28,1.42-0.65,2.05-1.12c0.64-0.47,1.22-1,1.74-1.59C168.56,74.14,169.01,73.53,169.4,72.89z"
			/>
		<path class="st2" d="M196.81,63.6c-0.15-0.6-0.37-1.12-0.65-1.54c-0.28-0.42-0.6-0.78-0.94-1.07c-0.35-0.29-0.72-0.51-1.11-0.66
			c-0.39-0.16-0.78-0.27-1.17-0.36c-0.92-0.18-1.9-0.17-2.93,0.02c-0.36,0.11-0.74,0.29-1.15,0.54c-0.36,0.23-0.77,0.54-1.23,0.92
			s-0.95,0.89-1.48,1.53l0.46,14.22l4.59,2.21l-13.53,1.15l3.5-3.41l1.43-17.06l-5.44-2.38l8.78-1.59l0.1,3.06
			c0.6-0.69,1.21-1.25,1.84-1.69c0.63-0.44,1.2-0.8,1.71-1.08c0.6-0.31,1.17-0.55,1.73-0.71c1.02-0.23,2.06-0.32,3.11-0.27
			c0.44,0.02,0.91,0.07,1.39,0.15c0.48,0.08,0.98,0.21,1.48,0.38c0.5,0.17,0.99,0.4,1.47,0.69c0.48,0.29,0.94,0.64,1.38,1.07
			L196.81,63.6z"/>
		<path class="st2" d="M202.71,69.58c0-1.54,0.17-3.07,0.5-4.6c0.33-1.53,0.69-2.93,1.08-4.2l-4.42,0.27l12.45-13.06
			c-0.99,2.99-1.79,5.69-2.4,8.09l9.93,0.81l-1.3,2.94l-9.62,0.66c-0.24,1.19-0.42,2.25-0.55,3.17c-0.13,0.92-0.23,1.7-0.32,2.34
			c-0.09,0.75-0.14,1.41-0.18,1.96c0,1.63,0.1,3.1,0.31,4.41c0.2,1.31,0.52,2.42,0.96,3.35c0.43,0.92,0.99,1.63,1.66,2.13
			c0.67,0.5,1.48,0.75,2.41,0.75c0.87,0,1.6-0.17,2.18-0.5c0.59-0.33,1.06-0.77,1.42-1.3s0.61-1.13,0.77-1.79
			c0.15-0.66,0.23-1.32,0.23-1.97c0-0.6-0.05-1.19-0.15-1.76c0.73,0.36,1.29,0.94,1.67,1.73c0.38,0.79,0.57,1.65,0.57,2.59
			c0,0.96-0.17,1.81-0.5,2.55c-0.33,0.74-0.79,1.35-1.36,1.85c-0.58,0.5-1.26,0.88-2.04,1.14c-0.78,0.26-1.63,0.39-2.53,0.39
			c-0.54,0-1.19-0.06-1.93-0.17c-0.74-0.11-1.51-0.32-2.31-0.63c-0.8-0.3-1.59-0.73-2.37-1.29c-0.78-0.56-1.48-1.27-2.09-2.16
			c-0.61-0.88-1.11-1.96-1.49-3.22C202.9,72.79,202.71,71.3,202.71,69.58z"/>
		<path class="st3" d="M78.2,70.73c-0.46,2.24-1.05,4.08-1.76,5.53c-0.71,1.45-1.44,2.59-2.17,3.42c-0.73,0.83-1.42,1.41-2.05,1.74
			c-0.64,0.33-1.12,0.49-1.44,0.49c-0.51,0-1.17-0.21-1.97-0.64c-0.8-0.42-1.68-0.97-2.64-1.64c-0.96-0.67-1.96-1.43-2.99-2.27
			c-1.03-0.84-2.02-1.68-2.97-2.51c-0.95-0.83-1.83-1.62-2.63-2.35c-0.8-0.74-1.45-1.34-1.94-1.81l0.2,6.05l5.39,2.87l-16.21,1.1
			l5.44-4.8l0.94-24.66l-6.64-3.06c3.32-0.18,6.13-0.31,8.45-0.4c2.31-0.09,4.23-0.15,5.74-0.18c1.51-0.03,2.68-0.05,3.5-0.05
			c0.82,0,1.39,0,1.74,0c0.73,0,1.53,0.06,2.39,0.18c0.86,0.12,1.71,0.33,2.56,0.61c0.85,0.29,1.68,0.65,2.48,1.09
			c0.8,0.44,1.51,0.98,2.12,1.62c0.61,0.64,1.1,1.38,1.47,2.22c0.37,0.84,0.55,1.79,0.55,2.86c0,0.25-0.03,0.58-0.09,1.02
			c-0.06,0.43-0.18,0.93-0.37,1.49c-0.19,0.56-0.47,1.16-0.84,1.79c-0.37,0.63-0.88,1.26-1.52,1.89c-0.64,0.63-1.43,1.24-2.36,1.83
			c-0.94,0.59-2.06,1.11-3.38,1.57c-1.32,0.46-2.85,0.83-4.59,1.11c-1.74,0.29-3.74,0.45-5.98,0.48c1.11,0.8,2.3,1.65,3.6,2.56
			c1.29,0.91,2.6,1.74,3.93,2.5c1.33,0.76,2.63,1.39,3.9,1.89c1.28,0.5,2.47,0.75,3.57,0.75c0.53,0,1.09-0.06,1.7-0.17
			c0.6-0.11,1.2-0.33,1.79-0.65s1.15-0.75,1.68-1.3C77.31,72.33,77.79,71.61,78.2,70.73z M68.37,57.28c0-0.51-0.04-1.01-0.13-1.52
			c-0.09-0.51-0.26-0.99-0.54-1.45c-0.27-0.46-0.66-0.89-1.17-1.3c-0.51-0.41-1.2-0.76-2.05-1.05c-0.86-0.29-1.92-0.53-3.18-0.7
			C60.04,51.09,58.54,51,56.78,51c-0.27,0-0.54,0-0.79,0c-0.26,0-0.52,0.02-0.79,0.05l0.25,13.09c1.07-0.02,2.14-0.1,3.19-0.26
			c1.05-0.16,2.06-0.37,3.01-0.65c0.95-0.28,1.84-0.61,2.67-1.01c0.82-0.39,1.54-0.84,2.13-1.34c0.6-0.5,1.06-1.05,1.4-1.65
			C68.2,58.63,68.37,57.98,68.37,57.28z"/>
		<path class="st3" d="M85.37,71.47c0.22,0.92,0.52,1.81,0.89,2.68s0.83,1.65,1.38,2.34c0.54,0.69,1.17,1.24,1.89,1.67
			c0.71,0.42,1.52,0.64,2.42,0.64c1.19,0,2.23-0.24,3.11-0.71c0.88-0.47,1.61-1.07,2.17-1.8c0.56-0.73,0.95-1.53,1.17-2.4
			c0.22-0.87,0.26-1.71,0.13-2.51c0.48,0.18,0.87,0.42,1.19,0.71c0.31,0.29,0.56,0.62,0.74,0.97c0.18,0.35,0.3,0.71,0.37,1.08
			c0.07,0.37,0.1,0.72,0.1,1.07c0,0.78-0.24,1.54-0.71,2.27c-0.48,0.73-1.14,1.37-2,1.94c-0.86,0.56-1.88,1.02-3.05,1.36
			c-1.17,0.34-2.46,0.51-3.85,0.51c-1.87,0-3.54-0.35-5.01-1.05c-1.47-0.7-2.72-1.65-3.74-2.86c-1.02-1.2-1.8-2.61-2.35-4.23
			c-0.54-1.62-0.82-3.34-0.82-5.17c0-1.86,0.27-3.58,0.82-5.16c0.54-1.58,1.35-2.92,2.41-4.03c1.06-1.11,2.37-1.95,3.92-2.52
			c1.55-0.57,3.33-0.8,5.36-0.69c1.39,0.1,2.68,0.48,3.85,1.15s2.2,1.53,3.08,2.59c0.88,1.05,1.58,2.26,2.12,3.62
			c0.54,1.36,0.86,2.77,0.98,4.24L85.37,71.47z M84.88,67.52c0,0.23,0,0.45,0,0.67s0.02,0.45,0.05,0.67l11.2-3.92
			c-0.37-1.18-0.79-2.18-1.26-3.03c-0.47-0.84-0.96-1.53-1.47-2.07c-0.51-0.54-1.02-0.94-1.54-1.19c-0.52-0.25-1.02-0.38-1.49-0.38
			c-0.71,0-1.34,0.13-1.89,0.39c-0.54,0.26-1.02,0.62-1.42,1.07c-0.4,0.45-0.74,0.98-1.02,1.58c-0.28,0.6-0.51,1.25-0.68,1.94
			c-0.17,0.69-0.29,1.39-0.37,2.12C84.92,66.1,84.88,66.82,84.88,67.52z"/>
		<path class="st3" d="M114.46,55.51c0.65,0,1.3,0.05,1.96,0.16c0.66,0.11,1.31,0.26,1.95,0.47c0.64,0.2,1.24,0.45,1.81,0.74
			c0.57,0.29,1.08,0.6,1.54,0.94l4.19-4.95l-1.89,12.23c-0.2-0.85-0.56-1.69-1.07-2.51c-0.51-0.83-1.14-1.56-1.9-2.22
			c-0.76-0.65-1.63-1.18-2.62-1.58c-0.99-0.4-2.07-0.6-3.24-0.6c-0.65,0-1.27,0.07-1.86,0.21c-0.6,0.14-1.12,0.36-1.57,0.67
			c-0.45,0.31-0.81,0.7-1.07,1.18c-0.26,0.47-0.4,1.04-0.4,1.69c0,0.78,0.23,1.42,0.68,1.91c0.45,0.49,1.04,0.9,1.77,1.24
			c0.73,0.34,1.57,0.62,2.5,0.86c0.94,0.24,1.9,0.49,2.88,0.75s1.95,0.57,2.88,0.92c0.94,0.35,1.77,0.8,2.5,1.36
			c0.73,0.56,1.32,1.25,1.77,2.07c0.45,0.83,0.68,1.84,0.68,3.05c0,1.36-0.28,2.51-0.83,3.47c-0.55,0.96-1.26,1.74-2.13,2.35
			c-0.87,0.61-1.83,1.06-2.88,1.34c-1.06,0.28-2.08,0.42-3.09,0.42c-0.82,0-1.63-0.08-2.45-0.25c-0.82-0.16-1.61-0.39-2.37-0.69
			c-0.77-0.29-1.49-0.65-2.18-1.05c-0.69-0.41-1.31-0.85-1.88-1.32l-3.88,4.98l1.2-12.16c0.54,1.11,1.2,2.15,1.96,3.11
			c0.77,0.96,1.62,1.8,2.55,2.51c0.94,0.71,1.94,1.27,3.01,1.67c1.07,0.4,2.19,0.6,3.34,0.6c1.34,0,2.42-0.27,3.23-0.82
			c0.81-0.55,1.21-1.33,1.21-2.34c0-0.65-0.23-1.2-0.68-1.63c-0.45-0.43-1.05-0.81-1.79-1.14c-0.74-0.33-1.58-0.62-2.51-0.88
			c-0.94-0.26-1.9-0.55-2.88-0.86c-0.99-0.31-1.95-0.67-2.88-1.09c-0.94-0.42-1.77-0.94-2.51-1.57c-0.74-0.63-1.34-1.4-1.79-2.3
			c-0.45-0.91-0.68-2.01-0.68-3.3c0-1.11,0.17-2.07,0.51-2.89c0.34-0.82,0.79-1.51,1.34-2.07s1.17-1.02,1.86-1.37
			c0.69-0.35,1.38-0.62,2.08-0.81c0.7-0.19,1.36-0.31,1.99-0.38C113.48,55.54,114.02,55.51,114.46,55.51z"/>
		<path class="st3" d="M130.61,69.73c0-1.54,0.17-3.07,0.5-4.6c0.33-1.53,0.69-2.93,1.08-4.2l-4.42,0.27l12.45-13.06
			c-0.99,2.99-1.79,5.69-2.4,8.09l9.93,0.81l-1.3,2.94l-9.62,0.66c-0.24,1.19-0.42,2.25-0.55,3.17c-0.13,0.92-0.23,1.7-0.32,2.34
			c-0.09,0.75-0.14,1.41-0.18,1.96c0,1.63,0.1,3.1,0.31,4.41c0.2,1.31,0.52,2.42,0.96,3.35c0.43,0.92,0.99,1.63,1.66,2.13
			c0.67,0.5,1.48,0.75,2.41,0.75c0.87,0,1.6-0.17,2.18-0.5c0.59-0.33,1.06-0.77,1.42-1.3s0.61-1.13,0.77-1.79
			c0.15-0.66,0.23-1.32,0.23-1.97c0-0.6-0.05-1.19-0.15-1.76c0.73,0.36,1.29,0.94,1.67,1.73c0.38,0.79,0.57,1.65,0.57,2.59
			c0,0.96-0.17,1.81-0.5,2.55c-0.33,0.74-0.79,1.35-1.36,1.85c-0.58,0.5-1.26,0.88-2.04,1.14c-0.78,0.26-1.63,0.39-2.53,0.39
			c-0.54,0-1.19-0.06-1.93-0.17c-0.74-0.11-1.51-0.32-2.31-0.63s-1.59-0.73-2.37-1.29c-0.78-0.56-1.48-1.27-2.09-2.16
			c-0.61-0.88-1.11-1.96-1.49-3.22C130.81,72.93,130.61,71.44,130.61,69.73z"/>
		<path class="st3" d="M171.75,65.19c0,0.87-0.05,1.8-0.15,2.79c-0.1,1-0.25,2.01-0.45,3.04c-0.2,1.03-0.43,2.04-0.69,3.03
			c-0.26,0.99-0.55,1.9-0.86,2.73l5.44,3.68l-9.62-0.39l0.59-3.01c-1.02,1.23-2.2,2.16-3.53,2.81c-1.34,0.65-2.88,1.03-4.63,1.16
			c-1.43,0.1-2.68,0-3.74-0.28c-1.06-0.29-1.95-0.73-2.65-1.32c-0.71-0.6-1.23-1.33-1.57-2.21c-0.34-0.87-0.51-1.85-0.51-2.93
			c0-1,0.26-1.96,0.77-2.9c0.51-0.94,1.25-1.77,2.21-2.49c0.96-0.72,2.14-1.29,3.53-1.73c1.39-0.43,2.98-0.65,4.75-0.65
			c0.82,0,1.76,0.07,2.82,0.22c1.06,0.15,2.07,0.46,3.02,0.93c-0.08-1-0.24-2.01-0.47-3.05c-0.23-1.04-0.57-1.98-1.01-2.83
			c-0.44-0.85-1.02-1.54-1.72-2.07c-0.71-0.53-1.59-0.8-2.64-0.8c-0.9,0-1.78,0.18-2.63,0.54c-0.85,0.36-1.65,0.87-2.39,1.54
			c-0.74,0.67-1.41,1.49-2,2.45c-0.6,0.96-1.1,2.05-1.51,3.26l-2.14-12.01l3.24,4.78c0.8-0.95,1.61-1.7,2.42-2.27
			c0.82-0.56,1.63-1,2.44-1.3c0.81-0.3,1.59-0.5,2.35-0.6c0.76-0.1,1.48-0.15,2.18-0.15c1.31,0.07,2.52,0.32,3.64,0.77
			c1.11,0.45,2.08,1.09,2.9,1.94c0.82,0.84,1.46,1.88,1.93,3.1C171.52,62.2,171.75,63.61,171.75,65.19z M166.47,73.04
			c0.03-0.46,0.06-0.9,0.08-1.32c0.02-0.42,0.03-0.84,0.03-1.25v-0.29c-0.61-0.23-1.23-0.4-1.85-0.53c-0.62-0.12-1.2-0.21-1.72-0.27
			c-0.53-0.06-0.97-0.09-1.34-0.1c-0.37-0.01-0.61-0.01-0.73-0.01c-0.97,0.03-1.81,0.2-2.53,0.51s-1.31,0.7-1.77,1.16
			c-0.47,0.47-0.82,0.98-1.05,1.56c-0.23,0.57-0.34,1.14-0.34,1.69c0,1.26,0.32,2.21,0.96,2.86c0.64,0.65,1.57,0.97,2.79,0.97
			c0.82,0,1.59-0.14,2.32-0.42c0.73-0.28,1.42-0.65,2.05-1.12c0.64-0.47,1.22-1,1.74-1.59C165.62,74.29,166.08,73.67,166.47,73.04z"
			/>
		<path class="st3" d="M193.88,63.75c-0.15-0.6-0.37-1.12-0.65-1.54c-0.28-0.42-0.6-0.78-0.94-1.07c-0.35-0.29-0.72-0.51-1.11-0.66
			c-0.39-0.16-0.78-0.27-1.17-0.36c-0.92-0.18-1.9-0.17-2.93,0.02c-0.36,0.11-0.74,0.29-1.15,0.54c-0.36,0.23-0.77,0.54-1.23,0.92
			s-0.95,0.89-1.48,1.53l0.46,14.22l4.59,2.21l-13.53,1.15l3.5-3.41l1.43-17.06l-5.44-2.38l8.78-1.59l0.1,3.06
			c0.6-0.69,1.21-1.25,1.84-1.69c0.63-0.44,1.2-0.8,1.71-1.08c0.6-0.31,1.17-0.55,1.73-0.71c1.02-0.23,2.06-0.32,3.11-0.27
			c0.44,0.02,0.91,0.07,1.39,0.15c0.48,0.08,0.98,0.21,1.48,0.38c0.5,0.17,0.99,0.4,1.47,0.69c0.48,0.29,0.94,0.64,1.38,1.07
			L193.88,63.75z"/>
		<path class="st3" d="M199.77,69.73c0-1.54,0.17-3.07,0.5-4.6c0.33-1.53,0.69-2.93,1.08-4.2l-4.42,0.27l12.45-13.06
			c-0.99,2.99-1.79,5.69-2.4,8.09l9.93,0.81l-1.3,2.94L206,60.63c-0.24,1.19-0.42,2.25-0.55,3.17c-0.13,0.92-0.23,1.7-0.32,2.34
			c-0.09,0.75-0.14,1.41-0.18,1.96c0,1.63,0.1,3.1,0.31,4.41c0.2,1.31,0.52,2.42,0.96,3.35c0.43,0.92,0.99,1.63,1.66,2.13
			c0.67,0.5,1.48,0.75,2.41,0.75c0.87,0,1.6-0.17,2.18-0.5c0.59-0.33,1.06-0.77,1.42-1.3s0.61-1.13,0.77-1.79
			c0.15-0.66,0.23-1.32,0.23-1.97c0-0.6-0.05-1.19-0.15-1.76c0.73,0.36,1.29,0.94,1.67,1.73c0.38,0.79,0.57,1.65,0.57,2.59
			c0,0.96-0.17,1.81-0.5,2.55c-0.33,0.74-0.79,1.35-1.36,1.85c-0.58,0.5-1.26,0.88-2.04,1.14c-0.78,0.26-1.63,0.39-2.53,0.39
			c-0.54,0-1.19-0.06-1.93-0.17c-0.74-0.11-1.51-0.32-2.31-0.63s-1.59-0.73-2.37-1.29c-0.78-0.56-1.48-1.27-2.09-2.16
			c-0.61-0.88-1.11-1.96-1.49-3.22S199.77,71.44,199.77,69.73z"/>
	</g>
</g>
</svg>
