<?xml version="1.0" encoding="utf-8"?>
<!-- Generator: Adobe Illustrator 23.0.1, SVG Export Plug-In . SVG Version: 6.00 Build 0)  -->
<svg version="1.1" id="Layer_1" xmlns="http://www.w3.org/2000/svg" xmlns:xlink="http://www.w3.org/1999/xlink" x="0px" y="0px"
	 viewBox="0 0 233 233.9" style="enable-background:new 0 0 233 233.9;" xml:space="preserve">
<style type="text/css">
	.st0{fill:#E6285E;}
	.st1{fill:#EA4B7B;}
	.st2{fill:#FFFFFF;}
	.st3{opacity:0.33;fill:#FFFFFF;enable-background:new    ;}
	.st4{fill:#3D3D3B;}
	.st5{fill:#B2CC31;}
	.st6{fill:#7E4F25;}
</style>
<g>
	<path class="st0" d="M99.6,84.5c0,0-29.5-45.9-59.1-14.8s19.7,123.5,33.9,127.9c14.2,4.4,10.9-4,18.6-7.8s5.2,11.7,19,9.1
		s39-66.8,40.1-70.4C153.2,124.9,182.8,22.3,99.6,84.5z"/>
	<path class="st1" d="M99,88.8c0,0-26.1-40.5-52.1-13.1s17.4,109,29.9,112.9s9.7-3.5,16.4-6.9c6.8-3.4,4.6,10.3,16.8,8
		c12.2-2.3,34.4-59,35.4-62.1C146.4,124.4,172.4,33.8,99,88.8z"/>
	<path class="st2" d="M56.1,145.3c0,0,0.3,0.7,0.8,1.8c3.1,7.3,13.6,32.2,18.7,34.8c7.2,3.7,14.2-2,13.1-1c-1.2,1.1-2.9,4.4-9.3,4.6
		C72.9,185.9,63.4,174.7,56.1,145.3z"/>
	<path class="st3" d="M58.1,77.4c5.3-3,16,8.9,16.3,15.9c0.4,8.2-13.2,23.1-23.4,12S52.8,80.4,58.1,77.4z"/>
	<ellipse class="st4" cx="121.3" cy="99.8" rx="12.6" ry="8.6"/>
	<path class="st5" d="M112.6,96.9c0,0,9.6-19.4,43.2-22.5c1.4-0.1,2.7-0.1,4.1,0.1c26.8,4.2,28-21,27.7-29.4
		c-0.1-2.1,0.2-4.2,0.9-6.2c2.1-6.1,7.3-17,14.4-6c4.5,7,5.3,16,2.4,23.9c-7.6,20.4-33.5,31.6-44.7,29
		c-13.6-3.1-36.4,16.7-36.4,21.1C124.2,110.2,105.3,109.1,112.6,96.9z"/>
	<ellipse class="st4" cx="194.9" cy="37.6" rx="0.9" ry="1.5"/>
	<ellipse class="st4" cx="199.1" cy="37.6" rx="0.9" ry="1.5"/>
	<path class="st6" d="M99.6,84.5c0,0,1.9-9.8-4.9-16.2l9.1,1.1C103.8,69.4,100.2,80.3,99.6,84.5z"/>
</g>
</svg>
