<?xml version="1.0" encoding="utf-8"?>
<!-- Generator: Adobe Illustrator 23.0.1, SVG Export Plug-In . SVG Version: 6.00 Build 0)  -->
<svg version="1.1" id="Layer_1" xmlns="http://www.w3.org/2000/svg" xmlns:xlink="http://www.w3.org/1999/xlink" x="0px" y="0px"
	 viewBox="0 0 595.28 841.89" style="enable-background:new 0 0 595.28 841.89;" xml:space="preserve">
<style type="text/css">
	.st0{fill:#E6285E;}
	.st1{fill:#EA4B7B;}
	.st2{fill:#FFFFFF;}
	.st3{opacity:0.33;fill:#FFFFFF;}
	.st4{fill:#3D3D3B;}
	.st5{fill:#B2CC31;}
	.st6{fill:#7E4F25;}
</style>
<g>
	<path class="st0" d="M99.62,84.55c0,0-29.53-45.86-59.07-14.81s19.69,123.47,33.91,127.87c14.22,4.4,10.94-3.96,18.6-7.83
		c7.66-3.87,5.18,11.68,19,9.08c13.82-2.6,38.98-66.8,40.07-70.36C153.22,124.94,182.75,22.31,99.62,84.55z"/>
	<path class="st1" d="M99.04,88.77c0,0-26.07-40.48-52.14-13.08s17.38,108.99,29.93,112.88c12.55,3.89,9.66-3.5,16.42-6.91
		c6.76-3.42,4.57,10.31,16.77,8.01c12.2-2.29,34.41-58.97,35.37-62.11C146.36,124.42,172.43,33.82,99.04,88.77z"/>
	<path class="st2" d="M56.06,145.34c0,0,0.27,0.67,0.76,1.82c3.09,7.29,13.61,32.23,18.72,34.83c7.24,3.69,14.18-2.04,13.06-0.97
		c-1.18,1.13-2.91,4.43-9.28,4.65C72.95,185.9,63.41,174.66,56.06,145.34z"/>
	<path class="st3" d="M58.1,77.39c5.3-3,16.01,8.91,16.33,15.88c0.37,8.19-13.24,23.14-23.38,12.01S52.79,80.39,58.1,77.39z"/>
	<ellipse class="st4" cx="121.34" cy="99.84" rx="12.65" ry="8.58"/>
	<path class="st5" d="M112.6,96.87c0,0,9.59-19.39,43.15-22.48c1.37-0.13,2.74-0.08,4.1,0.14c26.79,4.2,28.03-21.04,27.72-29.41
		c-0.08-2.11,0.22-4.22,0.92-6.2c2.15-6.14,7.33-17.03,14.38-5.99c4.49,7.04,5.34,15.99,2.38,23.88
		c-7.65,20.39-33.46,31.56-44.66,29.01c-13.6-3.1-36.45,16.67-36.45,21.13C124.15,110.19,105.28,109.07,112.6,96.87z"/>
	<ellipse class="st4" cx="194.85" cy="37.63" rx="0.91" ry="1.48"/>
	<ellipse class="st4" cx="199.07" cy="37.63" rx="0.91" ry="1.48"/>
	<path class="st6" d="M99.62,84.55c0,0,1.87-9.82-4.93-16.21l9.11,1.09C103.8,69.43,100.2,80.34,99.62,84.55z"/>
</g>
</svg>
