<?xml version="1.0" encoding="utf-8"?>
<!-- Generator: Adobe Illustrator 23.0.1, SVG Export Plug-In . SVG Version: 6.00 Build 0)  -->
<svg version="1.1" id="Layer_1" xmlns="http://www.w3.org/2000/svg" xmlns:xlink="http://www.w3.org/1999/xlink" x="0px" y="0px"
	 viewBox="0 0 318.7 67.2" style="enable-background:new 0 0 318.7 67.2;" xml:space="preserve">
<style type="text/css">
	.st0{fill:#6E4193;}
	.st1{fill:#FFFFFF;}
	.st2{fill:#F28D1C;}
</style>
<path class="st0" d="M298.8,67.2H19.9C9,67.2,0,61.8,0,55.2V12C0,5.4,9,0,19.9,0h278.9c11,0,19.9,5.4,19.9,12v43.2
	C318.7,61.8,309.7,67.2,298.8,67.2z"/>
<g>
	<path class="st1" d="M34.6,10.1c1.3,0,2.5,0.1,3.6,0.3c1.2,0.2,2.2,0.5,3.2,0.9c1,0.4,1.9,0.8,2.7,1.3s1.5,1,2.1,1.4l7.2-5L45.1,25
		l-0.6-8.3c-0.5-0.4-1.1-0.7-1.7-1c-0.6-0.3-1.2-0.5-1.9-0.7s-1.2-0.3-1.8-0.5c-0.6-0.1-1.1-0.2-1.5-0.3c-0.4-0.1-0.8-0.1-1.1-0.2
		c-0.3,0-0.4,0-0.4,0c-1.2,0-2.3,0.1-3.2,0.4s-1.5,0.6-2.1,1.1s-0.9,1-1.1,1.5c-0.2,0.6-0.3,1.1-0.3,1.7c0,1.2,0.2,2.2,0.7,3
		s1.2,1.5,2.2,2.2s2.2,1.2,3.7,1.8c1.5,0.5,3.3,1.1,5.3,1.8c1.2,0.4,2.4,0.9,3.5,1.6c1.1,0.7,2.1,1.4,2.9,2.3
		c0.8,0.9,1.4,1.9,1.9,2.9s0.7,2.2,0.7,3.5c0,1.4-0.2,2.7-0.6,3.8c-0.4,1.1-0.9,2.1-1.6,2.9c-0.7,0.8-1.4,1.6-2.3,2.1
		c-0.9,0.6-1.8,1.1-2.8,1.4s-1.9,0.6-2.9,0.8s-1.9,0.2-2.7,0.2c-2.5,0-4.8-0.4-6.8-1.3s-3.9-2-5.7-3.5l-7.2,4.9l8-14.2
		c0.2,1.3,0.6,2.6,1.2,3.8c0.6,1.2,1.3,2.3,2.1,3.3s1.8,1.7,2.9,2.3s2.3,0.9,3.6,0.9c1,0,2-0.2,2.8-0.5c0.9-0.3,1.6-0.7,2.2-1.3
		s1.1-1.1,1.4-1.8s0.5-1.4,0.5-2.2c0-1.1-0.3-2-0.9-2.7c-0.6-0.8-1.4-1.4-2.3-2.1c-1-0.6-2.1-1.2-3.3-1.7c-1.2-0.5-2.5-1-3.8-1.6
		c-1.3-0.5-2.5-1.1-3.8-1.8c-1.2-0.7-2.3-1.4-3.3-2.3c-1-0.9-1.7-1.9-2.3-3.1S22,21.7,22,20.1c0-1.2,0.2-2.5,0.7-3.6
		c0.5-1.2,1.2-2.3,2.3-3.2c1-0.9,2.3-1.7,3.9-2.3C30.5,10.4,32.4,10.1,34.6,10.1z"/>
	<path class="st1" d="M67,19.9c1.6,0,3,0.3,4.2,1c1.3,0.7,2.3,1.6,3.1,2.7l5.6-5.7l-4.6,15c-0.2-1.6-0.4-2.9-0.8-3.9s-0.8-2-1.2-2.7
		c-0.4-0.7-0.9-1.3-1.4-1.7c-0.5-0.4-0.9-0.7-1.4-0.9c-0.4-0.2-0.8-0.3-1.1-0.3c-0.3,0-0.5-0.1-0.6-0.1c-1.3,0-2.5,0.3-3.6,0.8
		c-1.1,0.5-2,1.3-2.7,2.3s-1.3,2.2-1.8,3.7s-0.6,3.1-0.6,4.9c0,1.8,0.2,3.3,0.6,4.7c0.4,1.4,1,2.5,1.7,3.4c0.7,0.9,1.5,1.6,2.4,2.1
		s1.8,0.7,2.8,0.7c1.1,0,2.2-0.2,3.1-0.8c1-0.5,1.8-1.2,2.5-2c0.7-0.8,1.2-1.8,1.5-2.9c0.3-1.1,0.5-2.2,0.4-3.3
		c0.2,0.2,0.5,0.4,0.7,0.8s0.5,0.6,0.7,1c0.2,0.4,0.4,0.8,0.5,1.2c0.1,0.4,0.2,0.8,0.2,1.3c0,1.3-0.3,2.4-0.9,3.4
		c-0.6,1-1.4,1.9-2.3,2.6s-2,1.2-3.2,1.6c-1.2,0.4-2.4,0.6-3.5,0.6c-0.5,0-1.2-0.1-2-0.2s-1.8-0.3-2.8-0.7c-1-0.3-2-0.8-3.1-1.5
		c-1-0.7-2-1.5-2.8-2.6s-1.5-2.4-2.1-4c-0.5-1.6-0.8-3.4-0.8-5.7c0-2,0.2-3.7,0.7-5.2s1.1-2.8,1.8-3.9c0.8-1.1,1.6-2,2.5-2.8
		s1.9-1.3,2.9-1.8c1-0.4,1.9-0.8,2.9-1C65.5,20,66.3,19.9,67,19.9z"/>
	<path class="st1" d="M81,33.7c0-2.1,0.3-4,1-5.7c0.7-1.8,1.6-3.3,2.7-4.6s2.6-2.3,4.2-3c1.6-0.7,3.4-1.1,5.3-1.1
		c1.9,0,3.6,0.3,5.1,1c1.6,0.7,2.9,1.7,4,2.9c1.1,1.2,2.1,2.8,2.7,4.5c0.7,1.8,1.1,3.7,1.2,5.8c0.1,2.3-0.1,4.3-0.7,6.2
		s-1.5,3.4-2.6,4.7s-2.6,2.3-4.2,3c-1.6,0.7-3.4,1.1-5.2,1.1c-1.8,0-3.5-0.3-5.2-1c-1.6-0.7-3.1-1.6-4.3-2.9s-2.2-2.8-3-4.6
		C81.3,38.1,81,36,81,33.7z M87.8,34.1c0,1.6,0.2,3.1,0.7,4.4c0.5,1.3,1.1,2.4,1.9,3.3c0.8,0.9,1.7,1.6,2.7,2.1
		c1,0.5,2.1,0.8,3.2,0.8c1.1,0,2.2-0.2,3.2-0.7c1-0.5,1.8-1.2,2.6-2.1s1.3-2,1.7-3.2c0.4-1.2,0.6-2.7,0.6-4.2c0-1.5-0.2-2.9-0.6-4.3
		c-0.4-1.3-1-2.5-1.7-3.5c-0.7-1-1.6-1.8-2.6-2.3s-2.1-0.9-3.3-0.9c-1.1,0-2.1,0.2-3.1,0.7c-1,0.5-1.9,1.2-2.6,2.1
		c-0.8,0.9-1.4,2-1.9,3.3C88,31,87.8,32.5,87.8,34.1z"/>
	<path class="st1" d="M129.5,28.7c-0.2-0.7-0.4-1.3-0.7-1.7s-0.6-0.9-1-1.2s-0.8-0.6-1.2-0.8s-0.9-0.3-1.3-0.4c-1-0.2-2.1-0.2-3.2,0
		c-0.4,0.1-0.8,0.3-1.2,0.6c-0.4,0.3-0.8,0.6-1.3,1s-1,1-1.6,1.7l0.5,16.1l5,2.5l-14.7,1.3l3.8-3.8l1.6-19.3l-5.9-2.7l9.5-1.8
		l0.1,3.5c0.6-0.8,1.3-1.4,2-1.9c0.7-0.5,1.3-0.9,1.9-1.2c0.6-0.3,1.3-0.6,1.9-0.8c1.1-0.3,2.2-0.4,3.4-0.3c0.5,0,1,0.1,1.5,0.2
		c0.5,0.1,1.1,0.2,1.6,0.4c0.5,0.2,1.1,0.5,1.6,0.8c0.5,0.3,1,0.7,1.5,1.2L129.5,28.7z"/>
	<path class="st1" d="M140.1,37.4c0.2,1,0.6,2,1,3s0.9,1.9,1.5,2.6c0.6,0.8,1.3,1.4,2.1,1.9c0.8,0.5,1.6,0.7,2.6,0.7
		c1.3,0,2.4-0.3,3.4-0.8c1-0.5,1.7-1.2,2.4-2s1-1.7,1.3-2.7s0.3-1.9,0.1-2.8c0.5,0.2,0.9,0.5,1.3,0.8s0.6,0.7,0.8,1.1
		c0.2,0.4,0.3,0.8,0.4,1.2c0.1,0.4,0.1,0.8,0.1,1.2c0,0.9-0.3,1.7-0.8,2.6c-0.5,0.8-1.2,1.6-2.2,2.2s-2,1.2-3.3,1.5
		s-2.7,0.6-4.2,0.6c-2,0-3.8-0.4-5.4-1.2s-2.9-1.9-4.1-3.2s-2-2.9-2.6-4.8s-0.9-3.8-0.9-5.8c0-2.1,0.3-4.1,0.9-5.8
		c0.6-1.8,1.5-3.3,2.6-4.5s2.6-2.2,4.2-2.8c1.7-0.7,3.6-0.9,5.8-0.8c1.5,0.1,2.9,0.5,4.2,1.3s2.4,1.7,3.3,2.9
		c0.9,1.2,1.7,2.5,2.3,4.1c0.6,1.5,0.9,3.1,1.1,4.8L140.1,37.4z M139.6,32.9c0,0.3,0,0.5,0,0.8s0,0.5,0.1,0.8l12.1-4.4
		c-0.4-1.3-0.9-2.5-1.4-3.4c-0.5-1-1-1.7-1.6-2.3s-1.1-1.1-1.7-1.3c-0.6-0.3-1.1-0.4-1.6-0.4c-0.8,0-1.5,0.2-2.1,0.4
		c-0.6,0.3-1.1,0.7-1.5,1.2c-0.4,0.5-0.8,1.1-1.1,1.8c-0.3,0.7-0.6,1.4-0.7,2.2c-0.2,0.8-0.3,1.6-0.4,2.4S139.6,32.1,139.6,32.9z"/>
	<path class="st1" d="M170.9,25c0,0.6-0.1,1.1-0.5,1.5c-0.3,0.4-0.7,0.8-1.1,1s-0.9,0.5-1.4,0.6c-0.5,0.1-0.9,0.2-1.2,0.2
		c-0.4,0-0.8-0.1-1.3-0.2c-0.5-0.1-0.9-0.3-1.4-0.6c-0.4-0.3-0.8-0.6-1.1-1c-0.3-0.4-0.4-0.9-0.4-1.5c0-0.6,0.1-1.2,0.4-1.6
		s0.7-0.8,1.1-1.1c0.4-0.3,0.9-0.5,1.4-0.6c0.5-0.1,0.9-0.2,1.3-0.2c0.4,0,0.8,0.1,1.2,0.2c0.5,0.1,0.9,0.3,1.4,0.6
		c0.4,0.3,0.8,0.7,1.1,1.1S170.9,24.4,170.9,25z M170.9,46c0,0.6-0.1,1.1-0.5,1.5s-0.7,0.8-1.1,1c-0.4,0.3-0.9,0.5-1.4,0.6
		c-0.5,0.1-0.9,0.2-1.2,0.2c-0.4,0-0.8-0.1-1.3-0.2s-0.9-0.3-1.4-0.6c-0.4-0.3-0.8-0.6-1.1-1s-0.4-0.9-0.4-1.5
		c0-0.6,0.1-1.2,0.4-1.6s0.7-0.8,1.1-1.1c0.4-0.3,0.9-0.5,1.4-0.6c0.5-0.1,0.9-0.2,1.3-0.2c0.4,0,0.8,0.1,1.2,0.2
		c0.5,0.1,0.9,0.3,1.4,0.6c0.4,0.3,0.8,0.7,1.1,1.1S170.9,45.3,170.9,46z"/>
	<path class="st2" d="M31.4,10.2c1.2,0,2.5,0.1,3.6,0.3c1.2,0.2,2.2,0.5,3.2,0.9c1,0.4,1.9,0.8,2.7,1.3s1.5,1,2.1,1.4l7.2-5
		l-8.3,15.9l-0.6-8.3c-0.5-0.4-1.1-0.7-1.7-1c-0.6-0.3-1.2-0.5-1.9-0.7s-1.2-0.3-1.8-0.5c-0.6-0.1-1.1-0.2-1.5-0.3s-0.8-0.1-1.1-0.2
		c-0.3,0-0.4,0-0.4,0c-1.2,0-2.3,0.1-3.2,0.4s-1.5,0.6-2.1,1.1s-0.9,1-1.1,1.5c-0.2,0.6-0.3,1.1-0.3,1.7c0,1.2,0.2,2.2,0.7,3
		s1.2,1.5,2.2,2.2s2.2,1.2,3.7,1.8c1.5,0.5,3.3,1.1,5.3,1.8c1.2,0.4,2.4,0.9,3.5,1.6c1.1,0.6,2.1,1.4,2.9,2.3
		c0.8,0.9,1.4,1.9,1.9,2.9s0.7,2.2,0.7,3.5c0,1.4-0.2,2.7-0.6,3.8c-0.4,1.1-0.9,2.1-1.6,2.9c-0.7,0.8-1.4,1.6-2.3,2.1
		c-0.9,0.6-1.8,1.1-2.8,1.4s-1.9,0.6-2.9,0.8s-1.9,0.2-2.7,0.2c-2.5,0-4.8-0.4-6.8-1.3s-3.9-2-5.7-3.5l-7.2,4.9l8-14.2
		c0.2,1.3,0.6,2.6,1.2,3.8c0.6,1.2,1.3,2.3,2.1,3.3s1.8,1.7,2.9,2.3s2.3,0.9,3.6,0.9c1,0,2-0.2,2.8-0.5s1.6-0.7,2.2-1.3
		s1.1-1.1,1.4-1.8s0.5-1.4,0.5-2.2c0-1.1-0.3-2-0.9-2.7c-0.6-0.8-1.4-1.4-2.3-2.1c-1-0.6-2-1.2-3.3-1.7s-2.5-1-3.8-1.6
		c-1.3-0.5-2.5-1.1-3.8-1.8C24,29.1,23,28.4,22,27.5c-1-0.9-1.7-1.9-2.3-3.1s-0.9-2.6-0.9-4.2c0-1.2,0.2-2.5,0.7-3.6
		c0.5-1.2,1.2-2.3,2.3-3.2c1-0.9,2.3-1.7,3.9-2.3C27.3,10.5,29.2,10.2,31.4,10.2z"/>
	<path class="st2" d="M63.8,20.1c1.5,0,3,0.3,4.2,1c1.3,0.7,2.3,1.6,3.1,2.7l5.6-5.7l-4.6,15c-0.2-1.6-0.4-2.9-0.8-3.9
		s-0.8-2-1.2-2.7c-0.4-0.7-0.9-1.3-1.4-1.7c-0.5-0.4-0.9-0.7-1.4-0.9c-0.4-0.2-0.8-0.3-1.1-0.3c-0.3,0-0.5-0.1-0.6-0.1
		c-1.3,0-2.5,0.3-3.6,0.8c-1.1,0.5-2,1.3-2.8,2.3s-1.3,2.2-1.8,3.7S57,33.4,57,35.2c0,1.8,0.2,3.3,0.6,4.7c0.4,1.4,1,2.5,1.7,3.4
		c0.7,0.9,1.5,1.6,2.4,2.1s1.8,0.7,2.8,0.7c1.1,0,2.2-0.2,3.1-0.8c1-0.5,1.8-1.2,2.5-2c0.7-0.8,1.2-1.8,1.5-2.9
		c0.3-1.1,0.5-2.2,0.4-3.3c0.2,0.2,0.5,0.4,0.7,0.8s0.5,0.6,0.7,1c0.2,0.4,0.4,0.8,0.5,1.2c0.1,0.4,0.2,0.8,0.2,1.3
		c0,1.3-0.3,2.4-0.9,3.4c-0.6,1-1.4,1.9-2.3,2.6s-2,1.2-3.2,1.6c-1.2,0.4-2.4,0.6-3.5,0.6c-0.5,0-1.2-0.1-2-0.2s-1.8-0.3-2.8-0.7
		c-1-0.3-2-0.8-3.1-1.5c-1-0.7-2-1.5-2.8-2.6s-1.5-2.4-2.1-4c-0.5-1.6-0.8-3.4-0.8-5.7c0-2,0.2-3.7,0.7-5.2s1.1-2.8,1.8-3.9
		c0.8-1.1,1.6-2,2.5-2.8s1.9-1.3,2.9-1.8c1-0.4,1.9-0.8,2.9-1C62.3,20.2,63.1,20.1,63.8,20.1z"/>
	<path class="st2" d="M77.8,33.8c0-2.1,0.3-4,1-5.7c0.7-1.8,1.6-3.3,2.7-4.6s2.6-2.3,4.2-3c1.6-0.7,3.4-1.1,5.3-1.1
		c1.9,0,3.6,0.3,5.1,1c1.6,0.7,2.9,1.7,4,2.9c1.1,1.2,2.1,2.8,2.7,4.5c0.7,1.8,1.1,3.7,1.2,5.8c0.1,2.3-0.1,4.3-0.7,6.2
		s-1.5,3.4-2.6,4.7s-2.6,2.3-4.2,3c-1.6,0.7-3.4,1.1-5.2,1.1c-1.8,0-3.5-0.3-5.2-1c-1.6-0.7-3.1-1.6-4.3-2.9s-2.2-2.8-3-4.6
		C78.2,38.2,77.8,36.2,77.8,33.8z M84.6,34.3c0,1.6,0.2,3.1,0.7,4.4c0.5,1.3,1.1,2.4,1.8,3.3c0.8,0.9,1.7,1.6,2.7,2.1
		c1,0.5,2.1,0.8,3.2,0.8c1.1,0,2.2-0.2,3.2-0.7c1-0.5,1.8-1.2,2.5-2.1c0.7-0.9,1.3-2,1.7-3.2c0.4-1.2,0.6-2.7,0.6-4.2
		c0-1.5-0.2-2.9-0.6-4.3s-1-2.5-1.7-3.5c-0.7-1-1.6-1.8-2.6-2.3s-2.1-0.9-3.3-0.9c-1.1,0-2.1,0.2-3.1,0.7c-1,0.5-1.9,1.2-2.6,2.1
		c-0.8,0.9-1.4,2-1.9,3.3C84.8,31.1,84.6,32.6,84.6,34.3z"/>
	<path class="st2" d="M126.4,28.8c-0.2-0.7-0.4-1.3-0.7-1.7s-0.6-0.9-1-1.2s-0.8-0.6-1.2-0.8s-0.9-0.3-1.3-0.4c-1-0.2-2.1-0.2-3.2,0
		c-0.4,0.1-0.8,0.3-1.2,0.6c-0.4,0.3-0.8,0.6-1.3,1s-1,1-1.6,1.7l0.5,16.1l5,2.5L105.6,48l3.8-3.8l1.6-19.3l-5.9-2.7l9.5-1.8
		l0.1,3.5c0.6-0.8,1.3-1.4,2-1.9c0.7-0.5,1.3-0.9,1.9-1.2c0.6-0.3,1.3-0.6,1.9-0.8c1.1-0.3,2.2-0.4,3.4-0.3c0.5,0,1,0.1,1.5,0.2
		c0.5,0.1,1.1,0.2,1.6,0.4c0.5,0.2,1.1,0.5,1.6,0.8c0.5,0.3,1,0.7,1.5,1.2L126.4,28.8z"/>
	<path class="st2" d="M136.9,37.6c0.2,1,0.6,2,1,3s0.9,1.9,1.5,2.6c0.6,0.8,1.3,1.4,2.1,1.9c0.8,0.5,1.6,0.7,2.6,0.7
		c1.3,0,2.4-0.3,3.4-0.8c1-0.5,1.7-1.2,2.4-2s1-1.7,1.3-2.7s0.3-1.9,0.1-2.8c0.5,0.2,0.9,0.5,1.3,0.8s0.6,0.7,0.8,1.1
		c0.2,0.4,0.3,0.8,0.4,1.2c0.1,0.4,0.1,0.8,0.1,1.2c0,0.9-0.3,1.7-0.8,2.6c-0.5,0.8-1.2,1.6-2.2,2.2s-2,1.2-3.3,1.5
		s-2.7,0.6-4.2,0.6c-2,0-3.8-0.4-5.4-1.2s-2.9-1.9-4.1-3.2s-2-2.9-2.6-4.8s-0.9-3.8-0.9-5.8c0-2.1,0.3-4.1,0.9-5.8
		c0.6-1.8,1.5-3.3,2.6-4.5s2.6-2.2,4.2-2.8c1.7-0.7,3.6-0.9,5.8-0.8c1.5,0.1,2.9,0.5,4.2,1.3s2.4,1.7,3.3,2.9
		c0.9,1.2,1.7,2.5,2.3,4.1c0.6,1.5,0.9,3.1,1.1,4.8L136.9,37.6z M136.4,33.1c0,0.3,0,0.5,0,0.8s0,0.5,0.1,0.8l12.1-4.4
		c-0.4-1.3-0.9-2.5-1.4-3.4c-0.5-1-1-1.7-1.6-2.3s-1.1-1.1-1.7-1.3c-0.6-0.3-1.1-0.4-1.6-0.4c-0.8,0-1.5,0.2-2.1,0.4
		c-0.6,0.3-1.1,0.7-1.5,1.2c-0.4,0.5-0.8,1.1-1.1,1.8c-0.3,0.7-0.6,1.4-0.7,2.2c-0.2,0.8-0.3,1.6-0.4,2.4S136.4,32.3,136.4,33.1z"/>
	<path class="st2" d="M167.7,25.2c0,0.6-0.1,1.1-0.5,1.5c-0.3,0.4-0.7,0.8-1.1,1s-0.9,0.5-1.4,0.6c-0.5,0.1-0.9,0.2-1.2,0.2
		c-0.4,0-0.8-0.1-1.3-0.2c-0.5-0.1-0.9-0.3-1.4-0.6c-0.4-0.3-0.8-0.6-1.1-1c-0.3-0.4-0.4-0.9-0.4-1.5c0-0.6,0.1-1.2,0.4-1.6
		s0.7-0.8,1.1-1.1c0.4-0.3,0.9-0.5,1.4-0.6c0.5-0.1,0.9-0.2,1.3-0.2c0.4,0,0.8,0.1,1.2,0.2c0.5,0.1,0.9,0.3,1.4,0.6
		c0.4,0.3,0.8,0.7,1.1,1.1S167.7,24.5,167.7,25.2z M167.7,46.1c0,0.6-0.1,1.1-0.5,1.5s-0.7,0.8-1.1,1c-0.4,0.3-0.9,0.5-1.4,0.6
		c-0.5,0.1-0.9,0.2-1.2,0.2c-0.4,0-0.8-0.1-1.3-0.2s-0.9-0.3-1.4-0.6c-0.4-0.3-0.8-0.6-1.1-1s-0.4-0.9-0.4-1.5
		c0-0.6,0.1-1.2,0.4-1.6s0.7-0.8,1.1-1.1c0.4-0.3,0.9-0.5,1.4-0.6c0.5-0.1,0.9-0.2,1.3-0.2c0.4,0,0.8,0.1,1.2,0.2
		c0.5,0.1,0.9,0.3,1.4,0.6c0.4,0.3,0.8,0.7,1.1,1.1S167.7,45.5,167.7,46.1z"/>
</g>
</svg>
