<?xml version="1.0" encoding="utf-8"?>
<!-- Generator: Adobe Illustrator 23.0.1, SVG Export Plug-In . SVG Version: 6.00 Build 0)  -->
<svg version="1.1" id="Layer_1" xmlns="http://www.w3.org/2000/svg" xmlns:xlink="http://www.w3.org/1999/xlink" x="0px" y="0px"
	 viewBox="0 0 595.28 841.89" style="enable-background:new 0 0 595.28 841.89;" xml:space="preserve">
<style type="text/css">
	.st0{fill:#FFFFFF;}
	.st1{fill:#F28D1C;}
</style>
<g>
	<path class="st0" d="M63.88,45.17c1.25,0,2.46,0.12,3.61,0.35c1.15,0.23,2.23,0.54,3.23,0.91c1,0.38,1.9,0.81,2.71,1.29
		c0.81,0.48,1.5,0.96,2.08,1.44l7.2-4.96l-8.28,15.89l-0.64-8.33c-0.54-0.37-1.11-0.7-1.73-0.98c-0.62-0.29-1.24-0.53-1.86-0.72
		s-1.21-0.35-1.79-0.47c-0.57-0.12-1.08-0.22-1.52-0.29c-0.44-0.07-0.8-0.12-1.07-0.15c-0.27-0.03-0.41-0.04-0.43-0.04
		c-1.25,0-2.31,0.14-3.16,0.42c-0.85,0.28-1.54,0.64-2.06,1.08s-0.9,0.95-1.13,1.51c-0.23,0.56-0.35,1.13-0.35,1.7
		c0,1.16,0.24,2.15,0.72,2.95c0.48,0.8,1.21,1.52,2.19,2.15c0.98,0.63,2.22,1.21,3.74,1.76c1.51,0.54,3.29,1.13,5.34,1.76
		c1.24,0.39,2.4,0.91,3.5,1.56s2.05,1.42,2.87,2.3c0.81,0.88,1.45,1.85,1.92,2.93s0.71,2.24,0.71,3.47c0,1.44-0.2,2.72-0.61,3.83
		c-0.41,1.12-0.95,2.09-1.62,2.93c-0.67,0.84-1.45,1.55-2.34,2.13c-0.89,0.58-1.8,1.05-2.75,1.41s-1.91,0.62-2.88,0.77
		S67.61,84,66.76,84c-2.49,0-4.75-0.42-6.78-1.27s-3.92-2.01-5.67-3.49l-7.2,4.93l8.03-14.23c0.22,1.33,0.61,2.61,1.18,3.83
		c0.56,1.23,1.26,2.32,2.09,3.28c0.83,0.96,1.79,1.73,2.88,2.3c1.09,0.57,2.28,0.86,3.57,0.86c1.03,0,1.98-0.16,2.84-0.47
		c0.86-0.31,1.59-0.73,2.2-1.26c0.61-0.53,1.08-1.14,1.43-1.83s0.51-1.42,0.51-2.17c0-1.05-0.3-1.96-0.89-2.73
		c-0.59-0.77-1.37-1.45-2.33-2.05c-0.96-0.6-2.05-1.15-3.28-1.66c-1.23-0.51-2.49-1.03-3.78-1.56c-1.29-0.53-2.55-1.13-3.78-1.77
		c-1.23-0.65-2.32-1.41-3.28-2.28c-0.96-0.88-1.74-1.91-2.33-3.09c-0.59-1.18-0.89-2.57-0.89-4.18c0-1.24,0.24-2.45,0.73-3.64
		c0.49-1.19,1.25-2.26,2.27-3.2c1.02-0.94,2.33-1.7,3.92-2.28C59.79,45.46,61.69,45.17,63.88,45.17z"/>
	<path class="st0" d="M96.35,54.99c1.55,0,2.96,0.34,4.22,1.01c1.26,0.67,2.28,1.58,3.06,2.73l5.59-5.67l-4.59,14.98
		c-0.17-1.55-0.42-2.87-0.78-3.94s-0.75-1.97-1.2-2.69c-0.45-0.71-0.92-1.26-1.41-1.65c-0.49-0.39-0.94-0.67-1.36-0.86
		c-0.42-0.18-0.77-0.29-1.08-0.33c-0.3-0.04-0.49-0.06-0.57-0.06c-1.33,0-2.53,0.26-3.6,0.77c-1.07,0.52-1.99,1.27-2.75,2.27
		s-1.35,2.22-1.76,3.67s-0.61,3.1-0.61,4.94c0,1.77,0.21,3.34,0.64,4.69c0.42,1.36,0.99,2.5,1.69,3.42c0.7,0.92,1.5,1.62,2.41,2.09
		s1.84,0.71,2.8,0.71c1.12,0,2.17-0.25,3.13-0.76c0.96-0.51,1.78-1.18,2.46-2.01s1.19-1.79,1.54-2.87c0.34-1.08,0.46-2.19,0.35-3.34
		c0.22,0.2,0.46,0.45,0.71,0.75c0.25,0.3,0.48,0.62,0.69,0.98s0.38,0.75,0.51,1.16c0.13,0.42,0.19,0.84,0.19,1.26
		c0,1.26-0.3,2.39-0.9,3.39c-0.6,1.01-1.37,1.86-2.31,2.56c-0.94,0.7-2,1.24-3.18,1.62c-1.18,0.38-2.35,0.57-3.52,0.57
		c-0.5,0-1.18-0.06-2.04-0.17c-0.86-0.11-1.79-0.34-2.8-0.68c-1.01-0.34-2.03-0.84-3.06-1.48c-1.03-0.65-1.97-1.5-2.81-2.57
		s-1.53-2.39-2.06-3.96c-0.54-1.57-0.8-3.45-0.8-5.65c0-1.96,0.23-3.69,0.68-5.19c0.45-1.5,1.05-2.81,1.8-3.92
		c0.75-1.11,1.59-2.03,2.53-2.77c0.94-0.74,1.9-1.33,2.88-1.77c0.98-0.44,1.93-0.76,2.87-0.96C94.83,55.09,95.65,54.99,96.35,54.99z
		"/>
	<path class="st0" d="M110.3,68.75c0-2.07,0.33-3.98,0.98-5.74c0.66-1.76,1.57-3.29,2.74-4.58c1.17-1.29,2.56-2.3,4.18-3.03
		c1.61-0.73,3.38-1.09,5.3-1.09c1.86,0,3.57,0.35,5.12,1.04c1.55,0.69,2.9,1.67,4.04,2.92c1.14,1.25,2.06,2.76,2.74,4.51
		c0.68,1.75,1.09,3.69,1.22,5.81c0.13,2.27-0.11,4.32-0.71,6.16c-0.6,1.84-1.48,3.4-2.64,4.68c-1.16,1.28-2.55,2.27-4.17,2.98
		c-1.61,0.7-3.36,1.05-5.25,1.05c-1.81,0-3.53-0.33-5.16-0.98c-1.63-0.65-3.07-1.61-4.32-2.86c-1.25-1.25-2.24-2.79-2.98-4.61
		C110.67,73.18,110.3,71.1,110.3,68.75z M117.11,69.22c0,1.62,0.23,3.09,0.69,4.4c0.46,1.31,1.08,2.42,1.85,3.34
		c0.78,0.91,1.67,1.62,2.69,2.12c1.01,0.5,2.08,0.75,3.21,0.75c1.12,0,2.18-0.24,3.16-0.73c0.98-0.49,1.83-1.18,2.55-2.08
		c0.72-0.9,1.28-1.97,1.69-3.23c0.41-1.25,0.61-2.65,0.61-4.18c0-1.51-0.2-2.94-0.61-4.28c-0.41-1.34-0.97-2.51-1.7-3.5
		c-0.73-1-1.59-1.78-2.59-2.35c-1-0.57-2.09-0.86-3.27-0.86c-1.05,0-2.07,0.24-3.06,0.72c-0.99,0.48-1.87,1.18-2.64,2.09
		c-0.78,0.91-1.4,2.03-1.87,3.34C117.35,66.08,117.11,67.56,117.11,69.22z"/>
	<path class="st0" d="M158.86,63.77c-0.17-0.68-0.4-1.26-0.71-1.74s-0.65-0.88-1.02-1.2s-0.78-0.57-1.2-0.75
		c-0.42-0.18-0.85-0.31-1.27-0.4c-1-0.2-2.06-0.19-3.18,0.03c-0.39,0.13-0.8,0.33-1.25,0.61c-0.39,0.26-0.83,0.6-1.33,1.04
		s-1.03,1.01-1.61,1.73l0.5,16.06l4.98,2.49l-14.67,1.3l3.79-3.85l1.55-19.27l-5.9-2.69l9.52-1.8l0.11,3.46
		c0.65-0.78,1.31-1.41,1.99-1.91c0.68-0.5,1.3-0.9,1.85-1.22c0.65-0.35,1.27-0.62,1.88-0.8c1.11-0.26,2.23-0.36,3.38-0.3
		c0.48,0.02,0.98,0.07,1.51,0.17c0.53,0.09,1.06,0.24,1.61,0.43c0.54,0.19,1.07,0.45,1.59,0.77c0.52,0.32,1.01,0.72,1.49,1.2
		L158.86,63.77z"/>
	<path class="st0" d="M169.4,72.49c0.24,1.03,0.56,2.04,0.97,3.03s0.9,1.87,1.5,2.64c0.59,0.77,1.27,1.4,2.05,1.88
		c0.77,0.48,1.65,0.72,2.63,0.72c1.29,0,2.42-0.27,3.38-0.8c0.96-0.54,1.74-1.21,2.35-2.03c0.61-0.82,1.03-1.73,1.27-2.71
		s0.29-1.93,0.14-2.84c0.52,0.2,0.95,0.47,1.29,0.8c0.34,0.33,0.61,0.7,0.8,1.09c0.19,0.4,0.33,0.8,0.4,1.22
		c0.07,0.42,0.11,0.82,0.11,1.2c0,0.89-0.26,1.74-0.77,2.56c-0.52,0.82-1.24,1.55-2.17,2.19c-0.93,0.64-2.04,1.15-3.31,1.54
		c-1.27,0.39-2.67,0.58-4.18,0.58c-2.03,0-3.84-0.4-5.44-1.19c-1.6-0.79-2.95-1.87-4.06-3.23s-1.96-2.95-2.55-4.77
		s-0.89-3.77-0.89-5.84c0-2.1,0.29-4.05,0.89-5.83c0.59-1.78,1.46-3.3,2.62-4.55s2.57-2.21,4.25-2.85c1.68-0.65,3.62-0.9,5.81-0.77
		c1.51,0.11,2.91,0.54,4.18,1.3s2.38,1.73,3.34,2.92c0.95,1.19,1.72,2.55,2.3,4.08c0.58,1.53,0.94,3.13,1.07,4.79L169.4,72.49z
		 M168.88,68.03c0,0.26,0,0.51,0,0.76s0.02,0.5,0.05,0.76l12.15-4.43c-0.41-1.33-0.86-2.47-1.37-3.42
		c-0.51-0.95-1.04-1.73-1.59-2.34c-0.55-0.61-1.11-1.06-1.67-1.34c-0.56-0.29-1.1-0.43-1.62-0.43c-0.78,0-1.46,0.15-2.05,0.44
		c-0.59,0.3-1.1,0.7-1.54,1.2c-0.43,0.51-0.8,1.1-1.11,1.79c-0.3,0.68-0.55,1.41-0.73,2.19c-0.18,0.77-0.32,1.57-0.4,2.39
		S168.88,67.24,168.88,68.03z"/>
	<path class="st0" d="M200.19,60.09c0,0.59-0.15,1.1-0.46,1.52c-0.3,0.42-0.68,0.77-1.12,1.04c-0.44,0.27-0.9,0.47-1.38,0.6
		c-0.48,0.13-0.9,0.19-1.25,0.19c-0.39,0-0.82-0.06-1.3-0.19c-0.48-0.13-0.93-0.33-1.36-0.6c-0.42-0.27-0.79-0.61-1.08-1.04
		c-0.29-0.42-0.44-0.93-0.44-1.52c0-0.63,0.15-1.16,0.44-1.61s0.66-0.81,1.08-1.09c0.42-0.29,0.88-0.49,1.36-0.62
		c0.48-0.13,0.91-0.19,1.3-0.19c0.35,0,0.77,0.06,1.25,0.19c0.48,0.13,0.94,0.34,1.38,0.62c0.44,0.29,0.82,0.65,1.12,1.09
		S200.19,59.46,200.19,60.09z M200.19,81.07c0,0.59-0.15,1.1-0.46,1.52s-0.68,0.77-1.12,1.04c-0.44,0.27-0.9,0.46-1.38,0.58
		c-0.48,0.12-0.9,0.18-1.25,0.18c-0.39,0-0.82-0.06-1.3-0.18c-0.48-0.12-0.93-0.31-1.36-0.58c-0.42-0.27-0.79-0.61-1.08-1.04
		s-0.44-0.93-0.44-1.52c0-0.63,0.15-1.16,0.44-1.61s0.66-0.81,1.08-1.09c0.42-0.29,0.88-0.49,1.36-0.62
		c0.48-0.13,0.91-0.19,1.3-0.19c0.35,0,0.77,0.06,1.25,0.19c0.48,0.13,0.94,0.34,1.38,0.62c0.44,0.29,0.82,0.65,1.12,1.09
		S200.19,80.44,200.19,81.07z"/>
	<path class="st1" d="M60.7,45.33c1.25,0,2.46,0.12,3.61,0.35c1.15,0.23,2.23,0.54,3.23,0.91c1,0.38,1.9,0.81,2.71,1.29
		c0.81,0.48,1.5,0.96,2.08,1.44l7.2-4.96l-8.28,15.89l-0.64-8.33c-0.54-0.37-1.11-0.7-1.73-0.98c-0.62-0.29-1.24-0.53-1.86-0.72
		s-1.21-0.35-1.79-0.47c-0.57-0.12-1.08-0.22-1.52-0.29c-0.44-0.07-0.8-0.12-1.07-0.15c-0.27-0.03-0.41-0.04-0.43-0.04
		c-1.25,0-2.31,0.14-3.16,0.42c-0.85,0.28-1.54,0.64-2.06,1.08s-0.9,0.95-1.13,1.51c-0.23,0.56-0.35,1.13-0.35,1.7
		c0,1.16,0.24,2.15,0.72,2.95c0.48,0.8,1.21,1.52,2.19,2.15c0.98,0.63,2.22,1.21,3.74,1.76c1.51,0.54,3.29,1.13,5.34,1.76
		c1.24,0.39,2.4,0.91,3.5,1.56s2.05,1.42,2.87,2.3c0.81,0.88,1.45,1.85,1.92,2.93s0.71,2.24,0.71,3.47c0,1.44-0.2,2.72-0.61,3.83
		c-0.41,1.12-0.95,2.09-1.62,2.93c-0.67,0.84-1.45,1.55-2.34,2.13c-0.89,0.58-1.8,1.05-2.75,1.41s-1.91,0.62-2.88,0.77
		s-1.88,0.24-2.73,0.24c-2.49,0-4.75-0.42-6.78-1.27s-3.92-2.01-5.67-3.49l-7.2,4.93l8.03-14.23c0.22,1.33,0.61,2.61,1.18,3.83
		c0.56,1.23,1.26,2.32,2.09,3.28c0.83,0.96,1.79,1.73,2.88,2.3c1.09,0.57,2.28,0.86,3.57,0.86c1.03,0,1.98-0.16,2.84-0.47
		c0.86-0.31,1.59-0.73,2.2-1.26c0.61-0.53,1.08-1.14,1.43-1.83s0.51-1.42,0.51-2.17c0-1.05-0.3-1.96-0.89-2.73
		c-0.59-0.77-1.37-1.45-2.33-2.05c-0.96-0.6-2.05-1.15-3.28-1.66c-1.23-0.51-2.49-1.03-3.78-1.56c-1.29-0.53-2.55-1.13-3.78-1.77
		c-1.23-0.65-2.32-1.41-3.28-2.28c-0.96-0.88-1.74-1.91-2.33-3.09c-0.59-1.18-0.89-2.57-0.89-4.18c0-1.24,0.24-2.45,0.73-3.64
		c0.49-1.19,1.25-2.26,2.27-3.2c1.02-0.94,2.33-1.7,3.92-2.28C56.61,45.62,58.5,45.33,60.7,45.33z"/>
	<path class="st1" d="M93.17,55.16c1.55,0,2.96,0.34,4.22,1.01c1.26,0.67,2.28,1.58,3.06,2.73l5.59-5.67l-4.59,14.98
		c-0.17-1.55-0.42-2.87-0.78-3.94s-0.75-1.97-1.2-2.69c-0.45-0.71-0.92-1.26-1.41-1.65c-0.49-0.39-0.94-0.67-1.36-0.86
		c-0.42-0.18-0.77-0.29-1.08-0.33c-0.3-0.04-0.49-0.06-0.57-0.06c-1.33,0-2.53,0.26-3.6,0.77c-1.07,0.52-1.99,1.27-2.75,2.27
		s-1.35,2.22-1.76,3.67s-0.61,3.1-0.61,4.94c0,1.77,0.21,3.34,0.64,4.69c0.42,1.36,0.99,2.5,1.69,3.42c0.7,0.92,1.5,1.62,2.41,2.09
		s1.84,0.71,2.8,0.71c1.12,0,2.17-0.25,3.13-0.76c0.96-0.51,1.78-1.18,2.46-2.01s1.19-1.79,1.54-2.87c0.34-1.08,0.46-2.19,0.35-3.34
		c0.22,0.2,0.46,0.45,0.71,0.75c0.25,0.3,0.48,0.62,0.69,0.98s0.38,0.75,0.51,1.16c0.13,0.42,0.19,0.84,0.19,1.26
		c0,1.26-0.3,2.39-0.9,3.39c-0.6,1.01-1.37,1.86-2.31,2.56c-0.94,0.7-2,1.24-3.18,1.62c-1.18,0.38-2.35,0.57-3.52,0.57
		c-0.5,0-1.18-0.06-2.04-0.17c-0.86-0.11-1.79-0.34-2.8-0.68c-1.01-0.34-2.03-0.84-3.06-1.48c-1.03-0.65-1.97-1.5-2.81-2.57
		s-1.53-2.39-2.06-3.96c-0.54-1.57-0.8-3.45-0.8-5.65c0-1.96,0.23-3.69,0.68-5.19c0.45-1.5,1.05-2.81,1.8-3.92
		c0.75-1.11,1.59-2.03,2.53-2.77c0.94-0.74,1.9-1.33,2.88-1.77c0.98-0.44,1.93-0.76,2.87-0.96C91.65,55.26,92.47,55.16,93.17,55.16z
		"/>
	<path class="st1" d="M107.12,68.92c0-2.07,0.33-3.98,0.98-5.74c0.66-1.76,1.57-3.29,2.74-4.58c1.17-1.29,2.56-2.3,4.18-3.03
		c1.61-0.73,3.38-1.09,5.3-1.09c1.86,0,3.57,0.35,5.12,1.04c1.55,0.69,2.9,1.67,4.04,2.92c1.14,1.25,2.06,2.76,2.74,4.51
		c0.68,1.75,1.09,3.69,1.22,5.81c0.13,2.27-0.11,4.32-0.71,6.16c-0.6,1.84-1.48,3.4-2.64,4.68c-1.16,1.28-2.55,2.27-4.17,2.98
		c-1.61,0.7-3.36,1.05-5.25,1.05c-1.81,0-3.53-0.33-5.16-0.98c-1.63-0.65-3.07-1.61-4.32-2.86c-1.25-1.25-2.24-2.79-2.98-4.61
		C107.49,73.34,107.12,71.26,107.12,68.92z M113.93,69.39c0,1.62,0.23,3.09,0.69,4.4c0.46,1.31,1.08,2.42,1.85,3.34
		c0.78,0.91,1.67,1.62,2.69,2.12c1.01,0.5,2.08,0.75,3.21,0.75c1.12,0,2.18-0.24,3.16-0.73c0.98-0.49,1.83-1.18,2.55-2.08
		c0.72-0.9,1.28-1.97,1.69-3.23c0.41-1.25,0.61-2.65,0.61-4.18c0-1.51-0.2-2.94-0.61-4.28c-0.41-1.34-0.97-2.51-1.7-3.5
		c-0.73-1-1.59-1.78-2.59-2.35c-1-0.57-2.09-0.86-3.27-0.86c-1.05,0-2.07,0.24-3.06,0.72c-0.99,0.48-1.87,1.18-2.64,2.09
		c-0.78,0.91-1.4,2.03-1.87,3.34C114.17,66.24,113.93,67.73,113.93,69.39z"/>
	<path class="st1" d="M155.68,63.94c-0.17-0.68-0.4-1.26-0.71-1.74s-0.65-0.88-1.02-1.2s-0.78-0.57-1.2-0.75
		c-0.42-0.18-0.85-0.31-1.27-0.4c-1-0.2-2.06-0.19-3.18,0.03c-0.39,0.13-0.8,0.33-1.25,0.61c-0.39,0.26-0.83,0.6-1.33,1.04
		s-1.03,1.01-1.61,1.73l0.5,16.06l4.98,2.49l-14.67,1.3l3.79-3.85l1.55-19.27l-5.9-2.69l9.52-1.8l0.11,3.46
		c0.65-0.78,1.31-1.41,1.99-1.91c0.68-0.5,1.3-0.9,1.85-1.22c0.65-0.35,1.27-0.62,1.88-0.8c1.11-0.26,2.23-0.36,3.38-0.3
		c0.48,0.02,0.98,0.07,1.51,0.17c0.53,0.09,1.06,0.24,1.61,0.43c0.54,0.19,1.07,0.45,1.59,0.77c0.52,0.32,1.01,0.72,1.49,1.2
		L155.68,63.94z"/>
	<path class="st1" d="M166.22,72.66c0.24,1.03,0.56,2.04,0.97,3.03s0.9,1.87,1.5,2.64c0.59,0.77,1.27,1.4,2.05,1.88
		c0.77,0.48,1.65,0.72,2.63,0.72c1.29,0,2.42-0.27,3.38-0.8c0.96-0.54,1.74-1.21,2.35-2.03c0.61-0.82,1.03-1.73,1.27-2.71
		s0.29-1.93,0.14-2.84c0.52,0.2,0.95,0.47,1.29,0.8c0.34,0.33,0.61,0.7,0.8,1.09c0.19,0.4,0.33,0.8,0.4,1.22
		c0.07,0.42,0.11,0.82,0.11,1.2c0,0.89-0.26,1.74-0.77,2.56c-0.52,0.82-1.24,1.55-2.17,2.19c-0.93,0.64-2.04,1.15-3.31,1.54
		c-1.27,0.39-2.67,0.58-4.18,0.58c-2.03,0-3.84-0.4-5.44-1.19c-1.6-0.79-2.95-1.87-4.06-3.23s-1.96-2.95-2.55-4.77
		s-0.89-3.77-0.89-5.84c0-2.1,0.29-4.05,0.89-5.83c0.59-1.78,1.46-3.3,2.62-4.55s2.57-2.21,4.25-2.85c1.68-0.65,3.62-0.9,5.81-0.77
		c1.51,0.11,2.91,0.54,4.18,1.3s2.38,1.73,3.34,2.92c0.95,1.19,1.72,2.55,2.3,4.08c0.58,1.53,0.94,3.13,1.07,4.79L166.22,72.66z
		 M165.7,68.2c0,0.26,0,0.51,0,0.76s0.02,0.5,0.05,0.76l12.15-4.43c-0.41-1.33-0.86-2.47-1.37-3.42c-0.51-0.95-1.04-1.73-1.59-2.34
		c-0.55-0.61-1.11-1.06-1.67-1.34c-0.56-0.29-1.1-0.43-1.62-0.43c-0.78,0-1.46,0.15-2.05,0.44c-0.59,0.3-1.1,0.7-1.54,1.2
		c-0.43,0.51-0.8,1.1-1.11,1.79c-0.3,0.68-0.55,1.41-0.73,2.19c-0.18,0.77-0.32,1.57-0.4,2.39S165.7,67.41,165.7,68.2z"/>
	<path class="st1" d="M197,60.25c0,0.59-0.15,1.1-0.46,1.52c-0.3,0.42-0.68,0.77-1.12,1.04c-0.44,0.27-0.9,0.47-1.38,0.6
		c-0.48,0.13-0.9,0.19-1.25,0.19c-0.39,0-0.82-0.06-1.3-0.19c-0.48-0.13-0.93-0.33-1.36-0.6c-0.42-0.27-0.79-0.61-1.08-1.04
		c-0.29-0.42-0.44-0.93-0.44-1.52c0-0.63,0.15-1.16,0.44-1.61s0.66-0.81,1.08-1.09c0.42-0.29,0.88-0.49,1.36-0.62
		c0.48-0.13,0.91-0.19,1.3-0.19c0.35,0,0.77,0.06,1.25,0.19c0.48,0.13,0.94,0.34,1.38,0.62c0.44,0.29,0.82,0.65,1.12,1.09
		S197,59.63,197,60.25z M197,81.24c0,0.59-0.15,1.1-0.46,1.52s-0.68,0.77-1.12,1.04c-0.44,0.27-0.9,0.46-1.38,0.58
		c-0.48,0.12-0.9,0.18-1.25,0.18c-0.39,0-0.82-0.06-1.3-0.18c-0.48-0.12-0.93-0.31-1.36-0.58c-0.42-0.27-0.79-0.61-1.08-1.04
		s-0.44-0.93-0.44-1.52c0-0.63,0.15-1.16,0.44-1.61s0.66-0.81,1.08-1.09c0.42-0.29,0.88-0.49,1.36-0.62
		c0.48-0.13,0.91-0.19,1.3-0.19c0.35,0,0.77,0.06,1.25,0.19c0.48,0.13,0.94,0.34,1.38,0.62c0.44,0.29,0.82,0.65,1.12,1.09
		S197,80.61,197,81.24z"/>
</g>
</svg>
