<?xml version="1.0" encoding="utf-8"?>
<!-- Generator: Adobe Illustrator 23.0.1, SVG Export Plug-In . SVG Version: 6.00 Build 0)  -->
<svg version="1.1" id="Layer_1" xmlns="http://www.w3.org/2000/svg" xmlns:xlink="http://www.w3.org/1999/xlink" x="0px" y="0px"
	 viewBox="0 0 398 125.9" style="enable-background:new 0 0 398 125.9;" xml:space="preserve">
<style type="text/css">
	.st0{fill:#6E4193;}
	.st1{fill:#FFFFFF;}
	.st2{fill:#F28D1C;}
</style>
<path class="st0" d="M362.2,102.3H56.2c-12,0-21.8-5.4-21.8-12V47.1c0-6.6,9.8-12,21.8-12h305.9c12,0,21.8,5.4,21.8,12v43.2
	C384,96.9,374.2,102.3,362.2,102.3z"/>
<g>
	<path class="st1" d="M63.9,49.5c1.3,0,2.5,0.1,3.6,0.3c1.2,0.2,2.2,0.5,3.2,0.9c1,0.4,1.9,0.8,2.7,1.3s1.5,1,2.1,1.4l7.2-5
		l-8.3,15.9l-0.6-8.3c-0.5-0.4-1.1-0.7-1.7-1c-0.6-0.3-1.2-0.5-1.9-0.7S69,54,68.4,53.9c-0.6-0.1-1.1-0.2-1.5-0.3
		c-0.4-0.1-0.8-0.1-1.1-0.2c-0.3,0-0.4,0-0.4,0c-1.2,0-2.3,0.1-3.2,0.4s-1.5,0.6-2.1,1.1s-0.9,1-1.1,1.5c-0.2,0.6-0.3,1.1-0.3,1.7
		c0,1.2,0.2,2.2,0.7,3s1.2,1.5,2.2,2.2s2.2,1.2,3.7,1.8c1.5,0.5,3.3,1.1,5.3,1.8c1.2,0.4,2.4,0.9,3.5,1.6s2.1,1.4,2.9,2.3
		c0.8,0.9,1.4,1.8,1.9,2.9s0.7,2.2,0.7,3.5c0,1.4-0.2,2.7-0.6,3.8c-0.4,1.1-0.9,2.1-1.6,2.9c-0.7,0.8-1.4,1.6-2.3,2.1
		c-0.9,0.6-1.8,1.1-2.8,1.4s-1.9,0.6-2.9,0.8s-1.9,0.2-2.7,0.2c-2.5,0-4.8-0.4-6.8-1.3s-3.9-2-5.7-3.5l-7.2,4.9l8-14.2
		c0.2,1.3,0.6,2.6,1.2,3.8c0.6,1.2,1.3,2.3,2.1,3.3s1.8,1.7,2.9,2.3s2.3,0.9,3.6,0.9c1,0,2-0.2,2.8-0.5c0.9-0.3,1.6-0.7,2.2-1.3
		s1.1-1.1,1.4-1.8s0.5-1.4,0.5-2.2c0-1.1-0.3-2-0.9-2.7c-0.6-0.8-1.4-1.4-2.3-2.1c-1-0.6-2.1-1.2-3.3-1.7c-1.2-0.5-2.5-1-3.8-1.6
		c-1.3-0.5-2.5-1.1-3.8-1.8c-1.2-0.7-2.3-1.4-3.3-2.3c-1-0.9-1.7-1.9-2.3-3.1c-0.6-1.2-0.9-2.6-0.9-4.2c0-1.2,0.2-2.5,0.7-3.6
		c0.5-1.2,1.2-2.3,2.3-3.2c1-0.9,2.3-1.7,3.9-2.3C59.8,49.8,61.7,49.5,63.9,49.5z"/>
	<path class="st1" d="M96.3,59.3c1.6,0,3,0.3,4.2,1s2.3,1.6,3.1,2.7l5.6-5.7l-4.6,15c-0.2-1.6-0.4-2.9-0.8-3.9s-0.8-2-1.2-2.7
		c-0.4-0.7-0.9-1.3-1.4-1.7c-0.5-0.4-0.9-0.7-1.4-0.9c-0.4-0.2-0.8-0.3-1.1-0.3c-0.3,0-0.5-0.1-0.6-0.1c-1.3,0-2.5,0.3-3.6,0.8
		c-1.1,0.5-2,1.3-2.8,2.3s-1.3,2.2-1.8,3.7s-0.6,3.1-0.6,4.9c0,1.8,0.2,3.3,0.6,4.7c0.4,1.4,1,2.5,1.7,3.4c0.7,0.9,1.5,1.6,2.4,2.1
		s1.8,0.7,2.8,0.7c1.1,0,2.2-0.2,3.1-0.8s1.8-1.2,2.5-2s1.2-1.8,1.5-2.9c0.3-1.1,0.5-2.2,0.3-3.3c0.2,0.2,0.5,0.4,0.7,0.8
		s0.5,0.6,0.7,1s0.4,0.8,0.5,1.2c0.1,0.4,0.2,0.8,0.2,1.3c0,1.3-0.3,2.4-0.9,3.4c-0.6,1-1.4,1.9-2.3,2.6c-0.9,0.7-2,1.2-3.2,1.6
		c-1.2,0.4-2.3,0.6-3.5,0.6c-0.5,0-1.2-0.1-2-0.2s-1.8-0.3-2.8-0.7c-1-0.3-2-0.8-3.1-1.5c-1-0.7-2-1.5-2.8-2.6s-1.5-2.4-2.1-4
		c-0.5-1.6-0.8-3.4-0.8-5.7c0-2,0.2-3.7,0.7-5.2s1.1-2.8,1.8-3.9s1.6-2,2.5-2.8s1.9-1.3,2.9-1.8c1-0.4,1.9-0.8,2.9-1
		C94.8,59.4,95.7,59.3,96.3,59.3z"/>
	<path class="st1" d="M110.3,73.1c0-2.1,0.3-4,1-5.7c0.7-1.8,1.6-3.3,2.7-4.6s2.6-2.3,4.2-3c1.6-0.7,3.4-1.1,5.3-1.1
		c1.9,0,3.6,0.3,5.1,1c1.6,0.7,2.9,1.7,4,2.9c1.1,1.2,2.1,2.8,2.7,4.5c0.7,1.8,1.1,3.7,1.2,5.8c0.1,2.3-0.1,4.3-0.7,6.2
		s-1.5,3.4-2.6,4.7s-2.6,2.3-4.2,3c-1.6,0.7-3.4,1.1-5.2,1.1c-1.8,0-3.5-0.3-5.2-1c-1.6-0.7-3.1-1.6-4.3-2.9s-2.2-2.8-3-4.6
		C110.7,77.5,110.3,75.4,110.3,73.1z M117.1,73.6c0,1.6,0.2,3.1,0.7,4.4c0.5,1.3,1.1,2.4,1.8,3.3c0.8,0.9,1.7,1.6,2.7,2.1
		c1,0.5,2.1,0.8,3.2,0.8c1.1,0,2.2-0.2,3.2-0.7c1-0.5,1.8-1.2,2.6-2.1s1.3-2,1.7-3.2c0.4-1.2,0.6-2.7,0.6-4.2c0-1.5-0.2-2.9-0.6-4.3
		s-1-2.5-1.7-3.5c-0.7-1-1.6-1.8-2.6-2.3s-2.1-0.9-3.3-0.9c-1.1,0-2.1,0.2-3.1,0.7c-1,0.5-1.9,1.2-2.6,2.1c-0.8,0.9-1.4,2-1.9,3.3
		C117.3,70.4,117.1,71.9,117.1,73.6z"/>
	<path class="st1" d="M158.9,68.1c-0.2-0.7-0.4-1.3-0.7-1.7s-0.6-0.9-1-1.2s-0.8-0.6-1.2-0.8s-0.9-0.3-1.3-0.4c-1-0.2-2.1-0.2-3.2,0
		c-0.4,0.1-0.8,0.3-1.2,0.6c-0.4,0.3-0.8,0.6-1.3,1s-1,1-1.6,1.7l0.5,16.1l5,2.5l-14.7,1.3l3.8-3.8l1.6-19.3l-5.9-2.7l9.5-1.8
		l0.1,3.5c0.6-0.8,1.3-1.4,2-1.9c0.7-0.5,1.3-0.9,1.9-1.2c0.6-0.3,1.3-0.6,1.9-0.8c1.1-0.3,2.2-0.4,3.4-0.3c0.5,0,1,0.1,1.5,0.2
		c0.5,0.1,1.1,0.2,1.6,0.4c0.5,0.2,1.1,0.5,1.6,0.8c0.5,0.3,1,0.7,1.5,1.2L158.9,68.1z"/>
	<path class="st1" d="M169.4,76.8c0.2,1,0.6,2,1,3s0.9,1.9,1.5,2.6c0.6,0.8,1.3,1.4,2.1,1.9c0.8,0.5,1.6,0.7,2.6,0.7
		c1.3,0,2.4-0.3,3.4-0.8c1-0.5,1.7-1.2,2.4-2s1-1.7,1.3-2.7s0.3-1.9,0.1-2.8c0.5,0.2,0.9,0.5,1.3,0.8s0.6,0.7,0.8,1.1
		c0.2,0.4,0.3,0.8,0.4,1.2c0.1,0.4,0.1,0.8,0.1,1.2c0,0.9-0.3,1.7-0.8,2.6c-0.5,0.8-1.2,1.6-2.2,2.2s-2,1.2-3.3,1.5
		s-2.7,0.6-4.2,0.6c-2,0-3.8-0.4-5.4-1.2s-2.9-1.9-4.1-3.2s-2-2.9-2.6-4.8s-0.9-3.8-0.9-5.8c0-2.1,0.3-4.1,0.9-5.8
		c0.6-1.8,1.5-3.3,2.6-4.5s2.6-2.2,4.2-2.8c1.7-0.7,3.6-0.9,5.8-0.8c1.5,0.1,2.9,0.5,4.2,1.3s2.4,1.7,3.3,2.9
		c0.9,1.2,1.7,2.6,2.3,4.1s0.9,3.1,1.1,4.8L169.4,76.8z M168.9,72.4c0,0.3,0,0.5,0,0.8s0,0.5,0.1,0.8l12.1-4.4
		c-0.4-1.3-0.9-2.5-1.4-3.4s-1-1.7-1.6-2.3c-0.6-0.6-1.1-1.1-1.7-1.3c-0.6-0.3-1.1-0.4-1.6-0.4c-0.8,0-1.5,0.2-2.1,0.4
		c-0.6,0.3-1.1,0.7-1.5,1.2c-0.4,0.5-0.8,1.1-1.1,1.8c-0.3,0.7-0.6,1.4-0.7,2.2c-0.2,0.8-0.3,1.6-0.4,2.4S168.9,71.6,168.9,72.4z"/>
	<path class="st1" d="M200.2,64.4c0,0.6-0.1,1.1-0.5,1.5c-0.3,0.4-0.7,0.8-1.1,1c-0.4,0.3-0.9,0.5-1.4,0.6c-0.5,0.1-0.9,0.2-1.2,0.2
		c-0.4,0-0.8-0.1-1.3-0.2s-0.9-0.3-1.4-0.6c-0.4-0.3-0.8-0.6-1.1-1c-0.3-0.4-0.4-0.9-0.4-1.5c0-0.6,0.1-1.2,0.4-1.6s0.7-0.8,1.1-1.1
		c0.4-0.3,0.9-0.5,1.4-0.6c0.5-0.1,0.9-0.2,1.3-0.2c0.4,0,0.8,0.1,1.2,0.2c0.5,0.1,0.9,0.3,1.4,0.6c0.4,0.3,0.8,0.7,1.1,1.1
		S200.2,63.8,200.2,64.4z M200.2,85.4c0,0.6-0.1,1.1-0.5,1.5s-0.7,0.8-1.1,1c-0.4,0.3-0.9,0.5-1.4,0.6c-0.5,0.1-0.9,0.2-1.2,0.2
		c-0.4,0-0.8-0.1-1.3-0.2s-0.9-0.3-1.4-0.6c-0.4-0.3-0.8-0.6-1.1-1s-0.4-0.9-0.4-1.5c0-0.6,0.1-1.2,0.4-1.6s0.7-0.8,1.1-1.1
		c0.4-0.3,0.9-0.5,1.4-0.6c0.5-0.1,0.9-0.2,1.3-0.2c0.4,0,0.8,0.1,1.2,0.2c0.5,0.1,0.9,0.3,1.4,0.6c0.4,0.3,0.8,0.7,1.1,1.1
		S200.2,84.8,200.2,85.4z"/>
	<path class="st2" d="M60.7,49.7c1.2,0,2.5,0.1,3.6,0.3c1.2,0.2,2.2,0.5,3.2,0.9c1,0.4,1.9,0.8,2.7,1.3s1.5,1,2.1,1.4l7.2-5
		l-8.3,15.9l-0.6-8.3c-0.5-0.4-1.1-0.7-1.7-1c-0.6-0.3-1.2-0.5-1.9-0.7s-1.2-0.3-1.8-0.5c-0.6-0.1-1.1-0.2-1.5-0.3s-0.8-0.1-1.1-0.2
		c-0.3,0-0.4,0-0.4,0c-1.2,0-2.3,0.1-3.2,0.4s-1.5,0.6-2.1,1.1s-0.9,1-1.1,1.5c-0.2,0.6-0.3,1.1-0.3,1.7c0,1.2,0.2,2.2,0.7,3
		s1.2,1.5,2.2,2.2c1,0.6,2.2,1.2,3.7,1.8c1.5,0.5,3.3,1.1,5.3,1.8c1.2,0.4,2.4,0.9,3.5,1.6s2.1,1.4,2.9,2.3c0.8,0.9,1.4,1.8,1.9,2.9
		s0.7,2.2,0.7,3.5c0,1.4-0.2,2.7-0.6,3.8c-0.4,1.1-0.9,2.1-1.6,2.9c-0.7,0.8-1.4,1.6-2.3,2.1c-0.9,0.6-1.8,1.1-2.8,1.4
		s-1.9,0.6-2.9,0.8s-1.9,0.2-2.7,0.2c-2.5,0-4.8-0.4-6.8-1.3s-3.9-2-5.7-3.5l-7.2,4.9l8-14.2c0.2,1.3,0.6,2.6,1.2,3.8
		c0.6,1.2,1.3,2.3,2.1,3.3s1.8,1.7,2.9,2.3s2.3,0.9,3.6,0.9c1,0,2-0.2,2.8-0.5s1.6-0.7,2.2-1.3s1.1-1.1,1.4-1.8s0.5-1.4,0.5-2.2
		c0-1.1-0.3-2-0.9-2.7c-0.6-0.8-1.4-1.4-2.3-2.1c-1-0.6-2-1.2-3.3-1.7s-2.5-1-3.8-1.6c-1.3-0.5-2.5-1.1-3.8-1.8
		c-1.2-0.7-2.3-1.4-3.3-2.3c-1-0.9-1.7-1.9-2.3-3.1c-0.6-1.2-0.9-2.6-0.9-4.2c0-1.2,0.2-2.5,0.7-3.6c0.5-1.2,1.2-2.3,2.3-3.2
		c1-0.9,2.3-1.7,3.9-2.3C56.6,50,58.5,49.7,60.7,49.7z"/>
	<path class="st2" d="M93.2,59.5c1.6,0,3,0.3,4.2,1s2.3,1.6,3.1,2.7l5.6-5.7l-4.6,15c-0.2-1.6-0.4-2.9-0.8-3.9s-0.8-2-1.2-2.7
		c-0.4-0.7-0.9-1.3-1.4-1.7c-0.5-0.4-0.9-0.7-1.4-0.9c-0.4-0.2-0.8-0.3-1.1-0.3C95.3,63,95.1,63,95,63c-1.3,0-2.5,0.3-3.6,0.8
		c-1.1,0.5-2,1.3-2.8,2.3s-1.3,2.2-1.8,3.7s-0.6,3.1-0.6,4.9c0,1.8,0.2,3.3,0.6,4.7c0.4,1.4,1,2.5,1.7,3.4c0.7,0.9,1.5,1.6,2.4,2.1
		s1.8,0.7,2.8,0.7c1.1,0,2.2-0.2,3.1-0.8s1.8-1.2,2.5-2s1.2-1.8,1.5-2.9c0.3-1.1,0.5-2.2,0.3-3.3c0.2,0.2,0.5,0.4,0.7,0.8
		s0.5,0.6,0.7,1s0.4,0.8,0.5,1.2c0.1,0.4,0.2,0.8,0.2,1.3c0,1.3-0.3,2.4-0.9,3.4c-0.6,1-1.4,1.9-2.3,2.6c-0.9,0.7-2,1.2-3.2,1.6
		c-1.2,0.4-2.3,0.6-3.5,0.6c-0.5,0-1.2-0.1-2-0.2s-1.8-0.3-2.8-0.7c-1-0.3-2-0.8-3.1-1.5c-1-0.7-2-1.5-2.8-2.6s-1.5-2.4-2.1-4
		c-0.5-1.6-0.8-3.4-0.8-5.7c0-2,0.2-3.7,0.7-5.2s1.1-2.8,1.8-3.9s1.6-2,2.5-2.8s1.9-1.3,2.9-1.8c1-0.4,1.9-0.8,2.9-1
		C91.7,59.6,92.5,59.5,93.2,59.5z"/>
	<path class="st2" d="M107.1,73.3c0-2.1,0.3-4,1-5.7c0.7-1.8,1.6-3.3,2.7-4.6s2.6-2.3,4.2-3c1.6-0.7,3.4-1.1,5.3-1.1
		c1.9,0,3.6,0.3,5.1,1c1.6,0.7,2.9,1.7,4,2.9c1.1,1.2,2.1,2.8,2.7,4.5c0.7,1.8,1.1,3.7,1.2,5.8c0.1,2.3-0.1,4.3-0.7,6.2
		s-1.5,3.4-2.6,4.7s-2.6,2.3-4.2,3c-1.6,0.7-3.4,1.1-5.2,1.1c-1.8,0-3.5-0.3-5.2-1c-1.6-0.7-3.1-1.6-4.3-2.9s-2.2-2.8-3-4.6
		C107.5,77.7,107.1,75.6,107.1,73.3z M113.9,73.7c0,1.6,0.2,3.1,0.7,4.4c0.5,1.3,1.1,2.4,1.8,3.3c0.8,0.9,1.7,1.6,2.7,2.1
		c1,0.5,2.1,0.8,3.2,0.8c1.1,0,2.2-0.2,3.2-0.7c1-0.5,1.8-1.2,2.5-2.1c0.7-0.9,1.3-2,1.7-3.2c0.4-1.2,0.6-2.7,0.6-4.2
		c0-1.5-0.2-2.9-0.6-4.3s-1-2.5-1.7-3.5c-0.7-1-1.6-1.8-2.6-2.3s-2.1-0.9-3.3-0.9c-1.1,0-2.1,0.2-3.1,0.7c-1,0.5-1.9,1.2-2.6,2.1
		c-0.8,0.9-1.4,2-1.9,3.3C114.2,70.6,113.9,72.1,113.9,73.7z"/>
	<path class="st2" d="M155.7,68.3c-0.2-0.7-0.4-1.3-0.7-1.7s-0.6-0.9-1-1.2s-0.8-0.6-1.2-0.8s-0.9-0.3-1.3-0.4c-1-0.2-2.1-0.2-3.2,0
		c-0.4,0.1-0.8,0.3-1.2,0.6c-0.4,0.3-0.8,0.6-1.3,1s-1,1-1.6,1.7l0.5,16.1l5,2.5l-14.7,1.3l3.8-3.8l1.6-19.3l-5.9-2.7l9.5-1.8
		l0.1,3.5c0.6-0.8,1.3-1.4,2-1.9c0.7-0.5,1.3-0.9,1.9-1.2c0.6-0.3,1.3-0.6,1.9-0.8c1.1-0.3,2.2-0.4,3.4-0.3c0.5,0,1,0.1,1.5,0.2
		c0.5,0.1,1.1,0.2,1.6,0.4c0.5,0.2,1.1,0.5,1.6,0.8c0.5,0.3,1,0.7,1.5,1.2L155.7,68.3z"/>
	<path class="st2" d="M166.2,77c0.2,1,0.6,2,1,3s0.9,1.9,1.5,2.6c0.6,0.8,1.3,1.4,2.1,1.9c0.8,0.5,1.6,0.7,2.6,0.7
		c1.3,0,2.4-0.3,3.4-0.8c1-0.5,1.7-1.2,2.4-2s1-1.7,1.3-2.7s0.3-1.9,0.1-2.8c0.5,0.2,0.9,0.5,1.3,0.8s0.6,0.7,0.8,1.1
		c0.2,0.4,0.3,0.8,0.4,1.2c0.1,0.4,0.1,0.8,0.1,1.2c0,0.9-0.3,1.7-0.8,2.6c-0.5,0.8-1.2,1.6-2.2,2.2s-2,1.2-3.3,1.5
		s-2.7,0.6-4.2,0.6c-2,0-3.8-0.4-5.4-1.2s-2.9-1.9-4.1-3.2s-2-2.9-2.6-4.8s-0.9-3.8-0.9-5.8c0-2.1,0.3-4.1,0.9-5.8
		c0.6-1.8,1.5-3.3,2.6-4.5s2.6-2.2,4.2-2.8c1.7-0.7,3.6-0.9,5.8-0.8c1.5,0.1,2.9,0.5,4.2,1.3s2.4,1.7,3.3,2.9
		c0.9,1.2,1.7,2.6,2.3,4.1s0.9,3.1,1.1,4.8L166.2,77z M165.7,72.5c0,0.3,0,0.5,0,0.8s0,0.5,0.1,0.8l12.1-4.4
		c-0.4-1.3-0.9-2.5-1.4-3.4s-1-1.7-1.6-2.3c-0.6-0.6-1.1-1.1-1.7-1.3c-0.6-0.3-1.1-0.4-1.6-0.4c-0.8,0-1.5,0.2-2.1,0.4
		c-0.6,0.3-1.1,0.7-1.5,1.2c-0.4,0.5-0.8,1.1-1.1,1.8c-0.3,0.7-0.6,1.4-0.7,2.2c-0.2,0.8-0.3,1.6-0.4,2.4S165.7,71.7,165.7,72.5z"/>
	<path class="st2" d="M197,64.6c0,0.6-0.1,1.1-0.5,1.5c-0.3,0.4-0.7,0.8-1.1,1c-0.4,0.3-0.9,0.5-1.4,0.6c-0.5,0.1-0.9,0.2-1.2,0.2
		c-0.4,0-0.8-0.1-1.3-0.2c-0.5-0.1-0.9-0.3-1.4-0.6c-0.4-0.3-0.8-0.6-1.1-1c-0.3-0.4-0.4-0.9-0.4-1.5c0-0.6,0.1-1.2,0.4-1.6
		s0.7-0.8,1.1-1.1c0.4-0.3,0.9-0.5,1.4-0.6c0.5-0.1,0.9-0.2,1.3-0.2c0.4,0,0.8,0.1,1.2,0.2c0.5,0.1,0.9,0.3,1.4,0.6
		c0.4,0.3,0.8,0.7,1.1,1.1S197,64,197,64.6z M197,85.6c0,0.6-0.1,1.1-0.5,1.5s-0.7,0.8-1.1,1c-0.4,0.3-0.9,0.5-1.4,0.6
		c-0.5,0.1-0.9,0.2-1.2,0.2c-0.4,0-0.8-0.1-1.3-0.2s-0.9-0.3-1.4-0.6c-0.4-0.3-0.8-0.6-1.1-1s-0.4-0.9-0.4-1.5
		c0-0.6,0.1-1.2,0.4-1.6s0.7-0.8,1.1-1.1c0.4-0.3,0.9-0.5,1.4-0.6c0.5-0.1,0.9-0.2,1.3-0.2c0.4,0,0.8,0.1,1.2,0.2
		c0.5,0.1,0.9,0.3,1.4,0.6c0.4,0.3,0.8,0.7,1.1,1.1S197,84.9,197,85.6z"/>
</g>
</svg>
