<?xml version="1.0" encoding="utf-8"?>
<!-- Generator: Adobe Illustrator 23.0.1, SVG Export Plug-In . SVG Version: 6.00 Build 0)  -->
<svg version="1.1" id="Layer_1" xmlns="http://www.w3.org/2000/svg" xmlns:xlink="http://www.w3.org/1999/xlink" x="0px" y="0px"
	 viewBox="0 0 198.4 77.7" style="enable-background:new 0 0 198.4 77.7;" xml:space="preserve">
<style type="text/css">
	.st0{fill:#6E4193;}
	.st1{opacity:0.41;fill:#6E4193;enable-background:new    ;}
	.st2{fill:#FFFFFF;}
	.st3{fill:#F28D1C;}
</style>
<g>
	<path class="st0" d="M186.3,75.6h-173c-6.6,0-12-5.4-12-12V13.2c0-6.6,5.4-12,12-12h173.1c6.6,0,12,5.4,12,12v50.5
		C198.3,70.2,193,75.6,186.3,75.6z"/>
	<path class="st1" d="M186.3,75.6h-173c-6.6,0-12-5.4-12-12V13.2c0-6.6,5.4-12,12-12h173.1c6.6,0,12,5.4,12,12v50.5
		C198.3,70.2,193,75.6,186.3,75.6z"/>
	<path class="st0" d="M181.3,68.4h-168c-6.6,0-12-5.4-12-12V13.2c0-6.6,5.4-12,12-12h168c6.6,0,12,5.4,12,12v43.2
		C193.3,63,187.9,68.4,181.3,68.4z"/>
	<g>
		<path class="st2" d="M50,15.7c1.2,0,2.5,0.1,3.6,0.3c1.2,0.2,2.2,0.5,3.2,0.9s1.9,0.8,2.7,1.3c0.8,0.5,1.5,1,2.1,1.4l7.2-5
			l-8.3,15.9l-0.6-8.2c-0.5-0.4-1.1-0.7-1.7-1c-0.6-0.3-1.2-0.5-1.9-0.7s-1.2-0.3-1.8-0.5c-0.6-0.1-1.1-0.2-1.5-0.3
			c-0.4,0-0.8-0.1-1.1-0.1s-0.4,0-0.4,0c-1.2,0-2.3,0.1-3.2,0.4c-0.8,0.3-1.5,0.6-2.1,1.1s-0.9,0.9-1.1,1.5
			c-0.2,0.6-0.3,1.1-0.3,1.7c0,1.2,0.2,2.2,0.7,2.9c0.5,0.8,1.2,1.5,2.2,2.2c1,0.6,2.2,1.2,3.7,1.8c1.5,0.5,3.3,1.1,5.3,1.8
			c1.2,0.4,2.4,0.9,3.5,1.6s2.1,1.4,2.9,2.3s1.4,1.8,1.9,2.9s0.7,2.2,0.7,3.5c0,1.4-0.2,2.7-0.6,3.8c-0.4,1.1-0.9,2.1-1.6,2.9
			s-1.4,1.6-2.3,2.1c-0.9,0.6-1.8,1.1-2.8,1.4s-1.9,0.6-2.9,0.8s-1.9,0.2-2.7,0.2c-2.5,0-4.8-0.4-6.8-1.3s-3.9-2-5.7-3.5l-7.2,4.9
			l8-14.2c0.2,1.3,0.6,2.6,1.2,3.8c0.6,1.2,1.3,2.3,2.1,3.3s1.8,1.7,2.9,2.3s2.3,0.9,3.6,0.9c1,0,2-0.2,2.8-0.5
			c0.9-0.3,1.6-0.7,2.2-1.3s1.1-1.1,1.4-1.8s0.5-1.4,0.5-2.2c0-1.1-0.3-2-0.9-2.7c-0.6-0.8-1.4-1.4-2.3-2.1c-1-0.6-2.1-1.2-3.3-1.7
			s-2.5-1-3.8-1.6s-2.6-1.1-3.8-1.8c-1.2-0.7-2.3-1.4-3.3-2.3s-1.7-1.9-2.3-3.1s-0.9-2.6-0.9-4.2c0-1.2,0.2-2.4,0.7-3.6
			s1.2-2.3,2.3-3.2c1-0.9,2.3-1.7,3.9-2.3C45.9,16,47.8,15.7,50,15.7z"/>
		<path class="st2" d="M70.8,41.1c0-1.7,0.2-3.5,0.5-5.2s0.8-3.3,1.2-4.8l-4.8,0.3l13.6-14.7c-1.1,3.4-1.9,6.4-2.6,9.1l10.8,0.9
			L88.1,30l-10.4,0.8c-0.3,1.3-0.5,2.5-0.6,3.6s-0.2,1.9-0.3,2.6c-0.1,0.8-0.2,1.6-0.2,2.2c0,1.8,0.1,3.5,0.3,5
			c0.2,1.5,0.6,2.7,1,3.8s1.1,1.8,1.8,2.4c0.7,0.6,1.6,0.8,2.6,0.8c0.9,0,1.7-0.2,2.4-0.6s1.2-0.9,1.5-1.5s0.7-1.3,0.8-2
			s0.2-1.5,0.2-2.2s-0.1-1.3-0.2-2c0.8,0.4,1.4,1.1,1.8,1.9c0.4,0.9,0.6,1.9,0.6,2.9c0,1.1-0.2,2.1-0.5,2.9
			c-0.4,0.8-0.8,1.5-1.5,2.1c-0.6,0.6-1.4,1-2.2,1.3c-0.8,0.3-1.8,0.4-2.7,0.4c-0.6,0-1.3-0.1-2.1-0.2c-0.8-0.1-1.6-0.4-2.5-0.7
			s-1.7-0.8-2.6-1.4c-0.8-0.6-1.6-1.4-2.3-2.4c-0.7-1-1.2-2.2-1.6-3.6S70.8,43,70.8,41.1z"/>
		<path class="st2" d="M115.5,35.9c0,1-0.1,2-0.2,3.2c-0.1,1.1-0.3,2.3-0.5,3.4s-0.5,2.3-0.8,3.4s-0.6,2.2-0.9,3.1l5.9,4.2
			l-10.4-0.4l0.6-3.4c-1.1,1.4-2.4,2.4-3.8,3.2c-1.4,0.7-3.1,1.2-5,1.3c-1.6,0.1-2.9,0-4.1-0.3s-2.1-0.8-2.9-1.5s-1.3-1.5-1.7-2.5
			c-0.4-1-0.6-2.1-0.6-3.3c0-1.1,0.3-2.2,0.8-3.3s1.3-2,2.4-2.8s2.3-1.5,3.8-1.9s3.2-0.7,5.1-0.7c0.9,0,1.9,0.1,3.1,0.2
			s2.2,0.5,3.3,1.1c-0.1-1.1-0.3-2.3-0.5-3.4c-0.2-1.2-0.6-2.2-1.1-3.2s-1.1-1.7-1.9-2.3c-0.8-0.6-1.7-0.9-2.9-0.9
			c-1,0-1.9,0.2-2.9,0.6c-0.9,0.4-1.8,1-2.6,1.7c-0.8,0.8-1.5,1.7-2.2,2.8c-0.7,1.1-1.2,2.3-1.6,3.7l-2-13.8l3.5,5.4
			c0.9-1.1,1.7-1.9,2.6-2.6s1.8-1.1,2.6-1.5c0.9-0.3,1.7-0.6,2.6-0.7s1.6-0.2,2.4-0.2c1.4,0.1,2.7,0.4,3.9,0.9
			c1.2,0.5,2.3,1.2,3.1,2.2c0.9,0.9,1.6,2.1,2.1,3.5C115.2,32.6,115.5,34.1,115.5,35.9z M109.8,44.8c0-0.5,0.1-1,0.1-1.5
			s0-0.9,0-1.4v-0.3c-0.7-0.3-1.3-0.5-2-0.6s-1.3-0.2-1.9-0.3c-0.6-0.1-1.1-0.1-1.4-0.1s-0.7,0-0.8,0c-1.1,0-2,0.2-2.7,0.6
			s-1.4,0.8-1.9,1.3s-0.9,1.1-1.1,1.8s-0.4,1.3-0.4,1.9c0,1.4,0.4,2.5,1,3.2c0.7,0.7,1.7,1.1,3,1.1c0.9,0,1.7-0.2,2.5-0.5
			s1.5-0.7,2.2-1.3s1.3-1.1,1.9-1.8C108.8,46.2,109.3,45.5,109.8,44.8z"/>
		<path class="st2" d="M139.5,34.3c-0.2-0.7-0.4-1.3-0.7-1.7s-0.6-0.9-1-1.2s-0.8-0.6-1.2-0.8s-0.9-0.3-1.3-0.4
			c-1-0.2-2.1-0.2-3.2,0c-0.4,0.1-0.8,0.3-1.2,0.6c-0.4,0.3-0.8,0.6-1.3,1s-1,1-1.6,1.7l0.5,16.1l5,2.5l-14.7,1.3l3.8-3.8l1.6-19.3
			l-5.9-2.7l9.5-1.8l0.1,3.5c0.6-0.8,1.3-1.4,2-1.9s1.3-0.9,1.9-1.2c0.6-0.3,1.3-0.6,1.9-0.8c1.1-0.3,2.2-0.4,3.4-0.3
			c0.5,0,1,0.1,1.5,0.2s1.1,0.2,1.6,0.4c0.5,0.2,1.1,0.4,1.6,0.8c0.5,0.3,1,0.7,1.5,1.2L139.5,34.3z"/>
		<path class="st2" d="M145.9,41.1c0-1.7,0.2-3.5,0.5-5.2s0.8-3.3,1.2-4.8l-4.8,0.3l13.5-14.7c-1.1,3.4-1.9,6.4-2.6,9.1l10.8,0.9
			l-1.4,3.3l-10.4,0.8c-0.3,1.3-0.5,2.5-0.6,3.6s-0.2,1.9-0.4,2.6c-0.1,0.8-0.2,1.6-0.2,2.2c0,1.8,0.1,3.5,0.3,5s0.6,2.7,1,3.8
			c0.5,1,1.1,1.8,1.8,2.4s1.6,0.8,2.6,0.8c0.9,0,1.7-0.2,2.4-0.6s1.1-0.9,1.5-1.5s0.7-1.3,0.8-2s0.2-1.5,0.2-2.2s-0.1-1.3-0.2-2
			c0.8,0.4,1.4,1.1,1.8,1.9c0.4,0.9,0.6,1.9,0.6,2.9c0,1.1-0.2,2.1-0.5,2.9c-0.4,0.8-0.9,1.5-1.5,2.1s-1.4,1-2.2,1.3
			c-0.9,0.3-1.8,0.4-2.7,0.4c-0.6,0-1.3-0.1-2.1-0.2s-1.6-0.4-2.5-0.7s-1.7-0.8-2.6-1.4c-0.9-0.6-1.6-1.4-2.3-2.4s-1.2-2.2-1.6-3.6
			S145.9,43,145.9,41.1z"/>
		<path class="st3" d="M46.8,15.9c1.2,0,2.5,0.1,3.6,0.3c1.2,0.2,2.2,0.5,3.2,0.9s1.9,0.8,2.7,1.3s1.5,1,2.1,1.4l7.2-5l-8.3,15.9
			l-0.6-8.3c-0.5-0.4-1.1-0.7-1.7-1c-0.6-0.3-1.2-0.5-1.9-0.7s-1.2-0.3-1.8-0.5c-0.6-0.1-1.1-0.2-1.5-0.3c-0.4-0.1-0.8-0.1-1.1-0.2
			s-0.4,0-0.4,0c-1.2,0-2.3,0.1-3.2,0.4c-0.8,0.3-1.5,0.6-2.1,1.1s-0.9,0.9-1.1,1.5c-0.2,0.6-0.3,1.1-0.3,1.7c0,1.2,0.2,2.2,0.7,2.9
			c0.5,0.8,1.2,1.5,2.2,2.2c1,0.6,2.2,1.2,3.7,1.8c1.5,0.5,3.3,1.1,5.3,1.8c1.2,0.4,2.4,0.9,3.5,1.6s2.1,1.4,2.9,2.3
			c0.8,0.9,1.4,1.8,1.9,2.9s0.7,2.2,0.7,3.5c0,1.4-0.2,2.7-0.6,3.8c-0.4,1.1-0.9,2.1-1.6,2.9s-1.4,1.6-2.3,2.1
			c-0.9,0.6-1.8,1.1-2.8,1.4s-1.9,0.6-2.9,0.8s-1.9,0.2-2.7,0.2c-2.5,0-4.8-0.4-6.8-1.3s-3.9-2-5.7-3.5l-7.2,4.9l8-14.2
			c0.2,1.3,0.6,2.6,1.2,3.8c0.6,1.2,1.3,2.3,2.1,3.3s1.8,1.7,2.9,2.3s2.3,0.9,3.6,0.9c1,0,2-0.2,2.8-0.5c0.9-0.3,1.6-0.7,2.2-1.3
			s1.1-1.1,1.4-1.8s0.5-1.4,0.5-2.2c0-1.1-0.3-2-0.9-2.7c-0.6-0.8-1.4-1.4-2.3-2.1c-1-0.6-2.1-1.2-3.3-1.7s-2.5-1-3.8-1.6
			s-2.6-1.1-3.8-1.8c-1.2-0.7-2.3-1.4-3.3-2.3s-1.7-1.9-2.3-3.1S34,27.1,34,25.5c0-1.2,0.2-2.4,0.7-3.6s1.2-2.3,2.3-3.2
			c1-0.9,2.3-1.7,3.9-2.3C42.7,16.2,44.6,15.9,46.8,15.9z"/>
		<path class="st3" d="M67.7,41.2c0-1.7,0.2-3.5,0.5-5.2s0.8-3.3,1.2-4.8l-4.8,0.3l13.5-14.8c-1.1,3.4-1.9,6.4-2.6,9.1l10.8,0.9
			l-1.4,3.5L74.5,31c-0.3,1.3-0.5,2.5-0.6,3.6s-0.2,1.9-0.3,2.6c-0.1,0.8-0.2,1.6-0.2,2.2c0,1.8,0.1,3.5,0.3,5
			c0.2,1.5,0.6,2.7,1,3.8s1.1,1.8,1.8,2.4c0.7,0.6,1.6,0.8,2.6,0.8c0.9,0,1.7-0.2,2.4-0.6s1.2-0.9,1.5-1.5s0.7-1.3,0.8-2
			s0.2-1.5,0.2-2.2s-0.1-1.3-0.2-2c0.8,0.4,1.4,1.1,1.8,1.9c0.4,0.9,0.6,1.9,0.6,2.9c0,1.1-0.2,2.1-0.5,2.9
			c-0.4,0.8-0.8,1.5-1.5,2.1c-0.6,0.6-1.4,1-2.2,1.3c-0.8,0.3-1.8,0.4-2.7,0.4c-0.6,0-1.3-0.1-2.1-0.2c-0.8-0.1-1.6-0.4-2.5-0.7
			s-1.7-0.8-2.6-1.4c-0.8-0.6-1.6-1.4-2.3-2.4c-0.7-1-1.2-2.2-1.6-3.6S67.7,43.2,67.7,41.2z"/>
		<path class="st3" d="M112.3,36.1c0,1-0.1,2-0.2,3.2c-0.1,1.1-0.3,2.3-0.5,3.4s-0.5,2.3-0.8,3.4s-0.6,2.2-0.9,3.1l5.9,4.2L105.4,53
			l0.6-3.4c-1.1,1.4-2.4,2.4-3.8,3.2c-1.4,0.7-3.1,1.2-5,1.3c-1.6,0.1-2.9,0-4.1-0.3S91,53,90.2,52.3s-1.3-1.6-1.6-2.6
			c-0.4-1-0.6-2.1-0.6-3.3c0-1.1,0.3-2.2,0.8-3.3s1.3-2,2.4-2.8s2.3-1.5,3.8-1.9s3.2-0.7,5.2-0.7c0.9,0,1.9,0.1,3.1,0.2
			s2.2,0.5,3.3,1.1c-0.1-1.1-0.3-2.3-0.5-3.4c-0.2-1.2-0.6-2.2-1.1-3.2s-1.1-1.7-1.9-2.3c-0.8-0.6-1.7-0.9-2.9-0.9
			c-1,0-1.9,0.2-2.9,0.6c-0.9,0.4-1.8,1-2.6,1.7c-0.8,0.8-1.5,1.7-2.2,2.8c-0.7,1.1-1.2,2.3-1.6,3.7l-2.3-13.6l3.5,5.4
			c0.9-1.1,1.7-1.9,2.6-2.6s1.8-1.1,2.6-1.5c0.9-0.3,1.7-0.6,2.6-0.7s1.6-0.2,2.4-0.2c1.4,0.1,2.7,0.4,3.9,0.9
			c1.2,0.5,2.3,1.2,3.1,2.2c0.9,0.9,1.6,2.1,2.1,3.5C112,32.7,112.3,34.3,112.3,36.1z M106.6,45c0-0.5,0.1-1,0.1-1.5s0-0.9,0-1.4
			v-0.4c-0.7-0.3-1.3-0.5-2-0.6s-1.3-0.2-1.9-0.3c-0.6-0.1-1.1-0.1-1.4-0.1s-0.7,0-0.8,0c-1.1,0-2,0.2-2.7,0.6s-1.4,0.8-1.9,1.3
			s-0.9,1.1-1.1,1.8s-0.4,1.3-0.4,1.9c0,1.4,0.3,2.5,1,3.2s1.7,1.1,3,1.1c0.9,0,1.7-0.2,2.5-0.5s1.5-0.7,2.2-1.3s1.3-1.1,1.9-1.8
			C105.6,46.4,106.1,45.7,106.6,45z"/>
		<path class="st3" d="M136.3,34.5c-0.2-0.7-0.4-1.3-0.7-1.7s-0.6-0.9-1-1.2s-0.8-0.6-1.2-0.8s-0.9-0.3-1.3-0.4
			c-1-0.2-2.1-0.2-3.2,0c-0.4,0.1-0.8,0.3-1.2,0.6c-0.4,0.3-0.8,0.6-1.3,1s-1,1-1.6,1.7l0.5,16.1l5,2.5l-14.7,1.3l3.8-3.8l1.6-19.3
			l-5.9-2.7l9.5-1.8l0.1,3.5c0.6-0.8,1.3-1.4,2-1.9s1.3-0.9,1.9-1.2c0.6-0.3,1.3-0.6,1.9-0.8c1.1-0.3,2.2-0.4,3.4-0.3
			c0.5,0,1,0.1,1.5,0.2s1.1,0.2,1.6,0.4c0.5,0.2,1.1,0.4,1.6,0.8c0.5,0.3,1,0.7,1.5,1.2L136.3,34.5z"/>
		<path class="st3" d="M142.7,41.2c0-1.7,0.2-3.5,0.5-5.2s0.8-3.3,1.2-4.8l-4.8,0.3l13.5-14.8c-1.1,3.4-1.9,6.4-2.6,9.1l10.8,0.9
			l-1.4,3.3l-10.4,0.8c-0.3,1.3-0.5,2.5-0.6,3.6s-0.2,1.9-0.4,2.6c-0.1,0.8-0.2,1.6-0.2,2.2c0,1.8,0.1,3.5,0.3,5s0.6,2.7,1,3.8
			c0.5,1,1.1,1.8,1.8,2.4s1.6,0.8,2.6,0.8c0.9,0,1.7-0.2,2.4-0.6s1.1-0.9,1.5-1.5s0.7-1.3,0.8-2s0.2-1.5,0.2-2.2s-0.1-1.3-0.2-2
			c0.8,0.4,1.4,1.1,1.8,1.9c0.4,0.9,0.6,1.9,0.6,2.9c0,1.1-0.2,2.1-0.5,2.9c-0.4,0.8-0.9,1.5-1.5,2.1s-1.4,1-2.2,1.3
			c-0.9,0.3-1.8,0.4-2.7,0.4c-0.6,0-1.3-0.1-2.1-0.2s-1.6-0.4-2.5-0.7s-1.7-0.8-2.6-1.4c-0.9-0.6-1.6-1.4-2.3-2.4s-1.2-2.2-1.6-3.6
			S142.7,43.2,142.7,41.2z"/>
	</g>
</g>
</svg>
