<?xml version="1.0" encoding="utf-8"?>
<!-- Generator: Adobe Illustrator 23.0.1, SVG Export Plug-In . SVG Version: 6.00 Build 0)  -->
<svg version="1.1" id="Layer_1" xmlns="http://www.w3.org/2000/svg" xmlns:xlink="http://www.w3.org/1999/xlink" x="0px" y="0px"
	 viewBox="0 0 234 173" style="enable-background:new 0 0 234 173;" xml:space="preserve">
<style type="text/css">
	.st0{fill:#6E4193;}
	.st1{opacity:0.41;fill:#6E4193;enable-background:new    ;}
	.st2{fill:#FFFFFF;}
	.st3{fill:#F28D1C;}
</style>
<g>
	<path class="st0" d="M191.4,126.9H18.4c-6.6,0-12-5.4-12-12V64.5c0-6.6,5.4-12,12-12h173.1c6.6,0,12,5.4,12,12v50.5
		C203.4,121.5,198.1,126.9,191.4,126.9z"/>
	<path class="st1" d="M191.4,126.9H18.4c-6.6,0-12-5.4-12-12V64.5c0-6.6,5.4-12,12-12h173.1c6.6,0,12,5.4,12,12v50.5
		C203.4,121.5,198.1,126.9,191.4,126.9z"/>
	<path class="st0" d="M186.4,119.7h-168c-6.6,0-12-5.4-12-12V64.5c0-6.6,5.4-12,12-12h168c6.6,0,12,5.4,12,12v43.2
		C198.4,114.3,193,119.7,186.4,119.7z"/>
	<g>
		<path class="st2" d="M55.1,67c1.2,0,2.5,0.1,3.6,0.3c1.2,0.2,2.2,0.5,3.2,0.9c1,0.4,1.9,0.8,2.7,1.3s1.5,1,2.1,1.4l7.2-5
			l-8.3,15.9L65,73.6c-0.5-0.4-1.1-0.7-1.7-1c-0.6-0.3-1.2-0.5-1.9-0.7s-1.2-0.3-1.8-0.5c-0.6-0.1-1.1-0.2-1.5-0.3
			C57.7,71.1,57.3,71,57,71s-0.4,0-0.4,0c-1.2,0-2.3,0.1-3.2,0.4c-0.8,0.3-1.5,0.6-2.1,1.1s-0.9,0.9-1.1,1.5
			c-0.2,0.6-0.3,1.1-0.3,1.7c0,1.2,0.2,2.2,0.7,2.9c0.5,0.8,1.2,1.5,2.2,2.2c1,0.6,2.2,1.2,3.7,1.8c1.5,0.5,3.3,1.1,5.3,1.8
			c1.2,0.4,2.4,0.9,3.5,1.6s2.1,1.4,2.9,2.3c0.8,0.9,1.4,1.8,1.9,2.9s0.7,2.2,0.7,3.5c0,1.4-0.2,2.7-0.6,3.8
			c-0.4,1.1-0.9,2.1-1.6,2.9c-0.7,0.8-1.4,1.6-2.3,2.1c-0.9,0.6-1.8,1.1-2.8,1.4s-1.9,0.6-2.9,0.8s-1.9,0.2-2.7,0.2
			c-2.5,0-4.8-0.4-6.8-1.3s-3.9-2-5.7-3.5l-7.2,4.9l8-14.2c0.2,1.3,0.6,2.6,1.2,3.8c0.6,1.2,1.3,2.3,2.1,3.3c0.8,1,1.8,1.7,2.9,2.3
			s2.3,0.9,3.6,0.9c1,0,2-0.2,2.8-0.5c0.9-0.3,1.6-0.7,2.2-1.3s1.1-1.1,1.4-1.8s0.5-1.4,0.5-2.2c0-1.1-0.3-2-0.9-2.7
			c-0.6-0.8-1.4-1.4-2.3-2.1c-1-0.6-2.1-1.2-3.3-1.7c-1.2-0.5-2.5-1-3.8-1.6s-2.6-1.1-3.8-1.8c-1.2-0.7-2.3-1.4-3.3-2.3
			c-1-0.9-1.7-1.9-2.3-3.1c-0.6-1.2-0.9-2.6-0.9-4.2c0-1.2,0.2-2.4,0.7-3.6c0.5-1.2,1.2-2.3,2.3-3.2c1-0.9,2.3-1.7,3.9-2.3
			C51,67.3,52.9,67,55.1,67z"/>
		<path class="st2" d="M75.9,92.4c0-1.7,0.2-3.5,0.5-5.2s0.8-3.3,1.2-4.8l-4.8,0.3L86.4,68c-1.1,3.4-1.9,6.4-2.6,9.1L94.6,78
			l-1.4,3.3l-10.4,0.8c-0.3,1.3-0.5,2.5-0.6,3.6s-0.2,1.9-0.3,2.6c-0.1,0.8-0.2,1.6-0.2,2.2c0,1.8,0.1,3.5,0.3,5
			c0.2,1.5,0.6,2.7,1,3.8s1.1,1.8,1.8,2.4c0.7,0.6,1.6,0.8,2.6,0.8c0.9,0,1.7-0.2,2.4-0.6s1.2-0.9,1.5-1.5s0.7-1.3,0.8-2
			s0.2-1.5,0.2-2.2c0-0.7-0.1-1.3-0.2-2c0.8,0.4,1.4,1.1,1.8,1.9c0.4,0.9,0.6,1.9,0.6,2.9c0,1.1-0.2,2.1-0.5,2.9
			c-0.4,0.8-0.8,1.5-1.5,2.1c-0.6,0.6-1.4,1-2.2,1.3c-0.8,0.3-1.8,0.4-2.7,0.4c-0.6,0-1.3-0.1-2.1-0.2c-0.8-0.1-1.6-0.4-2.5-0.7
			s-1.7-0.8-2.6-1.4c-0.8-0.6-1.6-1.4-2.3-2.4c-0.7-1-1.2-2.2-1.6-3.6S75.9,94.3,75.9,92.4z"/>
		<path class="st2" d="M120.6,87.2c0,1-0.1,2-0.2,3.2c-0.1,1.1-0.3,2.3-0.5,3.4s-0.5,2.3-0.8,3.4c-0.3,1.1-0.6,2.2-0.9,3.1l5.9,4.2
			l-10.4-0.4l0.6-3.4c-1.1,1.4-2.4,2.4-3.8,3.2c-1.4,0.7-3.1,1.2-5,1.3c-1.6,0.1-2.9,0-4.1-0.3c-1.2-0.3-2.1-0.8-2.9-1.5
			s-1.3-1.5-1.7-2.5c-0.4-1-0.6-2.1-0.6-3.3c0-1.1,0.3-2.2,0.8-3.3s1.3-2,2.4-2.8s2.3-1.5,3.8-1.9s3.2-0.7,5.1-0.7
			c0.9,0,1.9,0.1,3.1,0.2s2.2,0.5,3.3,1.1c-0.1-1.1-0.3-2.3-0.5-3.4c-0.2-1.2-0.6-2.2-1.1-3.2s-1.1-1.7-1.9-2.3
			c-0.8-0.6-1.7-0.9-2.9-0.9c-1,0-1.9,0.2-2.9,0.6c-0.9,0.4-1.8,1-2.6,1.7c-0.8,0.8-1.5,1.7-2.2,2.8c-0.7,1.1-1.2,2.3-1.6,3.7
			L97,75.4l3.5,5.4c0.9-1.1,1.7-1.9,2.6-2.6s1.8-1.1,2.6-1.5c0.9-0.3,1.7-0.6,2.6-0.7s1.6-0.2,2.4-0.2c1.4,0.1,2.7,0.4,3.9,0.9
			c1.2,0.5,2.3,1.2,3.1,2.2c0.9,0.9,1.6,2.1,2.1,3.5C120.3,83.9,120.6,85.4,120.6,87.2z M114.9,96.1c0-0.5,0.1-1,0.1-1.5
			c0-0.5,0-0.9,0-1.4v-0.3c-0.7-0.3-1.3-0.5-2-0.6c-0.7-0.1-1.3-0.2-1.9-0.3c-0.6-0.1-1.1-0.1-1.4-0.1s-0.7,0-0.8,0
			c-1.1,0-2,0.2-2.7,0.6s-1.4,0.8-1.9,1.3c-0.5,0.5-0.9,1.1-1.1,1.8s-0.4,1.3-0.4,1.9c0,1.4,0.4,2.5,1,3.2c0.7,0.7,1.7,1.1,3,1.1
			c0.9,0,1.7-0.2,2.5-0.5c0.8-0.3,1.5-0.7,2.2-1.3s1.3-1.1,1.9-1.8C113.9,97.5,114.4,96.8,114.9,96.1z"/>
		<path class="st2" d="M144.6,85.6c-0.2-0.7-0.4-1.3-0.7-1.7s-0.6-0.9-1-1.2s-0.8-0.6-1.2-0.8s-0.9-0.3-1.3-0.4
			c-1-0.2-2.1-0.2-3.2,0c-0.4,0.1-0.8,0.3-1.2,0.6c-0.4,0.3-0.8,0.6-1.3,1s-1,1-1.6,1.7l0.5,16.1l5,2.5l-14.7,1.3l3.8-3.8l1.6-19.3
			l-5.9-2.7l9.5-1.8l0.1,3.5c0.6-0.8,1.3-1.4,2-1.9c0.7-0.5,1.3-0.9,1.9-1.2c0.6-0.3,1.3-0.6,1.9-0.8c1.1-0.3,2.2-0.4,3.4-0.3
			c0.5,0,1,0.1,1.5,0.2c0.5,0.1,1.1,0.2,1.6,0.4c0.5,0.2,1.1,0.4,1.6,0.8c0.5,0.3,1,0.7,1.5,1.2L144.6,85.6z"/>
		<path class="st2" d="M151,92.4c0-1.7,0.2-3.5,0.5-5.2s0.8-3.3,1.2-4.8l-4.8,0.3L161.4,68c-1.1,3.4-1.9,6.4-2.6,9.1l10.8,0.9
			l-1.4,3.3l-10.4,0.8c-0.3,1.3-0.5,2.5-0.6,3.6s-0.2,1.9-0.4,2.6c-0.1,0.8-0.2,1.6-0.2,2.2c0,1.8,0.1,3.5,0.3,5
			c0.2,1.5,0.6,2.7,1,3.8c0.5,1,1.1,1.8,1.8,2.4c0.7,0.6,1.6,0.8,2.6,0.8c0.9,0,1.7-0.2,2.4-0.6s1.1-0.9,1.5-1.5s0.7-1.3,0.8-2
			s0.2-1.5,0.2-2.2c0-0.7-0.1-1.3-0.2-2c0.8,0.4,1.4,1.1,1.8,1.9c0.4,0.9,0.6,1.9,0.6,2.9c0,1.1-0.2,2.1-0.5,2.9
			c-0.4,0.8-0.9,1.5-1.5,2.1c-0.6,0.6-1.4,1-2.2,1.3c-0.9,0.3-1.8,0.4-2.7,0.4c-0.6,0-1.3-0.1-2.1-0.2c-0.8-0.1-1.6-0.4-2.5-0.7
			s-1.7-0.8-2.6-1.4c-0.9-0.6-1.6-1.4-2.3-2.4s-1.2-2.2-1.6-3.6S151,94.3,151,92.4z"/>
		<path class="st3" d="M51.9,67.2c1.2,0,2.5,0.1,3.6,0.3c1.2,0.2,2.2,0.5,3.2,0.9c1,0.4,1.9,0.8,2.7,1.3s1.5,1,2.1,1.4l7.2-5
			l-8.3,15.9l-0.6-8.3c-0.5-0.4-1.1-0.7-1.7-1c-0.6-0.3-1.2-0.5-1.9-0.7s-1.2-0.3-1.8-0.5c-0.6-0.1-1.1-0.2-1.5-0.3
			c-0.4-0.1-0.8-0.1-1.1-0.2s-0.4,0-0.4,0c-1.2,0-2.3,0.1-3.2,0.4c-0.8,0.3-1.5,0.6-2.1,1.1s-0.9,0.9-1.1,1.5
			c-0.2,0.6-0.3,1.1-0.3,1.7c0,1.2,0.2,2.2,0.7,2.9c0.5,0.8,1.2,1.5,2.2,2.2c1,0.6,2.2,1.2,3.7,1.8c1.5,0.5,3.3,1.1,5.3,1.8
			c1.2,0.4,2.4,0.9,3.5,1.6s2.1,1.4,2.9,2.3c0.8,0.9,1.4,1.8,1.9,2.9s0.7,2.2,0.7,3.5c0,1.4-0.2,2.7-0.6,3.8
			c-0.4,1.1-0.9,2.1-1.6,2.9c-0.7,0.8-1.4,1.6-2.3,2.1c-0.9,0.6-1.8,1.1-2.8,1.4s-1.9,0.6-2.9,0.8s-1.9,0.2-2.7,0.2
			c-2.5,0-4.8-0.4-6.8-1.3s-3.9-2-5.7-3.5l-7.2,4.9l8-14.2c0.2,1.3,0.6,2.6,1.2,3.8c0.6,1.2,1.3,2.3,2.1,3.3c0.8,1,1.8,1.7,2.9,2.3
			s2.3,0.9,3.6,0.9c1,0,2-0.2,2.8-0.5c0.9-0.3,1.6-0.7,2.2-1.3s1.1-1.1,1.4-1.8s0.5-1.4,0.5-2.2c0-1.1-0.3-2-0.9-2.7
			c-0.6-0.8-1.4-1.4-2.3-2.1c-1-0.6-2.1-1.2-3.3-1.7c-1.2-0.5-2.5-1-3.8-1.6s-2.6-1.1-3.8-1.8c-1.2-0.7-2.3-1.4-3.3-2.3
			c-1-0.9-1.7-1.9-2.3-3.1c-0.6-1.2-0.9-2.6-0.9-4.2c0-1.2,0.2-2.4,0.7-3.6c0.5-1.2,1.2-2.3,2.3-3.2c1-0.9,2.3-1.7,3.9-2.3
			C47.8,67.5,49.7,67.2,51.9,67.2z"/>
		<path class="st3" d="M72.8,92.5c0-1.7,0.2-3.5,0.5-5.2s0.8-3.3,1.2-4.8l-4.8,0.3l13.5-14.8c-1.1,3.4-1.9,6.4-2.6,9.1l10.8,0.9
			L90,81.5l-10.4,0.8c-0.3,1.3-0.5,2.5-0.6,3.6s-0.2,1.9-0.3,2.6c-0.1,0.8-0.2,1.6-0.2,2.2c0,1.8,0.1,3.5,0.3,5
			c0.2,1.5,0.6,2.7,1,3.8s1.1,1.8,1.8,2.4c0.7,0.6,1.6,0.8,2.6,0.8c0.9,0,1.7-0.2,2.4-0.6s1.2-0.9,1.5-1.5s0.7-1.3,0.8-2
			s0.2-1.5,0.2-2.2c0-0.7-0.1-1.3-0.2-2c0.8,0.4,1.4,1.1,1.8,1.9c0.4,0.9,0.6,1.9,0.6,2.9c0,1.1-0.2,2.1-0.5,2.9
			c-0.4,0.8-0.8,1.5-1.5,2.1c-0.6,0.6-1.4,1-2.2,1.3c-0.8,0.3-1.8,0.4-2.7,0.4c-0.6,0-1.3-0.1-2.1-0.2c-0.8-0.1-1.6-0.4-2.5-0.7
			s-1.7-0.8-2.6-1.4c-0.8-0.6-1.6-1.4-2.3-2.4c-0.7-1-1.2-2.2-1.6-3.6S72.8,94.5,72.8,92.5z"/>
		<path class="st3" d="M117.4,87.4c0,1-0.1,2-0.2,3.2c-0.1,1.1-0.3,2.3-0.5,3.4s-0.5,2.3-0.8,3.4c-0.3,1.1-0.6,2.2-0.9,3.1l5.9,4.2
			l-10.4-0.4l0.6-3.4c-1.1,1.4-2.4,2.4-3.8,3.2c-1.4,0.7-3.1,1.2-5,1.3c-1.6,0.1-2.9,0-4.1-0.3s-2.1-0.8-2.9-1.5S94,102,93.7,101
			c-0.4-1-0.6-2.1-0.6-3.3c0-1.1,0.3-2.2,0.8-3.3s1.3-2,2.4-2.8s2.3-1.5,3.8-1.9s3.2-0.7,5.2-0.7c0.9,0,1.9,0.1,3.1,0.2
			s2.2,0.5,3.3,1.1c-0.1-1.1-0.3-2.3-0.5-3.4c-0.2-1.2-0.6-2.2-1.1-3.2s-1.1-1.7-1.9-2.3c-0.8-0.6-1.7-0.9-2.9-0.9
			c-1,0-1.9,0.2-2.9,0.6c-0.9,0.4-1.8,1-2.6,1.7c-0.8,0.8-1.5,1.7-2.2,2.8c-0.7,1.1-1.2,2.3-1.6,3.7l-2.3-13.6l3.5,5.4
			c0.9-1.1,1.7-1.9,2.6-2.6s1.8-1.1,2.6-1.5c0.9-0.3,1.7-0.6,2.6-0.7s1.6-0.2,2.4-0.2c1.4,0.1,2.7,0.4,3.9,0.9
			c1.2,0.5,2.3,1.2,3.1,2.2c0.9,0.9,1.6,2.1,2.1,3.5C117.1,84,117.4,85.6,117.4,87.4z M111.7,96.3c0-0.5,0.1-1,0.1-1.5
			c0-0.5,0-0.9,0-1.4V93c-0.7-0.3-1.3-0.5-2-0.6c-0.7-0.1-1.3-0.2-1.9-0.3c-0.6-0.1-1.1-0.1-1.4-0.1s-0.7,0-0.8,0
			c-1.1,0-2,0.2-2.7,0.6s-1.4,0.8-1.9,1.3c-0.5,0.5-0.9,1.1-1.1,1.8s-0.4,1.3-0.4,1.9c0,1.4,0.3,2.5,1,3.2c0.7,0.7,1.7,1.1,3,1.1
			c0.9,0,1.7-0.2,2.5-0.5c0.8-0.3,1.5-0.7,2.2-1.3s1.3-1.1,1.9-1.8C110.7,97.7,111.2,97,111.7,96.3z"/>
		<path class="st3" d="M141.4,85.8c-0.2-0.7-0.4-1.3-0.7-1.7s-0.6-0.9-1-1.2s-0.8-0.6-1.2-0.8s-0.9-0.3-1.3-0.4
			c-1-0.2-2.1-0.2-3.2,0c-0.4,0.1-0.8,0.3-1.2,0.6c-0.4,0.3-0.8,0.6-1.3,1s-1,1-1.6,1.7l0.5,16.1l5,2.5l-14.7,1.3l3.8-3.8l1.6-19.3
			l-5.9-2.7l9.5-1.8l0.1,3.5c0.6-0.8,1.3-1.4,2-1.9c0.7-0.5,1.3-0.9,1.9-1.2c0.6-0.3,1.3-0.6,1.9-0.8c1.1-0.3,2.2-0.4,3.4-0.3
			c0.5,0,1,0.1,1.5,0.2c0.5,0.1,1.1,0.2,1.6,0.4c0.5,0.2,1.1,0.4,1.6,0.8c0.5,0.3,1,0.7,1.5,1.2L141.4,85.8z"/>
		<path class="st3" d="M147.8,92.5c0-1.7,0.2-3.5,0.5-5.2s0.8-3.3,1.2-4.8l-4.8,0.3l13.5-14.8c-1.1,3.4-1.9,6.4-2.6,9.1l10.8,0.9
			l-1.4,3.3l-10.4,0.8c-0.3,1.3-0.5,2.5-0.6,3.6s-0.2,1.9-0.4,2.6c-0.1,0.8-0.2,1.6-0.2,2.2c0,1.8,0.1,3.5,0.3,5
			c0.2,1.5,0.6,2.7,1,3.8c0.5,1,1.1,1.8,1.8,2.4c0.7,0.6,1.6,0.8,2.6,0.8c0.9,0,1.7-0.2,2.4-0.6s1.1-0.9,1.5-1.5s0.7-1.3,0.8-2
			s0.2-1.5,0.2-2.2c0-0.7-0.1-1.3-0.2-2c0.8,0.4,1.4,1.1,1.8,1.9c0.4,0.9,0.6,1.9,0.6,2.9c0,1.1-0.2,2.1-0.5,2.9
			c-0.4,0.8-0.9,1.5-1.5,2.1c-0.6,0.6-1.4,1-2.2,1.3c-0.9,0.3-1.8,0.4-2.7,0.4c-0.6,0-1.3-0.1-2.1-0.2c-0.8-0.1-1.6-0.4-2.5-0.7
			s-1.7-0.8-2.6-1.4c-0.9-0.6-1.6-1.4-2.3-2.4s-1.2-2.2-1.6-3.6S147.8,94.5,147.8,92.5z"/>
	</g>
</g>
</svg>
