<?xml version="1.0" encoding="utf-8"?>
<!-- Generator: Adobe Illustrator 23.0.1, SVG Export Plug-In . SVG Version: 6.00 Build 0)  -->
<svg version="1.1" id="Layer_1" xmlns="http://www.w3.org/2000/svg" xmlns:xlink="http://www.w3.org/1999/xlink" x="0px" y="0px"
	 viewBox="0 0 595.28 841.89" style="enable-background:new 0 0 595.28 841.89;" xml:space="preserve">
<style type="text/css">
	.st0{fill:#6E4193;}
	.st1{opacity:0.41;fill:#6E4193;}
	.st2{fill:#FFFFFF;}
	.st3{fill:#F28D1C;}
</style>
<g>
	<path class="st0" d="M217.45,121.83H44.36c-6.6,0-12-5.4-12-12V59.36c0-6.6,5.4-12,12-12h173.09c6.6,0,12,5.4,12,12v50.46
		C229.45,116.43,224.05,121.83,217.45,121.83z"/>
	<path class="st1" d="M217.45,121.83H44.36c-6.6,0-12-5.4-12-12V59.36c0-6.6,5.4-12,12-12h173.09c6.6,0,12,5.4,12,12v50.46
		C229.45,116.43,224.05,121.83,217.45,121.83z"/>
	<path class="st0" d="M212.39,114.61H44.36c-6.6,0-12-5.4-12-12V59.36c0-6.6,5.4-12,12-12h168.03c6.6,0,12,5.4,12,12v43.24
		C224.39,109.21,218.99,114.61,212.39,114.61z"/>
	<g>
		<path class="st2" d="M81.08,61.88c1.25,0,2.46,0.12,3.61,0.35c1.15,0.23,2.23,0.54,3.23,0.91c1,0.38,1.9,0.81,2.71,1.29
			c0.81,0.48,1.5,0.96,2.08,1.44l7.2-4.96l-8.28,15.89l-0.64-8.33c-0.54-0.37-1.11-0.7-1.73-0.98c-0.62-0.29-1.24-0.53-1.86-0.72
			s-1.21-0.35-1.79-0.47c-0.57-0.12-1.08-0.22-1.52-0.29c-0.44-0.07-0.8-0.12-1.07-0.15c-0.27-0.03-0.41-0.04-0.43-0.04
			c-1.25,0-2.31,0.14-3.16,0.42c-0.85,0.28-1.54,0.64-2.06,1.08s-0.9,0.95-1.13,1.51c-0.23,0.56-0.35,1.13-0.35,1.7
			c0,1.16,0.24,2.15,0.72,2.95c0.48,0.8,1.21,1.52,2.19,2.15c0.98,0.63,2.22,1.21,3.74,1.76c1.51,0.54,3.29,1.13,5.34,1.76
			c1.24,0.39,2.4,0.91,3.5,1.56s2.05,1.42,2.87,2.3c0.81,0.88,1.45,1.85,1.92,2.93s0.71,2.24,0.71,3.47c0,1.44-0.2,2.72-0.61,3.83
			c-0.41,1.12-0.95,2.09-1.62,2.93c-0.67,0.84-1.45,1.55-2.34,2.13c-0.89,0.58-1.8,1.05-2.75,1.41s-1.91,0.62-2.88,0.77
			s-1.88,0.24-2.73,0.24c-2.49,0-4.75-0.42-6.78-1.27s-3.92-2.01-5.67-3.49l-7.2,4.93l8.03-14.23c0.22,1.33,0.61,2.61,1.18,3.83
			c0.56,1.23,1.26,2.32,2.09,3.28c0.83,0.96,1.79,1.73,2.88,2.3c1.09,0.57,2.28,0.86,3.57,0.86c1.03,0,1.98-0.16,2.84-0.47
			c0.86-0.31,1.59-0.73,2.2-1.26c0.61-0.53,1.08-1.14,1.43-1.83s0.51-1.42,0.51-2.17c0-1.05-0.3-1.96-0.89-2.73
			c-0.59-0.77-1.37-1.45-2.33-2.05c-0.96-0.6-2.05-1.15-3.28-1.66c-1.23-0.51-2.49-1.03-3.78-1.56c-1.29-0.53-2.55-1.13-3.78-1.77
			c-1.23-0.65-2.32-1.41-3.28-2.28c-0.96-0.88-1.74-1.91-2.33-3.09c-0.59-1.18-0.89-2.57-0.89-4.18c0-1.24,0.24-2.45,0.73-3.64
			c0.49-1.19,1.25-2.26,2.27-3.2c1.02-0.94,2.33-1.7,3.92-2.28C76.99,62.18,78.88,61.88,81.08,61.88z"/>
		<path class="st2" d="M101.95,87.24c0-1.73,0.18-3.46,0.54-5.19c0.36-1.73,0.75-3.31,1.18-4.75l-4.79,0.3l13.51-14.75
			c-1.07,3.38-1.94,6.42-2.6,9.14l10.77,0.91l-1.41,3.32l-10.44,0.75c-0.26,1.35-0.46,2.54-0.6,3.58c-0.14,1.04-0.25,1.92-0.35,2.64
			c-0.09,0.85-0.16,1.59-0.19,2.21c0,1.85,0.11,3.51,0.33,4.98c0.22,1.48,0.57,2.74,1.04,3.78c0.47,1.04,1.07,1.85,1.8,2.41
			c0.73,0.56,1.6,0.84,2.62,0.84c0.94,0,1.73-0.19,2.37-0.57c0.64-0.38,1.15-0.87,1.54-1.47s0.66-1.27,0.83-2.02
			s0.25-1.49,0.25-2.23c0-0.68-0.05-1.35-0.17-1.99c0.79,0.41,1.4,1.06,1.81,1.95c0.42,0.9,0.62,1.87,0.62,2.92
			c0,1.09-0.18,2.05-0.54,2.88c-0.36,0.83-0.85,1.53-1.48,2.09c-0.63,0.56-1.37,0.99-2.21,1.29c-0.85,0.29-1.76,0.44-2.74,0.44
			c-0.59,0-1.29-0.06-2.09-0.19c-0.8-0.13-1.64-0.36-2.5-0.71s-1.73-0.83-2.57-1.45c-0.85-0.63-1.61-1.44-2.27-2.44
			c-0.66-1-1.2-2.21-1.62-3.64S101.95,89.18,101.95,87.24z"/>
		<path class="st2" d="M146.58,82.12c0,0.98-0.05,2.03-0.17,3.16c-0.11,1.13-0.27,2.27-0.48,3.43s-0.46,2.3-0.75,3.42
			c-0.29,1.12-0.6,2.15-0.93,3.09l5.9,4.15l-10.44-0.44l0.64-3.4c-1.11,1.38-2.38,2.44-3.83,3.17c-1.45,0.73-3.12,1.17-5.02,1.31
			c-1.55,0.11-2.9,0-4.05-0.32c-1.15-0.32-2.11-0.82-2.88-1.49c-0.77-0.67-1.33-1.5-1.7-2.49c-0.37-0.99-0.55-2.09-0.55-3.31
			c0-1.13,0.28-2.22,0.83-3.28c0.55-1.06,1.35-2,2.39-2.81c1.04-0.81,2.32-1.46,3.83-1.95c1.51-0.49,3.23-0.73,5.15-0.73
			c0.89,0,1.91,0.08,3.06,0.25s2.25,0.52,3.28,1.05c-0.09-1.13-0.26-2.27-0.51-3.45c-0.25-1.17-0.61-2.24-1.09-3.2
			c-0.48-0.96-1.1-1.74-1.87-2.34c-0.77-0.6-1.72-0.9-2.87-0.9c-0.98,0-1.93,0.2-2.85,0.61c-0.92,0.41-1.79,0.99-2.59,1.74
			c-0.8,0.76-1.53,1.68-2.17,2.77c-0.65,1.09-1.19,2.32-1.63,3.68l-2.33-13.56l3.52,5.4c0.87-1.07,1.74-1.92,2.63-2.56
			s1.77-1.13,2.64-1.47c0.88-0.34,1.73-0.57,2.55-0.68s1.61-0.17,2.37-0.17c1.42,0.07,2.74,0.36,3.94,0.87
			c1.21,0.51,2.26,1.24,3.14,2.19c0.89,0.95,1.58,2.12,2.09,3.5C146.32,78.74,146.58,80.33,146.58,82.12z M140.85,90.98
			c0.04-0.52,0.06-1.01,0.08-1.49c0.02-0.48,0.03-0.95,0.03-1.41v-0.33c-0.66-0.26-1.33-0.46-2.01-0.6c-0.67-0.14-1.3-0.24-1.87-0.3
			c-0.57-0.06-1.06-0.1-1.45-0.11s-0.66-0.01-0.79-0.01c-1.05,0.04-1.96,0.23-2.74,0.58s-1.42,0.79-1.92,1.31
			c-0.51,0.53-0.89,1.11-1.13,1.76s-0.37,1.28-0.37,1.91c0,1.42,0.35,2.5,1.04,3.22c0.69,0.73,1.7,1.09,3.03,1.09
			c0.89,0,1.73-0.16,2.52-0.47c0.79-0.31,1.54-0.73,2.23-1.26c0.69-0.53,1.32-1.13,1.88-1.8C139.93,92.4,140.42,91.7,140.85,90.98z"
			/>
		<path class="st2" d="M170.58,80.49c-0.17-0.68-0.4-1.26-0.71-1.74s-0.65-0.88-1.02-1.2s-0.78-0.57-1.2-0.75
			c-0.42-0.18-0.85-0.31-1.27-0.4c-1-0.2-2.06-0.19-3.18,0.03c-0.39,0.13-0.8,0.33-1.25,0.61c-0.39,0.26-0.83,0.6-1.33,1.04
			s-1.03,1.01-1.61,1.73l0.5,16.06l4.98,2.49l-14.67,1.3l3.79-3.85l1.55-19.27l-5.9-2.69l9.52-1.8l0.11,3.46
			c0.65-0.78,1.31-1.41,1.99-1.91c0.68-0.5,1.3-0.9,1.85-1.22c0.65-0.35,1.27-0.62,1.88-0.8c1.11-0.26,2.23-0.36,3.38-0.3
			c0.48,0.02,0.98,0.07,1.51,0.17c0.53,0.09,1.06,0.24,1.61,0.43c0.54,0.19,1.07,0.45,1.59,0.77c0.52,0.32,1.01,0.72,1.49,1.2
			L170.58,80.49z"/>
		<path class="st2" d="M176.97,87.24c0-1.73,0.18-3.46,0.54-5.19c0.36-1.73,0.75-3.31,1.18-4.75l-4.79,0.3l13.51-14.75
			c-1.07,3.38-1.94,6.42-2.6,9.14l10.77,0.91l-1.41,3.32l-10.44,0.75c-0.26,1.35-0.46,2.54-0.6,3.58c-0.14,1.04-0.25,1.92-0.35,2.64
			c-0.09,0.85-0.16,1.59-0.19,2.21c0,1.85,0.11,3.51,0.33,4.98c0.22,1.48,0.57,2.74,1.04,3.78c0.47,1.04,1.07,1.85,1.8,2.41
			c0.73,0.56,1.6,0.84,2.62,0.84c0.94,0,1.73-0.19,2.37-0.57c0.64-0.38,1.15-0.87,1.54-1.47s0.66-1.27,0.83-2.02
			s0.25-1.49,0.25-2.23c0-0.68-0.05-1.35-0.17-1.99c0.79,0.41,1.4,1.06,1.81,1.95c0.42,0.9,0.62,1.87,0.62,2.92
			c0,1.09-0.18,2.05-0.54,2.88c-0.36,0.83-0.85,1.53-1.48,2.09c-0.63,0.56-1.37,0.99-2.21,1.29c-0.85,0.29-1.76,0.44-2.74,0.44
			c-0.59,0-1.29-0.06-2.09-0.19c-0.8-0.13-1.64-0.36-2.5-0.71s-1.73-0.83-2.57-1.45c-0.85-0.63-1.61-1.44-2.27-2.44
			c-0.66-1-1.2-2.21-1.62-3.64S176.97,89.18,176.97,87.24z"/>
		<path class="st3" d="M77.9,62.05c1.25,0,2.46,0.12,3.61,0.35c1.15,0.23,2.23,0.54,3.23,0.91c1,0.38,1.9,0.81,2.71,1.29
			c0.81,0.48,1.5,0.96,2.08,1.44l7.2-4.96l-8.28,15.89l-0.64-8.33c-0.54-0.37-1.11-0.7-1.73-0.98c-0.62-0.29-1.24-0.53-1.86-0.72
			s-1.21-0.35-1.79-0.47c-0.57-0.12-1.08-0.22-1.52-0.29c-0.44-0.07-0.8-0.12-1.07-0.15c-0.27-0.03-0.41-0.04-0.43-0.04
			c-1.25,0-2.31,0.14-3.16,0.42c-0.85,0.28-1.54,0.64-2.06,1.08s-0.9,0.95-1.13,1.51c-0.23,0.56-0.35,1.13-0.35,1.7
			c0,1.16,0.24,2.15,0.72,2.95c0.48,0.8,1.21,1.52,2.19,2.15c0.98,0.63,2.22,1.21,3.74,1.76c1.51,0.54,3.29,1.13,5.34,1.76
			c1.24,0.39,2.4,0.91,3.5,1.56s2.05,1.42,2.87,2.3c0.81,0.88,1.45,1.85,1.92,2.93s0.71,2.24,0.71,3.47c0,1.44-0.2,2.72-0.61,3.83
			c-0.41,1.12-0.95,2.09-1.62,2.93c-0.67,0.84-1.45,1.55-2.34,2.13c-0.89,0.58-1.8,1.05-2.75,1.41s-1.91,0.62-2.88,0.77
			s-1.88,0.24-2.73,0.24c-2.49,0-4.75-0.42-6.78-1.27s-3.92-2.01-5.67-3.49l-7.2,4.93l8.03-14.23c0.22,1.33,0.61,2.61,1.18,3.83
			c0.56,1.23,1.26,2.32,2.09,3.28c0.83,0.96,1.79,1.73,2.88,2.3c1.09,0.57,2.28,0.86,3.57,0.86c1.03,0,1.98-0.16,2.84-0.47
			c0.86-0.31,1.59-0.73,2.2-1.26c0.61-0.53,1.08-1.14,1.43-1.83s0.51-1.42,0.51-2.17c0-1.05-0.3-1.96-0.89-2.73
			c-0.59-0.77-1.37-1.45-2.33-2.05c-0.96-0.6-2.05-1.15-3.28-1.66c-1.23-0.51-2.49-1.03-3.78-1.56c-1.29-0.53-2.55-1.13-3.78-1.77
			c-1.23-0.65-2.32-1.41-3.28-2.28c-0.96-0.88-1.74-1.91-2.33-3.09c-0.59-1.18-0.89-2.57-0.89-4.18c0-1.24,0.24-2.45,0.73-3.64
			c0.49-1.19,1.25-2.26,2.27-3.2c1.02-0.94,2.33-1.7,3.92-2.28C73.81,62.34,75.7,62.05,77.9,62.05z"/>
		<path class="st3" d="M98.77,87.41c0-1.73,0.18-3.46,0.54-5.19c0.36-1.73,0.75-3.31,1.18-4.75l-4.79,0.3l13.51-14.75
			c-1.07,3.38-1.94,6.42-2.6,9.14l10.77,0.91l-1.41,3.32l-10.44,0.75c-0.26,1.35-0.46,2.54-0.6,3.58c-0.14,1.04-0.25,1.92-0.35,2.64
			c-0.09,0.85-0.16,1.59-0.19,2.21c0,1.85,0.11,3.51,0.33,4.98c0.22,1.48,0.57,2.74,1.04,3.78c0.47,1.04,1.07,1.85,1.8,2.41
			c0.73,0.56,1.6,0.84,2.62,0.84c0.94,0,1.73-0.19,2.37-0.57c0.64-0.38,1.15-0.87,1.54-1.47s0.66-1.27,0.83-2.02
			s0.25-1.49,0.25-2.23c0-0.68-0.05-1.35-0.17-1.99c0.79,0.41,1.4,1.06,1.81,1.95c0.42,0.9,0.62,1.87,0.62,2.92
			c0,1.09-0.18,2.05-0.54,2.88c-0.36,0.83-0.85,1.53-1.48,2.09c-0.63,0.56-1.37,0.99-2.21,1.29c-0.85,0.29-1.76,0.44-2.74,0.44
			c-0.59,0-1.29-0.06-2.09-0.19c-0.8-0.13-1.64-0.36-2.5-0.71s-1.73-0.83-2.57-1.45c-0.85-0.63-1.61-1.44-2.27-2.44
			c-0.66-1-1.2-2.21-1.62-3.64S98.77,89.35,98.77,87.41z"/>
		<path class="st3" d="M143.39,82.29c0,0.98-0.05,2.03-0.17,3.16c-0.11,1.13-0.27,2.27-0.48,3.43s-0.46,2.3-0.75,3.42
			c-0.29,1.12-0.6,2.15-0.93,3.09l5.9,4.15l-10.44-0.44l0.64-3.4c-1.11,1.38-2.38,2.44-3.83,3.17c-1.45,0.73-3.12,1.17-5.02,1.31
			c-1.55,0.11-2.9,0-4.05-0.32c-1.15-0.32-2.11-0.82-2.88-1.49c-0.77-0.67-1.33-1.5-1.7-2.49c-0.37-0.99-0.55-2.09-0.55-3.31
			c0-1.13,0.28-2.22,0.83-3.28c0.55-1.06,1.35-2,2.39-2.81c1.04-0.81,2.32-1.46,3.83-1.95c1.51-0.49,3.23-0.73,5.15-0.73
			c0.89,0,1.91,0.08,3.06,0.25s2.25,0.52,3.28,1.05c-0.09-1.13-0.26-2.27-0.51-3.45c-0.25-1.17-0.61-2.24-1.09-3.2
			c-0.48-0.96-1.1-1.74-1.87-2.34c-0.77-0.6-1.72-0.9-2.87-0.9c-0.98,0-1.93,0.2-2.85,0.61c-0.92,0.41-1.79,0.99-2.59,1.74
			c-0.8,0.76-1.53,1.68-2.17,2.77c-0.65,1.09-1.19,2.32-1.63,3.68l-2.33-13.56l3.52,5.4c0.87-1.07,1.74-1.92,2.63-2.56
			s1.77-1.13,2.64-1.47c0.88-0.34,1.73-0.57,2.55-0.68s1.61-0.17,2.37-0.17c1.42,0.07,2.74,0.36,3.94,0.87
			c1.21,0.51,2.26,1.24,3.14,2.19c0.89,0.95,1.58,2.12,2.09,3.5C143.14,78.91,143.39,80.5,143.39,82.29z M137.66,91.14
			c0.04-0.52,0.06-1.01,0.08-1.49c0.02-0.48,0.03-0.95,0.03-1.41v-0.33c-0.66-0.26-1.33-0.46-2.01-0.6c-0.67-0.14-1.3-0.24-1.87-0.3
			c-0.57-0.06-1.06-0.1-1.45-0.11s-0.66-0.01-0.79-0.01c-1.05,0.04-1.96,0.23-2.74,0.58s-1.42,0.79-1.92,1.31
			c-0.51,0.53-0.89,1.11-1.13,1.76s-0.37,1.28-0.37,1.91c0,1.42,0.35,2.5,1.04,3.22c0.69,0.73,1.7,1.09,3.03,1.09
			c0.89,0,1.73-0.16,2.52-0.47c0.79-0.31,1.54-0.73,2.23-1.26c0.69-0.53,1.32-1.13,1.88-1.8C136.74,92.56,137.24,91.86,137.66,91.14
			z"/>
		<path class="st3" d="M167.39,80.65c-0.17-0.68-0.4-1.26-0.71-1.74s-0.65-0.88-1.02-1.2s-0.78-0.57-1.2-0.75
			c-0.42-0.18-0.85-0.31-1.27-0.4c-1-0.2-2.06-0.19-3.18,0.03c-0.39,0.13-0.8,0.33-1.25,0.61c-0.39,0.26-0.83,0.6-1.33,1.04
			s-1.03,1.01-1.61,1.73l0.5,16.06l4.98,2.49l-14.67,1.3l3.79-3.85l1.55-19.27l-5.9-2.69l9.52-1.8l0.11,3.46
			c0.65-0.78,1.31-1.41,1.99-1.91c0.68-0.5,1.3-0.9,1.85-1.22c0.65-0.35,1.27-0.62,1.88-0.8c1.11-0.26,2.23-0.36,3.38-0.3
			c0.48,0.02,0.98,0.07,1.51,0.17c0.53,0.09,1.06,0.24,1.61,0.43c0.54,0.19,1.07,0.45,1.59,0.77c0.52,0.32,1.01,0.72,1.49,1.2
			L167.39,80.65z"/>
		<path class="st3" d="M173.79,87.41c0-1.73,0.18-3.46,0.54-5.19c0.36-1.73,0.75-3.31,1.18-4.75l-4.79,0.3l13.51-14.75
			c-1.07,3.38-1.94,6.42-2.6,9.14l10.77,0.91l-1.41,3.32l-10.44,0.75c-0.26,1.35-0.46,2.54-0.6,3.58c-0.14,1.04-0.25,1.92-0.35,2.64
			c-0.09,0.85-0.16,1.59-0.19,2.21c0,1.85,0.11,3.51,0.33,4.98c0.22,1.48,0.57,2.74,1.04,3.78c0.47,1.04,1.07,1.85,1.8,2.41
			c0.73,0.56,1.6,0.84,2.62,0.84c0.94,0,1.73-0.19,2.37-0.57c0.64-0.38,1.15-0.87,1.54-1.47s0.66-1.27,0.83-2.02
			s0.25-1.49,0.25-2.23c0-0.68-0.05-1.35-0.17-1.99c0.79,0.41,1.4,1.06,1.81,1.95c0.42,0.9,0.62,1.87,0.62,2.92
			c0,1.09-0.18,2.05-0.54,2.88c-0.36,0.83-0.85,1.53-1.48,2.09c-0.63,0.56-1.37,0.99-2.21,1.29c-0.85,0.29-1.76,0.44-2.74,0.44
			c-0.59,0-1.29-0.06-2.09-0.19c-0.8-0.13-1.64-0.36-2.5-0.71s-1.73-0.83-2.57-1.45c-0.85-0.63-1.61-1.44-2.27-2.44
			c-0.66-1-1.2-2.21-1.62-3.64S173.79,89.35,173.79,87.41z"/>
	</g>
</g>
</svg>
